<svg width="729" height="560" viewBox="0 0 729 560" fill="none" xmlns="http://www.w3.org/2000/svg">
<g filter="url(#filter0_d)">
<path d="M473.854 4H280.486C270.256 4 260.445 8.07194 253.211 15.32C245.977 22.5681 241.913 32.3987 241.913 42.649V488.698C241.913 498.949 245.977 508.779 253.211 516.027C260.445 523.275 270.256 527.347 280.486 527.347H473.854C484.085 527.347 493.896 523.275 501.13 516.027C508.364 508.779 512.428 498.949 512.428 488.698V42.649C512.428 32.3987 508.364 22.5681 501.13 15.32C493.896 8.07194 484.085 4 473.854 4V4ZM505.373 476.777C505.374 481.853 504.377 486.879 502.439 491.569C500.502 496.259 497.66 500.52 494.078 504.11C490.496 507.699 486.243 510.546 481.562 512.487C476.882 514.429 471.865 515.428 466.799 515.426H285.757C280.691 515.428 275.674 514.429 270.994 512.487C266.313 510.546 262.06 507.699 258.478 504.11C254.896 500.52 252.054 496.259 250.117 491.569C248.179 486.879 247.182 481.853 247.183 476.777V54.5704C247.182 49.4945 248.179 44.468 250.117 39.7782C252.054 35.0884 254.896 30.8271 258.478 27.2379C262.06 23.6487 266.313 20.8019 270.994 18.8601C275.674 16.9184 280.691 15.9198 285.757 15.9214H466.799C471.865 15.9198 476.882 16.9184 481.562 18.8601C486.243 20.8019 490.496 23.6487 494.078 27.2379C497.66 30.8271 500.502 35.0884 502.439 39.7782C504.377 44.468 505.374 49.4945 505.373 54.5704V476.777Z" fill="url(#paint0_linear)"/>
</g>
<path d="M440.528 15.9214V24.1352C440.528 27.0155 439.386 29.7779 437.353 31.8146C435.32 33.8513 432.563 34.9955 429.688 34.9955H322.867C319.992 34.9955 317.235 33.8513 315.203 31.8146C313.17 29.7779 312.028 27.0155 312.028 24.1352V15.9214H440.528Z" fill="#222228"/>
<path d="M505.372 54.5704V476.777C505.374 481.853 504.377 486.879 502.439 491.569C500.501 496.259 497.66 500.52 494.078 504.11C490.495 507.699 486.242 510.546 481.562 512.487C476.881 514.429 471.864 515.428 466.798 515.426H285.757C280.691 515.428 275.674 514.429 270.993 512.487C266.313 510.546 262.06 507.699 258.478 504.11C254.895 500.52 252.054 496.259 250.116 491.569C248.178 486.879 247.182 481.853 247.183 476.777V54.5704C247.182 49.4945 248.178 44.468 250.116 39.7782C252.054 35.0884 254.895 30.8271 258.478 27.2379C262.06 23.6487 266.313 20.8019 270.993 18.8602C275.674 16.9184 280.691 15.9198 285.757 15.9214H312.028V24.1352C312.028 27.0155 313.17 29.7779 315.203 31.8146C317.235 33.8513 319.992 34.9956 322.867 34.9956H429.688C432.563 34.9956 435.32 33.8513 437.353 31.8146C439.385 29.7779 440.527 27.0155 440.527 24.1352V15.9214H466.798C471.864 15.9198 476.881 16.9184 481.562 18.8602C486.242 20.8019 490.495 23.6487 494.078 27.2379C497.66 30.8271 500.501 35.0884 502.439 39.7782C504.377 44.468 505.374 49.4945 505.372 54.5704Z" fill="white" stroke="#222222" stroke-miterlimit="10"/>
<g filter="url(#filter1_d)">
<path d="M429.605 271.956L425.357 271.038C415.678 268.951 406.14 266.251 396.802 262.956V252.679C397.789 252.906 398.765 253.156 399.729 253.419C412.031 256.852 422.478 263.433 429.605 271.956Z" fill="#B7316D"/>
</g>
<g filter="url(#filter2_d)">
<path d="M362.297 252.966V261.239C352.443 264.926 342.36 267.969 332.112 270.347C339.563 262.428 349.022 256.688 359.478 253.74C360.394 253.454 361.346 253.156 362.297 252.966Z" fill="#B7316D"/>
</g>
<path d="M322.284 176.86C326.282 153.088 337.335 133.251 352.125 122.141C354.595 120.279 357.227 118.643 359.989 117.253C362.54 115.961 365.21 114.919 367.961 114.141C370.634 113.377 373.376 112.878 376.147 112.651C377.277 112.484 378.36 112.484 379.55 112.484C380.454 112.484 381.358 112.484 382.251 112.58C382.572 112.58 382.881 112.58 383.191 112.651C383.5 112.723 384 112.723 384.38 112.77C384.761 112.818 385.439 112.902 385.975 112.985L386.891 113.14H387.069L388.414 113.402H388.497C389.366 113.593 390.222 113.808 391.079 114.058C391.579 114.201 392.078 114.344 392.566 114.511L393.756 114.892L394.292 115.095L395.053 115.369L396.338 115.894L397.611 116.454L398.135 116.693L398.384 116.812C399.515 117.348 400.633 118.004 401.728 118.576C402.109 118.791 402.477 119.017 402.858 119.256C405.792 121.071 408.552 123.155 411.104 125.479L412.008 126.313C412.615 126.873 413.198 127.505 413.793 128.054L413.923 128.197C414.185 128.447 414.423 128.709 414.673 128.972L415.423 129.782L416.196 130.641C416.886 131.427 417.564 132.226 418.231 133.025C418.504 133.359 418.778 133.704 419.04 134.05L419.135 134.169L420.17 135.54C420.92 136.554 421.645 137.591 422.347 138.664C422.704 139.2 423.049 139.737 423.394 140.285C423.739 140.833 423.906 141.096 424.156 141.477L424.977 142.872C425.488 143.766 426 144.672 426.488 145.59C426.976 146.508 427.285 147.104 427.678 147.879L427.868 148.272C428.356 149.25 428.82 150.251 429.272 151.265C429.474 151.694 429.665 152.135 429.855 152.588C430.319 153.685 430.771 154.793 431.211 155.926C431.378 156.367 431.556 156.82 431.711 157.273C431.866 157.726 432.08 158.274 432.258 158.787C432.437 159.3 432.627 159.848 432.806 160.384C433.163 161.433 433.496 162.494 433.817 163.579C433.984 164.116 434.138 164.652 434.281 165.201C434.424 165.749 434.59 166.285 434.733 166.834C434.876 167.382 435.019 167.931 435.15 168.491C435.233 168.801 435.316 169.111 435.376 169.433C435.435 169.755 435.59 170.315 435.685 170.768C435.78 171.221 435.864 171.531 435.935 171.96C436.185 173.057 436.399 174.165 436.601 175.286C436.708 175.858 436.803 176.478 436.899 177.015H436.792C436.518 176.025 436.232 175.06 435.923 174.082C435.614 173.104 435.304 172.163 434.983 171.221C434.662 170.279 434.317 169.325 433.96 168.407C433.603 167.489 433.246 166.56 432.865 165.654C432.484 164.748 432.139 163.937 431.759 163.09C431.685 162.903 431.602 162.72 431.509 162.542C431.211 161.875 430.89 161.207 430.569 160.551C430.462 160.313 430.343 160.074 430.224 159.848L430.152 159.705C429.843 159.073 429.522 158.513 429.201 157.845L429.034 157.547C428.665 156.844 428.273 156.14 427.844 155.461C427.741 155.256 427.626 155.057 427.499 154.865C427.118 154.197 426.722 153.542 426.309 152.898C425.917 152.254 425.524 151.622 425.12 151.002C425.084 150.936 425.044 150.872 425.001 150.812C424.798 150.502 424.596 150.192 424.382 149.894C424.168 149.596 424.227 149.655 424.144 149.536C423.846 149.095 423.537 148.666 423.228 148.236C422.788 147.605 422.323 147.044 421.871 146.389L420.967 145.197C420.693 144.839 420.396 144.481 420.099 144.124C419.801 143.766 419.765 143.706 419.575 143.504L419.468 143.385C419.087 142.908 418.671 142.443 418.278 141.978C417.695 141.322 417.088 140.678 416.493 140.058C415.898 139.439 415.304 138.866 414.697 138.258C414.09 137.65 413.281 136.923 412.555 136.291L411.806 135.648C411.461 135.361 411.115 135.063 410.77 134.789C410.08 134.217 409.366 133.669 408.653 133.144L407.582 132.369C407.332 132.19 407.082 132.012 406.82 131.845C406.142 131.368 405.452 130.927 404.75 130.498L403.703 129.866C402.703 129.27 401.692 128.674 400.657 128.209C400.3 128.018 399.931 127.839 399.562 127.672L399.396 127.589C398.67 127.255 397.92 126.921 397.183 126.623H397.088L396.064 126.218C395.315 125.932 394.565 125.657 393.804 125.419C393.423 125.292 393.026 125.173 392.614 125.061L391.293 124.692C390.853 124.573 390.401 124.453 389.961 124.358L389.128 124.167L387.938 123.929C387.153 123.774 386.355 123.655 385.558 123.547C384.761 123.44 383.833 123.345 382.965 123.273C382.096 123.202 381.489 123.178 380.74 123.154H379.55C378.122 123.154 376.706 123.226 375.314 123.357C373.507 123.523 371.711 123.798 369.936 124.179C366.795 124.869 363.73 125.872 360.786 127.171C343.189 134.92 329.054 153.303 322.403 176.8" fill="url(#paint1_linear)"/>
<g filter="url(#filter3_d)">
<path d="M482.468 445.09C478.238 452.666 473.467 459.925 468.191 466.811V390.252C468.191 387.722 467.188 385.297 465.403 383.508C463.618 381.719 461.196 380.715 458.672 380.715H292.098C289.574 380.715 287.153 381.719 285.368 383.508C283.583 385.297 282.58 387.722 282.58 390.252V461.959C278.666 456.571 275.09 450.945 271.872 445.114C266.553 435.207 262.353 408.158 264.733 390.276C267.112 372.394 299.237 285.368 306.376 278.215C308.756 275.831 315.966 273.804 328.983 271.062L332.1 270.383C342.348 268.004 352.431 264.962 362.285 261.275V261.501C362.563 262.01 362.861 262.511 363.178 263.003C365.691 267.193 369.583 270.376 374.184 272.004C375.909 272.583 377.718 272.877 379.538 272.874H380.133C385.903 272.671 391.079 270.752 394.743 265.876C395.446 264.953 396.082 263.981 396.647 262.967H396.79C406.129 266.263 415.666 268.962 425.345 271.05L429.593 271.968C439.956 274.257 445.846 276.093 447.952 278.203C455.091 285.356 487.216 372.382 489.595 390.264C491.975 408.146 487.822 435.183 482.468 445.09Z" fill="url(#paint2_linear)"/>
</g>
<path d="M396.802 246.194V262.693L396.659 262.956C396.094 263.969 395.458 264.941 394.755 265.864C391.091 270.74 385.915 272.66 380.145 272.862H379.55C377.73 272.865 375.921 272.571 374.195 271.992C369.595 270.364 365.703 267.181 363.19 262.991C362.872 262.507 362.575 262.006 362.297 261.489V247.339C367.762 249.774 373.709 250.933 379.687 250.726C385.665 250.52 391.517 248.954 396.802 246.146V246.194Z" fill="url(#paint3_linear)"/>
<g filter="url(#filter4_d)">
<path d="M468.191 390.252V494.444C468.191 495.273 467.862 496.067 467.278 496.653C466.693 497.239 465.9 497.568 465.073 497.568H285.697C284.871 497.568 284.078 497.239 283.493 496.653C282.909 496.067 282.58 495.273 282.58 494.444V390.252C282.58 387.722 283.583 385.296 285.368 383.508C287.153 381.719 289.574 380.715 292.099 380.715H458.672C461.197 380.715 463.618 381.719 465.403 383.508C467.188 385.296 468.191 387.722 468.191 390.252Z" fill="url(#paint4_linear)"/>
</g>
<g filter="url(#filter5_d)">
<path d="M324.224 342.566L312.147 380.715" stroke="#463A96" stroke-width="0.75" stroke-miterlimit="10"/>
</g>
<g filter="url(#filter6_d)">
<path d="M430.973 380.715L426.547 342.566" stroke="#463A96" stroke-width="0.75" stroke-miterlimit="10"/>
</g>
<path d="M427.618 179.018L426.845 178.255C426.274 177.658 425.726 177.051 425.203 176.431C416.72 166.309 414.173 152.504 395.612 147.056L394.898 146.866C386.32 144.481 376.147 144.577 369.306 140.357C368.865 140.082 368.449 139.796 368.033 139.486C367.016 140.536 365.891 141.475 364.677 142.288C361.108 144.672 359.609 144.016 353.969 148.249C342.701 156.701 337.585 166.56 330.268 186.743L328.983 190.319V206.329C329.471 207.068 330.173 208.034 330.875 208.964C332.494 211.154 333.796 213.562 334.742 216.117C339.667 229.23 348.282 239.757 358.919 245.61C360.025 246.218 361.143 246.802 362.298 247.279C367.763 249.715 373.709 250.873 379.687 250.667C385.665 250.46 391.517 248.894 396.802 246.087C397.873 245.539 398.932 244.895 399.955 244.287C408.151 238.957 414.751 231.5 419.052 222.709C419.516 221.803 419.956 220.885 420.384 219.944C421.456 217.569 422.88 215.371 424.608 213.423C425.227 212.719 425.798 212.016 426.405 211.289C426.857 210.728 427.297 210.168 427.725 209.596V179.447C427.719 179.347 427.719 179.248 427.725 179.149L427.618 179.018ZM396.802 233.605C396.804 233.982 396.731 234.354 396.588 234.702C396.445 235.05 396.235 235.366 395.969 235.632C395.704 235.898 395.388 236.109 395.041 236.252C394.694 236.395 394.322 236.468 393.947 236.467H379.431C379.055 236.468 378.683 236.395 378.336 236.252C377.989 236.109 377.674 235.898 377.408 235.632C377.143 235.366 376.932 235.05 376.789 234.702C376.647 234.354 376.574 233.982 376.575 233.605V232.175C376.574 231.799 376.647 231.426 376.789 231.078C376.932 230.73 377.143 230.414 377.408 230.148C377.674 229.882 377.989 229.672 378.336 229.528C378.683 229.385 379.055 229.312 379.431 229.314H393.947C394.671 229.312 395.368 229.588 395.897 230.084C396.425 230.58 396.745 231.26 396.79 231.984C396.796 232.048 396.796 232.111 396.79 232.175L396.802 233.605Z" fill="#FFF7D7"/>
<path d="M428.332 209.643C418.684 218.248 408.104 225.741 396.79 231.984L396.207 232.294" stroke="#2A2A74" stroke-width="2" stroke-miterlimit="10"/>
<g filter="url(#filter7_d)">
<path d="M443.204 185.205V209.047C443.204 211.261 442.327 213.383 440.765 214.948C439.203 216.513 437.085 217.392 434.876 217.392H430.307C429.622 217.392 428.965 217.12 428.481 216.635C427.997 216.149 427.725 215.491 427.725 214.805V179.447C427.719 179.347 427.719 179.248 427.725 179.149C427.8 178.518 428.103 177.938 428.577 177.516C429.05 177.094 429.661 176.861 430.295 176.86H434.864C435.489 176.858 436.112 176.93 436.72 177.074H436.827C438.091 177.379 439.265 177.98 440.254 178.827L440.337 178.898C441.243 179.678 441.969 180.645 442.465 181.735C442.96 182.824 443.212 184.008 443.204 185.205Z" fill="url(#paint5_linear)"/>
</g>
<g filter="url(#filter8_d)">
<path d="M396.802 232.175V233.605C396.804 233.981 396.731 234.354 396.588 234.702C396.445 235.05 396.235 235.366 395.969 235.632C395.704 235.898 395.388 236.109 395.041 236.252C394.694 236.395 394.322 236.468 393.946 236.466H379.431C379.055 236.468 378.683 236.395 378.336 236.252C377.989 236.109 377.674 235.898 377.408 235.632C377.143 235.366 376.932 235.05 376.789 234.702C376.646 234.354 376.574 233.981 376.575 233.605V232.175C376.574 231.798 376.646 231.426 376.789 231.078C376.932 230.73 377.143 230.414 377.408 230.148C377.674 229.882 377.989 229.671 378.336 229.528C378.683 229.385 379.055 229.312 379.431 229.314H393.946C394.671 229.312 395.368 229.588 395.897 230.084C396.425 230.58 396.745 231.26 396.79 231.984C396.8 232.047 396.804 232.111 396.802 232.175Z" fill="#333394"/>
</g>
<path d="M368.033 139.486C367.016 140.536 365.891 141.475 364.677 142.288C361.108 144.672 359.609 144.016 353.969 148.248C342.701 156.7 337.585 166.559 330.268 186.742L328.983 190.319V179.423C328.983 178.736 328.711 178.078 328.227 177.593C327.742 177.108 327.086 176.836 326.401 176.836H322.439C329.09 153.339 343.225 134.956 360.822 127.207C361.289 129.379 362.05 131.476 363.083 133.442C363.85 134.906 364.798 136.267 365.903 137.495C366.545 138.228 367.258 138.895 368.033 139.486Z" fill="#FFD983"/>
<path d="M398.099 116.74L398.349 116.859C399.479 117.396 400.597 118.052 401.692 118.624C402.073 118.838 402.442 119.065 402.822 119.303C405.756 121.119 408.516 123.202 411.068 125.526L411.972 126.361C412.579 126.921 413.162 127.553 413.757 128.101L413.888 128.244C414.149 128.495 414.387 128.757 414.637 129.019L415.387 129.83L416.16 130.688C416.85 131.475 417.528 132.274 418.195 133.072C418.468 133.406 418.742 133.752 419.004 134.098L419.099 134.217L420.134 135.588C420.884 136.601 421.609 137.638 422.311 138.711C422.668 139.248 423.013 139.784 423.359 140.333C423.704 140.881 423.87 141.143 424.12 141.525L424.941 142.919C425.464 143.814 425.964 144.72 426.452 145.638C426.94 146.556 427.249 147.152 427.642 147.926L427.832 148.32C428.32 149.297 428.784 150.299 429.236 151.312C429.438 151.741 429.629 152.182 429.819 152.635C430.283 153.732 430.735 154.841 431.176 155.973C431.342 156.414 431.521 156.867 431.675 157.32C431.83 157.774 432.044 158.322 432.223 158.835C432.401 159.347 432.591 159.896 432.77 160.432C433.127 161.481 433.46 162.542 433.781 163.627C433.948 164.163 434.103 164.7 434.245 165.248C434.388 165.797 434.555 166.333 434.697 166.881C434.84 167.43 434.983 167.978 435.114 168.538C435.197 168.848 435.28 169.158 435.34 169.48C435.399 169.802 435.554 170.362 435.649 170.815C435.744 171.268 435.828 171.578 435.899 172.008C436.149 173.104 436.363 174.213 436.565 175.334C436.673 175.906 436.78 176.526 436.863 177.062C438.162 177.379 439.366 178.005 440.373 178.886C443.205 153.804 434.281 133.192 425.357 122.021C421.947 117.9 417.768 114.482 413.055 111.96L416.696 111.328L417.076 111.233C422.383 109.361 423.573 103.543 423.573 103.543C423.573 103.543 421.193 104.735 415.613 104.139C408.022 103.329 390.163 96.9865 372.351 101.755C369.305 102.566 365.581 104.926 361.905 107.811L361.167 107.585C351.185 104.974 336.514 113.545 328.721 126.659C316.751 146.842 316.74 167.06 318.643 177.479C319.656 177.053 320.745 176.834 321.844 176.836H322.296C326.294 153.065 337.347 133.227 352.136 122.117C354.604 120.264 357.232 118.636 359.989 117.253C362.54 115.961 365.21 114.919 367.961 114.141C370.634 113.377 373.376 112.878 376.147 112.651C377.277 112.484 378.36 112.484 379.55 112.484C380.454 112.484 381.358 112.484 382.251 112.58C382.572 112.58 382.881 112.58 383.191 112.651C383.5 112.723 384 112.723 384.38 112.77C384.761 112.818 385.439 112.902 385.975 112.985C386.283 113.02 386.588 113.072 386.891 113.14H387.069L388.414 113.402H388.497C389.366 113.593 390.222 113.808 391.079 114.058C391.579 114.201 392.078 114.344 392.566 114.511L393.756 114.892L394.291 115.095" fill="#FFD983"/>
<path d="M436.744 177.074C436.136 176.93 435.513 176.858 434.888 176.86H430.319C429.685 176.861 429.074 177.095 428.601 177.516C428.127 177.938 427.824 178.519 427.749 179.149L427.618 179.018L426.844 178.255C426.273 177.658 425.726 177.05 425.203 176.431C416.719 166.309 414.173 152.504 395.612 147.056L394.898 146.866C386.319 144.481 376.147 144.577 369.305 140.357C368.865 140.082 368.449 139.796 368.032 139.486C367.246 138.905 366.521 138.246 365.867 137.519C364.762 136.291 363.814 134.93 363.047 133.466C362.013 131.5 361.253 129.403 360.786 127.231C363.729 125.931 366.794 124.929 369.936 124.239C371.71 123.857 373.506 123.583 375.314 123.416C376.706 123.285 378.122 123.214 379.549 123.214H380.739C381.489 123.214 382.227 123.214 382.964 123.333C383.702 123.452 384.701 123.488 385.558 123.607C386.415 123.726 387.14 123.834 387.938 123.989L389.127 124.227L389.96 124.418C390.401 124.513 390.853 124.632 391.293 124.751L392.614 125.121C392.994 125.232 393.391 125.352 393.803 125.479C394.565 125.717 395.314 125.991 396.064 126.277L397.087 126.683H397.182C397.92 126.981 398.67 127.315 399.396 127.648L399.562 127.732C399.931 127.899 400.3 128.078 400.657 128.268C401.692 128.781 402.703 129.329 403.703 129.925L404.75 130.557C405.452 130.986 406.142 131.427 406.82 131.904C407.082 132.071 407.332 132.25 407.581 132.429L408.652 133.204C409.366 133.728 410.08 134.277 410.77 134.849C411.115 135.123 411.46 135.421 411.805 135.707L412.555 136.351C413.285 136.987 413.999 137.642 414.697 138.318C415.303 138.902 415.886 139.51 416.493 140.118C417.1 140.726 417.683 141.382 418.278 142.037C418.694 142.502 419.111 142.967 419.468 143.444L419.575 143.563C419.765 143.766 419.932 143.969 420.098 144.183C420.265 144.398 420.693 144.899 420.967 145.256L421.871 146.448C422.323 147.056 422.787 147.64 423.227 148.296C423.537 148.725 423.846 149.155 424.144 149.596C424.227 149.715 424.31 149.834 424.382 149.953C424.453 150.072 424.798 150.561 425 150.871C425.044 150.932 425.084 150.996 425.119 151.062C425.548 151.682 425.94 152.254 426.309 152.957C426.678 153.661 427.106 154.257 427.499 154.924C427.625 155.116 427.74 155.315 427.844 155.521C428.237 156.2 428.629 156.903 429.034 157.607L429.2 157.905C429.522 158.513 429.843 159.097 430.152 159.765L430.224 159.908C430.343 160.134 430.462 160.372 430.569 160.611C430.89 161.267 431.211 161.934 431.509 162.602C431.602 162.78 431.685 162.963 431.758 163.15C432.139 163.997 432.508 164.843 432.865 165.713C433.222 166.584 433.615 167.537 433.96 168.467C434.305 169.397 434.65 170.327 434.983 171.281C435.316 172.234 435.625 173.176 435.923 174.142C436.22 175.107 436.47 176.085 436.744 177.074Z" fill="#FFD983"/>
<g filter="url(#filter9_d)">
<path d="M315.895 184.012V207.855C315.895 210.068 316.772 212.191 318.334 213.756C319.896 215.321 322.014 216.2 324.223 216.2H328.792C329.477 216.2 330.134 215.928 330.618 215.442C331.102 214.957 331.374 214.299 331.374 213.613V178.254C331.38 178.155 331.38 178.056 331.374 177.956C331.299 177.326 330.995 176.746 330.522 176.324C330.049 175.902 329.438 175.669 328.804 175.668H324.235C323.61 175.665 322.987 175.737 322.379 175.882H322.272C321.008 176.187 319.834 176.788 318.845 177.635L318.762 177.706C317.856 178.485 317.13 179.453 316.634 180.542C316.139 181.632 315.887 182.816 315.895 184.012Z" fill="url(#paint6_linear)"/>
</g>
<g filter="url(#filter10_d)">
<path d="M724 276.88V292.616C724 298.908 721.506 304.942 717.065 309.391C712.625 313.84 706.602 316.339 700.323 316.339H602.52C597.13 316.327 591.905 314.472 587.708 311.082C583.511 307.693 580.594 302.97 579.438 297.694L430.117 397.405L578.843 288.336V276.88C578.843 270.588 581.338 264.554 585.778 260.105C590.218 255.656 596.241 253.156 602.52 253.156H700.323C706.602 253.156 712.625 255.656 717.065 260.105C721.506 264.554 724 270.588 724 276.88Z" fill="url(#paint7_linear)"/>
</g>
<g filter="url(#filter11_dd)">
<circle cx="640" cy="112" r="28.5" stroke="url(#paint8_linear)" stroke-width="3"/>
</g>
<g filter="url(#filter12_dd)">
<circle cx="154" cy="369" r="13.5" stroke="url(#paint9_linear)" stroke-width="3"/>
</g>
<g filter="url(#filter13_d)">
<circle cx="584" cy="517" r="19" fill="url(#paint10_linear)"/>
</g>
<g filter="url(#filter14_d)">
<path d="M298.219 460.632L148.726 231.066H94.4948C89.6983 231.066 85.0983 229.156 81.7067 225.758C78.3151 222.36 76.4097 217.751 76.4097 212.945V196.732C76.4097 191.926 78.3151 187.317 81.7067 183.919C85.0983 180.521 89.6983 178.612 94.4948 178.612H178.829C183.624 178.615 188.222 180.525 191.613 183.922C195.004 187.32 196.911 191.927 196.914 196.732V212.945C196.911 217.75 195.004 222.357 191.613 225.755C188.222 229.152 183.624 231.062 178.829 231.066H158.602L298.219 460.632Z" fill="url(#paint11_linear)"/>
</g>
<circle opacity="0.3" cx="377" cy="439" r="14" fill="white"/>
<defs>
<filter id="filter0_d" x="233.913" y="0" width="286.516" height="539.347" filterUnits="userSpaceOnUse" color-interpolation-filters="sRGB">
<feFlood flood-opacity="0" result="BackgroundImageFix"/>
<feColorMatrix in="SourceAlpha" type="matrix" values="0 0 0 0 0 0 0 0 0 0 0 0 0 0 0 0 0 0 127 0"/>
<feOffset dy="4"/>
<feGaussianBlur stdDeviation="4"/>
<feColorMatrix type="matrix" values="0 0 0 0 0 0 0 0 0 0 0 0 0 0 0 0 0 0 0.31 0"/>
<feBlend mode="normal" in2="BackgroundImageFix" result="effect1_dropShadow"/>
<feBlend mode="normal" in="SourceGraphic" in2="effect1_dropShadow" result="shape"/>
</filter>
<filter id="filter1_d" x="383.802" y="236.679" width="58.8031" height="45.2768" filterUnits="userSpaceOnUse" color-interpolation-filters="sRGB">
<feFlood flood-opacity="0" result="BackgroundImageFix"/>
<feColorMatrix in="SourceAlpha" type="matrix" values="0 0 0 0 0 0 0 0 0 0 0 0 0 0 0 0 0 0 127 0"/>
<feOffset dy="-3"/>
<feGaussianBlur stdDeviation="6.5"/>
<feColorMatrix type="matrix" values="0 0 0 0 0 0 0 0 0 0 0 0 0 0 0 0 0 0 0.06 0"/>
<feBlend mode="normal" in2="BackgroundImageFix" result="effect1_dropShadow"/>
<feBlend mode="normal" in="SourceGraphic" in2="effect1_dropShadow" result="shape"/>
</filter>
<filter id="filter2_d" x="319.112" y="236.966" width="56.1856" height="43.3814" filterUnits="userSpaceOnUse" color-interpolation-filters="sRGB">
<feFlood flood-opacity="0" result="BackgroundImageFix"/>
<feColorMatrix in="SourceAlpha" type="matrix" values="0 0 0 0 0 0 0 0 0 0 0 0 0 0 0 0 0 0 127 0"/>
<feOffset dy="-3"/>
<feGaussianBlur stdDeviation="6.5"/>
<feColorMatrix type="matrix" values="0 0 0 0 0 0 0 0 0 0 0 0 0 0 0 0 0 0 0.06 0"/>
<feBlend mode="normal" in2="BackgroundImageFix" result="effect1_dropShadow"/>
<feBlend mode="normal" in="SourceGraphic" in2="effect1_dropShadow" result="shape"/>
</filter>
<filter id="filter3_d" x="260.051" y="257.275" width="234.231" height="213.536" filterUnits="userSpaceOnUse" color-interpolation-filters="sRGB">
<feFlood flood-opacity="0" result="BackgroundImageFix"/>
<feColorMatrix in="SourceAlpha" type="matrix" values="0 0 0 0 0 0 0 0 0 0 0 0 0 0 0 0 0 0 127 0"/>
<feOffset/>
<feGaussianBlur stdDeviation="2"/>
<feColorMatrix type="matrix" values="0 0 0 0 0 0 0 0 0 0 0 0 0 0 0 0 0 0 0.3 0"/>
<feBlend mode="normal" in2="BackgroundImageFix" result="effect1_dropShadow"/>
<feBlend mode="normal" in="SourceGraphic" in2="effect1_dropShadow" result="shape"/>
</filter>
<filter id="filter4_d" x="265.58" y="361.715" width="219.611" height="150.853" filterUnits="userSpaceOnUse" color-interpolation-filters="sRGB">
<feFlood flood-opacity="0" result="BackgroundImageFix"/>
<feColorMatrix in="SourceAlpha" type="matrix" values="0 0 0 0 0 0 0 0 0 0 0 0 0 0 0 0 0 0 127 0"/>
<feOffset dy="-2"/>
<feGaussianBlur stdDeviation="8.5"/>
<feColorMatrix type="matrix" values="0 0 0 0 0 0 0 0 0 0 0 0 0 0 0 0 0 0 0.19 0"/>
<feBlend mode="normal" in2="BackgroundImageFix" result="effect1_dropShadow"/>
<feBlend mode="normal" in="SourceGraphic" in2="effect1_dropShadow" result="shape"/>
</filter>
<filter id="filter5_d" x="295.79" y="326.453" width="44.7916" height="70.3747" filterUnits="userSpaceOnUse" color-interpolation-filters="sRGB">
<feFlood flood-opacity="0" result="BackgroundImageFix"/>
<feColorMatrix in="SourceAlpha" type="matrix" values="0 0 0 0 0 0 0 0 0 0 0 0 0 0 0 0 0 0 127 0"/>
<feOffset/>
<feGaussianBlur stdDeviation="8"/>
<feColorMatrix type="matrix" values="0 0 0 0 0.16127 0 0 0 0 0.123385 0 0 0 0 0.429167 0 0 0 1 0"/>
<feBlend mode="normal" in2="BackgroundImageFix" result="effect1_dropShadow"/>
<feBlend mode="normal" in="SourceGraphic" in2="effect1_dropShadow" result="shape"/>
</filter>
<filter id="filter6_d" x="410.175" y="326.523" width="37.1711" height="70.2348" filterUnits="userSpaceOnUse" color-interpolation-filters="sRGB">
<feFlood flood-opacity="0" result="BackgroundImageFix"/>
<feColorMatrix in="SourceAlpha" type="matrix" values="0 0 0 0 0 0 0 0 0 0 0 0 0 0 0 0 0 0 127 0"/>
<feOffset/>
<feGaussianBlur stdDeviation="8"/>
<feColorMatrix type="matrix" values="0 0 0 0 0.16127 0 0 0 0 0.123385 0 0 0 0 0.429167 0 0 0 1 0"/>
<feBlend mode="normal" in2="BackgroundImageFix" result="effect1_dropShadow"/>
<feBlend mode="normal" in="SourceGraphic" in2="effect1_dropShadow" result="shape"/>
</filter>
<filter id="filter7_d" x="424.72" y="174.86" width="21.4843" height="46.5326" filterUnits="userSpaceOnUse" color-interpolation-filters="sRGB">
<feFlood flood-opacity="0" result="BackgroundImageFix"/>
<feColorMatrix in="SourceAlpha" type="matrix" values="0 0 0 0 0 0 0 0 0 0 0 0 0 0 0 0 0 0 127 0"/>
<feOffset dy="1"/>
<feGaussianBlur stdDeviation="1.5"/>
<feColorMatrix type="matrix" values="0 0 0 0 0 0 0 0 0 0 0 0 0 0 0 0 0 0 0.24 0"/>
<feBlend mode="normal" in2="BackgroundImageFix" result="effect1_dropShadow"/>
<feBlend mode="normal" in="SourceGraphic" in2="effect1_dropShadow" result="shape"/>
</filter>
<filter id="filter8_d" x="372.575" y="227.313" width="28.2275" height="15.1529" filterUnits="userSpaceOnUse" color-interpolation-filters="sRGB">
<feFlood flood-opacity="0" result="BackgroundImageFix"/>
<feColorMatrix in="SourceAlpha" type="matrix" values="0 0 0 0 0 0 0 0 0 0 0 0 0 0 0 0 0 0 127 0"/>
<feOffset dy="2"/>
<feGaussianBlur stdDeviation="2"/>
<feColorMatrix type="matrix" values="0 0 0 0 0 0 0 0 0 0 0 0 0 0 0 0 0 0 0.25 0"/>
<feBlend mode="normal" in2="BackgroundImageFix" result="effect1_dropShadow"/>
<feBlend mode="normal" in="SourceGraphic" in2="effect1_dropShadow" result="shape"/>
</filter>
<filter id="filter9_d" x="312.895" y="173.667" width="21.4842" height="46.5326" filterUnits="userSpaceOnUse" color-interpolation-filters="sRGB">
<feFlood flood-opacity="0" result="BackgroundImageFix"/>
<feColorMatrix in="SourceAlpha" type="matrix" values="0 0 0 0 0 0 0 0 0 0 0 0 0 0 0 0 0 0 127 0"/>
<feOffset dy="1"/>
<feGaussianBlur stdDeviation="1.5"/>
<feColorMatrix type="matrix" values="0 0 0 0 0 0 0 0 0 0 0 0 0 0 0 0 0 0 0.24 0"/>
<feBlend mode="normal" in2="BackgroundImageFix" result="effect1_dropShadow"/>
<feBlend mode="normal" in="SourceGraphic" in2="effect1_dropShadow" result="shape"/>
</filter>
<filter id="filter10_d" x="425.117" y="250.156" width="303.883" height="154.248" filterUnits="userSpaceOnUse" color-interpolation-filters="sRGB">
<feFlood flood-opacity="0" result="BackgroundImageFix"/>
<feColorMatrix in="SourceAlpha" type="matrix" values="0 0 0 0 0 0 0 0 0 0 0 0 0 0 0 0 0 0 127 0"/>
<feOffset dy="2"/>
<feGaussianBlur stdDeviation="2.5"/>
<feColorMatrix type="matrix" values="0 0 0 0 0 0 0 0 0 0 0 0 0 0 0 0 0 0 0.09 0"/>
<feBlend mode="normal" in2="BackgroundImageFix" result="effect1_dropShadow"/>
<feBlend mode="normal" in="SourceGraphic" in2="effect1_dropShadow" result="shape"/>
</filter>
<filter id="filter11_dd" x="606" y="78" width="68" height="72" filterUnits="userSpaceOnUse" color-interpolation-filters="sRGB">
<feFlood flood-opacity="0" result="BackgroundImageFix"/>
<feColorMatrix in="SourceAlpha" type="matrix" values="0 0 0 0 0 0 0 0 0 0 0 0 0 0 0 0 0 0 127 0"/>
<feOffset/>
<feGaussianBlur stdDeviation="2"/>
<feColorMatrix type="matrix" values="0 0 0 0 1 0 0 0 0 1 0 0 0 0 1 0 0 0 0.92 0"/>
<feBlend mode="normal" in2="BackgroundImageFix" result="effect1_dropShadow"/>
<feColorMatrix in="SourceAlpha" type="matrix" values="0 0 0 0 0 0 0 0 0 0 0 0 0 0 0 0 0 0 127 0"/>
<feOffset dy="4"/>
<feGaussianBlur stdDeviation="2"/>
<feColorMatrix type="matrix" values="0 0 0 0 0 0 0 0 0 0 0 0 0 0 0 0 0 0 0.1 0"/>
<feBlend mode="normal" in2="effect1_dropShadow" result="effect2_dropShadow"/>
<feBlend mode="normal" in="SourceGraphic" in2="effect2_dropShadow" result="shape"/>
</filter>
<filter id="filter12_dd" x="135" y="350" width="38" height="42" filterUnits="userSpaceOnUse" color-interpolation-filters="sRGB">
<feFlood flood-opacity="0" result="BackgroundImageFix"/>
<feColorMatrix in="SourceAlpha" type="matrix" values="0 0 0 0 0 0 0 0 0 0 0 0 0 0 0 0 0 0 127 0"/>
<feOffset/>
<feGaussianBlur stdDeviation="2"/>
<feColorMatrix type="matrix" values="0 0 0 0 1 0 0 0 0 1 0 0 0 0 1 0 0 0 0.92 0"/>
<feBlend mode="normal" in2="BackgroundImageFix" result="effect1_dropShadow"/>
<feColorMatrix in="SourceAlpha" type="matrix" values="0 0 0 0 0 0 0 0 0 0 0 0 0 0 0 0 0 0 127 0"/>
<feOffset dy="4"/>
<feGaussianBlur stdDeviation="2"/>
<feColorMatrix type="matrix" values="0 0 0 0 0 0 0 0 0 0 0 0 0 0 0 0 0 0 0.1 0"/>
<feBlend mode="normal" in2="effect1_dropShadow" result="effect2_dropShadow"/>
<feBlend mode="normal" in="SourceGraphic" in2="effect2_dropShadow" result="shape"/>
</filter>
<filter id="filter13_d" x="559" y="494" width="50" height="50" filterUnits="userSpaceOnUse" color-interpolation-filters="sRGB">
<feFlood flood-opacity="0" result="BackgroundImageFix"/>
<feColorMatrix in="SourceAlpha" type="matrix" values="0 0 0 0 0 0 0 0 0 0 0 0 0 0 0 0 0 0 127 0"/>
<feOffset dy="2"/>
<feGaussianBlur stdDeviation="3"/>
<feColorMatrix type="matrix" values="0 0 0 0 0 0 0 0 0 0 0 0 0 0 0 0 0 0 0.11 0"/>
<feBlend mode="normal" in2="BackgroundImageFix" result="effect1_dropShadow"/>
<feBlend mode="normal" in="SourceGraphic" in2="effect1_dropShadow" result="shape"/>
</filter>
<filter id="filter14_d" x="72.4097" y="176.612" width="229.809" height="290.021" filterUnits="userSpaceOnUse" color-interpolation-filters="sRGB">
<feFlood flood-opacity="0" result="BackgroundImageFix"/>
<feColorMatrix in="SourceAlpha" type="matrix" values="0 0 0 0 0 0 0 0 0 0 0 0 0 0 0 0 0 0 127 0"/>
<feOffset dy="2"/>
<feGaussianBlur stdDeviation="2"/>
<feColorMatrix type="matrix" values="0 0 0 0 0 0 0 0 0 0 0 0 0 0 0 0 0 0 0.09 0"/>
<feBlend mode="normal" in2="BackgroundImageFix" result="effect1_dropShadow"/>
<feBlend mode="normal" in="SourceGraphic" in2="effect1_dropShadow" result="shape"/>
</filter>
<linearGradient id="paint0_linear" x1="377.17" y1="4" x2="377.17" y2="527.347" gradientUnits="userSpaceOnUse">
<stop stop-color="#2B2B32"/>
<stop offset="1" stop-color="#1F1F24"/>
</linearGradient>
<linearGradient id="paint1_linear" x1="336.264" y1="144.934" x2="426.286" y2="144.756" gradientUnits="userSpaceOnUse">
<stop stop-color="#24248A"/>
<stop offset="0.552083" stop-color="#5252AA"/>
<stop offset="1" stop-color="#24248A"/>
</linearGradient>
<linearGradient id="paint2_linear" x1="377.634" y1="272.469" x2="376.893" y2="477.659" gradientUnits="userSpaceOnUse">
<stop offset="0.19" stop-color="#637CD2"/>
<stop offset="1" stop-color="#483E91"/>
</linearGradient>
<linearGradient id="paint3_linear" x1="379.478" y1="274.77" x2="379.574" y2="247.97" gradientUnits="userSpaceOnUse">
<stop offset="0.58" stop-color="#FFF7D7"/>
<stop offset="1" stop-color="#F7F0D5"/>
</linearGradient>
<linearGradient id="paint4_linear" x1="375.742" y1="352.306" x2="374.997" y2="508" gradientUnits="userSpaceOnUse">
<stop stop-color="#F5F5F5"/>
<stop offset="1" stop-color="#AEAEC7"/>
</linearGradient>
<linearGradient id="paint5_linear" x1="435.462" y1="176.86" x2="435.462" y2="217.392" gradientUnits="userSpaceOnUse">
<stop offset="0.379528" stop-color="#333394"/>
<stop offset="1" stop-color="#262667"/>
</linearGradient>
<linearGradient id="paint6_linear" x1="323.637" y1="175.667" x2="323.637" y2="216.2" gradientUnits="userSpaceOnUse">
<stop offset="0.344825" stop-color="#333394"/>
<stop offset="1" stop-color="#262667"/>
</linearGradient>
<linearGradient id="paint7_linear" x1="642.5" y1="227" x2="576.988" y2="475.497" gradientUnits="userSpaceOnUse">
<stop offset="0.0635595" stop-color="#EEEEFF"/>
<stop offset="0.9898" stop-color="#A2A2EB"/>
</linearGradient>
<linearGradient id="paint8_linear" x1="640" y1="82" x2="640" y2="142" gradientUnits="userSpaceOnUse">
<stop stop-color="white"/>
<stop offset="1" stop-color="#F8F8F8"/>
</linearGradient>
<linearGradient id="paint9_linear" x1="154" y1="354" x2="154" y2="384" gradientUnits="userSpaceOnUse">
<stop stop-color="white"/>
<stop offset="1" stop-color="#F8F8F8"/>
</linearGradient>
<linearGradient id="paint10_linear" x1="584.826" y1="503.783" x2="578.217" y2="547.565" gradientUnits="userSpaceOnUse">
<stop offset="0.239221" stop-color="white"/>
<stop offset="0.955961" stop-color="#ECECEC"/>
</linearGradient>
<linearGradient id="paint11_linear" x1="128" y1="167" x2="135.226" y2="420.994" gradientUnits="userSpaceOnUse">
<stop stop-color="#EEEEFF"/>
<stop offset="1" stop-color="#A2A2EB"/>
</linearGradient>
</defs>
</svg>
