<svg width="704" height="621" viewBox="0 0 704 621" fill="none" xmlns="http://www.w3.org/2000/svg">
<path d="M166.8 620.09C463.12 620.09 703.32 493.31 703.32 336.92C703.32 180.53 398.5 23 0 0V606.14C55.1027 615.52 110.905 620.187 166.8 620.09Z" fill="url(#paint0_linear)"/>
<g opacity="0.44">
<path opacity="0.44" d="M676 407C679.314 407 682 358.423 682 298.5C682 238.577 679.314 190 676 190C672.686 190 670 238.577 670 298.5C670 358.423 672.686 407 676 407Z" fill="#848484"/>
</g>
<g opacity="0.57">
<path opacity="0.57" d="M91 471C94.3137 471 97 400.485 97 313.5C97 226.515 94.3137 156 91 156C87.6863 156 85 226.515 85 313.5C85 400.485 87.6863 471 91 471Z" fill="#414141"/>
</g>
<g opacity="0.57">
<path opacity="0.57" d="M245.5 484C332.485 484 403 477.284 403 469C403 460.716 332.485 454 245.5 454C158.515 454 88 460.716 88 469C88 477.284 158.515 484 245.5 484Z" fill="#414141"/>
</g>
<g opacity="0.57">
<path opacity="0.57" d="M493 457C577.5 457 646 450.284 646 442C646 433.716 577.5 427 493 427C408.5 427 340 433.716 340 442C340 450.284 408.5 457 493 457Z" fill="#414141"/>
</g>
<g opacity="0.57">
<path opacity="0.57" d="M369 562C444.663 562 506 555.284 506 547C506 538.716 444.663 532 369 532C293.337 532 232 538.716 232 547C232 555.284 293.337 562 369 562Z" fill="#414141"/>
</g>
<g opacity="0.57">
<path opacity="0.57" d="M681 386C684.314 386 687 363.614 687 336C687 308.386 684.314 286 681 286C677.686 286 675 308.386 675 336C675 363.614 677.686 386 681 386Z" fill="#848484"/>
</g>
<path d="M89 143.93V484L100.08 472.75L111.17 484L122.24 472.75L133.32 484L144.41 472.75L155.49 484L166.57 472.75L177.65 484L188.73 472.75L199.81 484L210.89 472.75L222 484L233.08 472.75L244.13 484L255.22 472.75L266.3 484L277.38 472.75L288.47 484L299.56 472.75L310.64 484L321.72 472.75L332.81 484L343.89 472.75L355 484L366.09 472.75V143.93H89Z" fill="url(#paint1_linear)"/>
<path d="M201.4 184.08H118.4C117.562 184.08 116.758 183.747 116.166 183.154C115.573 182.562 115.24 181.758 115.24 180.92C115.24 180.082 115.573 179.278 116.166 178.686C116.758 178.093 117.562 177.76 118.4 177.76H201.4C201.815 177.76 202.226 177.842 202.609 178.001C202.993 178.159 203.341 178.392 203.634 178.686C203.928 178.979 204.161 179.327 204.319 179.711C204.478 180.094 204.56 180.505 204.56 180.92C204.56 181.335 204.478 181.746 204.319 182.129C204.161 182.513 203.928 182.861 203.634 183.154C203.341 183.448 202.993 183.681 202.609 183.839C202.226 183.998 201.815 184.08 201.4 184.08Z" fill="#A3A3A3"/>
<path d="M211.28 207.74H118.44C117.602 207.74 116.798 207.407 116.206 206.814C115.613 206.222 115.28 205.418 115.28 204.58C115.28 203.742 115.613 202.938 116.206 202.345C116.798 201.753 117.602 201.42 118.44 201.42H211.28C212.118 201.42 212.922 201.753 213.514 202.345C214.107 202.938 214.44 203.742 214.44 204.58C214.44 205.418 214.107 206.222 213.514 206.814C212.922 207.407 212.118 207.74 211.28 207.74Z" fill="#A3A3A3"/>
<path d="M219.17 253.08H118.44C117.602 253.08 116.798 252.747 116.206 252.154C115.613 251.562 115.28 250.758 115.28 249.92C115.28 249.082 115.613 248.278 116.206 247.686C116.798 247.093 117.602 246.76 118.44 246.76H219.17C220.008 246.76 220.812 247.093 221.404 247.686C221.997 248.278 222.33 249.082 222.33 249.92C222.33 250.758 221.997 251.562 221.404 252.154C220.812 252.747 220.008 253.08 219.17 253.08Z" fill="#A3A3A3"/>
<path d="M183.62 275.76H118.44C117.602 275.76 116.798 275.427 116.206 274.834C115.613 274.242 115.28 273.438 115.28 272.6C115.28 271.762 115.613 270.958 116.206 270.365C116.798 269.773 117.602 269.44 118.44 269.44H183.62C184.458 269.44 185.262 269.773 185.854 270.365C186.447 270.958 186.78 271.762 186.78 272.6C186.78 273.438 186.447 274.242 185.854 274.834C185.262 275.427 184.458 275.76 183.62 275.76Z" fill="#A3A3A3"/>
<path d="M196.46 297.44H118.46C117.622 297.44 116.818 297.107 116.226 296.515C115.633 295.922 115.3 295.118 115.3 294.28C115.3 293.442 115.633 292.638 116.226 292.046C116.818 291.453 117.622 291.12 118.46 291.12H196.46C196.875 291.12 197.286 291.202 197.669 291.361C198.053 291.519 198.401 291.752 198.695 292.046C198.988 292.339 199.221 292.687 199.38 293.071C199.538 293.454 199.62 293.865 199.62 294.28C199.62 294.695 199.538 295.106 199.38 295.489C199.221 295.873 198.988 296.221 198.695 296.515C198.401 296.808 198.053 297.041 197.669 297.2C197.286 297.358 196.875 297.44 196.46 297.44Z" fill="#A3A3A3"/>
<path d="M204.36 343.78H118.44C117.602 343.78 116.798 343.447 116.206 342.854C115.613 342.262 115.28 341.458 115.28 340.62C115.28 339.782 115.613 338.978 116.206 338.385C116.798 337.793 117.602 337.46 118.44 337.46H204.36C205.198 337.46 206.002 337.793 206.594 338.385C207.187 338.978 207.52 339.782 207.52 340.62C207.52 341.458 207.187 342.262 206.594 342.854C206.002 343.447 205.198 343.78 204.36 343.78Z" fill="#A3A3A3"/>
<path d="M211.28 367.43H118.44C117.602 367.43 116.798 367.097 116.206 366.504C115.613 365.912 115.28 365.108 115.28 364.27C115.28 363.432 115.613 362.628 116.206 362.035C116.798 361.443 117.602 361.11 118.44 361.11H211.28C212.118 361.11 212.922 361.443 213.514 362.035C214.107 362.628 214.44 363.432 214.44 364.27C214.44 365.108 214.107 365.912 213.514 366.504C212.922 367.097 212.118 367.43 211.28 367.43Z" fill="#A3A3A3"/>
<path d="M226 399.27H130.35C126.018 399.267 121.862 400.985 118.796 404.045C115.731 407.106 114.005 411.258 114 415.59V422.39C114.003 424.535 114.428 426.657 115.251 428.638C116.074 430.618 117.279 432.417 118.797 433.931C120.315 435.446 122.117 436.646 124.099 437.465C126.082 438.283 128.206 438.703 130.35 438.7H226C230.329 438.703 234.482 436.986 237.546 433.928C240.611 430.869 242.335 426.719 242.34 422.39V415.59C242.339 413.446 241.915 411.322 241.093 409.342C240.271 407.361 239.067 405.561 237.55 404.046C236.033 402.53 234.232 401.329 232.25 400.509C230.268 399.69 228.144 399.269 226 399.27Z" fill="#F1F1F1"/>
<g opacity="0.44">
<path opacity="0.44" d="M233 547C236.314 547 239 487.006 239 413C239 338.994 236.314 279 233 279C229.686 279 227 338.994 227 413C227 487.006 229.686 547 233 547Z" fill="#848484"/>
</g>
<path d="M473.32 453.89V182.8H694V389.8C694 389.8 692 399.53 680.5 419.03C669 438.53 661 447.5 661 447.5L658.67 444.92L649.85 453.92L641.02 444.92L632.19 453.92L623.36 444.92L614.53 453.92L605.7 444.92L596.87 453.92L588.05 444.92L579.22 453.92L570.4 444.92L561.57 453.92L552.75 444.92L543.92 453.92L535.09 444.92L526.27 453.92L517.44 444.92L508.62 453.92L499.79 444.92L490.97 453.92L482.14 444.92L473.32 453.89Z" fill="url(#paint2_linear)"/>
<path d="M530.15 313.51H498.37" stroke="#BFBFBF" stroke-width="7.02028" stroke-miterlimit="10" stroke-linecap="round"/>
<path d="M529.77 297.27H498" stroke="#BFBFBF" stroke-width="7.02028" stroke-miterlimit="10" stroke-linecap="round"/>
<path d="M529.77 259.3H498" stroke="#BFBFBF" stroke-width="7.02028" stroke-miterlimit="10" stroke-linecap="round"/>
<path d="M529.77 242.31H498" stroke="#BFBFBF" stroke-width="7.02028" stroke-miterlimit="10" stroke-linecap="round"/>
<path d="M529.77 349.4H498" stroke="#BFBFBF" stroke-width="7.02028" stroke-miterlimit="10" stroke-linecap="round"/>
<path d="M529.77 367.53H498" stroke="#BFBFBF" stroke-width="7.02028" stroke-miterlimit="10" stroke-linecap="round"/>
<path d="M516.6 422C516.523 421.738 516.39 421.496 516.21 421.29C516.033 421.08 515.811 420.912 515.56 420.8C515.314 420.679 515.044 420.618 514.77 420.62C514.499 420.609 514.229 420.661 513.98 420.77C512.021 421.601 509.918 422.039 507.79 422.06C503.14 422.06 500.44 419.61 500.44 416.06C500.44 412.83 502.31 410.9 507.06 409.06C512.8 407.06 516.35 404.06 516.35 399.12C516.35 393.65 511.81 389.59 504.98 389.59C502.942 389.561 500.914 389.875 498.98 390.52C498.509 390.704 498.124 391.061 497.905 391.518C497.686 391.974 497.649 392.497 497.8 392.98C497.89 393.224 498.022 393.451 498.19 393.65C498.362 393.844 498.571 394.001 498.804 394.112C499.038 394.224 499.291 394.288 499.55 394.3C499.812 394.311 500.074 394.27 500.32 394.18C501.875 393.618 503.516 393.33 505.17 393.33C509.96 393.33 511.8 396.21 511.8 398.59C511.8 401.88 509.64 403.49 504.8 405.36C498.86 407.65 495.8 410.52 495.8 415.67C495.8 421.05 499.8 425.78 508.11 425.78C510.636 425.77 513.138 425.291 515.49 424.37C515.934 424.17 516.29 423.814 516.49 423.37C516.691 422.933 516.719 422.437 516.57 421.98L516.6 422Z" fill="#969696"/>
<path d="M509.58 387.42V428.22" stroke="#969696" stroke-width="2.23034" stroke-miterlimit="10" stroke-linecap="round"/>
<path d="M502.77 387.42V428.22" stroke="#969696" stroke-width="2.23034" stroke-miterlimit="10" stroke-linecap="round"/>
<path d="M661 224.47H618C617.345 224.47 616.717 224.21 616.253 223.747C615.79 223.283 615.53 222.655 615.53 222C615.53 221.345 615.79 220.717 616.253 220.253C616.717 219.79 617.345 219.53 618 219.53H661C661.324 219.53 661.646 219.594 661.945 219.718C662.245 219.842 662.517 220.024 662.747 220.253C662.976 220.483 663.158 220.755 663.282 221.055C663.406 221.354 663.47 221.676 663.47 222C663.47 222.324 663.406 222.646 663.282 222.945C663.158 223.245 662.976 223.517 662.747 223.747C662.517 223.976 662.245 224.158 661.945 224.282C661.646 224.406 661.324 224.47 661 224.47Z" fill="#B5B5B5"/>
<path d="M661 242.47H618C617.345 242.47 616.717 242.21 616.253 241.747C615.79 241.283 615.53 240.655 615.53 240C615.53 239.345 615.79 238.717 616.253 238.253C616.717 237.79 617.345 237.53 618 237.53H661C661.655 237.53 662.283 237.79 662.747 238.253C663.21 238.717 663.47 239.345 663.47 240C663.47 240.655 663.21 241.283 662.747 241.747C662.283 242.21 661.655 242.47 661 242.47Z" fill="#B5B5B5"/>
<path d="M661 276.47H618C617.345 276.47 616.717 276.21 616.253 275.747C615.79 275.283 615.53 274.655 615.53 274C615.53 273.345 615.79 272.717 616.253 272.253C616.717 271.79 617.345 271.53 618 271.53H661C661.655 271.53 662.283 271.79 662.747 272.253C663.21 272.717 663.47 273.345 663.47 274C663.47 274.655 663.21 275.283 662.747 275.747C662.283 276.21 661.655 276.47 661 276.47Z" fill="#B5B5B5"/>
<path d="M661 293.47H618C617.345 293.47 616.717 293.21 616.253 292.747C615.79 292.283 615.53 291.655 615.53 291C615.53 290.345 615.79 289.717 616.253 289.253C616.717 288.79 617.345 288.53 618 288.53H661C661.655 288.53 662.283 288.79 662.747 289.253C663.21 289.717 663.47 290.345 663.47 291C663.47 291.655 663.21 292.283 662.747 292.747C662.283 293.21 661.655 293.47 661 293.47Z" fill="#B5B5B5"/>
<path d="M661 309.47H618C617.345 309.47 616.717 309.21 616.253 308.747C615.79 308.283 615.53 307.655 615.53 307C615.53 306.345 615.79 305.717 616.253 305.253C616.717 304.79 617.345 304.53 618 304.53H661C661.655 304.53 662.283 304.79 662.747 305.253C663.21 305.717 663.47 306.345 663.47 307C663.47 307.655 663.21 308.283 662.747 308.747C662.283 309.21 661.655 309.47 661 309.47Z" fill="#B5B5B5"/>
<path d="M661 344.47H618C617.345 344.47 616.717 344.21 616.253 343.747C615.79 343.283 615.53 342.655 615.53 342C615.53 341.345 615.79 340.717 616.253 340.253C616.717 339.79 617.345 339.53 618 339.53H661C661.655 339.53 662.283 339.79 662.747 340.253C663.21 340.717 663.47 341.345 663.47 342C663.47 342.655 663.21 343.283 662.747 343.747C662.283 344.21 661.655 344.47 661 344.47Z" fill="#B5B5B5"/>
<path d="M661 362.47H618C617.345 362.47 616.717 362.21 616.253 361.747C615.79 361.283 615.53 360.655 615.53 360C615.53 359.345 615.79 358.717 616.253 358.253C616.717 357.79 617.345 357.53 618 357.53H661C661.655 357.53 662.283 357.79 662.747 358.253C663.21 358.717 663.47 359.345 663.47 360C663.47 360.655 663.21 361.283 662.747 361.747C662.283 362.21 661.655 362.47 661 362.47Z" fill="#B5B5B5"/>
<path d="M525 307H494" stroke="#BFBFBF" stroke-width="8.8255" stroke-miterlimit="10" stroke-linecap="round"/>
<path d="M524 291H493" stroke="#BFBFBF" stroke-width="8.8255" stroke-miterlimit="10" stroke-linecap="round"/>
<path d="M524 254H493" stroke="#BFBFBF" stroke-width="8.8255" stroke-miterlimit="10" stroke-linecap="round"/>
<path d="M524 237H493" stroke="#BFBFBF" stroke-width="8.8255" stroke-miterlimit="10" stroke-linecap="round"/>
<path d="M524 342H493" stroke="#BFBFBF" stroke-width="8.8255" stroke-miterlimit="10" stroke-linecap="round"/>
<path d="M524 360H493" stroke="#BFBFBF" stroke-width="8.8255" stroke-miterlimit="10" stroke-linecap="round"/>
<path d="M577.82 386H655.18C657.748 385.965 660.225 386.952 662.067 388.742C663.908 390.533 664.963 392.982 665 395.55V405.45C664.963 408.018 663.908 410.467 662.067 412.258C660.225 414.048 657.748 415.035 655.18 415H577.82C575.252 415.035 572.775 414.048 570.933 412.258C569.092 410.467 568.037 408.018 568 405.45V395.55C568.037 392.982 569.092 390.533 570.933 388.742C572.775 386.952 575.252 385.965 577.82 386Z" fill="#F1F1F1"/>
<path d="M511.88 413.22C511.8 412.959 511.667 412.718 511.49 412.51C511.309 412.304 511.088 412.137 510.84 412.02C510.594 411.901 510.324 411.84 510.05 411.84C509.776 411.835 509.504 411.886 509.25 411.99C507.285 412.825 505.175 413.263 503.04 413.28C498.37 413.28 495.64 410.84 495.64 407.28C495.64 404.01 497.53 402.17 502.29 400.34C508.07 398.34 511.62 395.34 511.62 390.44C511.62 385 507.07 380.96 500.2 380.96C498.162 380.936 496.135 381.25 494.2 381.89C493.96 381.976 493.739 382.108 493.55 382.28C493.361 382.452 493.208 382.659 493.1 382.89C492.991 383.116 492.928 383.361 492.914 383.612C492.9 383.863 492.936 384.113 493.02 384.35C493.098 384.6 493.231 384.829 493.41 385.02C493.583 385.214 493.794 385.371 494.03 385.48C494.265 385.593 494.52 385.658 494.78 385.67C495.038 385.679 495.295 385.642 495.54 385.56C497.101 384.991 498.749 384.7 500.41 384.7C505.24 384.7 507.07 387.55 507.07 389.93C507.07 393.2 504.92 394.8 500.07 396.67C494.07 398.95 491.07 401.78 491.07 406.93C491.07 412.32 495.07 416.98 503.44 416.98C505.975 416.968 508.486 416.494 510.85 415.58C511.294 415.38 511.65 415.024 511.85 414.58C512.06 414.144 512.1 413.644 511.96 413.18L511.88 413.22Z" fill="#969696"/>
<path d="M504 380V419" stroke="#969696" stroke-width="2.80386" stroke-miterlimit="10" stroke-linecap="round"/>
<path d="M498 380V419" stroke="#969696" stroke-width="2.80386" stroke-miterlimit="10" stroke-linecap="round"/>
<g opacity="0.21">
<path opacity="0.21" d="M585 503C588.314 503 591 417.263 591 311.5C591 205.737 588.314 120 585 120C581.686 120 579 205.737 579 311.5C579 417.263 581.686 503 585 503Z" fill="#848484"/>
</g>
<g opacity="0.07">
<path opacity="0.07" d="M424.5 127C514.246 127 587 124.314 587 121C587 117.686 514.246 115 424.5 115C334.754 115 262 117.686 262 121C262 124.314 334.754 127 424.5 127Z" fill="#848484"/>
</g>
<path d="M220.24 560.06V110.18H585.78V513.81C585.78 513.81 576 520.5 559.5 530C543 539.5 529 546 529 546C529 546 523 548.56 519 550.5C515 552.44 508.09 555.5 508.09 555.5L498 545.18L483.4 560.06L468.77 545.18L454.15 560.06L439.52 545.18L424.91 560.06L410.29 545.18L395.66 560.06L381 545.18L366.4 560.06L351.77 545.18L337.15 560.06L322.54 545.18L308 560.06L293.38 545.18L278.76 560.06L264.13 545.18L249.52 560.06L234.91 545.18L220.24 560.06Z" fill="url(#paint3_linear)"/>
<path d="M555 532.5C572.5 522.5 585.5 514 585.5 514V480.5L549.5 492L493 523L498 545L508 555.5C524.085 548.718 539.776 541.04 555 532.5Z" fill="url(#paint4_linear)"/>
<path d="M366.26 185.49H260.55C259.841 185.521 259.132 185.408 258.468 185.158C257.803 184.908 257.196 184.526 256.683 184.035C256.17 183.544 255.762 182.954 255.483 182.301C255.205 181.648 255.061 180.945 255.061 180.235C255.061 179.525 255.205 178.822 255.483 178.169C255.762 177.516 256.17 176.927 256.683 176.436C257.196 175.944 257.803 175.562 258.468 175.312C259.132 175.062 259.841 174.949 260.55 174.98H366.26C367.614 175.039 368.893 175.619 369.83 176.598C370.768 177.577 371.291 178.88 371.291 180.235C371.291 181.59 370.768 182.893 369.83 183.873C368.893 184.852 367.614 185.431 366.26 185.49Z" fill="#A3A3A3"/>
<path d="M378.84 215.64H260.55C259.841 215.671 259.132 215.558 258.468 215.308C257.803 215.058 257.196 214.676 256.683 214.185C256.17 213.694 255.762 213.104 255.483 212.451C255.205 211.798 255.061 211.095 255.061 210.385C255.061 209.675 255.205 208.972 255.483 208.319C255.762 207.666 256.17 207.076 256.683 206.585C257.196 206.094 257.803 205.712 258.468 205.462C259.132 205.212 259.841 205.099 260.55 205.13H378.84C380.194 205.189 381.473 205.769 382.41 206.748C383.348 207.727 383.871 209.03 383.871 210.385C383.871 211.74 383.348 213.043 382.41 214.022C381.473 215.001 380.194 215.581 378.84 215.64Z" fill="#A3A3A3"/>
<path d="M388.91 273.42H260.55C259.158 273.42 257.822 272.867 256.838 271.882C255.853 270.898 255.3 269.562 255.3 268.17C255.3 266.778 255.853 265.442 256.838 264.458C257.822 263.473 259.158 262.92 260.55 262.92H388.91C390.302 262.92 391.638 263.473 392.622 264.458C393.607 265.442 394.16 266.778 394.16 268.17C394.16 269.562 393.607 270.898 392.622 271.882C391.638 272.867 390.302 273.42 388.91 273.42Z" fill="#A3A3A3"/>
<path d="M360 330H260.55C259.841 330.031 259.132 329.918 258.468 329.668C257.803 329.418 257.196 329.035 256.683 328.544C256.17 328.053 255.762 327.464 255.483 326.811C255.205 326.158 255.061 325.455 255.061 324.745C255.061 324.035 255.205 323.332 255.483 322.679C255.762 322.026 256.17 321.436 256.683 320.945C257.196 320.454 257.803 320.072 258.468 319.822C259.132 319.572 259.841 319.459 260.55 319.49H360C360.709 319.459 361.418 319.572 362.082 319.822C362.747 320.072 363.354 320.454 363.867 320.945C364.38 321.436 364.788 322.026 365.067 322.679C365.346 323.332 365.489 324.035 365.489 324.745C365.489 325.455 365.346 326.158 365.067 326.811C364.788 327.464 364.38 328.053 363.867 328.544C363.354 329.035 362.747 329.418 362.082 329.668C361.418 329.918 360.709 330.031 360 330Z" fill="#A3A3A3"/>
<path d="M370 389H260.55C259.158 389 257.822 388.447 256.838 387.462C255.853 386.478 255.3 385.142 255.3 383.75C255.3 382.358 255.853 381.022 256.838 380.038C257.822 379.053 259.158 378.5 260.55 378.5H370C371.392 378.5 372.728 379.053 373.712 380.038C374.697 381.022 375.25 382.358 375.25 383.75C375.25 385.142 374.697 386.478 373.712 387.462C372.728 388.447 371.392 389 370 389Z" fill="#A3A3A3"/>
<path d="M378.84 419.13H260.55C259.158 419.13 257.822 418.577 256.838 417.592C255.853 416.608 255.3 415.272 255.3 413.88C255.3 412.487 255.853 411.152 256.838 410.168C257.822 409.183 259.158 408.63 260.55 408.63H378.84C380.232 408.63 381.568 409.183 382.552 410.168C383.537 411.152 384.09 412.487 384.09 413.88C384.09 415.272 383.537 416.608 382.552 417.592C381.568 418.577 380.232 419.13 378.84 419.13Z" fill="#A3A3A3"/>
<path d="M545 330.53H492.1C491.313 330.563 490.528 330.436 489.792 330.157C489.056 329.879 488.383 329.454 487.815 328.909C487.247 328.364 486.795 327.71 486.486 326.986C486.177 326.261 486.018 325.482 486.018 324.695C486.018 323.908 486.177 323.129 486.486 322.404C486.795 321.68 487.247 321.026 487.815 320.481C488.383 319.936 489.056 319.511 489.792 319.233C490.528 318.954 491.313 318.827 492.1 318.86H545C546.506 318.922 547.929 319.564 548.972 320.652C550.016 321.739 550.598 323.188 550.598 324.695C550.598 326.202 550.016 327.651 548.972 328.738C547.929 329.826 546.506 330.468 545 330.53Z" fill="#A3A3A3"/>
<path d="M545.59 303.52H492.74C491.953 303.553 491.168 303.426 490.432 303.147C489.696 302.869 489.023 302.444 488.455 301.899C487.887 301.354 487.435 300.7 487.126 299.976C486.818 299.251 486.658 298.472 486.658 297.685C486.658 296.898 486.818 296.119 487.126 295.394C487.435 294.67 487.887 294.016 488.455 293.471C489.023 292.926 489.696 292.501 490.432 292.223C491.168 291.944 491.953 291.817 492.74 291.85H545.59C546.377 291.817 547.162 291.944 547.898 292.223C548.634 292.501 549.307 292.926 549.875 293.471C550.443 294.016 550.895 294.67 551.204 295.394C551.513 296.119 551.672 296.898 551.672 297.685C551.672 298.472 551.513 299.251 551.204 299.976C550.895 300.7 550.443 301.354 549.875 301.899C549.307 302.444 548.634 302.869 547.898 303.147C547.162 303.426 546.377 303.553 545.59 303.52Z" fill="#A3A3A3"/>
<path d="M545.59 390.2H492.74C491.953 390.232 491.168 390.106 490.432 389.827C489.696 389.549 489.023 389.124 488.455 388.579C487.887 388.034 487.435 387.38 487.126 386.655C486.818 385.931 486.658 385.152 486.658 384.365C486.658 383.578 486.818 382.799 487.126 382.074C487.435 381.35 487.887 380.696 488.455 380.151C489.023 379.606 489.696 379.181 490.432 378.903C491.168 378.624 491.953 378.497 492.74 378.53H545.59C546.377 378.497 547.162 378.624 547.898 378.903C548.634 379.181 549.307 379.606 549.875 380.151C550.443 380.696 550.895 381.35 551.204 382.074C551.513 382.799 551.672 383.578 551.672 384.365C551.672 385.152 551.513 385.931 551.204 386.655C550.895 387.38 550.443 388.034 549.875 388.579C549.307 389.124 548.634 389.549 547.898 389.827C547.162 390.106 546.377 390.232 545.59 390.2Z" fill="#A3A3A3"/>
<path d="M545.59 420.34H492.74C491.953 420.373 491.168 420.246 490.432 419.967C489.696 419.689 489.023 419.264 488.455 418.719C487.887 418.174 487.435 417.52 487.126 416.796C486.818 416.071 486.658 415.292 486.658 414.505C486.658 413.718 486.818 412.939 487.126 412.214C487.435 411.49 487.887 410.836 488.455 410.291C489.023 409.746 489.696 409.321 490.432 409.043C491.168 408.764 491.953 408.637 492.74 408.67H545.59C546.377 408.637 547.162 408.764 547.898 409.043C548.634 409.321 549.307 409.746 549.875 410.291C550.443 410.836 550.895 411.49 551.204 412.214C551.513 412.939 551.672 413.718 551.672 414.505C551.672 415.292 551.513 416.071 551.204 416.796C550.895 417.52 550.443 418.174 549.875 418.719C549.307 419.264 548.634 419.689 547.898 419.967C547.162 420.246 546.377 420.373 545.59 420.34Z" fill="#A3A3A3"/>
<path d="M406 462.24H267.4C264.083 462.24 260.901 463.556 258.554 465.9C256.207 468.244 254.885 471.423 254.88 474.74V500C254.885 503.317 256.207 506.496 258.554 508.84C260.901 511.184 264.083 512.5 267.4 512.5H406C409.31 512.489 412.481 511.168 414.82 508.826C417.159 506.483 418.475 503.31 418.48 500V474.74C418.475 471.43 417.159 468.257 414.82 465.914C412.481 463.572 409.31 462.251 406 462.24Z" fill="#E8E8E8"/>
<path d="M518.2 502.66C518.323 502.248 518.531 501.866 518.81 501.54C519.09 501.22 519.429 500.958 519.81 500.77C520.199 500.589 520.622 500.494 521.05 500.49C521.479 500.48 521.905 500.561 522.3 500.73C525.368 502.035 528.666 502.715 532 502.73C539.3 502.73 543.56 498.89 543.56 493.34C543.56 488.18 540.56 485.24 533.15 482.34C524.15 479.12 518.57 474.5 518.57 466.73C518.57 458.12 525.69 451.73 536.43 451.73C539.648 451.684 542.85 452.185 545.9 453.21C546.275 453.34 546.621 453.543 546.916 453.808C547.212 454.072 547.453 454.393 547.624 454.751C547.795 455.109 547.894 455.497 547.913 455.894C547.933 456.29 547.874 456.686 547.74 457.06C547.608 457.447 547.401 457.804 547.13 458.11C546.849 458.417 546.509 458.665 546.13 458.84C545.761 459.019 545.36 459.122 544.95 459.14C544.541 459.157 544.134 459.092 543.75 458.95C541.31 458.069 538.735 457.619 536.14 457.62C528.6 457.62 525.74 462.12 525.74 465.88C525.74 471.04 529.09 473.57 536.74 476.51C546.08 480.11 550.83 484.61 550.83 492.65C550.83 501.17 544.53 508.52 531.5 508.52C527.572 508.537 523.674 507.832 520 506.44C519.295 506.151 518.722 505.611 518.393 504.923C518.064 504.236 518.002 503.45 518.22 502.72L518.2 502.66Z" fill="#727272"/>
<path d="M529.23 514.24C528.766 514.24 528.321 514.056 527.993 513.727C527.664 513.399 527.48 512.954 527.48 512.49V448.42C527.48 447.956 527.664 447.511 527.993 447.182C528.321 446.854 528.766 446.67 529.23 446.67C529.694 446.67 530.139 446.854 530.467 447.182C530.796 447.511 530.98 447.956 530.98 448.42V512.49C530.98 512.954 530.796 513.399 530.467 513.727C530.139 514.056 529.694 514.24 529.23 514.24Z" fill="#727272"/>
<path d="M539.92 514.24C539.456 514.24 539.011 514.056 538.682 513.727C538.354 513.399 538.17 512.954 538.17 512.49V448.42C538.17 447.956 538.354 447.511 538.682 447.182C539.011 446.854 539.456 446.67 539.92 446.67C540.384 446.67 540.829 446.854 541.157 447.182C541.486 447.511 541.67 447.956 541.67 448.42V512.49C541.67 512.954 541.486 513.399 541.157 513.727C540.829 514.056 540.384 514.24 539.92 514.24Z" fill="#727272"/>
<path d="M514.12 299.84C492.388 299.801 471.156 293.32 453.106 281.218C435.056 269.116 420.999 251.935 412.71 231.846C404.421 211.758 402.273 189.663 406.536 168.353C410.8 147.044 421.285 127.477 436.665 112.125C452.046 96.7719 471.632 86.3229 492.949 82.0978C514.266 77.8727 536.357 80.0611 556.431 88.3865C576.504 96.712 593.66 110.801 605.729 128.873C617.798 146.945 624.24 168.189 624.24 189.92C624.229 204.369 621.373 218.674 615.832 232.018C610.292 245.363 602.177 257.485 591.951 267.693C581.725 277.9 569.588 285.993 556.234 291.509C542.879 297.025 528.569 299.856 514.12 299.84Z" fill="url(#paint5_linear)"/>
<path d="M503 233.93C501.545 233.933 500.103 233.647 498.759 233.09C497.415 232.532 496.195 231.713 495.17 230.68L451.54 187.13C449.458 185.052 448.287 182.232 448.284 179.291C448.281 176.349 449.447 173.527 451.525 171.445C453.603 169.363 456.423 168.192 459.364 168.189C462.306 168.186 465.128 169.352 467.21 171.43L503 207.17L561.13 149.17C562.161 148.141 563.384 147.325 564.73 146.769C566.077 146.213 567.519 145.928 568.976 145.929C570.432 145.93 571.874 146.219 573.219 146.777C574.564 147.336 575.786 148.154 576.815 149.185C577.844 150.216 578.66 151.439 579.216 152.785C579.772 154.132 580.057 155.574 580.056 157.031C580.054 158.487 579.766 159.929 579.208 161.274C578.649 162.619 577.831 163.841 576.8 164.87L510.8 230.72C508.725 232.777 505.922 233.931 503 233.93Z" fill="white"/>
<path d="M38.5 541.5C44.0228 541.5 48.5 537.023 48.5 531.5C48.5 525.977 44.0228 521.5 38.5 521.5C32.9772 521.5 28.5 525.977 28.5 531.5C28.5 537.023 32.9772 541.5 38.5 541.5Z" stroke="url(#paint6_linear)"/>
<g opacity="0.15" filter="url(#filter0_d)">
<circle cx="72.5" cy="124.5" r="17.5" stroke="url(#paint7_linear)" stroke-width="2"/>
</g>
<defs>
<filter id="filter0_d" x="50" y="102" width="45" height="45" filterUnits="userSpaceOnUse" color-interpolation-filters="sRGB">
<feFlood flood-opacity="0" result="BackgroundImageFix"/>
<feColorMatrix in="SourceAlpha" type="matrix" values="0 0 0 0 0 0 0 0 0 0 0 0 0 0 0 0 0 0 127 0"/>
<feOffset/>
<feGaussianBlur stdDeviation="2"/>
<feColorMatrix type="matrix" values="0 0 0 0 1 0 0 0 0 1 0 0 0 0 1 0 0 0 0.92 0"/>
<feBlend mode="normal" in2="BackgroundImageFix" result="effect1_dropShadow"/>
<feBlend mode="normal" in="SourceGraphic" in2="effect1_dropShadow" result="shape"/>
</filter>
<linearGradient id="paint0_linear" x1="49.58" y1="13.79" x2="450.08" y2="592.29" gradientUnits="userSpaceOnUse">
<stop stop-color="#3F1793"/>
<stop offset="1" stop-color="#5763DB"/>
</linearGradient>
<linearGradient id="paint1_linear" x1="227.06" y1="116.92" x2="228" y2="507.25" gradientUnits="userSpaceOnUse">
<stop stop-color="#F7F7F7"/>
<stop offset="1" stop-color="#D8D8D8"/>
</linearGradient>
<linearGradient id="paint2_linear" x1="583.66" y1="182.8" x2="583.66" y2="453.89" gradientUnits="userSpaceOnUse">
<stop offset="0.54" stop-color="#F4F4F4"/>
<stop offset="1" stop-color="#DBDBDC"/>
</linearGradient>
<linearGradient id="paint3_linear" x1="410.2" y1="109.69" x2="394.21" y2="559.75" gradientUnits="userSpaceOnUse">
<stop offset="0.38" stop-color="white"/>
<stop offset="1" stop-color="#F9F9F9"/>
</linearGradient>
<linearGradient id="paint4_linear" x1="534.63" y1="501.36" x2="554.63" y2="533.36" gradientUnits="userSpaceOnUse">
<stop offset="0.64" stop-color="#FBFBFB"/>
<stop offset="1" stop-color="#EFEFEF"/>
</linearGradient>
<linearGradient id="paint5_linear" x1="511.25" y1="53.6801" x2="517.28" y2="339.8" gradientUnits="userSpaceOnUse">
<stop stop-color="#AF2251"/>
<stop offset="0.33" stop-color="#A91F50"/>
<stop offset="0.76" stop-color="#98164C"/>
<stop offset="1" stop-color="#8C1049"/>
</linearGradient>
<linearGradient id="paint6_linear" x1="38.5" y1="531.5" x2="38.5" y2="552.5" gradientUnits="userSpaceOnUse">
<stop stop-color="white"/>
<stop offset="1" stop-color="#F8F8F8"/>
</linearGradient>
<linearGradient id="paint7_linear" x1="72.5" y1="106" x2="72.5" y2="143" gradientUnits="userSpaceOnUse">
<stop stop-color="white"/>
<stop offset="1" stop-color="#F8F8F8"/>
</linearGradient>
</defs>
</svg>
