<svg width="186" height="186" viewBox="0 0 186 186" fill="none" xmlns="http://www.w3.org/2000/svg">
<g filter="url(#filter0_d)">
<circle cx="93" cy="90" r="86" fill="white"/>
</g>
<path d="M39.0744 72.6421H34.8557V77H32.6584V66.3359H39.6018V68.1157H34.8557V70.8696H39.0744V72.6421ZM50.0859 71.9097C50.0859 72.9595 49.9004 73.8799 49.5293 74.6709C49.1582 75.4619 48.626 76.0723 47.9326 76.502C47.2441 76.9316 46.4531 77.1465 45.5596 77.1465C44.6758 77.1465 43.8872 76.9341 43.1938 76.5093C42.5005 76.0845 41.9634 75.479 41.5825 74.6929C41.2017 73.9019 41.0088 72.9937 41.0039 71.9683V71.4409C41.0039 70.3911 41.1919 69.4683 41.5679 68.6724C41.9487 67.8716 42.4834 67.2588 43.1719 66.834C43.8652 66.4043 44.6562 66.1895 45.5449 66.1895C46.4336 66.1895 47.2222 66.4043 47.9106 66.834C48.604 67.2588 49.1387 67.8716 49.5146 68.6724C49.8955 69.4683 50.0859 70.3887 50.0859 71.4336V71.9097ZM47.8594 71.4263C47.8594 70.3081 47.6592 69.4585 47.2588 68.8774C46.8584 68.2964 46.2871 68.0059 45.5449 68.0059C44.8076 68.0059 44.2388 68.2939 43.8384 68.8701C43.438 69.4414 43.2354 70.2812 43.2305 71.3896V71.9097C43.2305 72.9985 43.4307 73.8433 43.8311 74.4438C44.2314 75.0444 44.8076 75.3447 45.5596 75.3447C46.2969 75.3447 46.8633 75.0566 47.2588 74.4805C47.6543 73.8994 47.8545 73.0547 47.8594 71.9463V71.4263ZM56.0804 73.0962H54.3299V77H52.1326V66.3359H56.095C57.3548 66.3359 58.3265 66.6167 59.0101 67.1782C59.6937 67.7397 60.0354 68.5332 60.0354 69.5586C60.0354 70.2861 59.8768 70.894 59.5594 71.3823C59.2469 71.8657 58.7708 72.2515 58.1312 72.5396L60.4383 76.8975V77H58.0799L56.0804 73.0962ZM54.3299 71.3164H56.1023C56.6541 71.3164 57.0813 71.1772 57.3841 70.8989C57.6868 70.6157 57.8382 70.2275 57.8382 69.7344C57.8382 69.2314 57.6941 68.8359 57.4061 68.5479C57.1229 68.2598 56.6858 68.1157 56.095 68.1157H54.3299V71.3164ZM73.9359 68.1157H70.6693V77H68.4721V68.1157H65.2494V66.3359H73.9359V68.1157ZM84.3249 77H82.1276V72.4297L77.843 72.4297V77H75.6457V66.3359H77.843V70.6572H82.1276V66.3359H84.3249V77ZM95.4609 71.9097C95.4609 72.9595 95.2754 73.8799 94.9043 74.6709C94.5332 75.4619 94.001 76.0723 93.3076 76.502C92.6191 76.9316 91.8281 77.1465 90.9346 77.1465C90.0508 77.1465 89.2622 76.9341 88.5688 76.5093C87.8755 76.0845 87.3384 75.479 86.9575 74.6929C86.5767 73.9019 86.3838 72.9937 86.3789 71.9683V71.4409C86.3789 70.3911 86.5669 69.4683 86.9429 68.6724C87.3237 67.8716 87.8584 67.2588 88.5469 66.834C89.2402 66.4043 90.0312 66.1895 90.9199 66.1895C91.8086 66.1895 92.5972 66.4043 93.2856 66.834C93.979 67.2588 94.5137 67.8716 94.8896 68.6724C95.2705 69.4683 95.4609 70.3887 95.4609 71.4336V71.9097ZM93.2344 71.4263C93.2344 70.3081 93.0342 69.4585 92.6338 68.8774C92.2334 68.2964 91.6621 68.0059 90.9199 68.0059C90.1826 68.0059 89.6138 68.2939 89.2134 68.8701C88.813 69.4414 88.6104 70.2813 88.6055 71.3896V71.9097C88.6055 72.9985 88.8057 73.8433 89.2061 74.4438C89.6064 75.0444 90.1826 75.3447 90.9346 75.3447C91.6719 75.3447 92.2383 75.0566 92.6338 74.4805C93.0293 73.8994 93.2295 73.0547 93.2344 71.9463V71.4263ZM103.037 74.2021C103.037 73.7871 102.891 73.4697 102.598 73.25C102.305 73.0254 101.778 72.791 101.016 72.5469C100.254 72.2979 99.6512 72.0537 99.2068 71.8145C97.9959 71.1602 97.3904 70.2788 97.3904 69.1704C97.3904 68.5942 97.5516 68.0815 97.8738 67.6323C98.201 67.1782 98.6673 66.8242 99.2728 66.5703C99.8831 66.3164 100.567 66.1895 101.324 66.1895C102.085 66.1895 102.764 66.3286 103.36 66.6069C103.955 66.8804 104.417 67.2686 104.744 67.7715C105.076 68.2744 105.242 68.8457 105.242 69.4854H103.045C103.045 68.9971 102.891 68.6187 102.583 68.3501C102.276 68.0767 101.844 67.9399 101.287 67.9399C100.75 67.9399 100.332 68.0547 100.034 68.2842C99.7366 68.5088 99.5877 68.8066 99.5877 69.1777C99.5877 69.5244 99.761 69.8149 100.108 70.0493C100.459 70.2837 100.974 70.5034 101.653 70.7085C102.903 71.0845 103.814 71.5508 104.385 72.1074C104.956 72.6641 105.242 73.3574 105.242 74.1875C105.242 75.1104 104.893 75.8354 104.195 76.3628C103.496 76.8853 102.556 77.1465 101.375 77.1465C100.554 77.1465 99.8074 76.9976 99.1336 76.6997C98.4598 76.397 97.9446 75.9844 97.5882 75.4619C97.2366 74.9395 97.0608 74.334 97.0608 73.6455H99.2654C99.2654 74.8223 99.9686 75.4106 101.375 75.4106C101.897 75.4106 102.305 75.3057 102.598 75.0957C102.891 74.8809 103.037 74.583 103.037 74.2021ZM113.602 72.3784H109.383V75.2349H114.335V77H107.186V66.3359H114.32V68.1157H109.383V70.6572H113.602V72.3784ZM128.565 73.9238L130 66.3359H132.19L129.824 77H127.613L125.877 69.8662L124.141 77H121.929L119.563 66.3359H121.753L123.196 73.9092L124.954 66.3359H126.814L128.565 73.9238ZM142.513 77H140.316V72.4297H136.031V77H133.834V66.3359H136.031V70.6572H140.316V66.3359H142.513V77ZM153.649 71.9097C153.649 72.9595 153.464 73.8799 153.093 74.6709C152.721 75.4619 152.189 76.0723 151.496 76.502C150.807 76.9316 150.016 77.1465 149.123 77.1465C148.239 77.1465 147.45 76.9341 146.757 76.5093C146.064 76.0845 145.527 75.479 145.146 74.6929C144.765 73.9019 144.572 72.9937 144.567 71.9683V71.4409C144.567 70.3911 144.755 69.4683 145.131 68.6724C145.512 67.8716 146.047 67.2588 146.735 66.834C147.429 66.4043 148.22 66.1895 149.108 66.1895C149.997 66.1895 150.785 66.4043 151.474 66.834C152.167 67.2588 152.702 67.8716 153.078 68.6724C153.459 69.4683 153.649 70.3887 153.649 71.4336V71.9097ZM151.423 71.4263C151.423 70.3081 151.222 69.4585 150.822 68.8774C150.422 68.2964 149.85 68.0059 149.108 68.0059C148.371 68.0059 147.802 68.2939 147.402 68.8701C147.001 69.4414 146.799 70.2813 146.794 71.3896V71.9097C146.794 72.9985 146.994 73.8433 147.394 74.4438C147.795 75.0444 148.371 75.3447 149.123 75.3447C149.86 75.3447 150.427 75.0566 150.822 74.4805C151.218 73.8994 151.418 73.0547 151.423 71.9463V71.4263ZM38.6936 91.9238L40.1291 84.3359H42.319L39.9533 95H37.7414L36.0056 87.8662L34.2697 95H32.0578L29.6921 84.3359H31.882L33.3249 91.9092L35.0827 84.3359H36.9431L38.6936 91.9238ZM49.6611 92.8027H45.8086L45.0762 95H42.7397L46.7095 84.3359H48.7456L52.7373 95H50.4009L49.6611 92.8027ZM46.4019 91.0229H49.0679L47.7275 87.0312L46.4019 91.0229ZM62.8553 95H60.658L56.3807 87.9834V95H54.1834V84.3359H56.3807L60.6653 91.3672V84.3359H62.8553L62.8553 95ZM73.0318 86.1157H69.7652V95H67.568V86.1157H64.3453V84.3359H73.0318V86.1157ZM80.1542 92.2021C80.1542 91.7871 80.0077 91.4697 79.7147 91.25C79.4218 91.0254 78.8944 90.791 78.1327 90.5469C77.371 90.2979 76.768 90.0537 76.3236 89.8145C75.1127 89.1602 74.5072 88.2788 74.5072 87.1704C74.5072 86.5942 74.6684 86.0815 74.9906 85.6323C75.3178 85.1782 75.7841 84.8242 76.3895 84.5703C76.9999 84.3164 77.6835 84.1895 78.4403 84.1895C79.202 84.1895 79.8808 84.3286 80.4765 84.6069C81.0722 84.8804 81.5336 85.2686 81.8607 85.7715C82.1928 86.2744 82.3588 86.8457 82.3588 87.4854H80.1615C80.1615 86.9971 80.0077 86.6187 79.7001 86.3501C79.3925 86.0767 78.9604 85.9399 78.4037 85.9399C77.8666 85.9399 77.4491 86.0547 77.1513 86.2842C76.8534 86.5088 76.7045 86.8066 76.7045 87.1777C76.7045 87.5244 76.8778 87.8149 77.2245 88.0493C77.5761 88.2837 78.0912 88.5034 78.7699 88.7085C80.0199 89.0845 80.9306 89.5508 81.5019 90.1074C82.0731 90.6641 82.3588 91.3574 82.3588 92.1875C82.3588 93.1104 82.0097 93.8354 81.3114 94.3628C80.6132 94.8853 79.6732 95.1465 78.4916 95.1465C77.6713 95.1465 76.9242 94.9976 76.2504 94.6997C75.5766 94.397 75.0614 93.9844 74.705 93.4619C74.3534 92.9395 74.1776 92.334 74.1776 91.6455H76.3822C76.3822 92.8223 77.0854 93.4106 78.4916 93.4106C79.0141 93.4106 79.4218 93.3057 79.7147 93.0957C80.0077 92.8809 80.1542 92.583 80.1542 92.2021ZM96.0762 86.1157H92.8096V95H90.6123V86.1157H87.3896V84.3359H96.0762V86.1157ZM106.341 89.9097C106.341 90.9595 106.155 91.8799 105.784 92.6709C105.413 93.4619 104.881 94.0723 104.187 94.502C103.499 94.9316 102.708 95.1465 101.814 95.1465C100.93 95.1465 100.142 94.9341 99.4485 94.5093C98.7552 94.0845 98.2181 93.479 97.8372 92.6929C97.4563 91.9019 97.2635 90.9937 97.2586 89.9683V89.4409C97.2586 88.3911 97.4466 87.4683 97.8226 86.6724C98.2034 85.8716 98.7381 85.2588 99.4266 84.834C100.12 84.4043 100.911 84.1895 101.8 84.1895C102.688 84.1895 103.477 84.4043 104.165 84.834C104.859 85.2588 105.393 85.8716 105.769 86.6724C106.15 87.4683 106.341 88.3887 106.341 89.4336V89.9097ZM104.114 89.4263C104.114 88.3081 103.914 87.4585 103.513 86.8774C103.113 86.2964 102.542 86.0059 101.8 86.0059C101.062 86.0059 100.493 86.2939 100.093 86.8701C99.6927 87.4414 99.49 88.2813 99.4852 89.3896V89.9097C99.4852 90.9985 99.6853 91.8433 100.086 92.4438C100.486 93.0444 101.062 93.3447 101.814 93.3447C102.552 93.3447 103.118 93.0566 103.513 92.4805C103.909 91.8994 104.109 91.0547 104.114 89.9463V89.4263ZM115.913 90.7227L114.77 91.9531V95H112.573V84.3359H114.77V89.1699L115.737 87.8442L118.454 84.3359H121.157L117.37 89.0747L121.267 95H118.652L115.913 90.7227ZM131.216 95H129.019L124.741 87.9834V95H122.544V84.3359H124.741L129.026 91.3672V84.3359H131.216V95ZM142.345 89.9097C142.345 90.9595 142.159 91.8799 141.788 92.6709C141.417 93.4619 140.885 94.0723 140.191 94.502C139.503 94.9316 138.712 95.1465 137.818 95.1465C136.935 95.1465 136.146 94.9341 135.453 94.5093C134.759 94.0845 134.222 93.479 133.841 92.6929C133.46 91.9019 133.268 90.9937 133.263 89.9683V89.4409C133.263 88.3911 133.451 87.4683 133.827 86.6724C134.208 85.8716 134.742 85.2588 135.431 84.834C136.124 84.4043 136.915 84.1895 137.804 84.1895C138.692 84.1895 139.481 84.4043 140.169 84.834C140.863 85.2588 141.397 85.8716 141.773 86.6724C142.154 87.4683 142.345 88.3887 142.345 89.4336V89.9097ZM140.118 89.4263C140.118 88.3081 139.918 87.4585 139.518 86.8774C139.117 86.2964 138.546 86.0059 137.804 86.0059C137.066 86.0059 136.498 86.2939 136.097 86.8701C135.697 87.4414 135.494 88.2813 135.489 89.3896V89.9097C135.489 90.9985 135.689 91.8433 136.09 92.4438C136.49 93.0444 137.066 93.3447 137.818 93.3447C138.556 93.3447 139.122 93.0566 139.518 92.4805C139.913 91.8994 140.113 91.0547 140.118 89.9463V89.4263ZM152.697 91.9238L154.133 84.3359H156.323L153.957 95H151.745L150.009 87.8662L148.273 95H146.061L143.696 84.3359H145.886L147.328 91.9092L149.086 84.3359L150.947 84.3359L152.697 91.9238ZM42.8704 104.116H39.6038V113H37.4065V104.116H34.1839V102.336H42.8704V104.116ZM53.2594 113H51.0621V108.43H46.7774V113H44.5802V102.336H46.7774V106.657H51.0621V102.336H53.2594V113ZM62.0517 108.378H57.8329V111.235H62.7841V113H55.6356V102.336H62.7694V104.116H57.8329V106.657H62.0517V108.378ZM75.1245 108.378H70.9058V111.235H75.8569V113H68.7085V102.336H75.8423V104.116H70.9058V106.657H75.1245V108.378ZM81.4119 106.013L83.4114 102.336H85.9383L82.8328 107.624L86.0188 113H83.4627L81.4119 109.265L79.3611 113H76.805L79.991 107.624L76.8855 102.336H79.4124L81.4119 106.013ZM93.6026 110.803H89.7501L89.0177 113H86.6813L90.651 102.336H92.6871L96.6788 113L94.3424 113L93.6026 110.803ZM90.3434 109.023H93.0094L91.669 105.031L90.3434 109.023ZM106.335 109.448C106.252 110.595 105.828 111.499 105.061 112.158C104.299 112.817 103.293 113.146 102.043 113.146C100.676 113.146 99.5995 112.688 98.8134 111.77C98.0321 110.847 97.6415 109.582 97.6415 107.976V107.324C97.6415 106.298 97.8222 105.395 98.1835 104.614C98.5448 103.833 99.06 103.234 99.7289 102.819C100.403 102.399 101.184 102.189 102.073 102.189C103.303 102.189 104.294 102.519 105.046 103.178C105.798 103.837 106.233 104.763 106.35 105.954H104.153C104.099 105.266 103.906 104.768 103.574 104.46C103.247 104.147 102.746 103.991 102.073 103.991C101.34 103.991 100.791 104.255 100.425 104.782C100.063 105.305 99.8778 106.118 99.8681 107.221V108.027C99.8681 109.179 100.041 110.021 100.388 110.554C100.74 111.086 101.291 111.352 102.043 111.352C102.722 111.352 103.227 111.198 103.559 110.891C103.896 110.578 104.089 110.097 104.138 109.448H106.335ZM116.036 104.116H112.769L112.769 113H110.572L110.572 104.116H107.349V102.336H116.036V104.116ZM121.492 113L121.492 102.336H125.227C126.521 102.336 127.502 102.585 128.171 103.083C128.84 103.576 129.175 104.301 129.175 105.258C129.175 105.781 129.04 106.242 128.772 106.643C128.503 107.038 128.13 107.329 127.651 107.514C128.198 107.651 128.628 107.927 128.94 108.342C129.258 108.757 129.416 109.265 129.416 109.865C129.416 110.891 129.089 111.667 128.435 112.194C127.781 112.722 126.848 112.99 125.637 113H121.492ZM123.689 108.356V111.235H125.571C126.089 111.235 126.492 111.113 126.78 110.869C127.073 110.62 127.219 110.278 127.219 109.843C127.219 108.867 126.714 108.371 125.703 108.356H123.689ZM123.689 106.804H125.315C126.423 106.784 126.977 106.342 126.977 105.478C126.977 104.995 126.836 104.648 126.553 104.438C126.274 104.223 125.832 104.116 125.227 104.116H123.689V106.804ZM133.858 113H131.661V102.336H133.858V113ZM138.549 111.235L143.214 111.235V113L136.351 113V102.336H138.549V111.235ZM147.129 111.235H151.794V113H144.931V102.336H147.129V111.235Z" fill="#282932"/>
<defs>
<filter id="filter0_d" x="0" y="0" width="186" height="186" filterUnits="userSpaceOnUse" color-interpolation-filters="sRGB">
<feFlood flood-opacity="0" result="BackgroundImageFix"/>
<feColorMatrix in="SourceAlpha" type="matrix" values="0 0 0 0 0 0 0 0 0 0 0 0 0 0 0 0 0 0 127 0"/>
<feOffset dy="3"/>
<feGaussianBlur stdDeviation="3.5"/>
<feColorMatrix type="matrix" values="0 0 0 0 0 0 0 0 0 0 0 0 0 0 0 0 0 0 0.12 0"/>
<feBlend mode="normal" in2="BackgroundImageFix" result="effect1_dropShadow"/>
<feBlend mode="normal" in="SourceGraphic" in2="effect1_dropShadow" result="shape"/>
</filter>
</defs>
</svg>
