<svg width="1920" height="830" viewBox="5 0 1920 830" fill="none" xmlns="http://www.w3.org/2000/svg">
<g filter="url(#filter0_i)">
<path d="M602.57 21.9509C395.278 4.92487 222 49.4804 122.599 62.9719L0.933002 80.5523L-38 688.333C-25.0223 695.03 81.8298 666.722 252.781 688.333C483.5 717.5 685 688.333 897 668.217C1075.23 651.305 1316.5 619.5 1596.58 688.333C1830.85 745.908 1969.08 852.975 1992.6 824.791C2011.05 571.409 2014.62 -0.652542 1944.54 62.9719C1856.94 142.502 1755.8 0.500023 1404 0.5C1230.69 0.499988 1102 62.9719 602.57 21.9509Z" fill="url(#paint0_linear)"/>
</g>
<defs>
<filter id="filter0_i" x="-38" y="0.5" width="2042" height="834.931" filterUnits="userSpaceOnUse" color-interpolation-filters="sRGB">
<feFlood flood-opacity="0" result="BackgroundImageFix"/>
<feBlend mode="normal" in="SourceGraphic" in2="BackgroundImageFix" result="shape"/>
<feColorMatrix in="SourceAlpha" type="matrix" values="0 0 0 0 0 0 0 0 0 0 0 0 0 0 0 0 0 0 127 0" result="hardAlpha"/>
<feOffset dy="6"/>
<feGaussianBlur stdDeviation="20"/>
<feComposite in2="hardAlpha" operator="arithmetic" k2="-1" k3="1"/>
<feColorMatrix type="matrix" values="0 0 0 0 0 0 0 0 0 0 0 0 0 0 0 0 0 0 0.2 0"/>
<feBlend mode="normal" in2="shape" result="effect1_innerShadow"/>
</filter>
<linearGradient id="paint0_linear" x1="869.017" y1="-123.716" x2="969.608" y2="651.25" gradientUnits="userSpaceOnUse">
<stop stop-color="#575EC3"/>
<stop offset="1" stop-color="#3928A2"/>
</linearGradient>
</defs>
</svg>
