<svg width="99" height="47" viewBox="0 0 99 47" fill="none" xmlns="http://www.w3.org/2000/svg">
<path d="M13.5353 8.67893H20.401V28.1316C20.401 29.936 19.9759 31.5456 19.1259 32.9606C18.2889 34.3756 17.1119 35.4724 15.5949 36.2513C14.0911 37.0303 12.4106 37.4196 10.5536 37.4196C7.44119 37.4196 5.02185 36.6409 3.29564 35.083C1.56941 33.5253 0.706299 31.3185 0.706299 28.4626H7.61119C7.61119 29.7606 7.83351 30.7018 8.27814 31.286C8.73585 31.8702 9.49434 32.1622 10.5536 32.1622C11.5083 32.1622 12.2406 31.8117 12.7506 31.1108C13.2737 30.3967 13.5353 29.4037 13.5353 28.1316V8.67893ZM47.1574 8.67893V27.2357C47.1574 29.3388 46.7062 31.1627 45.8038 32.7074C44.9015 34.2393 43.6069 35.4076 41.9199 36.2125C40.2329 37.0173 38.2385 37.4196 35.937 37.4196C32.4583 37.4196 29.7186 36.5239 27.7178 34.7325C25.7169 32.9411 24.6969 30.4876 24.6576 27.3722V8.67893H31.5821V27.5085C31.6606 30.6109 33.1122 32.1622 35.937 32.1622C37.3624 32.1622 38.4412 31.7728 39.1736 30.9939C39.906 30.215 40.2722 28.9494 40.2722 27.1969V8.67893H47.1574ZM74.5808 27.4306C74.4893 29.4037 73.9531 31.1497 72.9723 32.6685C71.9915 34.1744 70.6118 35.3427 68.8332 36.1734C67.0677 37.0043 65.0473 37.4196 62.7719 37.4196C59.0186 37.4196 56.0631 36.2059 53.9053 33.7784C51.7476 31.351 50.6687 27.9238 50.6687 23.4971V22.0952C50.6687 19.3172 51.1525 16.8896 52.1203 14.8126C53.1011 12.7226 54.5069 11.1129 56.3377 9.98357C58.1686 8.8412 60.2871 8.27002 62.6934 8.27002C66.1589 8.27002 68.9444 9.17871 71.0498 10.9961C73.1554 12.8005 74.352 15.2929 74.6397 18.4734H67.7739C67.7217 16.7469 67.2835 15.5071 66.4597 14.7543C65.6358 14.0013 64.3804 13.6248 62.6934 13.6248C60.9802 13.6248 59.7248 14.2609 58.9271 15.533C58.1293 16.8053 57.7109 18.8368 57.6716 21.6278V23.6335C57.6716 26.6581 58.0508 28.8195 58.8094 30.1177C59.5809 31.4158 60.9018 32.0649 62.7719 32.0649C64.3543 32.0649 65.5639 31.6949 66.4008 30.955C67.2378 30.215 67.6824 29.0403 67.7348 27.4306H74.5808ZM95.5505 25.0161H84.7223V31.7728H97.5121V37.0303H77.8371V8.67893H97.5513V13.9559H84.7223V19.9338H95.5505V25.0161Z" fill="white"/>
<path d="M4.30435 25.6363C6.68157 25.6363 8.6087 23.7233 8.6087 21.3635C8.6087 19.0038 6.68157 17.0908 4.30435 17.0908C1.92712 17.0908 0 19.0038 0 21.3635C0 23.7233 1.92712 25.6363 4.30435 25.6363Z" fill="white"/>
</svg>
