<svg width="277" height="266" viewBox="0 0 277 266" fill="none" xmlns="http://www.w3.org/2000/svg">
<g filter="url(#filter0_d)">
<path d="M13.9275 149.373C19.1667 156.02 21.5231 164.515 20.4633 172.936L19.3189 182.027C18.3697 191.088 23.5583 199.668 31.9852 202.971L40.7647 206.593C48.61 209.764 54.935 215.869 58.4171 223.63L62.1757 232.081C66.2019 240.536 75.1409 245.452 84.3759 244.289L93.814 243.19C95.1525 243.032 96.499 242.953 97.8467 242.953C103.515 242.964 109.092 244.395 114.076 247.117C114.168 247.16 114.245 247.227 114.336 247.275C115.529 247.906 116.684 248.609 117.794 249.379L125.424 254.896C133.153 260.369 143.458 260.368 151.186 254.893L158.815 249.382C165.763 244.371 174.32 242.161 182.803 243.187L192.241 244.286C201.478 245.462 210.424 240.542 214.441 232.078L218.2 223.63C221.682 215.867 228.008 209.762 235.855 206.59L244.629 202.971C253.057 199.669 258.246 191.088 257.295 182.027L256.157 172.933C255.094 164.512 257.452 156.016 262.695 149.373L268.412 142.027C274.015 135.003 274.015 124.996 268.412 117.972L262.689 110.623C257.45 103.975 255.096 95.4778 256.158 87.0567L257.297 77.9779C258.248 68.9141 253.057 60.3314 244.626 57.0297L235.85 53.4077C228.006 50.2354 221.682 44.1327 218.197 36.3737L214.439 27.9198C210.426 19.4521 201.476 14.532 192.238 15.7147L182.803 16.8119C174.32 17.8386 165.763 15.6284 158.815 10.6165L151.186 5.10867C143.459 -0.369555 133.151 -0.369555 125.424 5.10867L117.794 10.6196C110.845 15.6236 102.292 17.832 93.8116 16.8119L84.3735 15.7128C75.1338 14.5246 66.1811 19.4476 62.1733 27.9204L58.4146 36.3719C54.9291 44.1318 48.6041 50.2355 40.7598 53.4089L31.9828 57.0279C23.5552 60.332 18.3665 68.9128 19.3164 77.9748L20.4609 87.0598C21.5218 95.4811 19.1662 103.978 13.9275 110.626L8.2023 117.974C2.59923 124.998 2.59923 135.004 8.2023 142.027L13.9275 149.373Z" fill="url(#paint0_linear)"/>
</g>
<g filter="url(#filter1_d)">
<mask id="mask0" mask-type="alpha" maskUnits="userSpaceOnUse" x="4" y="1" width="269" height="258">
<path d="M13.9275 149.373C19.1667 156.02 21.5231 164.515 20.4633 172.936L19.3189 182.027C18.3697 191.088 23.5583 199.668 31.9852 202.971L40.7647 206.593C48.61 209.764 54.935 215.869 58.4171 223.63L62.1757 232.081C66.2019 240.536 75.1409 245.452 84.3759 244.289L93.814 243.19C95.1525 243.032 96.499 242.953 97.8467 242.953C103.515 242.964 109.092 244.395 114.076 247.117C114.168 247.16 114.245 247.227 114.336 247.275C115.529 247.906 116.684 248.609 117.794 249.379L125.424 254.896C133.153 260.369 143.458 260.368 151.186 254.893L158.815 249.382C165.763 244.371 174.32 242.161 182.803 243.187L192.241 244.286C201.478 245.462 210.424 240.542 214.441 232.078L218.2 223.63C221.682 215.867 228.008 209.762 235.855 206.59L244.629 202.971C253.057 199.669 258.246 191.088 257.295 182.027L256.157 172.933C255.094 164.512 257.452 156.016 262.695 149.373L268.412 142.027C274.015 135.003 274.015 124.996 268.412 117.972L262.689 110.623C257.45 103.975 255.096 95.4778 256.158 87.0567L257.297 77.9779C258.248 68.9141 253.057 60.3314 244.626 57.0297L235.85 53.4077C228.006 50.2354 221.682 44.1327 218.197 36.3737L214.439 27.9198C210.426 19.4521 201.476 14.532 192.238 15.7147L182.803 16.8119C174.32 17.8386 165.763 15.6284 158.815 10.6165L151.186 5.10867C143.459 -0.369555 133.151 -0.369555 125.424 5.10867L117.794 10.6196C110.845 15.6236 102.292 17.832 93.8116 16.8119L84.3735 15.7128C75.1338 14.5246 66.1811 19.4476 62.1733 27.9204L58.4146 36.3719C54.9291 44.1318 48.6041 50.2355 40.7598 53.4089L31.9828 57.0279C23.5552 60.332 18.3665 68.9128 19.3164 77.9748L20.4609 87.0598C21.5218 95.4811 19.1662 103.978 13.9275 110.626L8.2023 117.974C2.59923 124.998 2.59923 135.004 8.2023 142.027L13.9275 149.373Z" fill="url(#paint1_linear)"/>
</mask>
<g mask="url(#mask0)">
<rect x="3" y="91" width="270" height="79" fill="#9F3555"/>
</g>
</g>
<g filter="url(#filter2_i)">
<path d="M245.5 130C245.5 189.377 197.588 237.5 138.5 237.5C79.412 237.5 31.5 189.377 31.5 130C31.5 70.6229 79.412 22.5 138.5 22.5C197.588 22.5 245.5 70.6229 245.5 130Z" stroke="white" stroke-width="3"/>
</g>
<path d="M116.579 109.67L110.47 124H106.472L112.592 110.568H104.798V107.648H116.579V109.67ZM126.45 118.418H119.701V115.487H126.45V118.418ZM130.043 124V107.648H135.311C136.756 107.648 138.055 107.978 139.208 108.637C140.361 109.288 141.259 110.213 141.903 111.411C142.554 112.601 142.884 113.938 142.891 115.42V116.172C142.891 117.67 142.573 119.014 141.937 120.204C141.308 121.387 140.417 122.315 139.264 122.989C138.118 123.656 136.838 123.993 135.423 124H130.043ZM133.985 110.692V120.968H135.355C136.486 120.968 137.354 120.567 137.961 119.766C138.567 118.958 138.871 117.76 138.871 116.172V115.465C138.871 113.885 138.567 112.695 137.961 111.894C137.354 111.092 136.471 110.692 135.311 110.692H133.985ZM154.413 120.945H149.011L148.068 124H143.856L149.854 107.648H153.56L159.602 124H155.368L154.413 120.945ZM149.955 117.902H153.47L151.707 112.23L149.955 117.902ZM165.565 114.746L168.574 107.648H172.831L167.564 118.126V124H163.566V118.126L158.31 107.648H162.544L165.565 114.746ZM86.3758 145.486H80.0194V152H76.0775V135.648H87.0159V138.692H80.0194V142.454H86.3758V145.486ZM95.1913 146.228H93.0575V152H89.1156V135.648H95.5506C97.4898 135.648 99.0059 136.079 100.099 136.94C101.192 137.801 101.739 139.018 101.739 140.59C101.739 141.728 101.507 142.671 101.042 143.42C100.586 144.169 99.8669 144.775 98.8861 145.239L102.3 151.832V152H98.0775L95.1913 146.228ZM93.0575 143.184H95.5506C96.2993 143.184 96.8609 142.989 97.2352 142.6C97.6171 142.203 97.808 141.653 97.808 140.949C97.808 140.245 97.6171 139.695 97.2352 139.298C96.8534 138.894 96.2919 138.692 95.5506 138.692H93.0575V143.184ZM114.721 145.071H108.521V148.968H115.844V152H104.579V135.648H115.866V138.692H108.521V142.14H114.721V145.071ZM128.051 145.071H121.852V148.968H129.174V152H117.91V135.648H129.196V138.692H121.852V142.14H128.051V145.071ZM149.59 138.692H144.682V152H140.74V138.692H135.922V135.648H149.59V138.692ZM157.799 146.228H155.665V152H151.723V135.648H158.158C160.097 135.648 161.614 136.079 162.707 136.94C163.8 137.801 164.346 139.018 164.346 140.59C164.346 141.728 164.114 142.671 163.65 143.42C163.193 144.169 162.475 144.775 161.494 145.239L164.908 151.832V152H160.685L157.799 146.228ZM155.665 143.184H158.158C158.907 143.184 159.468 142.989 159.843 142.6C160.225 142.203 160.416 141.653 160.416 140.949C160.416 140.245 160.225 139.695 159.843 139.298C159.461 138.894 158.899 138.692 158.158 138.692H155.665V143.184ZM171.387 152H167.457V135.648H171.387V152ZM184.077 148.945H178.675L177.732 152H173.521L179.518 135.648H183.224L189.266 152H185.032L184.077 148.945ZM179.619 145.902H183.134L181.371 140.23L179.619 145.902ZM194.869 148.968H201.731V152H190.927V135.648H194.869V148.968Z" fill="white"/>
<path d="M114.271 73H113.19L105.833 62.0488V73H104.743V60.2031H105.833L113.198 71.1631V60.2031H114.271V73ZM127.34 67.2959C127.34 68.4736 127.134 69.5078 126.724 70.3984C126.32 71.2891 125.74 71.9746 124.984 72.4551C124.228 72.9355 123.355 73.1758 122.365 73.1758C120.871 73.1758 119.664 72.6426 118.744 71.5762C117.824 70.5039 117.364 69.0596 117.364 67.2432V65.9248C117.364 64.7588 117.569 63.7275 117.979 62.8311C118.395 61.9287 118.981 61.2373 119.737 60.7568C120.493 60.2705 121.363 60.0273 122.347 60.0273C123.332 60.0273 124.199 60.2646 124.949 60.7393C125.705 61.2139 126.288 61.8848 126.698 62.752C127.108 63.6191 127.322 64.624 127.34 65.7666V67.2959ZM126.259 65.9072C126.259 64.3662 125.91 63.1592 125.213 62.2861C124.515 61.4131 123.56 60.9766 122.347 60.9766C121.158 60.9766 120.209 61.416 119.5 62.2949C118.797 63.168 118.445 64.3896 118.445 65.96V67.2959C118.445 68.8135 118.797 70.0176 119.5 70.9082C120.203 71.793 121.158 72.2354 122.365 72.2354C123.59 72.2354 124.545 71.7988 125.23 70.9258C125.916 70.0469 126.259 68.8252 126.259 67.2607V65.9072ZM139.942 67.6738H136.225V73H135.135V60.2031H139.292C140.657 60.2031 141.724 60.5342 142.491 61.1963C143.259 61.8584 143.643 62.7842 143.643 63.9736C143.643 64.7939 143.402 65.5176 142.922 66.1445C142.441 66.7715 141.797 67.2051 140.988 67.4453L144.187 72.8857V73H143.036L139.942 67.6738ZM136.225 66.751H139.538C140.446 66.751 141.176 66.4932 141.727 65.9775C142.277 65.4619 142.553 64.7939 142.553 63.9736C142.553 63.0713 142.266 62.3711 141.691 61.873C141.117 61.375 140.312 61.126 139.274 61.126H136.225V66.751ZM148.265 73H147.184V60.2031H148.265V73ZM159.348 69.8535C159.348 69.1445 159.099 68.585 158.601 68.1748C158.103 67.7588 157.192 67.3662 155.867 66.9971C154.543 66.6221 153.576 66.2148 152.967 65.7754C152.1 65.1543 151.666 64.3398 151.666 63.332C151.666 62.3535 152.068 61.5596 152.87 60.9502C153.679 60.335 154.71 60.0273 155.964 60.0273C156.814 60.0273 157.573 60.1914 158.241 60.5195C158.914 60.8477 159.436 61.3047 159.805 61.8906C160.174 62.4766 160.359 63.1299 160.359 63.8506H159.269C159.269 62.9775 158.97 62.2773 158.372 61.75C157.775 61.2168 156.972 60.9502 155.964 60.9502C154.986 60.9502 154.206 61.1699 153.626 61.6094C153.046 62.043 152.756 62.6113 152.756 63.3145C152.756 63.9648 153.017 64.4951 153.538 64.9053C154.06 65.3154 154.895 65.6787 156.043 65.9951C157.192 66.3057 158.062 66.6309 158.654 66.9707C159.245 67.3047 159.691 67.7061 159.99 68.1748C160.288 68.6436 160.438 69.1973 160.438 69.8359C160.438 70.8438 160.033 71.6523 159.225 72.2617C158.422 72.8711 157.362 73.1758 156.043 73.1758C155.141 73.1758 154.312 73.0146 153.556 72.6924C152.806 72.3701 152.235 71.9189 151.842 71.3389C151.455 70.7588 151.262 70.0938 151.262 69.3438H152.343C152.343 70.2461 152.68 70.958 153.354 71.4795C154.028 72.001 154.924 72.2617 156.043 72.2617C157.039 72.2617 157.839 72.042 158.443 71.6025C159.046 71.1631 159.348 70.5801 159.348 69.8535ZM166.018 66.6455L164.217 68.4209V73H163.136V60.2031H164.217V67.1025L170.773 60.2031H172.136L166.774 65.8984L172.549 73H171.23L166.018 66.6455Z" fill="#1F1945" fill-opacity="0.6"/>
<path d="M89.1521 194.023H83.1844V200H82.1033V187.203H90.0311V188.126H83.1844V193.101H89.1521V194.023ZM101.404 187.203V195.939C101.398 196.801 101.207 197.551 100.832 198.189C100.457 198.828 99.9272 199.32 99.2416 199.666C98.562 200.006 97.7797 200.176 96.895 200.176C95.5473 200.176 94.4663 199.81 93.6518 199.077C92.8432 198.339 92.4243 197.319 92.395 196.019V187.203H93.4672V195.86C93.4672 196.938 93.7748 197.776 94.3901 198.374C95.0053 198.966 95.8403 199.262 96.895 199.262C97.9496 199.262 98.7817 198.963 99.3911 198.365C100.006 197.768 100.314 196.936 100.314 195.869V187.203H101.404ZM105.868 199.086H112.188V200H104.778V187.203H105.868V199.086ZM115.72 199.086H122.04V200H114.631V187.203H115.72V199.086ZM136.128 196.414H130.318L129 200H127.866L132.709 187.203H133.737L138.58 200H137.455L136.128 196.414ZM130.652 195.491H135.785L133.219 188.521L130.652 195.491ZM149.786 196.01C149.639 197.357 149.156 198.389 148.336 199.104C147.521 199.818 146.434 200.176 145.075 200.176C144.126 200.176 143.285 199.938 142.552 199.464C141.826 198.989 141.263 198.318 140.865 197.451C140.466 196.578 140.264 195.582 140.258 194.463V192.802C140.258 191.665 140.458 190.657 140.856 189.778C141.255 188.899 141.826 188.223 142.57 187.748C143.32 187.268 144.181 187.027 145.154 187.027C146.525 187.027 147.606 187.399 148.397 188.144C149.194 188.882 149.657 189.904 149.786 191.211H148.696C148.426 189.037 147.246 187.95 145.154 187.95C143.994 187.95 143.068 188.384 142.377 189.251C141.691 190.118 141.348 191.316 141.348 192.846V194.41C141.348 195.887 141.682 197.064 142.35 197.943C143.024 198.822 143.932 199.262 145.075 199.262C146.206 199.262 147.058 198.992 147.632 198.453C148.207 197.908 148.561 197.094 148.696 196.01H149.786ZM161.835 196.01C161.689 197.357 161.205 198.389 160.385 199.104C159.571 199.818 158.484 200.176 157.124 200.176C156.175 200.176 155.334 199.938 154.602 199.464C153.875 198.989 153.313 198.318 152.914 197.451C152.516 196.578 152.314 195.582 152.308 194.463V192.802C152.308 191.665 152.507 190.657 152.906 189.778C153.304 188.899 153.875 188.223 154.619 187.748C155.369 187.268 156.231 187.027 157.203 187.027C158.574 187.027 159.656 187.399 160.447 188.144C161.243 188.882 161.706 189.904 161.835 191.211H160.745C160.476 189.037 159.295 187.95 157.203 187.95C156.043 187.95 155.117 188.384 154.426 189.251C153.741 190.118 153.398 191.316 153.398 192.846V194.41C153.398 195.887 153.732 197.064 154.4 197.943C155.074 198.822 155.982 199.262 157.124 199.262C158.255 199.262 159.108 198.992 159.682 198.453C160.256 197.908 160.611 197.094 160.745 196.01H161.835ZM171.89 193.865H165.904V199.086H172.786V200H164.823V187.203H172.742V188.126H165.904V192.951H171.89V193.865ZM182.673 196.854C182.673 196.145 182.424 195.585 181.926 195.175C181.428 194.759 180.517 194.366 179.193 193.997C177.869 193.622 176.902 193.215 176.293 192.775C175.425 192.154 174.992 191.34 174.992 190.332C174.992 189.354 175.393 188.56 176.196 187.95C177.004 187.335 178.036 187.027 179.29 187.027C180.139 187.027 180.898 187.191 181.566 187.52C182.24 187.848 182.761 188.305 183.13 188.891C183.5 189.477 183.684 190.13 183.684 190.851H182.594C182.594 189.978 182.295 189.277 181.698 188.75C181.1 188.217 180.297 187.95 179.29 187.95C178.311 187.95 177.532 188.17 176.952 188.609C176.372 189.043 176.082 189.611 176.082 190.314C176.082 190.965 176.342 191.495 176.864 191.905C177.385 192.315 178.22 192.679 179.369 192.995C180.517 193.306 181.387 193.631 181.979 193.971C182.571 194.305 183.016 194.706 183.315 195.175C183.614 195.644 183.763 196.197 183.763 196.836C183.763 197.844 183.359 198.652 182.55 199.262C181.748 199.871 180.687 200.176 179.369 200.176C178.466 200.176 177.637 200.015 176.881 199.692C176.131 199.37 175.56 198.919 175.168 198.339C174.781 197.759 174.587 197.094 174.587 196.344H175.669C175.669 197.246 176.005 197.958 176.679 198.479C177.353 199.001 178.25 199.262 179.369 199.262C180.365 199.262 181.165 199.042 181.768 198.603C182.372 198.163 182.673 197.58 182.673 196.854ZM193.703 196.854C193.703 196.145 193.454 195.585 192.956 195.175C192.458 194.759 191.547 194.366 190.223 193.997C188.899 193.622 187.932 193.215 187.322 192.775C186.455 192.154 186.022 191.34 186.022 190.332C186.022 189.354 186.423 188.56 187.226 187.95C188.034 187.335 189.066 187.027 190.32 187.027C191.169 187.027 191.928 187.191 192.596 187.52C193.27 187.848 193.791 188.305 194.16 188.891C194.529 189.477 194.714 190.13 194.714 190.851H193.624C193.624 189.978 193.325 189.277 192.728 188.75C192.13 188.217 191.327 187.95 190.32 187.95C189.341 187.95 188.562 188.17 187.982 188.609C187.402 189.043 187.112 189.611 187.112 190.314C187.112 190.965 187.372 191.495 187.894 191.905C188.415 192.315 189.25 192.679 190.399 192.995C191.547 193.306 192.417 193.631 193.009 193.971C193.601 194.305 194.046 194.706 194.345 195.175C194.644 195.644 194.793 196.197 194.793 196.836C194.793 197.844 194.389 198.652 193.58 199.262C192.778 199.871 191.717 200.176 190.399 200.176C189.496 200.176 188.667 200.015 187.911 199.692C187.161 199.37 186.59 198.919 186.197 198.339C185.811 197.759 185.617 197.094 185.617 196.344H186.698C186.698 197.246 187.035 197.958 187.709 198.479C188.383 199.001 189.279 199.262 190.399 199.262C191.395 199.262 192.195 199.042 192.798 198.603C193.402 198.163 193.703 197.58 193.703 196.854Z" fill="#1F1945" fill-opacity="0.6"/>
<defs>
<filter id="filter0_d" x="0" y="0" width="276.614" height="266" filterUnits="userSpaceOnUse" color-interpolation-filters="sRGB">
<feFlood flood-opacity="0" result="BackgroundImageFix"/>
<feColorMatrix in="SourceAlpha" type="matrix" values="0 0 0 0 0 0 0 0 0 0 0 0 0 0 0 0 0 0 127 0"/>
<feOffset dy="3"/>
<feGaussianBlur stdDeviation="2"/>
<feColorMatrix type="matrix" values="0 0 0 0 0 0 0 0 0 0 0 0 0 0 0 0 0 0 0.05 0"/>
<feBlend mode="normal" in2="BackgroundImageFix" result="effect1_dropShadow"/>
<feBlend mode="normal" in="SourceGraphic" in2="effect1_dropShadow" result="shape"/>
</filter>
<filter id="filter1_d" x="0" y="89" width="276.614" height="87" filterUnits="userSpaceOnUse" color-interpolation-filters="sRGB">
<feFlood flood-opacity="0" result="BackgroundImageFix"/>
<feColorMatrix in="SourceAlpha" type="matrix" values="0 0 0 0 0 0 0 0 0 0 0 0 0 0 0 0 0 0 127 0"/>
<feOffset dy="2"/>
<feGaussianBlur stdDeviation="2"/>
<feColorMatrix type="matrix" values="0 0 0 0 0 0 0 0 0 0 0 0 0 0 0 0 0 0 0.2 0"/>
<feBlend mode="normal" in2="BackgroundImageFix" result="effect1_dropShadow"/>
<feBlend mode="normal" in="SourceGraphic" in2="effect1_dropShadow" result="shape"/>
</filter>
<filter id="filter2_i" x="30" y="21" width="217" height="219" filterUnits="userSpaceOnUse" color-interpolation-filters="sRGB">
<feFlood flood-opacity="0" result="BackgroundImageFix"/>
<feBlend mode="normal" in="SourceGraphic" in2="BackgroundImageFix" result="shape"/>
<feColorMatrix in="SourceAlpha" type="matrix" values="0 0 0 0 0 0 0 0 0 0 0 0 0 0 0 0 0 0 127 0" result="hardAlpha"/>
<feOffset dy="1"/>
<feGaussianBlur stdDeviation="0.5"/>
<feComposite in2="hardAlpha" operator="arithmetic" k2="-1" k3="1"/>
<feColorMatrix type="matrix" values="0 0 0 0 0 0 0 0 0 0 0 0 0 0 0 0 0 0 0.1 0"/>
<feBlend mode="normal" in2="shape" result="effect1_innerShadow"/>
</filter>
<linearGradient id="paint0_linear" x1="138.307" y1="1" x2="138.307" y2="259" gradientUnits="userSpaceOnUse">
<stop stop-color="#FFD466"/>
<stop offset="1" stop-color="#F3C54F"/>
</linearGradient>
<linearGradient id="paint1_linear" x1="138.307" y1="1" x2="138.307" y2="259" gradientUnits="userSpaceOnUse">
<stop stop-color="#FFD466"/>
<stop offset="1" stop-color="#F3C54F"/>
</linearGradient>
</defs>
</svg>
