<svg width="254" height="246" viewBox="0 0 254 246" fill="none" xmlns="http://www.w3.org/2000/svg">
<circle cx="127" cy="123" r="123" fill="url(#paint0_linear)"/>
<g filter="url(#filter0_d)">
<mask id="mask0" mask-type="alpha" maskUnits="userSpaceOnUse" x="4" y="0" width="246" height="246">
<circle cx="127" cy="123" r="123" fill="#C4C4C4"/>
</mask>
<g mask="url(#mask0)">
<rect x="-8" y="84" width="270" height="79" fill="#9F3555"/>
</g>
</g>
<g filter="url(#filter1_i)">
<path d="M234.5 123C234.5 182.377 186.588 230.5 127.5 230.5C68.412 230.5 20.5 182.377 20.5 123C20.5 63.6229 68.412 15.5 127.5 15.5C186.588 15.5 234.5 63.6229 234.5 123Z" stroke="white" stroke-width="3"/>
</g>
<path d="M105.579 102.67L99.4697 117H95.4716L101.592 103.568H93.7983V100.648H105.579V102.67ZM115.45 111.418H108.701V108.487H115.45V111.418ZM119.043 117V100.648H124.311C125.756 100.648 127.055 100.978 128.208 101.637C129.361 102.288 130.259 103.213 130.903 104.411C131.554 105.601 131.884 106.938 131.891 108.42V109.172C131.891 110.67 131.573 112.014 130.937 113.204C130.308 114.387 129.417 115.315 128.264 115.989C127.118 116.656 125.838 116.993 124.423 117H119.043ZM122.985 103.692V113.968H124.355C125.486 113.968 126.354 113.567 126.961 112.766C127.567 111.958 127.871 110.76 127.871 109.172V108.465C127.871 106.885 127.567 105.695 126.961 104.894C126.354 104.092 125.471 103.692 124.311 103.692H122.985ZM143.413 113.945H138.011L137.068 117H132.856L138.854 100.648H142.56L148.602 117H144.368L143.413 113.945ZM138.955 110.902H142.47L140.707 105.23L138.955 110.902ZM154.565 107.746L157.574 100.648H161.831L156.564 111.126V117H152.566V111.126L147.31 100.648H151.544L154.565 107.746ZM75.3758 138.486H69.0194V145H65.0775V128.648H76.0159V131.692H69.0194V135.454H75.3758V138.486ZM84.1913 139.228H82.0575V145H78.1156V128.648H84.5506C86.4898 128.648 88.0059 129.079 89.099 129.94C90.1921 130.801 90.7386 132.018 90.7386 133.59C90.7386 134.728 90.5065 135.671 90.0423 136.42C89.5856 137.169 88.8669 137.775 87.8861 138.239L91.3002 144.832V145H87.0775L84.1913 139.228ZM82.0575 136.184H84.5506C85.2993 136.184 85.8609 135.989 86.2352 135.6C86.6171 135.203 86.808 134.653 86.808 133.949C86.808 133.245 86.6171 132.695 86.2352 132.298C85.8534 131.894 85.2919 131.692 84.5506 131.692H82.0575V136.184ZM103.721 138.071H97.5214V141.968H104.844V145H93.5795V128.648H104.866V131.692H97.5214V135.14H103.721V138.071ZM117.051 138.071H110.852V141.968H118.174V145H106.91V128.648H118.196V131.692H110.852V135.14H117.051V138.071ZM138.59 131.692H133.682V145H129.74V131.692H124.922V128.648H138.59V131.692ZM146.799 139.228H144.665V145H140.723V128.648H147.158C149.097 128.648 150.614 129.079 151.707 129.94C152.8 130.801 153.346 132.018 153.346 133.59C153.346 134.728 153.114 135.671 152.65 136.42C152.193 137.169 151.475 137.775 150.494 138.239L153.908 144.832V145H149.685L146.799 139.228ZM144.665 136.184H147.158C147.907 136.184 148.468 135.989 148.843 135.6C149.225 135.203 149.416 134.653 149.416 133.949C149.416 133.245 149.225 132.695 148.843 132.298C148.461 131.894 147.899 131.692 147.158 131.692H144.665V136.184ZM160.387 145H156.457V128.648H160.387V145ZM173.077 141.945H167.675L166.732 145H162.521L168.518 128.648H172.224L178.266 145H174.032L173.077 141.945ZM168.619 138.902H172.134L170.371 133.23L168.619 138.902ZM183.869 141.968H190.731V145H179.927V128.648H183.869V141.968Z" fill="white"/>
<path d="M103.271 66H102.19L94.8331 55.0488V66H93.7432V53.2031H94.8331L102.198 64.1631V53.2031H103.271V66ZM116.34 60.2959C116.34 61.4736 116.134 62.5078 115.724 63.3984C115.32 64.2891 114.74 64.9746 113.984 65.4551C113.228 65.9355 112.355 66.1758 111.365 66.1758C109.871 66.1758 108.664 65.6426 107.744 64.5762C106.824 63.5039 106.364 62.0596 106.364 60.2432V58.9248C106.364 57.7588 106.569 56.7275 106.979 55.8311C107.395 54.9287 107.981 54.2373 108.737 53.7568C109.493 53.2705 110.363 53.0273 111.347 53.0273C112.332 53.0273 113.199 53.2646 113.949 53.7393C114.705 54.2139 115.288 54.8848 115.698 55.752C116.108 56.6191 116.322 57.624 116.34 58.7666V60.2959ZM115.259 58.9072C115.259 57.3662 114.91 56.1592 114.213 55.2861C113.515 54.4131 112.56 53.9766 111.347 53.9766C110.158 53.9766 109.209 54.416 108.5 55.2949C107.797 56.168 107.445 57.3896 107.445 58.96V60.2959C107.445 61.8135 107.797 63.0176 108.5 63.9082C109.203 64.793 110.158 65.2354 111.365 65.2354C112.59 65.2354 113.545 64.7988 114.23 63.9258C114.916 63.0469 115.259 61.8252 115.259 60.2607V58.9072ZM128.942 60.6738H125.225V66H124.135V53.2031H128.292C129.657 53.2031 130.724 53.5342 131.491 54.1963C132.259 54.8584 132.643 55.7842 132.643 56.9736C132.643 57.7939 132.402 58.5176 131.922 59.1445C131.441 59.7715 130.797 60.2051 129.988 60.4453L133.187 65.8857V66H132.036L128.942 60.6738ZM125.225 59.751H128.538C129.446 59.751 130.176 59.4932 130.727 58.9775C131.277 58.4619 131.553 57.7939 131.553 56.9736C131.553 56.0713 131.266 55.3711 130.691 54.873C130.117 54.375 129.312 54.126 128.274 54.126H125.225V59.751ZM137.265 66H136.184V53.2031H137.265V66ZM148.348 62.8535C148.348 62.1445 148.099 61.585 147.601 61.1748C147.103 60.7588 146.192 60.3662 144.867 59.9971C143.543 59.6221 142.576 59.2148 141.967 58.7754C141.1 58.1543 140.666 57.3398 140.666 56.332C140.666 55.3535 141.068 54.5596 141.87 53.9502C142.679 53.335 143.71 53.0273 144.964 53.0273C145.814 53.0273 146.573 53.1914 147.241 53.5195C147.914 53.8477 148.436 54.3047 148.805 54.8906C149.174 55.4766 149.359 56.1299 149.359 56.8506H148.269C148.269 55.9775 147.97 55.2773 147.372 54.75C146.775 54.2168 145.972 53.9502 144.964 53.9502C143.986 53.9502 143.206 54.1699 142.626 54.6094C142.046 55.043 141.756 55.6113 141.756 56.3145C141.756 56.9648 142.017 57.4951 142.538 57.9053C143.06 58.3154 143.895 58.6787 145.043 58.9951C146.192 59.3057 147.062 59.6309 147.654 59.9707C148.245 60.3047 148.691 60.7061 148.99 61.1748C149.288 61.6436 149.438 62.1973 149.438 62.8359C149.438 63.8438 149.033 64.6523 148.225 65.2617C147.422 65.8711 146.362 66.1758 145.043 66.1758C144.141 66.1758 143.312 66.0146 142.556 65.6924C141.806 65.3701 141.235 64.9189 140.842 64.3389C140.455 63.7588 140.262 63.0938 140.262 62.3438H141.343C141.343 63.2461 141.68 63.958 142.354 64.4795C143.028 65.001 143.924 65.2617 145.043 65.2617C146.039 65.2617 146.839 65.042 147.443 64.6025C148.046 64.1631 148.348 63.5801 148.348 62.8535ZM155.018 59.6455L153.217 61.4209V66H152.136V53.2031H153.217V60.1025L159.773 53.2031H161.136L155.774 58.8984L161.549 66H160.23L155.018 59.6455Z" fill="#1F1945" fill-opacity="0.6"/>
<path d="M78.1521 187.023H72.1844V193H71.1033V180.203H79.0311V181.126H72.1844V186.101H78.1521V187.023ZM90.4038 180.203V188.939C90.3979 189.801 90.2075 190.551 89.8325 191.189C89.4575 191.828 88.9272 192.32 88.2416 192.666C87.562 193.006 86.7797 193.176 85.895 193.176C84.5473 193.176 83.4663 192.81 82.6518 192.077C81.8432 191.339 81.4243 190.319 81.395 189.019V180.203H82.4672V188.86C82.4672 189.938 82.7748 190.776 83.3901 191.374C84.0053 191.966 84.8403 192.262 85.895 192.262C86.9496 192.262 87.7817 191.963 88.3911 191.365C89.0063 190.768 89.3139 189.936 89.3139 188.869V180.203H90.4038ZM94.8682 192.086H101.188V193H93.7784V180.203H94.8682V192.086ZM104.72 192.086H111.04V193H103.631V180.203H104.72V192.086ZM125.128 189.414H119.318L118 193H116.866L121.709 180.203H122.737L127.58 193H126.455L125.128 189.414ZM119.652 188.491H124.785L122.219 181.521L119.652 188.491ZM138.786 189.01C138.639 190.357 138.156 191.389 137.336 192.104C136.521 192.818 135.434 193.176 134.075 193.176C133.126 193.176 132.285 192.938 131.552 192.464C130.826 191.989 130.263 191.318 129.865 190.451C129.466 189.578 129.264 188.582 129.258 187.463V185.802C129.258 184.665 129.458 183.657 129.856 182.778C130.255 181.899 130.826 181.223 131.57 180.748C132.32 180.268 133.181 180.027 134.154 180.027C135.525 180.027 136.606 180.399 137.397 181.144C138.194 181.882 138.657 182.904 138.786 184.211H137.696C137.426 182.037 136.246 180.95 134.154 180.95C132.994 180.95 132.068 181.384 131.377 182.251C130.691 183.118 130.348 184.316 130.348 185.846V187.41C130.348 188.887 130.682 190.064 131.35 190.943C132.024 191.822 132.932 192.262 134.075 192.262C135.206 192.262 136.058 191.992 136.632 191.453C137.207 190.908 137.561 190.094 137.696 189.01H138.786ZM150.835 189.01C150.689 190.357 150.205 191.389 149.385 192.104C148.571 192.818 147.484 193.176 146.124 193.176C145.175 193.176 144.334 192.938 143.602 192.464C142.875 191.989 142.313 191.318 141.914 190.451C141.516 189.578 141.314 188.582 141.308 187.463V185.802C141.308 184.665 141.507 183.657 141.906 182.778C142.304 181.899 142.875 181.223 143.619 180.748C144.369 180.268 145.231 180.027 146.203 180.027C147.574 180.027 148.656 180.399 149.447 181.144C150.243 181.882 150.706 182.904 150.835 184.211H149.745C149.476 182.037 148.295 180.95 146.203 180.95C145.043 180.95 144.117 181.384 143.426 182.251C142.741 183.118 142.398 184.316 142.398 185.846V187.41C142.398 188.887 142.732 190.064 143.4 190.943C144.074 191.822 144.982 192.262 146.124 192.262C147.255 192.262 148.108 191.992 148.682 191.453C149.256 190.908 149.611 190.094 149.745 189.01H150.835ZM160.89 186.865H154.904V192.086H161.786V193H153.823V180.203H161.742V181.126H154.904V185.951H160.89V186.865ZM171.673 189.854C171.673 189.145 171.424 188.585 170.926 188.175C170.428 187.759 169.517 187.366 168.193 186.997C166.869 186.622 165.902 186.215 165.293 185.775C164.425 185.154 163.992 184.34 163.992 183.332C163.992 182.354 164.393 181.56 165.196 180.95C166.004 180.335 167.036 180.027 168.29 180.027C169.139 180.027 169.898 180.191 170.566 180.52C171.24 180.848 171.761 181.305 172.13 181.891C172.5 182.477 172.684 183.13 172.684 183.851H171.594C171.594 182.978 171.295 182.277 170.698 181.75C170.1 181.217 169.297 180.95 168.29 180.95C167.311 180.95 166.532 181.17 165.952 181.609C165.372 182.043 165.082 182.611 165.082 183.314C165.082 183.965 165.342 184.495 165.864 184.905C166.385 185.315 167.22 185.679 168.369 185.995C169.517 186.306 170.387 186.631 170.979 186.971C171.571 187.305 172.016 187.706 172.315 188.175C172.614 188.644 172.763 189.197 172.763 189.836C172.763 190.844 172.359 191.652 171.55 192.262C170.748 192.871 169.687 193.176 168.369 193.176C167.466 193.176 166.637 193.015 165.881 192.692C165.131 192.37 164.56 191.919 164.168 191.339C163.781 190.759 163.587 190.094 163.587 189.344H164.669C164.669 190.246 165.005 190.958 165.679 191.479C166.353 192.001 167.25 192.262 168.369 192.262C169.365 192.262 170.165 192.042 170.768 191.603C171.372 191.163 171.673 190.58 171.673 189.854ZM182.703 189.854C182.703 189.145 182.454 188.585 181.956 188.175C181.458 187.759 180.547 187.366 179.223 186.997C177.899 186.622 176.932 186.215 176.322 185.775C175.455 185.154 175.022 184.34 175.022 183.332C175.022 182.354 175.423 181.56 176.226 180.95C177.034 180.335 178.066 180.027 179.32 180.027C180.169 180.027 180.928 180.191 181.596 180.52C182.27 180.848 182.791 181.305 183.16 181.891C183.529 182.477 183.714 183.13 183.714 183.851H182.624C182.624 182.978 182.325 182.277 181.728 181.75C181.13 181.217 180.327 180.95 179.32 180.95C178.341 180.95 177.562 181.17 176.982 181.609C176.402 182.043 176.112 182.611 176.112 183.314C176.112 183.965 176.372 184.495 176.894 184.905C177.415 185.315 178.25 185.679 179.399 185.995C180.547 186.306 181.417 186.631 182.009 186.971C182.601 187.305 183.046 187.706 183.345 188.175C183.644 188.644 183.793 189.197 183.793 189.836C183.793 190.844 183.389 191.652 182.58 192.262C181.778 192.871 180.717 193.176 179.399 193.176C178.496 193.176 177.667 193.015 176.911 192.692C176.161 192.37 175.59 191.919 175.197 191.339C174.811 190.759 174.617 190.094 174.617 189.344H175.698C175.698 190.246 176.035 190.958 176.709 191.479C177.383 192.001 178.279 192.262 179.399 192.262C180.395 192.262 181.195 192.042 181.798 191.603C182.402 191.163 182.703 190.58 182.703 189.854Z" fill="#1F1945" fill-opacity="0.6"/>
<defs>
<filter id="filter0_d" x="0" y="82" width="254" height="87" filterUnits="userSpaceOnUse" color-interpolation-filters="sRGB">
<feFlood flood-opacity="0" result="BackgroundImageFix"/>
<feColorMatrix in="SourceAlpha" type="matrix" values="0 0 0 0 0 0 0 0 0 0 0 0 0 0 0 0 0 0 127 0"/>
<feOffset dy="2"/>
<feGaussianBlur stdDeviation="2"/>
<feColorMatrix type="matrix" values="0 0 0 0 0 0 0 0 0 0 0 0 0 0 0 0 0 0 0.2 0"/>
<feBlend mode="normal" in2="BackgroundImageFix" result="effect1_dropShadow"/>
<feBlend mode="normal" in="SourceGraphic" in2="effect1_dropShadow" result="shape"/>
</filter>
<filter id="filter1_i" x="19" y="14" width="217" height="219" filterUnits="userSpaceOnUse" color-interpolation-filters="sRGB">
<feFlood flood-opacity="0" result="BackgroundImageFix"/>
<feBlend mode="normal" in="SourceGraphic" in2="BackgroundImageFix" result="shape"/>
<feColorMatrix in="SourceAlpha" type="matrix" values="0 0 0 0 0 0 0 0 0 0 0 0 0 0 0 0 0 0 127 0" result="hardAlpha"/>
<feOffset dy="1"/>
<feGaussianBlur stdDeviation="0.5"/>
<feComposite in2="hardAlpha" operator="arithmetic" k2="-1" k3="1"/>
<feColorMatrix type="matrix" values="0 0 0 0 0 0 0 0 0 0 0 0 0 0 0 0 0 0 0.1 0"/>
<feBlend mode="normal" in2="shape" result="effect1_innerShadow"/>
</filter>
<linearGradient id="paint0_linear" x1="127" y1="0" x2="127" y2="246" gradientUnits="userSpaceOnUse">
<stop stop-color="#FFD465"/>
<stop offset="1" stop-color="#F3C54F"/>
</linearGradient>
</defs>
</svg>
