<svg width="42" height="41" viewBox="0 0 42 41" fill="none" xmlns="http://www.w3.org/2000/svg">
<path d="M32.4285 12.293C27.9642 12.293 23.1428 16.6173 21 18.783C18.8571 16.6173 14.0357 12.293 9.57142 12.293C4.20432 12.293 1 15.4973 1 20.8644C1 26.2315 4.20432 29.4358 9.57142 29.4358C14.0357 29.4358 18.8571 25.1115 21 22.9458C23.1428 25.1115 27.9642 29.4358 32.4285 29.4358C37.7957 29.4358 40.9999 26.2315 40.9999 20.8644C40.9999 15.4973 37.7956 12.293 32.4285 12.293ZM9.57134 26.5787C5.77991 26.5787 3.85703 24.6558 3.85703 20.8644C3.85703 17.073 5.77991 15.1501 9.57134 15.1501C12.7142 15.1501 16.8856 18.6915 19.0399 20.8644C16.8899 23.0401 12.727 26.5787 9.57134 26.5787ZM32.4285 26.5787C29.2856 26.5787 25.1142 23.0373 22.9599 20.8644C25.1028 18.6901 29.2728 15.1501 32.4285 15.1501C36.2199 15.1501 38.1428 17.073 38.1428 20.8644C38.1428 24.6558 36.2199 26.5787 32.4285 26.5787Z" fill="#D3293F" stroke="#D3293F" stroke-width="0.5"/>
</svg>
