<svg width="88" height="42" viewBox="0 0 88 42" fill="none" xmlns="http://www.w3.org/2000/svg">
<path d="M12.1289 7.40625H18.2812V24.9668C18.2812 26.5957 17.9004 28.0488 17.1387 29.3262C16.3887 30.6035 15.334 31.5938 13.9746 32.2969C12.627 33 11.1211 33.3516 9.45703 33.3516C6.66797 33.3516 4.5 32.6484 2.95312 31.2422C1.40625 29.8359 0.632812 27.8438 0.632812 25.2656H6.82031C6.82031 26.4375 7.01953 27.2871 7.41797 27.8145C7.82812 28.3418 8.50781 28.6055 9.45703 28.6055C10.3125 28.6055 10.9688 28.2891 11.4258 27.6562C11.8945 27.0117 12.1289 26.1152 12.1289 24.9668V7.40625ZM42.2578 7.40625V24.1582C42.2578 26.0566 41.8535 27.7031 41.0449 29.0977C40.2363 30.4805 39.0762 31.5352 37.5645 32.2617C36.0527 32.9883 34.2656 33.3516 32.2031 33.3516C29.0859 33.3516 26.6309 32.543 24.8379 30.9258C23.0449 29.3086 22.1309 27.0938 22.0957 24.2812V7.40625H28.3008V24.4043C28.3711 27.2051 29.6719 28.6055 32.2031 28.6055C33.4805 28.6055 34.4473 28.2539 35.1035 27.5508C35.7598 26.8477 36.0879 25.7051 36.0879 24.123V7.40625H42.2578ZM66.832 24.334C66.75 26.1152 66.2695 27.6914 65.3906 29.0625C64.5117 30.4219 63.2754 31.4766 61.6816 32.2266C60.0996 32.9766 58.2891 33.3516 56.25 33.3516C52.8867 33.3516 50.2383 32.2559 48.3047 30.0645C46.3711 27.873 45.4043 24.7793 45.4043 20.7832V19.5176C45.4043 17.0098 45.8379 14.8184 46.7051 12.9434C47.584 11.0566 48.8438 9.60352 50.4844 8.58398C52.125 7.55273 54.0234 7.03711 56.1797 7.03711C59.2852 7.03711 61.7812 7.85742 63.668 9.49805C65.5547 11.127 66.627 13.377 66.8848 16.248H60.7324C60.6855 14.6895 60.293 13.5703 59.5547 12.8906C58.8164 12.2109 57.6914 11.8711 56.1797 11.8711C54.6445 11.8711 53.5195 12.4453 52.8047 13.5938C52.0898 14.7422 51.7148 16.5762 51.6797 19.0957V20.9062C51.6797 23.6367 52.0195 25.5879 52.6992 26.7598C53.3906 27.9316 54.5742 28.5176 56.25 28.5176C57.668 28.5176 58.752 28.1836 59.502 27.5156C60.252 26.8477 60.6504 25.7871 60.6973 24.334H66.832ZM85.623 22.1543H75.9199V28.2539H87.3809V33H69.75V7.40625H87.416V12.1699H75.9199V17.5664H85.623V22.1543Z" fill="#BF3A4A"/>
<circle cx="3.5" cy="19.5" r="3.5" fill="#E3445B"/>
</svg>
