<svg width="34" height="35" viewBox="0 0 34 35" fill="none" xmlns="http://www.w3.org/2000/svg">
<g clip-path="url(#clip0)">
<path d="M16.9468 19.8564C15.5898 19.8564 14.4897 20.9565 14.4897 22.3135C14.4897 23.1799 14.9387 23.9411 15.6162 24.3786V27.2939C15.6162 28.0274 16.2108 28.6221 16.9443 28.6221C17.6778 28.6221 18.2724 28.0274 18.2724 27.2939V24.3817C18.9527 23.9447 19.4038 23.1821 19.4038 22.3135C19.4038 20.9565 18.3038 19.8564 16.9468 19.8564Z" fill="#FF6A7C" stroke="#392C98" stroke-width="0.5"/>
<path d="M26.5093 13.3486H24.1162V7.88805C24.1162 4.0151 20.8989 0.864258 16.9443 0.864258C12.9898 0.864258 9.77245 4.0151 9.77245 7.88805V13.3486H7.38428C5.18729 13.3486 3.3999 15.136 3.3999 17.333V30.8799C3.3999 33.0769 5.18729 34.8643 7.38428 34.8643H26.5093C28.7063 34.8643 30.4937 33.0769 30.4937 30.8799V17.333C30.4937 15.136 28.7063 13.3486 26.5093 13.3486ZM12.4287 7.88805C12.4287 5.47976 14.4544 3.52051 16.9443 3.52051C19.4342 3.52051 21.4599 5.47976 21.4599 7.88805V13.3486H12.4287V7.88805ZM27.8374 30.8799C27.8374 31.6122 27.2416 32.208 26.5093 32.208H7.38428C6.65195 32.208 6.05615 31.6122 6.05615 30.8799V17.333C6.05615 16.6007 6.65195 16.0049 7.38428 16.0049H26.5093C27.2416 16.0049 27.8374 16.6007 27.8374 17.333V30.8799Z" fill="#FF6A7C" stroke="#392C98" stroke-width="0.5"/>
</g>
<defs>
<clipPath id="clip0">
<rect y="0.864258" width="34" height="34" fill="white"/>
</clipPath>
</defs>
</svg>
