<svg width="69" height="33" viewBox="0 0 69 33" fill="none" xmlns="http://www.w3.org/2000/svg">
<path d="M9.43359 6.09375H14.2188V19.752C14.2188 21.0189 13.9225 22.1491 13.3301 23.1426C12.7467 24.1361 11.9264 24.9062 10.8691 25.4531C9.82096 26 8.64974 26.2734 7.35547 26.2734C5.1862 26.2734 3.5 25.7266 2.29688 24.6328C1.09375 23.5391 0.492188 21.9896 0.492188 19.9844H5.30469C5.30469 20.8958 5.45964 21.5566 5.76953 21.9668C6.08854 22.377 6.61719 22.582 7.35547 22.582C8.02083 22.582 8.53125 22.3359 8.88672 21.8438C9.2513 21.3424 9.43359 20.6452 9.43359 19.752V6.09375ZM32.8672 6.09375V19.123C32.8672 20.5996 32.5527 21.8802 31.9238 22.9648C31.2949 24.0404 30.3926 24.8607 29.2168 25.4258C28.041 25.9909 26.651 26.2734 25.0469 26.2734C22.6224 26.2734 20.7129 25.6445 19.3184 24.3867C17.9238 23.1289 17.2129 21.4062 17.1855 19.2188V6.09375H22.0117V19.3145C22.0664 21.4928 23.0781 22.582 25.0469 22.582C26.0404 22.582 26.7923 22.3086 27.3027 21.7617C27.8132 21.2148 28.0684 20.3262 28.0684 19.0957V6.09375H32.8672ZM51.9805 19.2598C51.9167 20.6452 51.543 21.8711 50.8594 22.9375C50.1758 23.9948 49.2142 24.8151 47.9746 25.3984C46.7441 25.9818 45.3359 26.2734 43.75 26.2734C41.1341 26.2734 39.0742 25.4212 37.5703 23.7168C36.0664 22.0124 35.3145 19.6061 35.3145 16.498V15.5137C35.3145 13.5632 35.6517 11.8587 36.3262 10.4004C37.0098 8.93294 37.9896 7.80273 39.2656 7.00977C40.5417 6.20768 42.0182 5.80664 43.6953 5.80664C46.1107 5.80664 48.0521 6.44466 49.5195 7.7207C50.987 8.98763 51.821 10.7376 52.0215 12.9707H47.2363C47.1999 11.7585 46.8945 10.888 46.3203 10.3594C45.7461 9.83073 44.8711 9.56641 43.6953 9.56641C42.5013 9.56641 41.6263 10.013 41.0703 10.9062C40.5143 11.7995 40.2227 13.2259 40.1953 15.1855V16.5938C40.1953 18.7174 40.4596 20.235 40.9883 21.1465C41.526 22.0579 42.4466 22.5137 43.75 22.5137C44.8529 22.5137 45.696 22.2539 46.2793 21.7344C46.8626 21.2148 47.1725 20.39 47.209 19.2598H51.9805ZM66.5957 17.5645H59.0488V22.3086H67.9629V26H54.25V6.09375H67.9902V9.79883H59.0488V13.9961H66.5957V17.5645Z" fill="white"/>
<circle cx="3" cy="15" r="3" fill="white"/>
</svg>
