<svg width="767" height="512" viewBox="0 0 767 512" fill="none" xmlns="http://www.w3.org/2000/svg">
<g filter="url(#filter0_i)">
<path d="M263.829 510.366C537.929 493 772.234 398.861 766.429 298.5C766.429 74 467.965 33.3664 167.929 6.49984C105.581 0.917034 49.6607 -1.03414 0 2.03605V486.592C84.5686 505.97 177.096 515.861 263.829 510.366Z" fill="url(#paint0_linear)"/>
</g>
<g opacity="0.74" filter="url(#filter1_dd)">
<circle cx="90.4287" cy="89.5" r="24" stroke="url(#paint1_linear)"/>
</g>
<g opacity="0.44" filter="url(#filter2_dd)">
<circle cx="444.929" cy="413" r="19.5" stroke="url(#paint2_linear)"/>
</g>
<g filter="url(#filter3_dd)">
<circle cx="80.4287" cy="227.5" r="27.5" fill="url(#paint3_linear)"/>
</g>
<g opacity="0.45" filter="url(#filter4_f)">
<ellipse cx="374.892" cy="353.796" rx="284.305" ry="52.1854" fill="#313131"/>
</g>
<path d="M630.137 198.842H344.379V338.544H630.137V198.842Z" fill="#EFEFEF" stroke="black" stroke-miterlimit="10"/>
<path d="M190.535 145.644L180.673 216.255C179.259 216.206 177.85 216.459 176.528 216.999C173.166 218.352 173.244 220.264 169.534 221.256C165.659 222.289 162.811 220.915 157.542 219.127C148.824 216.172 143.554 214.353 137.558 214.859C134.4 215.128 128.569 215.634 124.578 220.192C120.073 225.359 118.407 235.248 119.579 241.521C119.938 242.917 119.938 244.391 119.579 245.788C118.31 250.056 113.322 251.462 113.583 252.185C113.845 252.908 118.049 251.772 120.577 251.152C127.881 249.26 131.572 248.31 132.569 247.948C142.508 244.476 141.559 242.337 146.557 241.552C153.793 240.404 159.905 244.321 165.533 247.948C169.534 250.49 173.128 252.826 175.104 256.019L155.614 395.214L36.5352 415.985L117.904 160.153L190.535 145.644Z" fill="url(#paint4_linear)"/>
<path d="M239.453 315.045C239.385 315.469 238.881 318.404 240.421 320.377C241.845 322.144 243.618 321.493 246.417 322.506C250.079 323.839 253.498 327.311 254.409 331.042C254.68 332.158 254.845 333.79 252.413 340.631C250.826 345.444 248.819 350.087 246.417 354.499C241.961 362.611 240.198 362.849 239.424 367.292C239.172 368.688 238.28 374.226 241.419 379.021C241.729 379.507 244.703 383.909 249.41 384.353C250.108 384.415 252.617 384.663 253.411 383.32C253.992 382.287 253.246 381.191 252.442 377.988C251.917 376.259 251.592 374.469 251.474 372.656C251.474 370.114 252.84 367.726 256.462 364.13C259.826 360.868 263.513 358.006 267.457 355.595C270.154 353.899 272.638 351.843 274.848 349.477L269.133 413.123L156.525 395.059L155.556 395.225L175.055 255.967C175.753 257.072 176.234 258.317 176.47 259.625C177.07 263.066 175.501 264.513 176.47 269.225C177.064 272.401 178.446 275.348 180.47 277.761C182.669 280.293 184.461 280.623 191.455 284.157C196.453 286.648 196.124 286.782 199.446 288.425C210.392 293.809 212.039 291.618 220.428 295.886C228.003 299.741 230.744 303.575 235.413 302.283C237.137 301.808 239.365 300.578 239.414 299.09C239.414 297.798 237.67 296.951 228.419 292.683C221.897 289.8 215.229 287.309 208.445 285.222C204.077 283.909 200.899 283.155 200.444 280.954C199.989 278.753 202.691 276.283 203.447 275.622C209.114 270.6 215.846 272.604 229.427 272.429C236.421 272.325 232.178 271.819 257.402 269.225C262.449 268.698 266.12 268.378 270.382 266.032C275.032 263.49 275.652 261.227 279.381 260.69C280.503 260.539 281.639 260.571 282.752 260.783L278.994 303.058C275.629 301.299 272.082 299.967 268.426 299.09C262.178 297.612 257.538 296.527 253.44 299.09C252.113 299.916 250.224 301.777 246.446 305.486C245.691 306.23 244.664 307.253 243.453 308.679C241.031 311.532 239.811 312.978 239.453 315.045Z" fill="url(#paint5_linear)"/>
<path d="M279.42 191.381C280.543 194.926 283.749 194.926 288.409 198.325L284.011 247.276C283.175 246.731 282.308 246.241 281.415 245.809C277.967 244.094 275.419 244.001 274.421 241.541C273.956 240.162 273.956 238.653 274.421 237.273C275.855 231.858 281.105 231.259 281.415 227.673C281.473 226.981 281.415 225.906 277.414 221.277C271.99 214.88 270.421 214.88 268.425 211.677C266.178 208.06 265.432 206.344 265.432 198.883C265.432 187.155 276.417 178.619 270.421 174.362C252.985 161.961 249.439 172.222 226.462 174.362C222.336 174.744 213.579 181.337 211.477 188.219C209.927 193.293 210.75 195.69 208.474 197.819C204.483 201.663 198.787 197.085 193.489 201.023C189.885 203.709 188.219 209.011 189.498 210.612C191.057 212.565 196.569 208.484 198.487 210.612C199.93 212.235 199.175 217.164 196.492 219.148C192.491 222.093 187.086 216.42 180.654 216.275L190.534 145.685L191.028 145.582L289.523 163.718L291.528 163.356L290.201 178.195C286.016 177.668 283.604 177.844 281.386 179.714C279.168 181.585 278.509 188.653 279.42 191.381Z" fill="url(#paint6_linear)"/>
<path d="M506.495 414.073L505.178 414.249L387.429 395.5H384.929L387.756 307.377C390.269 308.252 392.528 309.804 394.314 311.883C396.697 314.88 398.102 318.623 398.314 322.547C398.614 327.342 396.851 327.828 397.345 332.147C397.869 336.994 400.523 340.414 402.344 342.812C404.165 345.209 406.219 347.813 409.338 349.208C415.857 352.102 422.899 347.989 426.328 346.005C432.136 342.439 436.95 337.289 440.277 331.083C441.372 329.016 442.272 327.032 446.263 319.344C448.753 314.58 449.538 313.216 451.262 311.883C453.964 309.754 455.853 310.167 458.256 307.615C460.019 305.755 459.97 304.515 461.258 302.283C461.452 301.931 462.227 301.249 461.258 301.249C459.927 301.136 458.589 301.136 457.258 301.249C455.931 301.456 454.584 301.456 453.257 301.249C451.32 300.836 450.651 300.03 448.269 299.121C446.958 298.683 445.621 298.338 444.268 298.087C438.911 296.496 435.279 288.498 436.276 287.423C436.974 286.689 440.277 288.859 442.272 290.626C444.268 292.393 444.433 293.53 446.263 294.894C448.052 296.154 450.12 296.889 452.259 297.023C457.19 297.56 458.256 295.029 463.254 294.894C464.844 294.862 466.432 295.039 467.981 295.421C468.584 295.576 469.22 295.484 469.763 295.163L470.248 294.894C471.216 294.326 471.003 294.512 472.243 293.861C478.724 290.306 481.93 288.529 484.235 288.529C491.016 288.529 497.07 294.223 501.216 298.118L501.323 298.222L506.495 414.073Z" fill="url(#paint7_linear)"/>
<path d="M390.929 145.866L291.446 163.547L290.119 178.386C292.705 178.707 295.931 179.286 300.29 179.906C305.133 180.598 309.599 186.757 316.273 186.302C328.197 185.475 329.311 183.419 339.25 183.099C346.37 182.871 345.343 183.936 356.24 184.132C368.581 184.401 374.568 183.099 375.217 185.165C375.943 187.48 369.405 191.862 368.223 192.626C360.842 197.556 356.182 196.316 353.238 201.162C352.947 201.627 353.083 201.503 351.242 207.559C349.092 214.637 347.997 218.223 347.241 219.287C345.663 221.571 344.791 221.044 335.259 225.684C328.75 228.888 325.427 230.5 322.269 233.145C319.46 235.511 319.266 236.348 316.273 238.477C312.35 241.267 309.57 243.241 306.286 242.745C300.697 241.908 297.82 234.592 297.287 233.145C296.281 230.07 295.949 226.789 296.318 223.555C296.696 217.355 298.556 216.714 298.314 212.891C297.926 206.773 292.802 202.278 290.322 200.087C289.635 199.488 288.966 198.961 288.327 198.506L283.929 247.457C287.474 249.824 290.981 253.492 291.32 257.677C291.398 258.566 291.572 260.777 290.351 261.945C288.695 263.475 286.186 261.583 282.738 260.963L278.817 303.222C279.317 303.722 280.539 304.107 281.362 304.603C286.893 307.93 287.048 309.563 292.357 312.064C295.689 313.645 298.44 314.947 302.344 315.267C306.896 315.639 309.337 314.358 312.331 316.301C312.747 316.569 315.333 318.285 315.333 320.568C315.333 322.697 313.009 323.999 310.335 325.901C304.523 330.034 305.656 330.582 300.348 334.426C291.824 340.626 289.896 338.435 281.362 344.026C278.921 345.547 276.699 347.437 274.765 349.637L268.992 413.438L269.312 413.5L385.921 395.374L387.684 307.631C386.86 307.321 386.037 307.052 385.252 306.804C382.966 306.081 380.254 305.523 370.267 305.771C359.418 306.008 357.277 306.804 354.274 304.737C351.271 302.67 348.83 298.878 349.285 295.137C349.547 292.864 350.855 291.427 353.276 288.741C355.971 285.862 358.99 283.352 362.266 281.269C365.443 279.14 367.264 278.427 367.264 277.001C367.264 275.214 364.271 274.666 364.271 272.744C364.271 271.277 365.917 270.677 368.262 268.476C370.186 266.594 371.838 264.417 373.163 262.017C372.65 260.354 371.836 258.525 370.257 257.812C367.855 256.778 365.588 259.083 364.261 257.812C362.934 256.541 363.932 253.595 364.261 252.479C365.54 248.212 369.25 243.303 372.253 243.954C372.989 244.109 373.221 244.491 376.244 248.212C379.886 252.655 380.448 253.141 381.242 253.544C383.828 254.856 386.57 254.05 388.236 253.544L388.778 253.368L388.904 246.972C388.566 246.971 388.234 246.882 387.935 246.713C387.646 246.55 387.395 246.321 387.199 246.042C386.783 245.256 387.034 243.975 388.991 241.019L390.929 145.866ZM357.238 233.217C356.124 236.741 349.963 236.421 349.247 236.421C344.694 236.162 340.005 233.217 340.248 231.089C340.403 229.859 342.35 229.198 346.244 227.895C350.361 226.5 352.424 225.829 354.235 226.862C356.337 228.019 357.945 230.996 357.238 233.228V233.217Z" fill="url(#paint8_linear)"/>
<path d="M497.661 216.079C492.721 217.536 490.096 216.74 484.236 216.978C476.346 217.322 468.572 219.123 461.259 222.299C452.783 226.154 450.991 229.771 446.264 228.706C442.835 227.952 442.583 225.792 436.277 222.299C432.806 220.364 429.109 218.932 425.282 218.042C420.749 217.009 413.949 215.552 408.301 219.075C405.173 221.039 406.674 221.865 401.308 227.601C396.755 232.478 393.365 234.359 389.316 240.404L389.112 240.714L391.049 145.644L391.534 145.551L495.278 164.751H495.375L497.661 216.079Z" fill="url(#paint9_linear)"/>
<path d="M737.929 362.5L692.393 163.997L595.429 148.982L601.59 211.191C603.443 211.158 605.294 211.306 607.121 211.635C613.698 212.669 616.527 214.043 623.114 215.903C629.895 217.825 633.769 218.931 639.097 219.106C645.994 219.334 645.781 217.691 652.087 218.073C658.52 218.381 664.746 220.597 670.065 224.47C672.41 226.226 676.691 229.461 676.061 231.931C675.432 234.4 671.073 233.77 662.074 236.198C653.782 238.462 649.481 239.629 646.091 243.659C643.95 246.202 644.405 247.235 640.095 253.259C636.423 258.426 634.796 259.46 633.101 259.656C630.573 259.956 627.434 258.437 627.105 256.463C626.717 254.097 630.621 252.898 634.099 246.863C634.854 245.561 637.101 241.634 636.104 240.466C634.573 238.699 633.101 239.433 631.105 240.466C630.815 240.621 628.103 242.595 627.105 242.595C626.756 242.595 623.937 244.124 619.113 245.799C613.495 247.741 608.041 247.545 605.184 247.576L605.426 250.046C605.92 250.614 606.395 251.286 607.111 252.185C609.117 254.789 610.114 256.091 610.114 257.517C610.114 259.511 608.69 261.216 606.695 262.922L611.732 312.978C613.566 313.22 615.386 313.565 617.186 314.012C620.973 314.921 630.398 317.721 630.175 320.408C630.011 322.217 625.555 323.508 622.184 323.612C618.183 323.756 617.002 322.279 612.497 320.987L613.011 326.216C614.263 327.085 615.678 327.653 617.156 327.879C624.092 329.089 626.436 324.914 631.144 326.846C634.932 328.365 636.801 332.447 638.138 335.371C639.903 338.967 640.596 343.052 640.124 347.08C639.599 350.595 638.223 353.904 636.133 356.68C633.944 359.935 631.861 363.025 629.139 363.076C626.417 363.128 625.138 359.883 621.138 355.615C619.379 353.687 617.456 351.936 615.394 350.386L619.429 398.5L675.429 409C675.429 409 691.929 399.724 708.429 388C727.429 374.5 737.929 362.5 737.929 362.5ZM686.048 359.873C685.583 362.694 682.9 364.203 679.055 366.269C678.086 366.827 669.368 371.436 668.06 369.473C667.498 368.615 668.69 366.765 671.063 363.066C674.056 358.354 675.819 355.719 679.055 354.541C680.14 354.148 682.29 353.352 684.043 354.541C684.814 355.135 685.409 355.953 685.758 356.897C686.117 357.839 686.221 358.87 686.058 359.873H686.048Z" fill="url(#paint10_linear)"/>
<path d="M712 385.5L705 390.5L698.5 395L691.5 399.5L684 404L675.5 409L646 403.5L733 341L738 362.5C735 366 731 369.5 731 369.5L730.5 370L724.5 375.5L718.5 380.5L712 385.5Z" fill="url(#paint11_linear)"/>
<path d="M615.365 350.387C612.599 348.266 609.453 346.778 606.123 346.015C599.73 344.724 593.347 347.204 588.145 349.219C582.439 351.42 578.787 354.003 577.15 352.422C575.513 350.841 578.119 347.328 576.182 343.887C574.332 340.683 570.37 340.786 570.186 338.554C570.118 337.81 570.476 336.891 572.181 335.351C575.949 331.972 579.766 331.424 584.173 330.019C590.257 328.107 588.871 327.301 594.17 325.751C597.793 324.717 603.072 323.219 609.155 324.717C610.516 325.004 611.825 325.524 613.03 326.257L612.517 321.028C611.848 320.822 611.073 320.636 610.182 320.46C604.293 319.22 600.621 319.933 600.185 318.321C599.846 317.06 601.755 315.489 602.191 315.128C604.893 312.865 608.371 312.596 611.722 312.989L606.724 262.942C605.92 263.614 605.048 264.296 604.147 265.009C602.558 266.208 600.888 267.279 599.149 268.213C593.066 271.705 591.845 271.416 590.16 273.545C588.087 276.221 588.406 278.712 587.157 278.877C585.326 279.115 584.745 273.71 581.17 272.48C578.168 271.447 574.254 273.793 574.177 275.674C574.099 277.554 578.051 277.74 579.165 281.006C580.279 284.271 578.197 288.725 575.174 290.606C573.818 291.453 573.082 291.257 568.181 291.639C558.6 292.466 558.184 293.489 558.184 293.778C558.058 294.729 560.741 295.049 561.187 296.971C561.671 299.11 559.182 302.438 556.188 303.368C551.054 305.001 546.201 299.028 545.194 300.175C544.187 301.322 547.199 306.933 552.188 310.839C552.914 311.397 554.125 312.265 560.189 315.107C568.461 318.951 571.29 319.695 571.174 320.439C571.009 321.473 564.781 321.586 559.182 320.439C555.34 319.613 551.637 318.174 548.197 316.171C543.47 313.454 539.663 311.253 539.208 307.636C538.839 304.794 540.883 303.699 540.176 301.239C539.43 298.542 536.302 297.374 532.185 295.907C527.341 294.192 520.735 291.774 518.197 294.874C516.686 296.661 518.081 298.625 516.192 301.27C515.47 302.234 514.561 303.02 513.528 303.575C512.49 304.125 511.354 304.431 510.196 304.474C506.854 304.474 505.043 301.704 501.303 298.17L506.486 414.125L618.106 398.314L620.101 398.593L615.365 350.387ZM578.148 294.832C578.272 294.317 578.527 293.849 578.884 293.479C579.235 293.104 579.673 292.836 580.153 292.704C581.248 292.549 582.217 293.737 583.147 294.832C583.934 295.803 584.605 296.876 585.142 298.025C586.653 301.033 587.631 303.265 588.145 304.432C590.14 308.866 590.412 309.517 590.14 309.765C589.404 310.436 585.597 306.964 585.142 306.561C584.063 305.583 583.062 304.511 582.149 303.358C579.746 300.33 577.393 297.374 578.148 294.822V294.832ZM565.158 314.012C564.677 313.445 564.336 312.758 564.167 312.014C563.998 311.271 564.005 310.494 564.19 309.754C564.848 307.687 567.193 307.078 569.188 306.551C570.805 305.941 572.569 305.941 574.186 306.551C574.554 306.716 576.937 307.791 577.18 309.754C577.47 312.152 574.361 314.311 572.181 315.086C571.668 315.252 567.415 316.678 565.187 314.001L565.158 314.012Z" fill="url(#paint12_linear)"/>
<path d="M601.59 211.191C599.992 211.183 598.432 211.715 597.134 212.71C594.984 214.436 595.284 216.296 593.134 218.042C589.356 221.142 583.631 219.261 583.147 219.075C576.695 216.936 576.918 210.726 570.157 204.143C565.604 199.71 561.051 198.212 553.176 195.618C545.717 193.148 538.394 190.74 530.189 193.479C527.35 194.491 524.659 195.928 522.198 197.747C515.417 202.366 515.059 205.58 508.21 210.54C505.171 212.878 501.799 214.678 498.223 215.872L497.661 216.048L495.366 164.668L593.773 148.672L595.429 148.93L601.59 211.191Z" fill="url(#paint13_linear)"/>
<path d="M180.673 216.234L175.103 255.967C173.108 252.774 169.495 250.438 165.533 247.896C159.905 244.269 153.793 240.342 146.557 241.5C141.558 242.285 142.508 244.424 132.569 247.896C131.6 248.258 127.881 249.209 120.577 251.1C118.049 251.751 113.796 252.836 113.583 252.133C113.37 251.43 118.31 250.004 119.579 245.737C119.938 244.34 119.938 242.866 119.579 241.469C118.407 235.196 120.073 225.296 124.578 220.14C128.568 215.583 134.4 215.076 137.558 214.808C143.554 214.301 148.862 216.12 157.541 219.076C162.811 220.863 165.63 222.279 169.534 221.204C173.244 220.171 173.166 218.29 176.527 216.947C177.851 216.418 179.261 216.176 180.673 216.234Z" fill="url(#paint14_linear)"/>
<path d="M284.011 247.276L282.791 260.814C281.678 260.6 280.54 260.572 279.42 260.731C275.69 261.258 275.07 263.521 270.421 266.063C266.129 268.409 262.487 268.74 257.431 269.256C232.245 271.85 236.449 272.356 229.455 272.46C215.894 272.635 209.113 270.631 203.485 275.653C202.73 276.314 200.018 278.753 200.483 280.985C200.948 283.217 204.115 283.941 208.474 285.253C215.261 287.338 221.933 289.829 228.458 292.714C237.709 296.982 239.452 297.829 239.452 299.121C239.452 300.609 237.176 301.839 235.452 302.314C230.783 303.606 228.041 299.772 220.466 295.917C212.068 291.65 210.431 293.851 199.485 288.456C196.162 286.813 196.492 286.679 191.493 284.189C184.499 280.654 182.707 280.324 180.499 277.792C178.481 275.376 177.103 272.429 176.508 269.256C175.539 264.544 177.109 263.056 176.508 259.656C176.275 258.348 175.79 257.106 175.084 256.008L180.673 216.265C187.105 216.41 192.51 222.083 196.511 219.138C199.194 217.154 199.95 212.224 198.506 210.602C196.569 208.473 191.077 212.555 189.517 210.602C188.239 209.011 189.905 203.699 193.508 201.012C198.807 197.075 204.503 201.663 208.493 197.809C210.77 195.68 209.946 193.293 211.496 188.209C213.598 181.337 222.355 174.775 226.482 174.351C249.459 172.212 252.965 161.951 270.44 174.351C276.436 178.619 265.451 187.144 265.451 198.873C265.451 206.344 266.197 208.05 268.445 211.677C270.44 214.87 272.009 214.87 277.434 221.266C281.434 225.896 281.493 226.971 281.434 227.673C281.124 231.249 275.874 231.807 274.441 237.263C273.975 238.642 273.975 240.152 274.441 241.531C275.409 243.99 277.986 244.083 281.434 245.799C282.321 246.234 283.181 246.728 284.011 247.276Z" fill="url(#paint15_linear)"/>
<path d="M290.404 261.764C288.748 263.293 286.239 261.402 282.791 260.782L284.011 247.276C287.556 249.643 291.063 253.301 291.402 257.496C291.48 258.385 291.654 260.607 290.404 261.764Z" fill="#6546EB"/>
<path d="M278.993 303.058L274.819 349.487C272.608 351.853 270.125 353.909 267.428 355.605C263.483 358.016 259.797 360.878 256.433 364.14C252.81 367.737 251.444 370.124 251.444 372.666C251.562 374.479 251.888 376.269 252.413 377.998C253.246 381.201 253.992 382.328 253.382 383.33C252.587 384.704 250.079 384.456 249.381 384.363C244.673 383.919 241.7 379.517 241.39 379.031C238.251 374.236 239.142 368.698 239.394 367.302C240.169 362.859 241.932 362.621 246.388 354.509C248.79 350.097 250.797 345.454 252.384 340.641C254.815 333.8 254.651 332.168 254.38 331.052C253.469 327.321 250.05 323.818 246.388 322.516C243.589 321.483 241.816 322.154 240.392 320.387C238.823 318.414 239.326 315.479 239.423 315.055C239.782 312.988 241.002 311.5 243.414 308.648C244.635 307.222 245.661 306.199 246.417 305.455C250.195 301.745 252.084 299.885 253.411 299.058C257.508 296.496 262.129 297.581 268.396 299.058C272.063 299.943 275.62 301.286 278.993 303.058Z" fill="url(#paint16_linear)"/>
<path d="M315.386 320.418C315.386 322.547 313.061 323.849 310.388 325.751C304.576 329.884 305.709 330.432 300.401 334.276C291.877 340.476 289.949 338.285 281.415 343.876C278.974 345.397 276.752 347.287 274.818 349.487L278.993 303.058C279.788 303.471 280.592 303.926 281.415 304.422C286.946 307.739 287.101 309.372 292.4 311.883C295.742 313.464 298.493 314.766 302.396 315.086C306.949 315.458 309.39 314.177 312.383 316.119C312.8 316.419 315.425 318.145 315.386 320.418Z" fill="url(#paint17_linear)"/>
<path d="M290.23 178.133L288.409 198.274C283.75 194.884 280.544 194.884 279.42 191.34C278.548 188.612 279.188 181.471 281.416 179.611C283.643 177.751 286.055 177.606 290.23 178.133Z" fill="#5C43D4"/>
<path d="M368.334 192.445C360.953 197.374 356.293 196.134 353.349 200.981C353.058 201.446 353.194 201.322 351.353 207.378C349.203 214.456 348.108 218.042 347.353 219.106C345.774 221.39 344.902 220.863 335.37 225.503C328.861 228.706 325.538 230.318 322.38 232.964C319.571 235.32 319.377 236.167 316.384 238.296C312.461 241.086 309.681 243.06 306.387 242.564C300.808 241.727 297.931 234.411 297.398 232.964C296.392 229.889 296.06 226.608 296.43 223.374C296.807 217.174 298.667 216.533 298.425 212.71C298.038 206.592 292.913 202.097 290.433 199.906C289.795 199.342 289.129 198.814 288.438 198.325L290.259 178.133C292.845 178.453 296.071 179.032 300.43 179.652C305.274 180.344 309.739 186.503 316.413 186.049C328.338 185.222 329.452 183.166 339.39 182.845C346.51 182.618 345.483 183.682 356.381 183.879C368.721 184.147 374.708 182.845 375.357 184.912C376.054 187.299 369.487 191.681 368.334 192.445Z" fill="url(#paint18_linear)"/>
<path d="M357.35 232.964C356.236 236.488 350.075 236.168 349.358 236.168C344.805 235.909 340.117 232.964 340.359 230.836C340.514 229.606 342.461 228.944 346.355 227.632C350.472 226.247 352.535 225.565 354.347 226.599C356.449 227.756 358.057 230.722 357.35 232.964Z" fill="#6E6CF3"/>
<path d="M607.121 252.164C606.443 251.265 605.93 250.594 605.436 250.036L606.705 262.942C608.7 261.237 610.163 259.532 610.124 257.538C610.095 256.071 609.107 254.768 607.121 252.164Z" fill="#797FF1"/>
<path d="M389.112 240.745L388.986 246.698C388.66 246.69 388.34 246.603 388.051 246.441C387.762 246.28 387.512 246.049 387.32 245.768C386.904 244.982 387.204 243.742 389.112 240.745Z" fill="#758BF9"/>
<path d="M676.062 231.9C675.461 234.245 671.064 233.739 662.074 236.167C653.783 238.431 649.482 239.598 646.091 243.628C643.951 246.171 644.406 247.204 640.095 253.228C636.424 258.395 634.797 259.429 633.101 259.625C630.573 259.925 627.435 258.406 627.105 256.432C626.718 254.066 630.622 252.867 634.099 246.832C634.855 245.53 637.102 241.603 636.095 240.435C634.574 238.668 633.101 239.402 631.106 240.435C630.815 240.59 628.103 242.564 627.105 242.564C626.757 242.564 623.938 244.093 619.114 245.768C613.496 247.71 608.042 247.514 605.184 247.545L601.591 211.191C603.443 211.158 605.295 211.306 607.122 211.635C613.699 212.669 616.527 214.043 623.114 215.903C629.895 217.825 633.77 218.931 639.098 219.106C645.994 219.334 645.781 217.691 652.087 218.073C658.521 218.381 664.747 220.597 670.066 224.47C672.41 226.175 676.692 229.43 676.062 231.9Z" fill="url(#paint19_linear)"/>
<path d="M606.704 262.942C605.91 263.614 605.029 264.296 604.128 265.009C602.54 266.211 600.869 267.281 599.129 268.212C593.046 271.705 591.826 271.416 590.14 273.545C588.067 276.221 588.387 278.712 587.147 278.877C585.307 279.115 584.725 273.71 581.151 272.48C578.148 271.447 574.235 273.793 574.157 275.673C574.08 277.554 578.032 277.74 579.146 281.006C580.26 284.271 578.177 288.725 575.155 290.606C573.808 291.453 573.063 291.257 568.161 291.639C558.581 292.466 558.164 293.489 558.164 293.778C558.038 294.739 560.722 295.049 561.167 296.971C561.652 299.11 559.172 302.438 556.169 303.378C551.035 305.001 546.182 299.028 545.184 300.175C544.186 301.322 547.18 306.933 552.178 310.839C552.895 311.408 554.115 312.265 560.17 315.107C568.442 318.951 571.28 319.695 571.154 320.439C570.99 321.473 564.761 321.586 559.172 320.439C555.327 319.615 551.62 318.176 548.177 316.171C543.45 313.454 539.643 311.253 539.188 307.636C538.83 304.794 540.864 303.709 540.157 301.239C539.421 298.542 536.282 297.385 532.165 295.907C527.322 294.192 520.715 291.825 518.178 294.874C516.666 296.661 518.061 298.625 516.172 301.27C515.457 302.241 514.547 303.028 513.509 303.575C512.474 304.123 511.341 304.43 510.186 304.474C506.834 304.474 505.023 301.704 501.294 298.17L497.632 216.13L498.194 215.955C501.771 214.766 505.144 212.965 508.181 210.623C515.029 205.673 515.436 202.449 522.168 197.829C524.63 196.011 527.32 194.574 530.16 193.562C538.365 190.823 545.659 193.231 553.147 195.701C561.022 198.294 565.575 199.834 570.127 204.226C576.908 210.809 576.666 217.029 583.117 219.158C583.611 219.313 589.336 221.153 593.104 218.125C595.255 216.389 594.955 214.518 597.105 212.793C598.405 211.802 599.963 211.271 601.561 211.274L605.155 247.628C603.876 247.628 603.159 247.679 603.101 247.979C603.043 248.279 603.285 248.237 603.75 248.568C604.358 249.005 604.911 249.522 605.397 250.108L606.704 262.942Z" fill="url(#paint20_linear)"/>
<path d="M497.662 216.079C492.721 217.536 490.096 216.74 484.236 216.978C476.346 217.322 468.572 219.123 461.259 222.3C452.783 226.154 450.991 229.771 446.264 228.707C442.835 227.952 442.583 225.793 436.277 222.3C432.806 220.364 429.109 218.933 425.283 218.042C420.749 217.009 413.949 215.552 408.302 219.076C405.173 221.039 406.674 221.866 401.308 227.601C396.755 232.479 393.365 234.359 389.316 240.404L389.112 240.715L388.986 246.656C391.515 247.008 395.816 245.623 396.31 246.801C396.804 247.979 393.19 251.555 388.86 253.001L388.57 267.562C392.222 265.929 394.314 264.895 396.319 265.981C398.324 267.066 398.053 269.174 400.32 270.238C403.061 271.53 404.582 268.967 407.314 270.238C409.677 271.271 409.619 273.772 412.312 274.506C413.304 274.671 414.313 274.671 415.305 274.506C419.18 274.175 419.558 273.348 421.301 273.472C424.062 273.617 424.062 275.777 428.295 277.74C431.792 279.363 434.185 279.011 434.291 279.869C434.398 280.727 431.288 282.411 428.295 283.073C422.619 284.302 419.858 281.894 411.305 279.869C410.336 279.642 411.401 279.869 396.319 277.74C390.197 276.852 394.837 277.503 388.396 276.438L387.766 307.357C390.279 308.231 392.538 309.783 394.324 311.862C396.708 314.859 398.112 318.603 398.324 322.527C398.625 327.322 396.862 327.807 397.356 332.127C397.879 336.973 400.533 340.394 402.354 342.791C404.175 345.189 406.229 347.793 409.348 349.188C415.867 352.081 422.909 347.968 426.338 345.984C432.14 342.422 436.951 337.28 440.278 331.083C441.372 329.016 442.273 327.032 446.264 319.344C448.753 314.58 449.538 313.216 451.262 311.883C453.965 309.754 455.854 310.168 458.256 307.615C460.019 305.755 459.971 304.515 461.259 302.283C461.453 301.932 462.228 301.25 461.259 301.25C459.928 301.136 458.59 301.136 457.258 301.25C455.932 301.456 454.584 301.456 453.258 301.25C451.32 300.836 450.652 300.03 448.269 299.121C446.958 298.683 445.622 298.338 444.268 298.087C438.912 296.496 435.279 288.498 436.277 287.423C436.974 286.689 440.278 288.859 442.273 290.626C444.268 292.394 444.433 293.53 446.264 294.894C448.052 296.154 450.121 296.889 452.26 297.023C457.191 297.56 458.256 295.029 463.254 294.894C464.844 294.862 466.432 295.039 467.982 295.421C468.585 295.576 469.221 295.484 469.764 295.163L470.248 294.894C471.217 294.326 471.004 294.512 472.244 293.861C478.724 290.306 481.93 288.529 484.236 288.529C491.017 288.529 497.071 294.223 501.217 298.118L501.323 298.222L497.662 216.079ZM413.3 248.961C405.657 252.691 403.613 253.229 402.306 252.164C402.002 251.909 401.757 251.584 401.589 251.214C401.414 250.848 401.318 250.446 401.308 250.036C401.308 247.969 404.301 247.555 406.306 244.703C407.914 242.43 407.023 241.345 408.302 238.296C410.539 232.964 415.809 230.298 416.293 230.835C416.778 231.373 412.07 235.868 413.3 238.296C413.755 239.216 414.656 239.02 417.291 240.435C419.606 241.686 421.166 242.564 421.292 243.629C421.418 244.693 420.168 245.592 413.3 248.961ZM445.266 270.29C444.83 271.323 442.273 270 437.275 270.29C434.282 270.465 432.819 271.085 430.281 270.29C428.15 269.628 427.54 268.698 427.288 268.161C427.046 267.666 426.919 267.117 426.919 266.559C426.919 266.001 427.046 265.452 427.288 264.957C428.673 262.477 433.846 263.449 436.277 263.924C440.539 264.709 442.544 266.435 443.271 267.128C443.997 267.82 445.673 269.339 445.266 270.29ZM466.248 273.493C466.035 274.148 465.628 274.711 465.087 275.095C464.546 275.479 463.903 275.665 463.254 275.622C461.792 275.498 461.395 273.917 459.254 271.364C456.261 267.799 454.013 267.231 454.265 266.032C454.343 265.65 454.653 265.174 459.254 263.893C460.484 263.552 465.066 262.271 465.25 262.86C465.347 263.17 463.894 263.521 463.254 264.988C462.887 266.02 462.887 267.16 463.254 268.192C464.136 271.323 466.48 271.912 466.248 273.493Z" fill="url(#paint21_linear)"/>
<path d="M466.247 273.493C466.035 274.148 465.627 274.711 465.087 275.095C464.546 275.479 463.902 275.665 463.254 275.622C461.791 275.498 461.394 273.917 459.254 271.364C456.26 267.799 454.013 267.231 454.265 266.032C454.342 265.65 454.652 265.174 459.254 263.893C460.484 263.552 465.066 262.271 465.25 262.86C465.346 263.17 463.893 263.521 463.254 264.988C462.886 266.02 462.886 267.16 463.254 268.192C464.136 271.323 466.48 271.912 466.247 273.493Z" fill="#E9E9E9"/>
<path d="M445.266 270.29C444.83 271.323 442.273 270 437.275 270.29C434.282 270.465 432.819 271.085 430.281 270.29C428.15 269.628 427.54 268.698 427.288 268.161C427.046 267.666 426.919 267.117 426.919 266.559C426.919 266.001 427.046 265.452 427.288 264.957C428.673 262.477 433.846 263.449 436.277 263.924C440.539 264.709 442.544 266.435 443.271 267.127C443.997 267.82 445.673 269.339 445.266 270.29Z" fill="#E9E9E9"/>
<path d="M421.292 243.629C421.369 244.662 420.187 245.592 413.3 248.961C405.657 252.691 403.613 253.229 402.306 252.164C402.002 251.909 401.757 251.584 401.589 251.214C401.414 250.848 401.318 250.446 401.308 250.036C401.308 247.969 404.301 247.555 406.306 244.703C407.914 242.43 407.023 241.345 408.302 238.296C410.539 232.964 415.809 230.298 416.293 230.836C416.778 231.373 412.07 235.868 413.3 238.296C413.755 239.216 414.656 239.02 417.291 240.436C419.606 241.676 421.175 242.533 421.292 243.629Z" fill="#E9E9E9"/>
<path d="M374.33 273.493C374.408 274.227 376.152 274.526 383.32 275.622L388.386 276.459L387.756 307.377C386.933 307.057 386.109 306.799 385.325 306.551C383.039 305.827 380.326 305.269 370.339 305.517C359.481 305.755 357.35 306.551 354.347 304.484C351.344 302.417 348.903 298.625 349.358 294.884C349.62 292.61 350.927 291.174 353.349 288.487C356.041 285.606 359.061 283.096 362.338 281.016C365.515 278.887 367.337 278.174 367.337 276.748C367.337 274.96 364.343 274.402 364.343 272.491C364.343 271.023 365.99 270.424 368.334 268.223C370.257 266.339 371.908 264.162 373.236 261.764C372.722 260.09 371.909 258.271 370.33 257.558C367.927 256.525 365.661 258.829 364.334 257.558C363.007 256.287 364.004 253.342 364.334 252.226C365.612 247.958 369.322 243.05 372.325 243.691C373.061 243.856 373.294 244.238 376.316 247.958C379.958 252.392 380.52 252.888 381.315 253.291C383.901 254.603 386.642 253.797 388.308 253.291L388.851 253.115L388.56 267.675L387.311 268.223C378.457 272.005 374.214 272.325 374.33 273.493Z" fill="url(#paint22_linear)"/>
<path d="M615.365 350.386C612.599 348.266 609.453 346.778 606.124 346.015C599.73 344.724 593.347 347.204 588.145 349.219C582.44 351.42 578.788 354.003 577.151 352.412C575.514 350.82 578.119 347.328 576.182 343.887C574.332 340.683 570.37 340.786 570.186 338.554C570.118 337.81 570.477 336.891 572.181 335.351C575.949 331.972 579.766 331.424 584.174 330.019C590.257 328.107 588.872 327.301 594.17 325.751C597.793 324.717 603.072 323.219 609.156 324.717C610.517 325.004 611.825 325.524 613.03 326.257L615.365 350.386Z" fill="url(#paint23_linear)"/>
<path d="M640.095 347.08C639.565 350.594 638.19 353.902 636.104 356.68C633.915 359.935 631.832 363.025 629.11 363.076C626.388 363.128 625.109 359.883 621.109 355.615C619.35 353.687 617.427 351.936 615.365 350.386L613.001 326.226C614.253 327.096 615.668 327.663 617.147 327.89C624.083 329.089 626.427 324.924 631.135 326.856C634.922 328.375 636.792 332.447 638.128 335.382C639.886 338.976 640.572 343.058 640.095 347.08Z" fill="url(#paint24_linear)"/>
<path d="M686.058 359.873C685.593 362.694 682.91 364.203 679.065 366.269C678.096 366.827 669.378 371.436 668.07 369.473C667.508 368.615 668.7 366.765 671.073 363.066C674.066 358.354 675.839 355.719 679.065 354.54C680.149 354.148 682.3 353.352 684.053 354.54C684.824 355.135 685.418 355.953 685.768 356.897C686.124 357.84 686.224 358.871 686.058 359.873Z" fill="#6C63F1"/>
<path d="M612.459 320.987C611.79 320.78 611.015 320.594 610.124 320.418C604.235 319.178 600.563 319.891 600.128 318.279C599.788 317.019 601.697 315.448 602.133 315.086C604.835 312.823 608.313 312.554 611.664 312.947L612.459 320.987Z" fill="#7383F7"/>
<path d="M630.137 320.419C629.972 322.217 625.517 323.519 622.146 323.612C618.145 323.767 616.963 322.279 612.459 320.987L611.665 312.947C613.498 313.189 615.319 313.534 617.118 313.981C620.906 314.921 630.331 317.732 630.137 320.419Z" fill="url(#paint25_linear)"/>
<path d="M572.152 315.045C571.639 315.221 567.386 316.647 565.158 314.012C564.677 313.444 564.336 312.758 564.167 312.014C563.998 311.271 564.005 310.494 564.19 309.754C564.848 307.687 567.192 307.078 569.188 306.551C570.805 305.941 572.569 305.941 574.186 306.551C574.554 306.726 576.937 307.791 577.179 309.754C577.441 312.152 574.332 314.311 572.152 315.045Z" fill="#F2F2F2"/>
<path d="M590.141 309.754C589.404 310.426 585.597 306.953 585.142 306.55C584.064 305.572 583.063 304.501 582.149 303.347C579.747 300.329 577.393 297.374 578.148 294.822C578.273 294.307 578.527 293.838 578.885 293.468C579.235 293.09 579.673 292.819 580.154 292.683C581.248 292.538 582.217 293.716 583.147 294.822C583.934 295.793 584.605 296.866 585.142 298.015C586.653 301.022 587.632 303.254 588.145 304.422C590.092 308.845 590.421 309.506 590.141 309.754Z" fill="#756EE6"/>
<g filter="url(#filter5_d)">
<path d="M248.929 50C231.951 50.0073 215.671 57.1833 203.669 69.95C191.667 82.7166 184.926 100.029 184.929 118.078C184.929 155.688 247.271 244 248.929 244C250.586 244 312.929 155.688 312.929 118.078C312.934 109.14 311.283 100.287 308.069 92.0273C304.855 83.7673 300.142 76.2617 294.198 69.9393C288.255 63.6169 281.197 58.6017 273.43 55.1804C265.662 51.7591 257.337 49.9988 248.929 50ZM250.26 145.242C244.348 145.251 238.615 143.08 234.04 139.099C229.465 135.117 226.33 129.572 225.17 123.409C224.009 117.245 224.896 110.845 227.678 105.298C230.459 99.7513 234.964 95.4021 240.425 92.9915C245.885 90.581 251.963 90.2583 257.622 92.0786C263.281 93.8989 268.171 97.7494 271.459 102.974C274.747 108.198 276.228 114.473 275.651 120.729C275.074 126.985 272.475 132.834 268.295 137.28C263.514 142.371 257.027 145.235 250.26 145.242Z" fill="url(#paint26_linear)"/>
</g>
<path d="M250.42 145C255.464 145.002 260.395 143.42 264.589 140.454C268.784 137.488 272.054 133.272 273.985 128.339C275.916 123.405 276.423 117.976 275.44 112.738C274.457 107.5 272.029 102.688 268.463 98.9113C264.897 95.1344 260.353 92.562 255.407 91.5195C250.46 90.4769 245.332 91.0111 240.672 93.0544C236.012 95.0977 232.029 98.5583 229.227 102.999C226.425 107.439 224.929 112.66 224.929 118C224.929 125.159 227.614 132.025 232.394 137.089C237.175 142.152 243.659 144.998 250.42 145V145Z" stroke="#FCE4E4" stroke-miterlimit="10"/>
<g filter="url(#filter6_d)">
<path d="M418.95 1C396.928 1.01217 375.811 10.3374 360.243 26.9254C344.674 43.5135 335.929 66.0065 335.929 89.4595C335.929 138.304 416.766 253 418.95 253C421.135 253 501.929 138.304 501.929 89.4595C501.934 77.845 499.791 66.3431 495.621 55.611C491.452 44.8788 485.337 35.1268 477.627 26.912C469.918 18.6971 460.764 12.1805 450.688 7.73447C440.613 3.28841 429.813 0.999998 418.907 1H418.95ZM420.675 124.681C413.029 124.676 405.62 121.849 399.711 116.681C393.802 111.512 389.759 104.322 388.269 96.3356C386.779 88.3486 387.934 80.0586 391.539 72.8773C395.144 65.6959 400.975 60.0674 408.039 56.9502C415.103 53.833 422.963 53.42 430.281 55.7814C437.599 58.1429 443.922 63.1327 448.173 69.9013C452.424 76.6698 454.341 84.7984 453.596 92.9027C452.852 101.007 449.492 108.586 444.09 114.349C441.017 117.626 437.367 120.226 433.349 121.999C429.331 123.772 425.024 124.684 420.675 124.681Z" fill="url(#paint27_linear)"/>
</g>
<path d="M420.429 125C426.857 125 433.14 122.918 438.485 119.017C443.829 115.116 447.995 109.572 450.455 103.085C452.915 96.5985 453.558 89.4606 452.304 82.5743C451.05 75.688 447.955 69.3625 443.41 64.3977C438.864 59.433 433.074 56.0519 426.769 54.6821C420.465 53.3124 413.93 54.0154 407.992 56.7023C402.053 59.3892 396.977 63.9393 393.406 69.7773C389.835 75.6152 387.929 82.4788 387.929 89.5C387.929 98.9152 391.353 107.945 397.448 114.602C403.543 121.26 411.809 125 420.429 125Z" stroke="#FCE4E4" stroke-miterlimit="10"/>
<g filter="url(#filter7_d)">
<path d="M563.932 131C547.751 131.004 532.233 137.883 520.793 150.122C509.352 162.361 502.927 178.959 502.929 196.265C502.929 232.33 562.348 317 563.932 317C565.516 317 624.929 232.33 624.929 196.265C624.931 178.961 618.506 162.364 607.067 150.125C595.629 137.886 580.113 131.006 563.932 131ZM565.171 222.302C559.132 222.295 553.31 219.886 548.839 215.544C544.368 211.201 541.567 205.236 540.981 198.807C540.394 192.379 542.065 185.947 545.667 180.762C549.269 175.578 554.545 172.011 560.47 170.756C566.394 169.501 572.543 170.647 577.721 173.972C582.899 177.297 586.736 182.563 588.485 188.745C590.234 194.927 589.771 201.584 587.185 207.421C584.6 213.258 580.076 217.858 574.495 220.327C571.539 221.635 568.37 222.306 565.171 222.302Z" fill="url(#paint28_linear)"/>
</g>
<path d="M565.414 222C570.26 222.003 574.998 220.481 579.029 217.626C583.06 214.771 586.203 210.711 588.059 205.961C589.916 201.21 590.403 195.982 589.46 190.937C588.516 185.893 586.184 181.259 582.758 177.621C579.332 173.983 574.967 171.505 570.214 170.501C565.461 169.496 560.534 170.01 556.056 171.978C551.579 173.945 547.752 177.277 545.059 181.554C542.366 185.83 540.929 190.857 540.929 196C540.928 199.413 541.56 202.793 542.79 205.947C544.02 209.101 545.823 211.967 548.097 214.381C550.371 216.796 553.07 218.711 556.041 220.018C559.012 221.326 562.197 221.999 565.414 222V222Z" stroke="#FCE4E4" stroke-miterlimit="10"/>
<path d="M225.803 162.758V168.934C225.803 169.916 225.488 170.694 224.858 171.27C224.231 171.841 223.396 172.127 222.35 172.127C221.292 172.127 220.452 171.846 219.83 171.283C219.208 170.716 218.897 169.931 218.897 168.928V162.758H220.497V168.94C220.497 169.558 220.653 170.03 220.966 170.356C221.28 170.682 221.741 170.845 222.35 170.845C223.586 170.845 224.204 170.193 224.204 168.89V162.758H225.803ZM232.614 169.62C232.614 169.213 232.47 168.9 232.183 168.68C231.899 168.46 231.385 168.238 230.64 168.014C229.895 167.789 229.303 167.54 228.863 167.265C228.021 166.736 227.6 166.046 227.6 165.195C227.6 164.451 227.902 163.837 228.507 163.354C229.117 162.872 229.906 162.631 230.875 162.631C231.518 162.631 232.092 162.749 232.595 162.986C233.099 163.223 233.494 163.562 233.782 164.002C234.07 164.438 234.214 164.922 234.214 165.456H232.614C232.614 164.973 232.462 164.597 232.157 164.326C231.857 164.051 231.425 163.913 230.862 163.913C230.337 163.913 229.929 164.025 229.637 164.25C229.349 164.474 229.205 164.787 229.205 165.189C229.205 165.528 229.362 165.811 229.675 166.04C229.988 166.264 230.505 166.484 231.224 166.7C231.943 166.911 232.521 167.155 232.957 167.43C233.393 167.701 233.712 168.014 233.915 168.369C234.119 168.72 234.22 169.133 234.22 169.607C234.22 170.377 233.924 170.991 233.331 171.448C232.743 171.901 231.943 172.127 230.932 172.127C230.263 172.127 229.648 172.004 229.085 171.759C228.526 171.509 228.09 171.166 227.777 170.73C227.468 170.295 227.314 169.787 227.314 169.207H228.92C228.92 169.732 229.093 170.138 229.44 170.426C229.787 170.714 230.285 170.857 230.932 170.857C231.491 170.857 231.91 170.745 232.189 170.521C232.472 170.292 232.614 169.992 232.614 169.62ZM241.063 169.848H237.483L236.734 172H235.064L238.555 162.758H239.996L243.494 172H241.818L241.063 169.848ZM237.933 168.553H240.612L239.273 164.719L237.933 168.553ZM253.707 167.874H249.911V170.718H254.348V172H248.305V162.758H254.303V164.053H249.911V166.604H253.707V167.874ZM261.089 169.848H257.509L256.76 172H255.09L258.581 162.758H260.022L263.52 172H261.844L261.089 169.848ZM257.959 168.553H260.638L259.299 164.719L257.959 168.553ZM269.664 169.62C269.664 169.213 269.52 168.9 269.233 168.68C268.949 168.46 268.435 168.238 267.69 168.014C266.945 167.789 266.353 167.54 265.913 167.265C265.071 166.736 264.65 166.046 264.65 165.195C264.65 164.451 264.952 163.837 265.557 163.354C266.167 162.872 266.956 162.631 267.925 162.631C268.568 162.631 269.142 162.749 269.645 162.986C270.149 163.223 270.544 163.562 270.832 164.002C271.12 164.438 271.264 164.922 271.264 165.456H269.664C269.664 164.973 269.512 164.597 269.207 164.326C268.907 164.051 268.475 163.913 267.912 163.913C267.387 163.913 266.979 164.025 266.687 164.25C266.399 164.474 266.255 164.787 266.255 165.189C266.255 165.528 266.412 165.811 266.725 166.04C267.038 166.264 267.555 166.484 268.274 166.7C268.993 166.911 269.571 167.155 270.007 167.43C270.443 167.701 270.762 168.014 270.965 168.369C271.169 168.72 271.27 169.133 271.27 169.607C271.27 170.377 270.974 170.991 270.381 171.448C269.793 171.901 268.993 172.127 267.982 172.127C267.313 172.127 266.698 172.004 266.135 171.759C265.576 171.509 265.14 171.166 264.827 170.73C264.518 170.295 264.364 169.787 264.364 169.207H265.97C265.97 169.732 266.143 170.138 266.49 170.426C266.837 170.714 267.335 170.857 267.982 170.857C268.541 170.857 268.96 170.745 269.239 170.521C269.522 170.292 269.664 169.992 269.664 169.62ZM279.617 164.053H276.735V172H275.142V164.053H272.285V162.758H279.617V164.053ZM235.607 184.991C235.514 185.977 235.15 186.747 234.515 187.302C233.88 187.852 233.036 188.127 231.982 188.127C231.246 188.127 230.597 187.953 230.034 187.606C229.475 187.255 229.043 186.758 228.739 186.115C228.434 185.472 228.275 184.725 228.263 183.874V183.011C228.263 182.139 228.417 181.371 228.726 180.707C229.035 180.042 229.477 179.53 230.053 179.17C230.633 178.811 231.301 178.631 232.059 178.631C233.078 178.631 233.899 178.908 234.522 179.462C235.144 180.017 235.505 180.8 235.607 181.811H234.007C233.931 181.147 233.737 180.668 233.423 180.376C233.114 180.08 232.66 179.932 232.059 179.932C231.36 179.932 230.823 180.188 230.446 180.7C230.074 181.208 229.883 181.955 229.875 182.941V183.76C229.875 184.758 230.053 185.52 230.408 186.045C230.768 186.57 231.293 186.832 231.982 186.832C232.613 186.832 233.087 186.69 233.404 186.407C233.722 186.123 233.923 185.651 234.007 184.991H235.607ZM244.684 183.62C244.684 184.526 244.527 185.321 244.214 186.007C243.901 186.688 243.452 187.213 242.868 187.581C242.289 187.945 241.62 188.127 240.863 188.127C240.114 188.127 239.445 187.945 238.857 187.581C238.273 187.213 237.82 186.69 237.498 186.013C237.181 185.336 237.02 184.555 237.016 183.671V183.15C237.016 182.249 237.175 181.453 237.492 180.764C237.814 180.074 238.264 179.547 238.844 179.183C239.428 178.815 240.097 178.631 240.85 178.631C241.603 178.631 242.27 178.813 242.849 179.177C243.433 179.536 243.884 180.057 244.201 180.738C244.519 181.415 244.68 182.205 244.684 183.106V183.62ZM243.078 183.138C243.078 182.114 242.883 181.329 242.494 180.783C242.109 180.237 241.561 179.964 240.85 179.964C240.156 179.964 239.612 180.237 239.219 180.783C238.829 181.324 238.63 182.092 238.622 183.087V183.62C238.622 184.636 238.819 185.421 239.212 185.975C239.61 186.529 240.16 186.807 240.863 186.807C241.573 186.807 242.119 186.536 242.5 185.994C242.885 185.452 243.078 184.661 243.078 183.62V183.138ZM251.577 185.848H247.997L247.248 188H245.579L249.07 178.758H250.511L254.008 188H252.333L251.577 185.848ZM248.448 184.553H251.126L249.787 180.719L248.448 184.553ZM260.153 185.62C260.153 185.213 260.009 184.9 259.721 184.68C259.437 184.46 258.923 184.238 258.178 184.014C257.434 183.789 256.841 183.54 256.401 183.265C255.559 182.736 255.138 182.046 255.138 181.195C255.138 180.451 255.441 179.837 256.046 179.354C256.655 178.872 257.444 178.631 258.413 178.631C259.057 178.631 259.63 178.749 260.134 178.986C260.637 179.223 261.033 179.562 261.321 180.002C261.608 180.438 261.752 180.922 261.752 181.456H260.153C260.153 180.973 260 180.597 259.696 180.326C259.395 180.051 258.963 179.913 258.401 179.913C257.876 179.913 257.468 180.025 257.176 180.25C256.888 180.474 256.744 180.787 256.744 181.189C256.744 181.528 256.9 181.811 257.214 182.04C257.527 182.264 258.043 182.484 258.762 182.7C259.482 182.911 260.059 183.155 260.495 183.43C260.931 183.701 261.251 184.014 261.454 184.369C261.657 184.72 261.759 185.133 261.759 185.607C261.759 186.377 261.462 186.991 260.87 187.448C260.282 187.901 259.482 188.127 258.47 188.127C257.802 188.127 257.186 188.004 256.623 187.759C256.065 187.509 255.629 187.166 255.316 186.73C255.007 186.295 254.852 185.787 254.852 185.207H256.458C256.458 185.732 256.632 186.138 256.979 186.426C257.326 186.714 257.823 186.857 258.47 186.857C259.029 186.857 259.448 186.745 259.727 186.521C260.011 186.292 260.153 185.992 260.153 185.62ZM270.105 180.053H267.224V188H265.63V180.053H262.774V178.758H270.105V180.053Z" fill="#FFF0F0"/>
<path d="M394.056 155.297C393.941 156.51 393.493 157.458 392.712 158.141C391.931 158.818 390.892 159.156 389.595 159.156C388.688 159.156 387.889 158.943 387.196 158.516C386.509 158.083 385.978 157.471 385.603 156.68C385.228 155.888 385.032 154.969 385.017 153.922V152.859C385.017 151.786 385.207 150.841 385.587 150.023C385.967 149.206 386.511 148.576 387.22 148.133C387.933 147.69 388.756 147.469 389.688 147.469C390.944 147.469 391.954 147.81 392.72 148.492C393.485 149.174 393.931 150.138 394.056 151.383H392.087C391.993 150.565 391.754 149.977 391.368 149.617C390.988 149.253 390.428 149.07 389.688 149.07C388.829 149.07 388.168 149.385 387.704 150.016C387.246 150.641 387.011 151.56 387.001 152.773V153.781C387.001 155.01 387.22 155.948 387.657 156.594C388.1 157.24 388.746 157.562 389.595 157.562C390.371 157.562 390.954 157.388 391.345 157.039C391.735 156.69 391.983 156.109 392.087 155.297H394.056ZM402.798 153.922H398.126V157.422H403.587V159H396.149V147.625H403.532V149.219H398.126V152.359H402.798V153.922ZM414.539 159H412.563L407.493 150.93V159H405.516V147.625H407.493L412.578 155.727V147.625H414.539V159ZM425.18 149.219H421.633V159H419.672V149.219H416.156V147.625H425.18V149.219ZM431.179 154.617H428.976V159H427V147.625H431C432.312 147.625 433.325 147.919 434.039 148.508C434.752 149.096 435.109 149.948 435.109 151.062C435.109 151.823 434.924 152.461 434.554 152.977C434.19 153.487 433.679 153.88 433.023 154.156L435.578 158.898V159H433.461L431.179 154.617ZM428.976 153.031H431.007C431.674 153.031 432.195 152.865 432.57 152.531C432.945 152.193 433.132 151.732 433.132 151.148C433.132 150.539 432.958 150.068 432.609 149.734C432.265 149.401 431.75 149.229 431.062 149.219H428.976V153.031ZM443.671 156.352H439.265L438.343 159H436.288L440.585 147.625H442.359L446.663 159H444.601L443.671 156.352ZM439.82 154.758H443.117L441.468 150.039L439.82 154.758ZM450.257 157.422H455.421V159H448.28V147.625H450.257V157.422ZM397.106 173.922H392.434V177.422H397.895V179H390.458V167.625H397.841V169.219H392.434V172.359H397.106V173.922ZM408.145 167.625V175.227C408.145 176.435 407.757 177.393 406.981 178.102C406.21 178.805 405.181 179.156 403.895 179.156C402.593 179.156 401.559 178.81 400.793 178.117C400.028 177.419 399.645 176.453 399.645 175.219V167.625H401.614V175.234C401.614 175.995 401.806 176.576 402.192 176.977C402.577 177.378 403.145 177.578 403.895 177.578C405.416 177.578 406.176 176.776 406.176 175.172V167.625H408.145ZM414.762 174.617H412.559V179H410.582V167.625H414.582C415.895 167.625 416.908 167.919 417.621 168.508C418.335 169.096 418.692 169.948 418.692 171.062C418.692 171.823 418.507 172.461 418.137 172.977C417.772 173.487 417.262 173.88 416.606 174.156L419.16 178.898V179H417.043L414.762 174.617ZM412.559 173.031H414.59C415.257 173.031 415.778 172.865 416.153 172.531C416.528 172.193 416.715 171.732 416.715 171.148C416.715 170.539 416.541 170.068 416.192 169.734C415.848 169.401 415.332 169.229 414.645 169.219H412.559V173.031ZM429.965 173.609C429.965 174.724 429.772 175.703 429.387 176.547C429.001 177.385 428.449 178.031 427.73 178.484C427.017 178.932 426.194 179.156 425.262 179.156C424.34 179.156 423.517 178.932 422.793 178.484C422.074 178.031 421.517 177.388 421.121 176.555C420.73 175.721 420.532 174.76 420.527 173.672V173.031C420.527 171.922 420.722 170.943 421.113 170.094C421.509 169.245 422.064 168.596 422.777 168.148C423.496 167.695 424.319 167.469 425.246 167.469C426.173 167.469 426.993 167.693 427.707 168.141C428.426 168.583 428.98 169.224 429.371 170.062C429.762 170.896 429.959 171.867 429.965 172.977V173.609ZM427.988 173.016C427.988 171.755 427.749 170.789 427.269 170.117C426.795 169.445 426.121 169.109 425.246 169.109C424.392 169.109 423.722 169.445 423.238 170.117C422.759 170.784 422.514 171.729 422.504 172.953V173.609C422.504 174.859 422.746 175.826 423.23 176.508C423.72 177.19 424.397 177.531 425.262 177.531C426.137 177.531 426.808 177.198 427.277 176.531C427.751 175.865 427.988 174.891 427.988 173.609V173.016ZM434.23 174.773V179H432.253V167.625H436.605C437.876 167.625 438.884 167.956 439.628 168.617C440.378 169.279 440.753 170.154 440.753 171.242C440.753 172.357 440.386 173.224 439.652 173.844C438.923 174.464 437.899 174.773 436.582 174.773H434.23ZM434.23 173.188H436.605C437.308 173.188 437.845 173.023 438.214 172.695C438.584 172.362 438.769 171.883 438.769 171.258C438.769 170.643 438.582 170.154 438.207 169.789C437.832 169.419 437.316 169.229 436.66 169.219H434.23V173.188ZM449.456 173.922H444.784V177.422H450.245V179H442.808V167.625H450.191V169.219H444.784V172.359H449.456V173.922Z" fill="#FFF0F0"/>
<path d="M533.228 242.62C533.228 242.213 533.084 241.9 532.796 241.68C532.512 241.46 531.998 241.238 531.253 241.014C530.509 240.789 529.916 240.54 529.476 240.265C528.634 239.736 528.213 239.046 528.213 238.195C528.213 237.451 528.516 236.837 529.121 236.354C529.73 235.872 530.519 235.631 531.488 235.631C532.132 235.631 532.705 235.749 533.209 235.986C533.712 236.223 534.108 236.562 534.396 237.002C534.683 237.438 534.827 237.922 534.827 238.456H533.228C533.228 237.973 533.075 237.597 532.771 237.326C532.47 237.051 532.038 236.913 531.476 236.913C530.951 236.913 530.543 237.025 530.251 237.25C529.963 237.474 529.819 237.787 529.819 238.189C529.819 238.528 529.975 238.811 530.289 239.04C530.602 239.264 531.118 239.484 531.837 239.7C532.557 239.911 533.134 240.155 533.57 240.43C534.006 240.701 534.326 241.014 534.529 241.369C534.732 241.72 534.834 242.133 534.834 242.607C534.834 243.377 534.537 243.991 533.945 244.448C533.357 244.901 532.557 245.127 531.545 245.127C530.877 245.127 530.261 245.004 529.698 244.759C529.14 244.509 528.704 244.166 528.391 243.73C528.082 243.295 527.927 242.787 527.927 242.207H529.533C529.533 242.732 529.707 243.138 530.054 243.426C530.401 243.714 530.898 243.857 531.545 243.857C532.104 243.857 532.523 243.745 532.802 243.521C533.086 243.292 533.228 242.992 533.228 242.62ZM538.198 245H536.598V235.758H538.198V245ZM547.763 245H546.157L542.038 238.443V245H540.432V235.758H542.038L546.17 242.34V235.758H547.763V245ZM557.005 243.8C556.671 244.236 556.207 244.566 555.615 244.791C555.023 245.015 554.35 245.127 553.596 245.127C552.822 245.127 552.136 244.951 551.54 244.6C550.943 244.249 550.482 243.747 550.156 243.096C549.834 242.44 549.667 241.676 549.655 240.804V240.081C549.655 238.684 549.989 237.594 550.657 236.812C551.326 236.024 552.259 235.631 553.457 235.631C554.485 235.631 555.302 235.885 555.907 236.393C556.512 236.9 556.876 237.632 556.999 238.589H555.425C555.247 237.476 554.601 236.919 553.489 236.919C552.769 236.919 552.221 237.18 551.844 237.7C551.472 238.216 551.28 238.976 551.267 239.979V240.69C551.267 241.689 551.476 242.465 551.895 243.02C552.318 243.57 552.905 243.845 553.654 243.845C554.475 243.845 555.059 243.659 555.406 243.286V241.477H553.501V240.258H557.005V243.8ZM564.203 242.848H560.623L559.874 245H558.205L561.696 235.758H563.137L566.634 245H564.958L564.203 242.848ZM561.074 241.553H563.752L562.413 237.719L561.074 241.553ZM569.554 241.566V245H567.948V235.758H571.484C572.516 235.758 573.335 236.027 573.94 236.564C574.55 237.101 574.854 237.812 574.854 238.697C574.854 239.602 574.556 240.307 573.959 240.811C573.367 241.314 572.535 241.566 571.465 241.566H569.554ZM569.554 240.277H571.484C572.055 240.277 572.491 240.144 572.791 239.877C573.092 239.607 573.242 239.217 573.242 238.709C573.242 238.21 573.09 237.812 572.785 237.516C572.48 237.216 572.061 237.061 571.528 237.053H569.554V240.277ZM583.899 240.62C583.899 241.526 583.743 242.321 583.43 243.007C583.117 243.688 582.668 244.213 582.084 244.581C581.504 244.945 580.836 245.127 580.078 245.127C579.329 245.127 578.66 244.945 578.072 244.581C577.488 244.213 577.035 243.69 576.714 243.013C576.396 242.336 576.236 241.555 576.231 240.671V240.15C576.231 239.249 576.39 238.453 576.708 237.764C577.029 237.074 577.48 236.547 578.06 236.183C578.644 235.815 579.312 235.631 580.065 235.631C580.819 235.631 581.485 235.813 582.065 236.177C582.649 236.536 583.1 237.057 583.417 237.738C583.734 238.415 583.895 239.205 583.899 240.106V240.62ZM582.293 240.138C582.293 239.114 582.099 238.329 581.709 237.783C581.324 237.237 580.776 236.964 580.065 236.964C579.371 236.964 578.828 237.237 578.434 237.783C578.045 238.324 577.846 239.092 577.837 240.087V240.62C577.837 241.636 578.034 242.421 578.428 242.975C578.826 243.529 579.376 243.807 580.078 243.807C580.789 243.807 581.335 243.536 581.716 242.994C582.101 242.452 582.293 241.661 582.293 240.62V240.138ZM589.155 241.439H587.365V245H585.759V235.758H589.009C590.075 235.758 590.898 235.997 591.478 236.475C592.058 236.953 592.348 237.645 592.348 238.551C592.348 239.169 592.198 239.687 591.897 240.106C591.601 240.521 591.186 240.84 590.653 241.064L592.729 244.917V245H591.009L589.155 241.439ZM587.365 240.15H589.015C589.557 240.15 589.98 240.015 590.285 239.744C590.59 239.469 590.742 239.095 590.742 238.621C590.742 238.125 590.6 237.743 590.317 237.472C590.037 237.201 589.618 237.061 589.06 237.053H587.365V240.15ZM599.533 240.874H595.737V243.718H600.174V245H594.131V235.758H600.13V237.053H595.737V239.604H599.533V240.874Z" fill="#FFF0F0"/>
<defs>
<filter id="filter0_i" x="0" y="0.585693" width="766.534" height="515.288" filterUnits="userSpaceOnUse" color-interpolation-filters="sRGB">
<feFlood flood-opacity="0" result="BackgroundImageFix"/>
<feBlend mode="normal" in="SourceGraphic" in2="BackgroundImageFix" result="shape"/>
<feColorMatrix in="SourceAlpha" type="matrix" values="0 0 0 0 0 0 0 0 0 0 0 0 0 0 0 0 0 0 127 0" result="hardAlpha"/>
<feOffset dy="4"/>
<feGaussianBlur stdDeviation="12.5"/>
<feComposite in2="hardAlpha" operator="arithmetic" k2="-1" k3="1"/>
<feColorMatrix type="matrix" values="0 0 0 0 0 0 0 0 0 0 0 0 0 0 0 0 0 0 0.25 0"/>
<feBlend mode="normal" in2="shape" result="effect1_innerShadow"/>
</filter>
<filter id="filter1_dd" x="61.9287" y="61" width="57" height="61" filterUnits="userSpaceOnUse" color-interpolation-filters="sRGB">
<feFlood flood-opacity="0" result="BackgroundImageFix"/>
<feColorMatrix in="SourceAlpha" type="matrix" values="0 0 0 0 0 0 0 0 0 0 0 0 0 0 0 0 0 0 127 0"/>
<feOffset/>
<feGaussianBlur stdDeviation="2"/>
<feColorMatrix type="matrix" values="0 0 0 0 1 0 0 0 0 1 0 0 0 0 1 0 0 0 0.92 0"/>
<feBlend mode="normal" in2="BackgroundImageFix" result="effect1_dropShadow"/>
<feColorMatrix in="SourceAlpha" type="matrix" values="0 0 0 0 0 0 0 0 0 0 0 0 0 0 0 0 0 0 127 0"/>
<feOffset dy="4"/>
<feGaussianBlur stdDeviation="2"/>
<feColorMatrix type="matrix" values="0 0 0 0 0 0 0 0 0 0 0 0 0 0 0 0 0 0 0.15 0"/>
<feBlend mode="normal" in2="effect1_dropShadow" result="effect2_dropShadow"/>
<feBlend mode="normal" in="SourceGraphic" in2="effect2_dropShadow" result="shape"/>
</filter>
<filter id="filter2_dd" x="420.929" y="389" width="48" height="52" filterUnits="userSpaceOnUse" color-interpolation-filters="sRGB">
<feFlood flood-opacity="0" result="BackgroundImageFix"/>
<feColorMatrix in="SourceAlpha" type="matrix" values="0 0 0 0 0 0 0 0 0 0 0 0 0 0 0 0 0 0 127 0"/>
<feOffset/>
<feGaussianBlur stdDeviation="2"/>
<feColorMatrix type="matrix" values="0 0 0 0 1 0 0 0 0 1 0 0 0 0 1 0 0 0 0.92 0"/>
<feBlend mode="normal" in2="BackgroundImageFix" result="effect1_dropShadow"/>
<feColorMatrix in="SourceAlpha" type="matrix" values="0 0 0 0 0 0 0 0 0 0 0 0 0 0 0 0 0 0 127 0"/>
<feOffset dy="4"/>
<feGaussianBlur stdDeviation="2"/>
<feColorMatrix type="matrix" values="0 0 0 0 0 0 0 0 0 0 0 0 0 0 0 0 0 0 0.15 0"/>
<feBlend mode="normal" in2="effect1_dropShadow" result="effect2_dropShadow"/>
<feBlend mode="normal" in="SourceGraphic" in2="effect2_dropShadow" result="shape"/>
</filter>
<filter id="filter3_dd" x="26.9287" y="178" width="107" height="107" filterUnits="userSpaceOnUse" color-interpolation-filters="sRGB">
<feFlood flood-opacity="0" result="BackgroundImageFix"/>
<feColorMatrix in="SourceAlpha" type="matrix" values="0 0 0 0 0 0 0 0 0 0 0 0 0 0 0 0 0 0 127 0"/>
<feOffset dy="4"/>
<feGaussianBlur stdDeviation="13"/>
<feColorMatrix type="matrix" values="0 0 0 0 0 0 0 0 0 0 0 0 0 0 0 0 0 0 0.12 0"/>
<feBlend mode="normal" in2="BackgroundImageFix" result="effect1_dropShadow"/>
<feColorMatrix in="SourceAlpha" type="matrix" values="0 0 0 0 0 0 0 0 0 0 0 0 0 0 0 0 0 0 127 0"/>
<feOffset dy="1"/>
<feGaussianBlur stdDeviation="5.5"/>
<feColorMatrix type="matrix" values="0 0 0 0 1 0 0 0 0 1 0 0 0 0 1 0 0 0 0.53 0"/>
<feBlend mode="normal" in2="effect1_dropShadow" result="effect2_dropShadow"/>
<feBlend mode="normal" in="SourceGraphic" in2="effect2_dropShadow" result="shape"/>
</filter>
<filter id="filter4_f" x="26.5869" y="237.611" width="696.61" height="232.371" filterUnits="userSpaceOnUse" color-interpolation-filters="sRGB">
<feFlood flood-opacity="0" result="BackgroundImageFix"/>
<feBlend mode="normal" in="SourceGraphic" in2="BackgroundImageFix" result="shape"/>
<feGaussianBlur stdDeviation="32" result="effect1_foregroundBlur"/>
</filter>
<filter id="filter5_d" x="167.929" y="48" width="162" height="228" filterUnits="userSpaceOnUse" color-interpolation-filters="sRGB">
<feFlood flood-opacity="0" result="BackgroundImageFix"/>
<feColorMatrix in="SourceAlpha" type="matrix" values="0 0 0 0 0 0 0 0 0 0 0 0 0 0 0 0 0 0 127 0"/>
<feOffset dy="15"/>
<feGaussianBlur stdDeviation="8.5"/>
<feColorMatrix type="matrix" values="0 0 0 0 0 0 0 0 0 0 0 0 0 0 0 0 0 0 0.2 0"/>
<feBlend mode="normal" in2="BackgroundImageFix" result="effect1_dropShadow"/>
<feBlend mode="normal" in="SourceGraphic" in2="effect1_dropShadow" result="shape"/>
</filter>
<filter id="filter6_d" x="318.929" y="1" width="200" height="288" filterUnits="userSpaceOnUse" color-interpolation-filters="sRGB">
<feFlood flood-opacity="0" result="BackgroundImageFix"/>
<feColorMatrix in="SourceAlpha" type="matrix" values="0 0 0 0 0 0 0 0 0 0 0 0 0 0 0 0 0 0 127 0"/>
<feOffset dy="19"/>
<feGaussianBlur stdDeviation="8.5"/>
<feColorMatrix type="matrix" values="0 0 0 0 0 0 0 0 0 0 0 0 0 0 0 0 0 0 0.2 0"/>
<feBlend mode="normal" in2="BackgroundImageFix" result="effect1_dropShadow"/>
<feBlend mode="normal" in="SourceGraphic" in2="effect1_dropShadow" result="shape"/>
</filter>
<filter id="filter7_d" x="485.929" y="131" width="156" height="222" filterUnits="userSpaceOnUse" color-interpolation-filters="sRGB">
<feFlood flood-opacity="0" result="BackgroundImageFix"/>
<feColorMatrix in="SourceAlpha" type="matrix" values="0 0 0 0 0 0 0 0 0 0 0 0 0 0 0 0 0 0 127 0"/>
<feOffset dy="19"/>
<feGaussianBlur stdDeviation="8.5"/>
<feColorMatrix type="matrix" values="0 0 0 0 0 0 0 0 0 0 0 0 0 0 0 0 0 0 0.2 0"/>
<feBlend mode="normal" in2="BackgroundImageFix" result="effect1_dropShadow"/>
<feBlend mode="normal" in="SourceGraphic" in2="effect1_dropShadow" result="shape"/>
</filter>
<linearGradient id="paint0_linear" x1="313.5" y1="-68.5" x2="528.5" y2="468" gradientUnits="userSpaceOnUse">
<stop stop-color="#535BCF"/>
<stop offset="0.969842" stop-color="#3F1992"/>
</linearGradient>
<linearGradient id="paint1_linear" x1="90.4287" y1="65" x2="90.4287" y2="114" gradientUnits="userSpaceOnUse">
<stop stop-color="white"/>
<stop offset="1" stop-color="#F8F8F8"/>
</linearGradient>
<linearGradient id="paint2_linear" x1="444.929" y1="393" x2="444.929" y2="433" gradientUnits="userSpaceOnUse">
<stop stop-color="white"/>
<stop offset="1" stop-color="#F8F8F8"/>
</linearGradient>
<linearGradient id="paint3_linear" x1="94.1787" y1="192.039" x2="80.4287" y2="281.053" gradientUnits="userSpaceOnUse">
<stop offset="0.271676" stop-color="white"/>
<stop offset="1" stop-color="#EFEFEF"/>
</linearGradient>
<linearGradient id="paint4_linear" x1="36.3412" y1="273.193" x2="170.476" y2="256.788" gradientUnits="userSpaceOnUse">
<stop stop-color="#E2E2E2"/>
<stop offset="1" stop-color="white"/>
</linearGradient>
<linearGradient id="paint5_linear" x1="304.664" y1="286.627" x2="112.696" y2="315.325" gradientUnits="userSpaceOnUse">
<stop stop-color="#E2E2E2"/>
<stop offset="1" stop-color="white"/>
</linearGradient>
<linearGradient id="paint6_linear" x1="286.766" y1="198.074" x2="144.672" y2="179.721" gradientUnits="userSpaceOnUse">
<stop stop-color="#E2E2E2"/>
<stop offset="0.897727" stop-color="white"/>
</linearGradient>
<linearGradient id="paint7_linear" x1="501.32" y1="352.817" x2="346.269" y2="335.383" gradientUnits="userSpaceOnUse">
<stop stop-color="#E2E2E2"/>
<stop offset="1" stop-color="white"/>
</linearGradient>
<linearGradient id="paint8_linear" x1="248.965" y1="240.125" x2="416.858" y2="255.792" gradientUnits="userSpaceOnUse">
<stop offset="0.127807" stop-color="#E2E2E2"/>
<stop offset="0.958183" stop-color="white"/>
</linearGradient>
<linearGradient id="paint9_linear" x1="492.999" y1="194.672" x2="354.1" y2="175.902" gradientUnits="userSpaceOnUse">
<stop stop-color="#E2E2E2"/>
<stop offset="1" stop-color="white"/>
</linearGradient>
<linearGradient id="paint10_linear" x1="728.457" y1="313.495" x2="542.662" y2="272.157" gradientUnits="userSpaceOnUse">
<stop stop-color="#E2E2E2"/>
<stop offset="0.870101" stop-color="white"/>
</linearGradient>
<linearGradient id="paint11_linear" x1="713.5" y1="385" x2="697.5" y2="360.5" gradientUnits="userSpaceOnUse">
<stop stop-color="#DCDCDC"/>
<stop offset="0.661007" stop-color="#EAEAEA" stop-opacity="0"/>
</linearGradient>
<linearGradient id="paint12_linear" x1="467.884" y1="350.696" x2="627.703" y2="346.621" gradientUnits="userSpaceOnUse">
<stop stop-color="#E2E2E2"/>
<stop offset="1" stop-color="white"/>
</linearGradient>
<linearGradient id="paint13_linear" x1="468.853" y1="204.991" x2="619.811" y2="193.21" gradientUnits="userSpaceOnUse">
<stop stop-color="#E2E2E2"/>
<stop offset="1" stop-color="white"/>
</linearGradient>
<linearGradient id="paint14_linear" x1="165.175" y1="226.691" x2="87.1603" y2="222.149" gradientUnits="userSpaceOnUse">
<stop stop-color="#758BF9"/>
<stop offset="1" stop-color="#633BE9"/>
</linearGradient>
<linearGradient id="paint15_linear" x1="154.429" y1="235" x2="292.429" y2="270.5" gradientUnits="userSpaceOnUse">
<stop offset="0.191842" stop-color="#758BF9"/>
<stop offset="1" stop-color="#633BE9"/>
</linearGradient>
<linearGradient id="paint16_linear" x1="200.428" y1="316.5" x2="306.928" y2="366" gradientUnits="userSpaceOnUse">
<stop stop-color="#758BF9"/>
<stop offset="1" stop-color="#633BE9"/>
</linearGradient>
<linearGradient id="paint17_linear" x1="363.429" y1="318.5" x2="267.429" y2="349" gradientUnits="userSpaceOnUse">
<stop stop-color="#758BF9"/>
<stop offset="1" stop-color="#633BE9"/>
</linearGradient>
<linearGradient id="paint18_linear" x1="380.429" y1="194.5" x2="272.929" y2="214" gradientUnits="userSpaceOnUse">
<stop stop-color="#758BF9"/>
<stop offset="0.95927" stop-color="#633BE9"/>
</linearGradient>
<linearGradient id="paint19_linear" x1="594.929" y1="211" x2="701.929" y2="223.5" gradientUnits="userSpaceOnUse">
<stop stop-color="#758BF9"/>
<stop offset="1" stop-color="#633BE9"/>
</linearGradient>
<linearGradient id="paint20_linear" x1="618.928" y1="234.5" x2="484.928" y2="257" gradientUnits="userSpaceOnUse">
<stop stop-color="#758BF9"/>
<stop offset="1" stop-color="#633BE9"/>
</linearGradient>
<linearGradient id="paint21_linear" x1="381.429" y1="274" x2="500.929" y2="268" gradientUnits="userSpaceOnUse">
<stop stop-color="#758BF9"/>
<stop offset="0.889113" stop-color="#633BE9"/>
</linearGradient>
<linearGradient id="paint22_linear" x1="401.929" y1="276" x2="329.929" y2="286" gradientUnits="userSpaceOnUse">
<stop offset="0.206397" stop-color="#758BF9"/>
<stop offset="1" stop-color="#633BE9"/>
</linearGradient>
<linearGradient id="paint23_linear" x1="614.929" y1="324" x2="534.429" y2="332.5" gradientUnits="userSpaceOnUse">
<stop stop-color="#758BF9"/>
<stop offset="1" stop-color="#633BE9"/>
</linearGradient>
<linearGradient id="paint24_linear" x1="614.929" y1="323.5" x2="670.429" y2="340" gradientUnits="userSpaceOnUse">
<stop stop-color="#758BF9"/>
<stop offset="1" stop-color="#633BE9"/>
</linearGradient>
<linearGradient id="paint25_linear" x1="194202" y1="25164.8" x2="208072" y2="30518.3" gradientUnits="userSpaceOnUse">
<stop stop-color="#7383F7"/>
<stop offset="0.56" stop-color="#6D68F2"/>
</linearGradient>
<linearGradient id="paint26_linear" x1="248.929" y1="50" x2="248.929" y2="244" gradientUnits="userSpaceOnUse">
<stop offset="0.48" stop-color="#D23E50"/>
<stop offset="1" stop-color="#821E42"/>
</linearGradient>
<linearGradient id="paint27_linear" x1="418.95" y1="1" x2="418.95" y2="253" gradientUnits="userSpaceOnUse">
<stop offset="0.603334" stop-color="#8C1049"/>
<stop offset="1" stop-color="#610B32"/>
</linearGradient>
<linearGradient id="paint28_linear" x1="563.932" y1="131" x2="563.932" y2="317" gradientUnits="userSpaceOnUse">
<stop offset="0.46953" stop-color="#C2284D"/>
<stop offset="1" stop-color="#860739"/>
</linearGradient>
</defs>
</svg>
