<svg width="187" height="186" viewBox="0 0 187 186" fill="none" xmlns="http://www.w3.org/2000/svg">
<g filter="url(#filter0_d)">
<circle cx="93.9287" cy="90" r="86" fill="white"/>
</g>
<path d="M44.4578 81.9922V86H42.114V74.625H46.5515C47.4057 74.625 48.1557 74.7812 48.8015 75.0938C49.4526 75.4062 49.9526 75.8516 50.3015 76.4297C50.6505 77.0026 50.825 77.6562 50.825 78.3906C50.825 79.5052 50.4422 80.3854 49.6765 81.0312C48.9161 81.6719 47.8614 81.9922 46.5125 81.9922H44.4578ZM44.4578 80.0938H46.5515C47.1713 80.0938 47.6427 79.9479 47.9656 79.6562C48.2937 79.3646 48.4578 78.9479 48.4578 78.4062C48.4578 77.849 48.2937 77.3984 47.9656 77.0547C47.6375 76.7109 47.1843 76.5339 46.6062 76.5234H44.4578V80.0938ZM57.7934 83.6562H53.684L52.9028 86H50.4106L54.645 74.625H56.8168L61.0746 86H58.5825L57.7934 83.6562ZM54.3168 81.7578H57.1606L55.7309 77.5L54.3168 81.7578ZM65.2071 79.75L67.5743 74.625H70.1368L66.4025 81.875V86H64.0196V81.875L60.2853 74.625H62.8556L65.2071 79.75ZM85.144 80.5703C85.144 81.6901 84.9461 82.6719 84.5503 83.5156C84.1544 84.3594 83.5867 85.0104 82.8471 85.4688C82.1128 85.9271 81.269 86.1562 80.3159 86.1562C79.3732 86.1562 78.532 85.9297 77.7925 85.4766C77.0529 85.0234 76.48 84.3776 76.0737 83.5391C75.6675 82.6953 75.4617 81.7266 75.4565 80.6328V80.0703C75.4565 78.9505 75.657 77.9661 76.0581 77.1172C76.4643 76.263 77.0346 75.6094 77.769 75.1562C78.5086 74.6979 79.3524 74.4688 80.3003 74.4688C81.2482 74.4688 82.0893 74.6979 82.8237 75.1562C83.5633 75.6094 84.1336 76.263 84.5346 77.1172C84.9409 77.9661 85.144 78.9479 85.144 80.0625V80.5703ZM82.769 80.0547C82.769 78.862 82.5555 77.9557 82.1284 77.3359C81.7013 76.7161 81.0919 76.4062 80.3003 76.4062C79.5138 76.4062 78.907 76.7135 78.48 77.3281C78.0529 77.9375 77.8367 78.8333 77.8315 80.0156V80.5703C77.8315 81.7318 78.0451 82.6328 78.4721 83.2734C78.8992 83.9141 79.5138 84.2344 80.3159 84.2344C81.1024 84.2344 81.7065 83.9271 82.1284 83.3125C82.5503 82.6927 82.7638 81.7917 82.769 80.6094V80.0547ZM96.4171 86H94.0734L89.5109 78.5156V86H87.1671V74.625H89.5109L94.0812 82.125V74.625H96.4171V86ZM101.128 84.1172H106.104V86H98.784V74.625H101.128V84.1172ZM109.51 79.75L111.877 74.625H114.44L110.706 81.875V86H108.323V81.875L104.588 74.625H107.159L109.51 79.75ZM126.947 81.3516H122.447V86H120.103V74.625H127.51V76.5234H122.447V79.4609H126.947V81.3516ZM138.533 80.5703C138.533 81.6901 138.335 82.6719 137.939 83.5156C137.543 84.3594 136.975 85.0104 136.236 85.4688C135.502 85.9271 134.658 86.1563 133.705 86.1563C132.762 86.1563 131.921 85.9297 131.181 85.4766C130.442 85.0234 129.869 84.3776 129.462 83.5391C129.056 82.6953 128.85 81.7266 128.845 80.6328V80.0703C128.845 78.9505 129.046 77.9661 129.447 77.1172C129.853 76.263 130.423 75.6094 131.158 75.1563C131.897 74.6979 132.741 74.4688 133.689 74.4688C134.637 74.4688 135.478 74.6979 136.212 75.1563C136.952 75.6094 137.522 76.263 137.923 77.1172C138.33 77.9661 138.533 78.9479 138.533 80.0625V80.5703ZM136.158 80.0547C136.158 78.862 135.944 77.9557 135.517 77.3359C135.09 76.7161 134.481 76.4063 133.689 76.4063C132.903 76.4063 132.296 76.7135 131.869 77.3281C131.442 77.9375 131.225 78.8333 131.22 80.0156V80.5703C131.22 81.7318 131.434 82.6328 131.861 83.2734C132.288 83.9141 132.903 84.2344 133.705 84.2344C134.491 84.2344 135.095 83.9271 135.517 83.3125C135.939 82.6927 136.153 81.7917 136.158 80.6094V80.0547ZM144.767 81.8359H142.9V86H140.556V74.625H144.782C146.126 74.625 147.163 74.9245 147.892 75.5234C148.621 76.1224 148.986 76.9688 148.986 78.0625C148.986 78.8385 148.816 79.487 148.478 80.0078C148.144 80.5234 147.637 80.9349 146.954 81.2422L149.415 85.8906V86H146.9L144.767 81.8359ZM142.9 79.9375H144.79C145.379 79.9375 145.835 79.7891 146.157 79.4922C146.48 79.1901 146.642 78.776 146.642 78.25C146.642 77.7135 146.488 77.2917 146.181 76.9844C145.879 76.6771 145.413 76.5234 144.782 76.5234H142.9V79.9375ZM46.8953 102.719L48.4265 94.625H50.7625L48.239 106H45.8797L44.0281 98.3906L42.1765 106H39.8172L37.2937 94.625H39.6297L41.1687 102.703L43.0437 94.625H45.0281L46.8953 102.719ZM61.6137 106H59.27L59.27 101.125H54.6996L54.6996 106H52.3559L52.3559 94.625H54.6996V99.2344H59.27V94.625H61.6137L61.6137 106ZM70.5509 103.656H66.4415L65.6603 106H63.1681L67.4025 94.625H69.5743L73.8321 106H71.34L70.5509 103.656ZM67.0743 101.758H69.9181L68.4884 97.5L67.0743 101.758ZM82.8396 96.5234H79.3553V106H77.0115V96.5234H73.574V94.625H82.8396V96.5234ZM92.2609 99.75L94.6281 94.625H97.1906L93.4562 101.875V106H91.0734V101.875L87.339 94.625H89.9093L92.2609 99.75ZM107.659 100.57C107.659 101.69 107.461 102.672 107.065 103.516C106.669 104.359 106.102 105.01 105.362 105.469C104.628 105.927 103.784 106.156 102.831 106.156C101.888 106.156 101.047 105.93 100.307 105.477C99.5679 105.023 98.995 104.378 98.5887 103.539C98.1825 102.695 97.9767 101.727 97.9715 100.633V100.07C97.9715 98.9505 98.172 97.9661 98.5731 97.1172C98.9793 96.263 99.5496 95.6094 100.284 95.1563C101.024 94.6979 101.867 94.4688 102.815 94.4688C103.763 94.4688 104.604 94.6979 105.339 95.1563C106.078 95.6094 106.649 96.263 107.05 97.1172C107.456 97.9661 107.659 98.9479 107.659 100.063V100.57ZM105.284 100.055C105.284 98.862 105.07 97.9557 104.643 97.3359C104.216 96.7161 103.607 96.4063 102.815 96.4063C102.029 96.4063 101.422 96.7135 100.995 97.3281C100.568 97.9375 100.352 98.8333 100.347 100.016V100.57C100.347 101.732 100.56 102.633 100.987 103.273C101.414 103.914 102.029 104.234 102.831 104.234C103.617 104.234 104.222 103.927 104.643 103.313C105.065 102.693 105.279 101.792 105.284 100.609V100.055ZM118.292 94.625V102.117C118.292 103.362 117.901 104.346 117.12 105.07C116.344 105.794 115.281 106.156 113.932 106.156C112.604 106.156 111.549 105.805 110.768 105.102C109.987 104.398 109.588 103.432 109.573 102.203V94.625H111.917V102.133C111.917 102.878 112.094 103.422 112.448 103.766C112.807 104.104 113.302 104.273 113.932 104.273C115.25 104.273 115.919 103.581 115.94 102.195V94.625H118.292ZM133.447 94.625V102.117C133.447 103.362 133.057 104.346 132.275 105.07C131.499 105.794 130.437 106.156 129.088 106.156C127.76 106.156 126.705 105.805 125.924 105.102C125.142 104.398 124.744 103.432 124.728 102.203V94.625H127.072V102.133C127.072 102.878 127.249 103.422 127.603 103.766C127.963 104.104 128.458 104.273 129.088 104.273C130.405 104.273 131.075 103.581 131.096 102.195V94.625H133.447ZM141.587 103.016C141.587 102.573 141.431 102.234 141.119 102C140.806 101.76 140.244 101.51 139.431 101.25C138.619 100.984 137.975 100.724 137.502 100.469C136.21 99.7708 135.564 98.8307 135.564 97.6484C135.564 97.0339 135.736 96.487 136.08 96.0078C136.429 95.5234 136.926 95.1458 137.572 94.875C138.223 94.6042 138.952 94.4688 139.759 94.4688C140.572 94.4688 141.296 94.6172 141.931 94.9141C142.567 95.2057 143.059 95.6198 143.408 96.1563C143.762 96.6927 143.939 97.3021 143.939 97.9844H141.595C141.595 97.4635 141.431 97.0599 141.103 96.7734C140.775 96.4818 140.314 96.3359 139.72 96.3359C139.147 96.3359 138.702 96.4583 138.384 96.7031C138.067 96.9427 137.908 97.2604 137.908 97.6563C137.908 98.026 138.093 98.3359 138.462 98.5859C138.837 98.8359 139.387 99.0703 140.111 99.2891C141.444 99.6901 142.416 100.188 143.025 100.781C143.634 101.375 143.939 102.115 143.939 103C143.939 103.984 143.567 104.758 142.822 105.32C142.077 105.878 141.074 106.156 139.814 106.156C138.939 106.156 138.142 105.997 137.423 105.68C136.705 105.357 136.155 104.917 135.775 104.359C135.4 103.802 135.212 103.156 135.212 102.422H137.564C137.564 103.677 138.314 104.305 139.814 104.305C140.371 104.305 140.806 104.193 141.119 103.969C141.431 103.74 141.587 103.422 141.587 103.016ZM152.697 101.07H148.197V104.117H153.478V106L145.853 106V94.625H153.462V96.5234H148.197V99.2344H152.697V101.07Z" fill="#282932"/>
<defs>
<filter id="filter0_d" x="0.928711" y="0" width="186" height="186" filterUnits="userSpaceOnUse" color-interpolation-filters="sRGB">
<feFlood flood-opacity="0" result="BackgroundImageFix"/>
<feColorMatrix in="SourceAlpha" type="matrix" values="0 0 0 0 0 0 0 0 0 0 0 0 0 0 0 0 0 0 127 0"/>
<feOffset dy="3"/>
<feGaussianBlur stdDeviation="3.5"/>
<feColorMatrix type="matrix" values="0 0 0 0 0 0 0 0 0 0 0 0 0 0 0 0 0 0 0.12 0"/>
<feBlend mode="normal" in2="BackgroundImageFix" result="effect1_dropShadow"/>
<feBlend mode="normal" in="SourceGraphic" in2="effect1_dropShadow" result="shape"/>
</filter>
</defs>
</svg>
