<svg width="33" height="34" viewBox="0 0 33 34" fill="none" xmlns="http://www.w3.org/2000/svg">
<g clip-path="url(#clip0)">
<path d="M28.1673 5.69695C25.0509 2.58052 20.9073 0.864258 16.5 0.864258C12.0927 0.864258 7.94913 2.58052 4.8327 5.69695C1.71632 8.81339 0 12.957 0 17.3643C0 21.7716 1.71632 25.9151 4.8327 29.0316C7.94913 32.148 12.0927 33.8643 16.5 33.8643C20.9073 33.8643 25.0509 32.148 28.1673 29.0316C31.2837 25.9151 33 21.7716 33 17.3643C33 12.957 31.2837 8.81339 28.1673 5.69695ZM16.5 31.9307C8.46805 31.9307 1.93359 25.3962 1.93359 17.3643C1.93359 9.3323 8.46805 2.79785 16.5 2.79785C24.532 2.79785 31.0664 9.3323 31.0664 17.3643C31.0664 25.3962 24.532 31.9307 16.5 31.9307Z" fill="#FF6A7C"/>
<path d="M17.5356 16.3975H15.4645C14.2845 16.3975 13.3246 15.4376 13.3246 14.2577C13.3246 13.0778 14.2846 12.1179 15.4645 12.1179H19.6067C20.1406 12.1179 20.5735 11.685 20.5735 11.1511C20.5735 10.6171 20.1406 10.1843 19.6067 10.1843H17.4669V8.04443C17.4669 7.5105 17.034 7.07764 16.5001 7.07764C15.9661 7.07764 15.5333 7.5105 15.5333 8.04443V10.1843H15.4646C13.2184 10.1843 11.3911 12.0117 11.3911 14.2577C11.3911 16.5038 13.2185 18.3311 15.4646 18.3311H17.5357C18.7156 18.3311 19.6755 19.2911 19.6755 20.4709C19.6755 21.6508 18.7156 22.6108 17.5357 22.6108H13.3935C12.8595 22.6108 12.4267 23.0436 12.4267 23.5776C12.4267 24.1115 12.8595 24.5444 13.3935 24.5444H15.5333V26.6843C15.5333 27.2182 15.9661 27.6511 16.5001 27.6511C17.034 27.6511 17.4669 27.2182 17.4669 26.6843V24.5444H17.5356C19.7817 24.5444 21.609 22.717 21.609 20.4709C21.609 18.2249 19.7817 16.3975 17.5356 16.3975Z" fill="#FF6A7C"/>
</g>
<defs>
<clipPath id="clip0">
<rect y="0.864258" width="33" height="33" fill="white"/>
</clipPath>
</defs>
</svg>
