<svg width="671" height="634" viewBox="0 0 671 634" fill="none" xmlns="http://www.w3.org/2000/svg">
<g filter="url(#filter0_f)">
<path d="M205.755 213.047H29.972V533.586H205.755V213.047Z" fill="#464646"/>
</g>
<g filter="url(#filter1_f)">
<path d="M641.028 213.047H476.406V533.586H641.028V213.047Z" fill="#464646"/>
</g>
<g filter="url(#filter2_f)">
<path d="M430.832 131.287H240.168V451.826H430.832V131.287Z" fill="#464646"/>
</g>
<g opacity="0.78" filter="url(#filter3_f)">
<path opacity="0.78" d="M329.455 619.063C432.187 619.063 515.469 615.112 515.469 610.237C515.469 605.362 432.187 601.411 329.455 601.411C226.722 601.411 143.441 605.362 143.441 610.237C143.441 615.112 226.722 619.063 329.455 619.063Z" fill="#404040"/>
</g>
<g filter="url(#filter4_f)">
<path d="M124.374 551.239C178.052 551.239 221.566 548.951 221.566 546.129C221.566 543.307 178.052 541.019 124.374 541.019C70.6963 541.019 27.1818 543.307 27.1818 546.129C27.1818 548.951 70.6963 551.239 124.374 551.239Z" fill="#404040"/>
</g>
<g filter="url(#filter5_f)">
<path d="M548.486 551.239C602.164 551.239 645.678 548.951 645.678 546.129C645.678 543.307 602.164 541.019 548.486 541.019C494.808 541.019 451.294 543.307 451.294 546.129C451.294 548.951 494.808 551.239 548.486 551.239Z" fill="#404040"/>
</g>
<g filter="url(#filter6_d)">
<path d="M80.8569 126.255C80.8569 126.255 78.7636 116.079 89.4144 110.136C97.2868 105.744 107.612 110.475 107.612 110.475C107.612 110.475 116.104 99.3813 130.395 101.938C143.929 104.401 147.511 112.714 148.763 115.35C151.233 120.571 149.692 128.068 149.692 128.068C149.692 128.068 162.149 131.925 163.697 143.004C164.522 148.912 162.783 153.505 159.805 156.95C157.167 159.998 151.999 162.194 147.924 162.173L86.3776 161.884C84.62 161.812 82.8717 161.595 81.1517 161.233C77.5578 160.445 74.2337 158.758 71.5035 156.337C68.6583 153.939 63.5725 145.438 67.9581 137.104C70.7323 132.042 75.3308 128.175 80.8569 126.255Z" fill="url(#paint0_linear)"/>
</g>
<g filter="url(#filter7_d)">
<path d="M292.549 40.43C292.549 40.43 289.908 27.339 303.348 19.6925C313.281 14.0436 326.311 20.1292 326.311 20.1292C326.311 20.1292 337.025 5.85823 355.059 9.14724C372.136 12.3619 376.656 23.0094 378.237 26.4006C381.353 33.118 379.409 42.762 379.409 42.762C379.409 42.762 395.127 47.7234 397.08 61.9758C398.122 69.5758 395.927 75.4849 392.169 79.9167C388.84 83.8375 382.32 86.6619 377.176 86.6341L299.516 86.2624C297.298 86.1711 295.092 85.8913 292.921 85.4262C288.386 84.4128 284.192 82.2424 280.747 79.127C277.157 76.0423 270.739 65.1068 276.273 54.385C279.774 47.8742 285.577 42.8992 292.549 40.43Z" fill="url(#paint1_linear)"/>
</g>
<g filter="url(#filter8_d)">
<path d="M522.64 129.33C522.64 129.33 520.547 119.035 531.198 113.022C539.07 108.58 549.396 113.365 549.396 113.365C549.396 113.365 557.887 102.144 572.179 104.73C585.712 107.221 589.294 115.63 590.547 118.297C593.016 123.58 591.476 131.163 591.476 131.163C591.476 131.163 603.932 135.065 605.48 146.273C606.306 152.249 604.566 156.895 601.588 160.38C598.95 163.464 593.782 165.685 589.707 165.663L528.161 165.371C526.403 165.299 524.655 165.079 522.935 164.714C519.341 163.917 516.017 162.21 513.287 159.76C510.442 157.334 505.356 148.735 509.741 140.304C512.516 135.183 517.114 131.272 522.64 129.33Z" fill="url(#paint2_linear)"/>
</g>
<path d="M203.821 192.551H29.2466C25.5379 192.551 22.5315 195.554 22.5315 199.259V222.087C22.5315 225.792 25.5379 228.795 29.2466 228.795H203.821C207.53 228.795 210.536 225.792 210.536 222.087V199.259C210.536 195.554 207.53 192.551 203.821 192.551Z" fill="url(#paint3_linear)"/>
<path d="M205.588 228.795H27.4795V232.911H205.588V228.795Z" fill="#3F3F44"/>
<path d="M182.336 198.302H49.8942C47.5314 198.302 45.6159 200.215 45.6159 202.576V218.743C45.6159 221.103 47.5314 223.016 49.8942 223.016H182.336C184.699 223.016 186.614 221.103 186.614 218.743V202.576C186.614 200.215 184.699 198.302 182.336 198.302Z" fill="#383838" stroke="#545454" stroke-width="0.688067" stroke-miterlimit="10"/>
<path d="M92.6216 205.512H54.6934V215.398H92.6216V205.512Z" fill="#C7D4F9"/>
<path d="M179.202 205.512H169.306V215.398H179.202V205.512Z" fill="white"/>
<g filter="url(#filter9_d)">
<path d="M103.754 213.744C105.347 213.744 106.638 212.454 106.638 210.864C106.638 209.273 105.347 207.984 103.754 207.984C102.162 207.984 100.871 209.273 100.871 210.864C100.871 212.454 102.162 213.744 103.754 213.744Z" fill="white"/>
</g>
<path d="M112.144 213.038C113.345 213.038 114.32 212.064 114.32 210.864C114.32 209.664 113.345 208.69 112.144 208.69C110.942 208.69 109.967 209.664 109.967 210.864C109.967 212.064 110.942 213.038 112.144 213.038Z" fill="#554FBC"/>
<path d="M150.342 209.424H122.309V211.895H150.342V209.424Z" fill="#AF5473"/>
<path d="M203.821 232.911H29.2466C25.5379 232.911 22.5315 235.914 22.5315 239.62V262.447C22.5315 266.152 25.5379 269.156 29.2466 269.156H203.821C207.53 269.156 210.536 266.152 210.536 262.447V239.62C210.536 235.914 207.53 232.911 203.821 232.911Z" fill="url(#paint4_linear)"/>
<path d="M205.588 269.156H27.4795V273.272H205.588V269.156Z" fill="#3F3F44"/>
<path d="M182.336 238.663H49.8942C47.5314 238.663 45.6159 240.576 45.6159 242.936V259.103C45.6159 261.463 47.5314 263.377 49.8942 263.377H182.336C184.699 263.377 186.614 261.463 186.614 259.103V242.936C186.614 240.576 184.699 238.663 182.336 238.663Z" fill="#383838" stroke="#545454" stroke-width="0.688067" stroke-miterlimit="10"/>
<path d="M92.6216 245.872H54.6934V255.758H92.6216V245.872Z" fill="#C7D4F9"/>
<path d="M179.202 245.872H169.306V255.758H179.202V245.872Z" fill="white"/>
<g filter="url(#filter10_d)">
<path d="M103.754 254.104C105.347 254.104 106.638 252.815 106.638 251.224C106.638 249.633 105.347 248.344 103.754 248.344C102.162 248.344 100.871 249.633 100.871 251.224C100.871 252.815 102.162 254.104 103.754 254.104Z" fill="white"/>
</g>
<path d="M150.342 249.784H122.309V252.255H150.342V249.784Z" fill="#AF5473"/>
<path d="M203.821 273.281H29.2466C25.5379 273.281 22.5315 276.285 22.5315 279.989V302.817C22.5315 306.522 25.5379 309.525 29.2466 309.525H203.821C207.53 309.525 210.536 306.522 210.536 302.817V279.989C210.536 276.285 207.53 273.281 203.821 273.281Z" fill="url(#paint5_linear)"/>
<path d="M205.588 309.525H27.4795V313.641H205.588V309.525Z" fill="#3F3F44"/>
<path d="M182.336 279.023H49.8942C47.5314 279.023 45.6159 280.936 45.6159 283.296V299.463C45.6159 301.823 47.5314 303.737 49.8942 303.737H182.336C184.699 303.737 186.614 301.823 186.614 299.463V283.296C186.614 280.936 184.699 279.023 182.336 279.023Z" fill="#383838" stroke="#545454" stroke-width="0.688067" stroke-miterlimit="10"/>
<path d="M92.6216 286.232H54.6934V296.118H92.6216V286.232Z" fill="#C7D4F9"/>
<path d="M179.202 286.232H169.306V296.118H179.202V286.232Z" fill="white"/>
<g filter="url(#filter11_d)">
<path d="M103.754 294.474C105.347 294.474 106.638 293.184 106.638 291.593C106.638 290.003 105.347 288.713 103.754 288.713C102.162 288.713 100.871 290.003 100.871 291.593C100.871 293.184 102.162 294.474 103.754 294.474Z" fill="white"/>
</g>
<path d="M150.342 290.144H122.309V292.615H150.342V290.144Z" fill="#AF5473"/>
<path d="M203.821 313.641H29.2466C25.5379 313.641 22.5315 316.645 22.5315 320.349V343.177C22.5315 346.882 25.5379 349.885 29.2466 349.885H203.821C207.53 349.885 210.536 346.882 210.536 343.177V320.349C210.536 316.645 207.53 313.641 203.821 313.641Z" fill="url(#paint6_linear)"/>
<path d="M205.588 349.885H27.4795V354.001H205.588V349.885Z" fill="#3F3F44"/>
<path d="M182.336 319.392H49.8942C47.5314 319.392 45.6159 321.305 45.6159 323.666V339.832C45.6159 342.192 47.5314 344.106 49.8942 344.106H182.336C184.699 344.106 186.614 342.192 186.614 339.832V323.666C186.614 321.305 184.699 319.392 182.336 319.392Z" fill="#383838" stroke="#545454" stroke-width="0.688067" stroke-miterlimit="10"/>
<path d="M92.6216 326.592H54.6934V336.478H92.6216V326.592Z" fill="#C7D4F9"/>
<path d="M179.202 326.592H169.306V336.478H179.202V326.592Z" fill="white"/>
<g filter="url(#filter12_d)">
<path d="M103.754 334.833C105.347 334.833 106.638 333.544 106.638 331.953C106.638 330.363 105.347 329.073 103.754 329.073C102.162 329.073 100.871 330.363 100.871 331.953C100.871 333.544 102.162 334.833 103.754 334.833Z" fill="white"/>
</g>
<path d="M150.342 330.513H122.309V332.985H150.342V330.513Z" fill="#AF5473"/>
<path d="M203.821 354.001H29.2466C25.5379 354.001 22.5315 357.004 22.5315 360.709V383.537C22.5315 387.241 25.5379 390.245 29.2466 390.245H203.821C207.53 390.245 210.536 387.241 210.536 383.537V360.709C210.536 357.004 207.53 354.001 203.821 354.001Z" fill="url(#paint7_linear)"/>
<path d="M203.821 394.361H29.2466C25.5379 394.361 22.5315 397.364 22.5315 401.069V541.688C22.5315 545.393 25.5379 548.396 29.2466 548.396H203.821C207.53 548.396 210.536 545.393 210.536 541.688V401.069C210.536 397.364 207.53 394.361 203.821 394.361Z" fill="url(#paint8_linear)"/>
<path d="M205.588 390.245H27.4795V394.361H205.588V390.245Z" fill="#3F3F44"/>
<path d="M182.336 359.752H49.8942C47.5314 359.752 45.6159 361.665 45.6159 364.026V380.192C45.6159 382.552 47.5314 384.466 49.8942 384.466H182.336C184.699 384.466 186.614 382.552 186.614 380.192V364.026C186.614 361.665 184.699 359.752 182.336 359.752Z" fill="#383838" stroke="#545454" stroke-width="0.688067" stroke-miterlimit="10"/>
<path d="M92.6216 366.962H54.6934V376.847H92.6216V366.962Z" fill="#C7D4F9"/>
<path d="M149.691 420.719H82.5582C81.7414 420.719 81.0794 421.381 81.0794 422.197V430.772C81.0794 431.588 81.7414 432.25 82.5582 432.25H149.691C150.507 432.25 151.169 431.588 151.169 430.772V422.197C151.169 421.381 150.507 420.719 149.691 420.719Z" fill="#707070"/>
<path d="M143.747 424.845H88.5012V428.961H143.747V424.845Z" fill="url(#paint9_linear)"/>
<path d="M149.719 447.078H82.5303C81.7289 447.078 81.0794 447.727 81.0794 448.527V457.159C81.0794 457.959 81.7289 458.608 82.5303 458.608H149.719C150.52 458.608 151.169 457.959 151.169 457.159V448.527C151.169 447.727 150.52 447.078 149.719 447.078Z" fill="#707070"/>
<path d="M143.747 451.203H88.5012V455.319H143.747V451.203Z" fill="url(#paint10_linear)"/>
<path d="M197.134 480.851H35.1153C34.0881 480.851 33.2552 481.682 33.2552 482.709V484.762C33.2552 485.788 34.0881 486.62 35.1153 486.62H197.134C198.161 486.62 198.994 485.788 198.994 484.762V482.709C198.994 481.682 198.161 480.851 197.134 480.851Z" fill="#474747"/>
<path d="M197.134 503.093H35.1153C34.0881 503.093 33.2552 503.925 33.2552 504.952V507.005C33.2552 508.031 34.0881 508.863 35.1153 508.863H197.134C198.161 508.863 198.994 508.031 198.994 507.005V504.952C198.994 503.925 198.161 503.093 197.134 503.093Z" fill="#474747"/>
<path d="M197.115 525.336H35.1339C34.0963 525.336 33.2552 526.176 33.2552 527.213V529.229C33.2552 530.265 34.0963 531.106 35.1339 531.106H197.115C198.153 531.106 198.994 530.265 198.994 529.229V527.213C198.994 526.176 198.153 525.336 197.115 525.336Z" fill="#474747"/>
<path d="M179.202 366.962H169.306V376.847H179.202V366.962Z" fill="white"/>
<g filter="url(#filter13_d)">
<path d="M103.754 375.194C105.347 375.194 106.638 373.904 106.638 372.313C106.638 370.723 105.347 369.433 103.754 369.433C102.162 369.433 100.871 370.723 100.871 372.313C100.871 373.904 102.162 375.194 103.754 375.194Z" fill="white"/>
</g>
<path d="M150.342 370.873H122.309V373.345H150.342V370.873Z" fill="#AF5473"/>
<path d="M112.144 253.528C113.345 253.528 114.32 252.554 114.32 251.354C114.32 250.153 113.345 249.18 112.144 249.18C110.942 249.18 109.967 250.153 109.967 251.354C109.967 252.554 110.942 253.528 112.144 253.528Z" fill="#554FBC"/>
<path d="M112.144 294.009C113.345 294.009 114.32 293.035 114.32 291.835C114.32 290.634 113.345 289.661 112.144 289.661C110.942 289.661 109.967 290.634 109.967 291.835C109.967 293.035 110.942 294.009 112.144 294.009Z" fill="#554FBC"/>
<path d="M112.144 334.499C113.345 334.499 114.32 333.525 114.32 332.325C114.32 331.125 113.345 330.151 112.144 330.151C110.942 330.151 109.967 331.125 109.967 332.325C109.967 333.525 110.942 334.499 112.144 334.499Z" fill="#554FBC"/>
<path d="M112.144 374.227C113.345 374.227 114.32 373.254 114.32 372.053C114.32 370.852 113.345 369.879 112.144 369.879C110.942 369.879 109.967 370.852 109.967 372.053C109.967 373.254 110.942 374.227 112.144 374.227Z" fill="#554FBC"/>
<path d="M644.413 192.802H469.97C466.26 192.802 463.254 195.805 463.254 199.51V222.31C463.254 226.015 466.26 229.018 469.97 229.018H644.413C648.122 229.018 651.129 226.015 651.129 222.31V199.51C651.129 195.805 648.122 192.802 644.413 192.802Z" fill="url(#paint11_linear)"/>
<path d="M646.19 229.018H468.202V233.134H646.19V229.018Z" fill="#3F3F44"/>
<path d="M622.957 198.544H490.608C488.244 198.544 486.329 200.457 486.329 202.818V218.966C486.329 221.326 488.244 223.24 490.608 223.24H622.957C625.319 223.24 627.235 221.326 627.235 218.966V202.818C627.235 200.457 625.319 198.544 622.957 198.544Z" fill="#383838" stroke="#545454" stroke-width="0.687595" stroke-miterlimit="10"/>
<path d="M533.289 205.745H495.388V215.621H533.289V205.745Z" fill="#C7D4F9"/>
<path d="M619.813 205.745H609.926V215.621H619.813V205.745Z" fill="white"/>
<g filter="url(#filter14_d)">
<path d="M544.422 213.976C546.014 213.976 547.305 212.687 547.305 211.096C547.305 209.506 546.014 208.216 544.422 208.216C542.829 208.216 541.538 209.506 541.538 211.096C541.538 212.687 542.829 213.976 544.422 213.976Z" fill="white"/>
</g>
<path d="M552.811 213.27C554.013 213.27 554.987 212.297 554.987 211.096C554.987 209.896 554.013 208.922 552.811 208.922C551.609 208.922 550.635 209.896 550.635 211.096C550.635 212.297 551.609 213.27 552.811 213.27Z" fill="#554FBC"/>
<path d="M590.972 209.656H562.958V212.127H590.972V209.656Z" fill="#AF5473"/>
<path d="M644.413 233.134H469.97C466.26 233.134 463.254 236.137 463.254 239.842V262.643C463.254 266.347 466.26 269.351 469.97 269.351H644.413C648.122 269.351 651.129 266.347 651.129 262.643V239.842C651.129 236.137 648.122 233.134 644.413 233.134Z" fill="url(#paint12_linear)"/>
<path d="M646.19 269.351H468.202V273.467H646.19V269.351Z" fill="#3F3F44"/>
<path d="M622.957 238.876H490.608C488.244 238.876 486.329 240.789 486.329 243.15V259.298C486.329 261.658 488.244 263.572 490.608 263.572H622.957C625.319 263.572 627.235 261.658 627.235 259.298V243.15C627.235 240.789 625.319 238.876 622.957 238.876Z" fill="#383838" stroke="#545454" stroke-width="0.687595" stroke-miterlimit="10"/>
<path d="M533.289 246.077H495.388V255.953H533.289V246.077Z" fill="#C7D4F9"/>
<path d="M619.813 246.077H609.926V255.953H619.813V246.077Z" fill="white"/>
<g filter="url(#filter15_d)">
<path d="M544.422 254.309C546.014 254.309 547.305 253.019 547.305 251.428C547.305 249.838 546.014 248.548 544.422 248.548C542.829 248.548 541.538 249.838 541.538 251.428C541.538 253.019 542.829 254.309 544.422 254.309Z" fill="white"/>
</g>
<path d="M590.972 249.988H562.958V252.46H590.972V249.988Z" fill="#AF5473"/>
<path d="M644.413 273.467H469.97C466.26 273.467 463.254 276.469 463.254 280.175V302.975C463.254 306.679 466.26 309.683 469.97 309.683H644.413C648.122 309.683 651.129 306.679 651.129 302.975V280.175C651.129 276.469 648.122 273.467 644.413 273.467Z" fill="url(#paint13_linear)"/>
<path d="M646.19 309.683H468.202V313.799H646.19V309.683Z" fill="#3F3F44"/>
<path d="M622.957 279.208H490.608C488.244 279.208 486.329 281.121 486.329 283.482V299.63C486.329 301.99 488.244 303.904 490.608 303.904H622.957C625.319 303.904 627.235 301.99 627.235 299.63V283.482C627.235 281.121 625.319 279.208 622.957 279.208Z" fill="#383838" stroke="#545454" stroke-width="0.687595" stroke-miterlimit="10"/>
<path d="M533.289 286.418H495.388V296.295H533.289V286.418Z" fill="#C7D4F9"/>
<path d="M619.813 286.418H609.926V296.295H619.813V286.418Z" fill="white"/>
<g filter="url(#filter16_d)">
<path d="M544.422 294.65C546.014 294.65 547.305 293.36 547.305 291.77C547.305 290.179 546.014 288.89 544.422 288.89C542.829 288.89 541.538 290.179 541.538 291.77C541.538 293.36 542.829 294.65 544.422 294.65Z" fill="white"/>
</g>
<path d="M590.972 290.32H562.958V292.792H590.972V290.32Z" fill="#AF5473"/>
<path d="M644.413 313.799H469.97C466.26 313.799 463.254 316.802 463.254 320.507V343.307C463.254 347.011 466.26 350.015 469.97 350.015H644.413C648.122 350.015 651.129 347.011 651.129 343.307V320.507C651.129 316.802 648.122 313.799 644.413 313.799Z" fill="url(#paint14_linear)"/>
<path d="M646.19 350.015H468.202V354.131H646.19V350.015Z" fill="#3F3F44"/>
<path d="M622.957 319.55H490.608C488.244 319.55 486.329 321.463 486.329 323.824V339.972C486.329 342.331 488.244 344.245 490.608 344.245H622.957C625.319 344.245 627.235 342.331 627.235 339.972V323.824C627.235 321.463 625.319 319.55 622.957 319.55Z" fill="#383838" stroke="#545454" stroke-width="0.687595" stroke-miterlimit="10"/>
<path d="M533.289 326.75H495.388V336.627H533.289V326.75Z" fill="#C7D4F9"/>
<path d="M619.813 326.75H609.926V336.627H619.813V326.75Z" fill="white"/>
<g filter="url(#filter17_d)">
<path d="M544.422 334.982C546.014 334.982 547.305 333.693 547.305 332.102C547.305 330.511 546.014 329.222 544.422 329.222C542.829 329.222 541.538 330.511 541.538 332.102C541.538 333.693 542.829 334.982 544.422 334.982Z" fill="white"/>
</g>
<path d="M590.972 330.662H562.958V333.133H590.972V330.662Z" fill="#AF5473"/>
<path d="M644.413 354.131H469.97C466.26 354.131 463.254 357.134 463.254 360.839V383.639C463.254 387.343 466.26 390.347 469.97 390.347H644.413C648.122 390.347 651.129 387.343 651.129 383.639V360.839C651.129 357.134 648.122 354.131 644.413 354.131Z" fill="url(#paint15_linear)"/>
<path d="M644.413 394.472H469.97C466.26 394.472 463.254 397.476 463.254 401.181V541.697C463.254 545.403 466.26 548.406 469.97 548.406H644.413C648.122 548.406 651.129 545.403 651.129 541.697V401.181C651.129 397.476 648.122 394.472 644.413 394.472Z" fill="url(#paint16_linear)"/>
<path d="M646.19 390.357H468.202V394.472H646.19V390.357Z" fill="#3F3F44"/>
<path d="M622.957 359.882H490.608C488.244 359.882 486.329 361.796 486.329 364.156V380.304C486.329 382.665 488.244 384.578 490.608 384.578H622.957C625.319 384.578 627.235 382.665 627.235 380.304V364.156C627.235 361.796 625.319 359.882 622.957 359.882Z" fill="#383838" stroke="#545454" stroke-width="0.687595" stroke-miterlimit="10"/>
<path d="M533.289 367.083H495.388V376.959H533.289V367.083Z" fill="#C7D4F9"/>
<path d="M590.321 420.812H523.235C522.418 420.812 521.756 421.473 521.756 422.29V430.856C521.756 431.672 522.418 432.333 523.235 432.333H590.321C591.137 432.333 591.799 431.672 591.799 430.856V422.29C591.799 421.473 591.137 420.812 590.321 420.812Z" fill="#707070"/>
<path d="M584.387 424.928H529.178V429.044H584.387V424.928Z" fill="url(#paint17_linear)"/>
<path d="M590.348 447.152H523.207C522.405 447.152 521.756 447.801 521.756 448.602V457.224C521.756 458.024 522.405 458.673 523.207 458.673H590.348C591.15 458.673 591.799 458.024 591.799 457.224V448.602C591.799 447.801 591.15 447.152 590.348 447.152Z" fill="#707070"/>
<path d="M584.387 451.268H529.178V455.384H584.387V451.268Z" fill="url(#paint18_linear)"/>
<path d="M637.736 480.897H475.829C474.801 480.897 473.969 481.729 473.969 482.755V484.799C473.969 485.826 474.801 486.658 475.829 486.658H637.736C638.762 486.658 639.596 485.826 639.596 484.799V482.755C639.596 481.729 638.762 480.897 637.736 480.897Z" fill="#474747"/>
<path d="M637.736 503.121H475.829C474.801 503.121 473.969 503.953 473.969 504.979V507.023C473.969 508.049 474.801 508.882 475.829 508.882H637.736C638.762 508.882 639.596 508.049 639.596 507.023V504.979C639.596 503.953 638.762 503.121 637.736 503.121Z" fill="#474747"/>
<path d="M637.717 525.345H475.848C474.81 525.345 473.969 526.185 473.969 527.222V529.229C473.969 530.265 474.81 531.106 475.848 531.106H637.717C638.754 531.106 639.596 530.265 639.596 529.229V527.222C639.596 526.185 638.754 525.345 637.717 525.345Z" fill="#474747"/>
<path d="M619.813 367.083H609.926V376.959H619.813V367.083Z" fill="white"/>
<g filter="url(#filter18_d)">
<path d="M544.422 375.314C546.014 375.314 547.305 374.025 547.305 372.434C547.305 370.844 546.014 369.554 544.422 369.554C542.829 369.554 541.538 370.844 541.538 372.434C541.538 374.025 542.829 375.314 544.422 375.314Z" fill="white"/>
</g>
<path d="M590.972 370.994H562.958V373.466H590.972V370.994Z" fill="#AF5473"/>
<path d="M552.811 253.733C554.013 253.733 554.987 252.759 554.987 251.558C554.987 250.358 554.013 249.384 552.811 249.384C551.609 249.384 550.635 250.358 550.635 251.558C550.635 252.759 551.609 253.733 552.811 253.733Z" fill="#554FBC"/>
<path d="M552.811 294.185C554.013 294.185 554.987 293.212 554.987 292.011C554.987 290.811 554.013 289.837 552.811 289.837C551.609 289.837 550.635 290.811 550.635 292.011C550.635 293.212 551.609 294.185 552.811 294.185Z" fill="#554FBC"/>
<path d="M552.811 334.648C554.013 334.648 554.987 333.674 554.987 332.474C554.987 331.272 554.013 330.3 552.811 330.3C551.609 330.3 550.635 331.272 550.635 332.474C550.635 333.674 551.609 334.648 552.811 334.648Z" fill="#554FBC"/>
<path d="M552.811 374.348C554.013 374.348 554.987 373.374 554.987 372.174C554.987 370.973 554.013 370 552.811 370C551.609 370 550.635 370.973 550.635 372.174C550.635 373.374 551.609 374.348 552.811 374.348Z" fill="#554FBC"/>
<path d="M437.268 110.698H234.662C230.954 110.698 227.947 113.701 227.947 117.406V145.641C227.947 149.345 230.954 152.349 234.662 152.349H437.268C440.977 152.349 443.983 149.345 443.983 145.641V117.406C443.983 113.701 440.977 110.698 437.268 110.698Z" fill="url(#paint19_linear)"/>
<path d="M438.291 152.34H233.629V157.069H438.291V152.34Z" fill="#3F3F44"/>
<path d="M412.231 117.304H258.76C256.397 117.304 254.482 119.217 254.482 121.577V141.423C254.482 143.783 256.397 145.697 258.76 145.697H412.231C414.593 145.697 416.509 143.783 416.509 141.423V121.577C416.509 119.217 414.593 117.304 412.231 117.304Z" fill="#383838" stroke="#545454" stroke-width="0.790658" stroke-miterlimit="10"/>
<path d="M308.481 125.582H264.898V136.945H308.481V125.582Z" fill="#C7D4F9"/>
<path d="M407.98 125.582H396.606V136.945H407.98V125.582Z" fill="white"/>
<g filter="url(#filter19_d)">
<path d="M321.279 135.049C323.113 135.049 324.6 133.564 324.6 131.733C324.6 129.9 323.113 128.416 321.279 128.416C319.445 128.416 317.959 129.9 317.959 131.733C317.959 133.564 319.445 135.049 321.279 135.049Z" fill="white"/>
</g>
<path d="M330.924 134.232C332.306 134.232 333.426 133.113 333.426 131.733C333.426 130.352 332.306 129.233 330.924 129.233C329.542 129.233 328.422 130.352 328.422 131.733C328.422 133.113 329.542 134.232 330.924 134.232Z" fill="#554FBC"/>
<path d="M374.814 130.079H342.596V132.922H374.814V130.079Z" fill="#AF5473"/>
<path d="M437.268 157.078H234.662C230.954 157.078 227.947 160.081 227.947 163.786V192.022C227.947 195.726 230.954 198.73 234.662 198.73H437.268C440.977 198.73 443.983 195.726 443.983 192.022V163.786C443.983 160.081 440.977 157.078 437.268 157.078Z" fill="url(#paint20_linear)"/>
<path d="M438.291 198.721H233.629V203.45H438.291V198.721Z" fill="#3F3F44"/>
<path d="M412.231 163.684H258.76C256.397 163.684 254.482 165.597 254.482 167.958V187.804C254.482 190.164 256.397 192.078 258.76 192.078H412.231C414.593 192.078 416.509 190.164 416.509 187.804V167.958C416.509 165.597 414.593 163.684 412.231 163.684Z" fill="#383838" stroke="#545454" stroke-width="0.790658" stroke-miterlimit="10"/>
<path d="M308.481 171.963H264.898V183.325H308.481V171.963Z" fill="#C7D4F9"/>
<path d="M407.98 171.963H396.606V183.325H407.98V171.963Z" fill="white"/>
<g filter="url(#filter20_d)">
<path d="M321.279 181.43C323.113 181.43 324.6 179.945 324.6 178.113C324.6 176.281 323.113 174.796 321.279 174.796C319.445 174.796 317.959 176.281 317.959 178.113C317.959 179.945 319.445 181.43 321.279 181.43Z" fill="white"/>
</g>
<path d="M374.814 176.459H342.596V179.302H374.814V176.459Z" fill="#AF5473"/>
<path d="M437.268 203.459H234.662C230.954 203.459 227.947 206.462 227.947 210.167V238.402C227.947 242.107 230.954 245.111 234.662 245.111H437.268C440.977 245.111 443.983 242.107 443.983 238.402V210.167C443.983 206.462 440.977 203.459 437.268 203.459Z" fill="url(#paint21_linear)"/>
<path d="M438.291 245.101H233.629V249.83H438.291V245.101Z" fill="#3F3F44"/>
<path d="M412.231 210.065H258.76C256.397 210.065 254.482 211.979 254.482 214.339V234.184C254.482 236.545 256.397 238.458 258.76 238.458H412.231C414.593 238.458 416.509 236.545 416.509 234.184V214.339C416.509 211.979 414.593 210.065 412.231 210.065Z" fill="#383838" stroke="#545454" stroke-width="0.790658" stroke-miterlimit="10"/>
<path d="M308.481 218.343H264.898V229.706H308.481V218.343Z" fill="#C7D4F9"/>
<path d="M407.98 218.343H396.606V229.706H407.98V218.343Z" fill="white"/>
<g filter="url(#filter21_d)">
<path d="M321.279 227.811C323.113 227.811 324.6 226.326 324.6 224.494C324.6 222.662 323.113 221.177 321.279 221.177C319.445 221.177 317.959 222.662 317.959 224.494C317.959 226.326 319.445 227.811 321.279 227.811Z" fill="white"/>
</g>
<path d="M374.814 222.84H342.596V225.683H374.814V222.84Z" fill="#AF5473"/>
<path d="M437.268 249.83H234.662C230.954 249.83 227.947 252.833 227.947 256.538V284.774C227.947 288.478 230.954 291.482 234.662 291.482H437.268C440.977 291.482 443.983 288.478 443.983 284.774V256.538C443.983 252.833 440.977 249.83 437.268 249.83Z" fill="url(#paint22_linear)"/>
<path d="M438.291 291.482H233.629V296.211H438.291V291.482Z" fill="#3F3F44"/>
<path d="M412.231 256.445H258.76C256.397 256.445 254.482 258.359 254.482 260.719V280.565C254.482 282.925 256.397 284.839 258.76 284.839H412.231C414.593 284.839 416.509 282.925 416.509 280.565V260.719C416.509 258.359 414.593 256.445 412.231 256.445Z" fill="#383838" stroke="#545454" stroke-width="0.790658" stroke-miterlimit="10"/>
<path d="M308.481 264.724H264.898V276.087H308.481V264.724Z" fill="#C7D4F9"/>
<path d="M407.98 264.724H396.606V276.087H407.98V264.724Z" fill="white"/>
<g filter="url(#filter22_d)">
<path d="M321.279 274.191C323.113 274.191 324.6 272.707 324.6 270.874C324.6 269.042 323.113 267.558 321.279 267.558C319.445 267.558 317.959 269.042 317.959 270.874C317.959 272.707 319.445 274.191 321.279 274.191Z" fill="white"/>
</g>
<path d="M374.814 269.221H342.596V272.064H374.814V269.221Z" fill="#AF5473"/>
<path d="M437.268 296.211H234.662C230.954 296.211 227.947 299.214 227.947 302.919V331.154C227.947 334.859 230.954 337.862 234.662 337.862H437.268C440.977 337.862 443.983 334.859 443.983 331.154V302.919C443.983 299.214 440.977 296.211 437.268 296.211Z" fill="url(#paint23_linear)"/>
<path d="M437.268 342.592H234.662C230.954 342.592 227.947 345.594 227.947 349.3V512.886C227.947 516.59 230.954 519.594 234.662 519.594H437.268C440.977 519.594 443.983 516.59 443.983 512.886V349.3C443.983 345.594 440.977 342.592 437.268 342.592Z" fill="url(#paint24_linear)"/>
<path d="M438.291 337.862H233.629V342.592H438.291V337.862Z" fill="#3F3F44"/>
<path d="M412.231 302.826H258.76C256.397 302.826 254.482 304.739 254.482 307.1V326.945C254.482 329.305 256.397 331.219 258.76 331.219H412.231C414.593 331.219 416.509 329.305 416.509 326.945V307.1C416.509 304.739 414.593 302.826 412.231 302.826Z" fill="#383838" stroke="#545454" stroke-width="0.790658" stroke-miterlimit="10"/>
<path d="M308.481 311.104H264.898V322.467H308.481V311.104Z" fill="#C7D4F9"/>
<path d="M374.275 372.88H296.697C295.881 372.88 295.219 373.542 295.219 374.357V384.652C295.219 385.468 295.881 386.129 296.697 386.129H374.275C375.091 386.129 375.753 385.468 375.753 384.652V374.357C375.753 373.542 375.091 372.88 374.275 372.88Z" fill="#707070"/>
<path d="M367.234 377.619H303.747V382.348H367.234V377.619Z" fill="url(#paint25_linear)"/>
<path d="M374.303 403.169H296.67C295.868 403.169 295.219 403.817 295.219 404.618V414.968C295.219 415.768 295.868 416.418 296.67 416.418H374.303C375.104 416.418 375.753 415.768 375.753 414.968V404.618C375.753 403.817 375.104 403.169 374.303 403.169Z" fill="#707070"/>
<path d="M367.234 407.907H303.747V412.636H367.234V407.907Z" fill="url(#paint26_linear)"/>
<path d="M428.86 441.977H242.13C241.103 441.977 240.27 442.809 240.27 443.835V446.744C240.27 447.769 241.103 448.602 242.13 448.602H428.86C429.888 448.602 430.721 447.769 430.721 446.744V443.835C430.721 442.809 429.888 441.977 428.86 441.977Z" fill="#474747"/>
<path d="M428.86 467.537H242.13C241.103 467.537 240.27 468.368 240.27 469.395V472.303C240.27 473.329 241.103 474.161 242.13 474.161H428.86C429.888 474.161 430.721 473.329 430.721 472.303V469.395C430.721 468.368 429.888 467.537 428.86 467.537Z" fill="#474747"/>
<path d="M428.842 493.096H242.149C241.111 493.096 240.27 493.936 240.27 494.973V497.844C240.27 498.881 241.111 499.721 242.149 499.721H428.842C429.88 499.721 430.721 498.881 430.721 497.844V494.973C430.721 493.936 429.88 493.096 428.842 493.096Z" fill="#474747"/>
<path d="M407.98 311.104H396.606V322.467H407.98V311.104Z" fill="white"/>
<g filter="url(#filter23_d)">
<path d="M321.279 320.572C323.113 320.572 324.6 319.087 324.6 317.255C324.6 315.423 323.113 313.938 321.279 313.938C319.445 313.938 317.959 315.423 317.959 317.255C317.959 319.087 319.445 320.572 321.279 320.572Z" fill="white"/>
</g>
<path d="M374.814 315.601H342.596V318.444H374.814V315.601Z" fill="#AF5473"/>
<path d="M330.924 180.761C332.306 180.761 333.426 179.641 333.426 178.262C333.426 176.881 332.306 175.763 330.924 175.763C329.542 175.763 328.422 176.881 328.422 178.262C328.422 179.641 329.542 180.761 330.924 180.761Z" fill="#554FBC"/>
<path d="M330.924 227.281C332.306 227.281 333.426 226.162 333.426 224.782C333.426 223.401 332.306 222.282 330.924 222.282C329.542 222.282 328.422 223.401 328.422 224.782C328.422 226.162 329.542 227.281 330.924 227.281Z" fill="#554FBC"/>
<path d="M330.924 273.801C332.306 273.801 333.426 272.681 333.426 271.302C333.426 269.921 332.306 268.802 330.924 268.802C329.542 268.802 328.422 269.921 328.422 271.302C328.422 272.681 329.542 273.801 330.924 273.801Z" fill="#554FBC"/>
<path d="M330.924 319.457C332.306 319.457 333.426 318.338 333.426 316.958C333.426 315.577 332.306 314.458 330.924 314.458C329.542 314.458 328.422 315.577 328.422 316.958C328.422 318.338 329.542 319.457 330.924 319.457Z" fill="#554FBC"/>
<path d="M494.207 382.431V382.245C494.205 382.04 494.19 381.835 494.161 381.632C494.092 380.348 493.734 379.098 493.114 377.972C492.494 376.846 491.628 375.874 490.58 375.129C490.387 374.973 490.182 374.832 489.966 374.711C489.761 374.566 489.543 374.442 489.315 374.339L494.207 382.431ZM178.579 374.339C178.354 374.442 178.139 374.566 177.937 374.711C177.718 374.828 177.513 374.968 177.323 375.129C176.276 375.875 175.409 376.846 174.788 377.973C174.166 379.098 173.805 380.348 173.733 381.632C173.733 381.837 173.733 382.041 173.733 382.245V382.431L178.579 374.339Z" stroke="black" stroke-miterlimit="10"/>
<g filter="url(#filter24_d)">
<path d="M166.878 374.582C166.878 367.402 172.698 361.582 179.878 361.582H488.534C495.714 361.582 501.534 367.402 501.534 374.582V582.333C501.534 585.094 499.296 587.333 496.534 587.333H171.878C169.117 587.333 166.878 585.094 166.878 582.333V374.582Z" fill="#1E1E23"/>
</g>
<g filter="url(#filter25_d)">
<path d="M490.458 381.638V381.663V570.342C490.476 571.557 490.257 572.763 489.814 573.892C489.814 573.892 489.814 573.892 489.814 573.892L488.883 573.527C488.487 574.537 487.897 575.458 487.15 576.235L487.871 576.928C487.031 577.802 486.029 578.498 484.921 578.977M490.458 381.638L484.524 578.059M490.458 381.638L490.457 381.612C490.442 381.327 490.414 381.043 490.371 380.76C490.258 379.377 489.86 378.034 489.202 376.817L489.201 376.816C488.536 375.587 487.62 374.516 486.514 373.673L486.496 373.659L486.478 373.647L485.883 373.234L485.849 373.211L485.814 373.19L485.183 372.825L485.152 372.807L485.121 372.791C484.917 372.692 484.687 372.58 484.432 372.476C484.176 372.364 483.914 372.271 483.65 372.194C483.382 372.108 483.11 372.039 482.835 371.986C482.206 371.851 481.566 371.784 480.925 371.784L187.407 371.784L187.405 371.784C186.762 371.785 186.118 371.853 185.487 371.988C184.949 372.101 184.421 372.263 183.911 372.471L183.892 372.479L183.873 372.488L183.233 372.781L183.187 372.802L183.143 372.828L182.521 373.193L182.489 373.213L182.458 373.234L181.863 373.647L181.845 373.659L181.828 373.672C180.719 374.514 179.803 375.587 179.136 376.814L179.135 376.815C178.469 378.043 178.067 379.401 177.957 380.798L177.954 380.837V380.876V380.877V380.879V380.88V380.882V380.883V380.885V380.886V380.888V380.889V380.891V380.892V380.893V380.895V380.896V380.898V380.899V380.901V380.902V380.904V380.905V380.907V380.908V380.909V380.911V380.912V380.914V380.915V380.917V380.918V380.92V380.921V380.923V380.924V380.926V380.927V380.928V380.93V380.931V380.933V380.934V380.936V380.937V380.939V380.94V380.942V380.943V380.945V380.946V380.948V380.949V380.951V380.952V380.954V380.955V380.956V380.958V380.959V380.961V380.962V380.964V380.965V380.967V380.968V380.97V380.971V380.973V380.974V380.976V380.977V380.979V380.98V380.982V380.983V380.985V380.986V380.988V380.989V380.991V380.992V380.994V380.995V380.997V380.998V381V381.001V381.003V381.004V381.006V381.007V381.009V381.01V381.012V381.013V381.015V381.016V381.018V381.019V381.021V381.022V381.024V381.025V381.027V381.028V381.03V381.031V381.033V381.034V381.036V381.037V381.039V381.04V381.042V381.043V381.045V381.046V381.048V381.049V381.051V381.052V381.054V381.055V381.057V381.058V381.06V381.061V381.063V381.064V381.066V381.067V381.069V381.07V381.072V381.073V381.075V381.076V381.078V381.079V381.081V381.082V381.084V381.085V381.087V381.089V381.09V381.092V381.093V381.095V381.096V381.098V381.099V381.101V381.102V381.104V381.105V381.107V381.108V381.11V381.111V381.113V381.114V381.116V381.117V381.119V381.121V381.122V381.124V381.125V381.127V381.128V381.13V381.131V381.133V381.134V381.136V381.137V381.139V381.14V381.142V381.144V381.145V381.147V381.148V381.15V381.151V381.153V381.154V381.156V381.157V381.159V381.16V381.162V381.163V381.165V381.167V381.168V381.17V381.171V381.173V381.174V381.176V381.177V381.179V381.18V381.182V381.183V381.185V381.187V381.188V381.19V381.191V381.193V381.194V381.196V381.197V381.199V381.2V381.202V381.204V381.205V381.207V381.208V381.21V381.211V381.213V381.214V381.216V381.217V381.219V381.221V381.222V381.224V381.225V381.227V381.228V381.23V381.231V381.233V381.235V381.236V381.238V381.239V381.241V381.242V381.244V381.245V381.247V381.248V381.25V381.252V381.253V381.255V381.256V381.258V381.259V381.261V381.262V381.264V381.266V381.267V381.269V381.27V381.272V381.273V381.275V381.276V381.278V381.28V381.281V381.283V381.284V381.286V381.287V381.289V381.29V381.292V381.294V381.295V381.297V381.298V381.3V381.301V381.303V381.305V381.306V381.308V381.309V381.311V381.312V381.314V381.315V381.317V381.319V381.32V381.322V381.323V381.325V381.326V381.328V381.33V381.331V381.333V381.334V381.336V381.337V381.339V381.34V381.342V381.344V381.345V381.347V381.348V381.35V381.351V381.353V381.355V381.356V381.358V381.359V381.361V381.362V381.364V381.366V381.367V381.369V381.37V381.372V381.373V381.375V381.376V381.378V381.38V381.381V381.383V381.384V381.386V381.387V381.389V381.391V381.392V381.394V381.395V381.397V381.398V381.4V381.402V381.403V381.405V381.406V381.408V381.409V381.411V381.413V381.414V381.416V381.417V381.419V381.42V381.422V381.424V381.425V381.427V381.428V381.43V381.431V381.433V381.434V381.436V381.438V381.439V381.441V381.442V381.444V381.445V381.447V381.449V381.45V381.452V381.453V381.455V381.456V381.458V381.46V381.461V381.463V381.464V381.466V381.467V381.469V381.471V381.472V381.474V381.475V381.477V381.478V381.48V381.482V381.483V381.485V381.486V381.488V381.489V381.491V381.493V381.494V381.496V381.497V381.499V381.5V381.502V381.504V381.505V381.507V381.508V381.51V381.511V381.513V381.515V381.516V381.518V381.519V381.521V381.522V381.524V381.526V381.527V381.529V381.53V381.532V381.533V381.535V381.537V381.538V381.54V381.541V381.543V381.544V381.546V381.548V381.549V381.551V381.552V381.554V381.555V381.557V381.558V381.56V381.562V381.563V381.565V381.566V381.568V381.569V381.571V381.573V381.574V381.576V381.577V381.579V381.58V381.582V381.584V381.585V381.587V381.588V381.59V381.591V381.593V381.595V381.596V381.598V381.599V381.601V381.602V381.604V381.605V381.607V381.609V381.61V381.612V381.613V381.615V381.616V381.618V381.62V381.621V381.623V381.624V381.626V381.627V381.629V381.631V381.632V381.634V381.635V381.637V381.638V381.64V381.641V381.643V381.645V381.646V381.648V381.649V381.651V381.652V381.654V381.655V381.657V381.659V381.66V381.662V381.663V570.342C177.937 571.556 178.155 572.762 178.599 573.892M490.458 381.638L178.954 570.35C178.938 571.437 179.133 572.517 179.529 573.527M484.921 578.977L484.524 578.059M484.921 578.977C484.921 578.976 484.921 578.976 484.922 578.976L484.524 578.059M484.921 578.977C483.813 579.456 482.623 579.707 481.419 579.716L481.411 579.716L187.001 579.716H186.994C185.789 579.707 184.598 579.456 183.491 578.976M484.524 578.059C483.54 578.485 482.482 578.708 481.411 578.716H187.001C185.931 578.708 184.873 578.485 183.888 578.059M183.491 578.976C183.491 578.976 183.491 578.976 183.492 578.977L183.888 578.059M183.491 578.976L183.888 578.059M183.491 578.976C182.383 578.498 181.381 577.801 180.542 576.928L181.261 576.237L180.542 576.928C179.703 576.056 179.042 575.023 178.599 573.892M183.888 578.059C182.903 577.633 182.011 577.013 181.262 576.235C180.515 575.458 179.925 574.537 179.529 573.527M179.529 573.527L178.599 573.892M179.529 573.527L178.598 573.892C178.599 573.892 178.599 573.892 178.599 573.892" stroke="#3E3E3E" stroke-width="2"/>
</g>
<g filter="url(#filter26_d)">
<path d="M489.458 381.663V570.35C489.475 571.437 489.279 572.517 488.883 573.527C488.487 574.537 487.897 575.458 487.15 576.235C486.402 577.013 485.509 577.633 484.524 578.059C483.54 578.485 482.482 578.708 481.411 578.716H187.001C185.931 578.708 184.873 578.485 183.888 578.059C182.903 577.633 182.011 577.013 181.262 576.235C180.515 575.458 179.925 574.537 179.529 573.527C179.133 572.517 178.938 571.437 178.954 570.35V381.663C178.954 381.397 178.954 381.123 178.954 380.876C179.053 379.619 179.415 378.397 180.014 377.291C180.614 376.187 181.438 375.224 182.433 374.468L183.028 374.056L183.65 373.69L184.289 373.397C184.744 373.211 185.215 373.067 185.695 372.967C186.257 372.846 186.832 372.784 187.407 372.784H480.925C481.5 372.784 482.073 372.845 482.637 372.967C482.88 373.012 483.121 373.073 483.357 373.15C483.591 373.217 483.82 373.299 484.042 373.397C484.267 373.489 484.475 373.589 484.682 373.69L485.313 374.056L485.908 374.468C486.9 375.225 487.723 376.187 488.322 377.292C488.92 378.398 489.279 379.619 489.377 380.876C489.418 381.137 489.445 381.399 489.458 381.663Z" fill="url(#paint27_linear)"/>
</g>
<path d="M305.589 590.67V595.056C305.589 596.737 306.677 598.103 308.007 598.103H362.156C363.486 598.103 364.574 596.737 364.574 595.056V590.67H305.589ZM305.589 590.67V595.056C305.589 596.737 306.677 598.103 308.007 598.103H362.156C363.486 598.103 364.574 596.737 364.574 595.056V590.67H305.589Z" fill="#E8E8E8" stroke="black" stroke-width="0.890352" stroke-miterlimit="10"/>
<path d="M533.14 587.418H134.772C132.81 587.418 131.219 589.425 131.219 591.897V597.806C131.184 598.587 131.348 599.365 131.694 600.066C132.041 600.769 132.559 601.371 133.201 601.819H534.749C535.391 601.371 535.909 600.769 536.255 600.066C536.602 599.365 536.764 598.587 536.73 597.806V591.897C536.73 589.425 535.14 587.418 533.14 587.418ZM364.537 592.268C364.537 593.95 363.449 595.316 362.119 595.316H308.007C306.677 595.316 305.589 593.95 305.589 592.268V587.883H364.574L364.537 592.268Z" fill="#DEDEDE"/>
<path d="M364.574 587.883V592.268C364.574 593.95 363.486 595.316 362.156 595.316H308.007C306.677 595.316 305.589 593.95 305.589 592.268V587.883H364.574Z" fill="#636363"/>
<path d="M535.26 601.819L522.528 609.178C522.342 609.28 522.165 609.382 521.988 609.466C519.988 610.542 517.751 611.107 515.478 611.11H152.444C149.976 611.097 147.556 610.43 145.431 609.178L132.698 601.819H133.21C133.679 602.119 134.224 602.28 134.782 602.284H533.14C533.697 602.28 534.242 602.119 534.712 601.819H535.26Z" fill="url(#paint28_linear)"/>
<path d="M210.74 594.387H185.629V595.316H210.74V594.387Z" fill="#747474"/>
<path d="M481.651 594.387H456.539V595.316H481.651V594.387Z" fill="#747474"/>
<path d="M283.778 461.973H293.632V490.072C293.632 492.678 293.022 495.004 291.803 497.048C290.601 499.092 288.912 500.676 286.734 501.801C284.575 502.926 282.163 503.488 279.498 503.488C275.031 503.488 271.558 502.364 269.08 500.114C266.602 497.864 265.363 494.676 265.363 490.551H275.274C275.274 492.425 275.593 493.785 276.231 494.628C276.889 495.473 277.977 495.895 279.498 495.895C280.868 495.895 281.92 495.388 282.652 494.376C283.402 493.344 283.778 491.91 283.778 490.072V461.973ZM332.037 461.973V488.778C332.037 491.816 331.39 494.451 330.094 496.682C328.8 498.895 326.942 500.582 324.52 501.745C322.099 502.908 319.236 503.488 315.932 503.488C310.939 503.488 307.006 502.195 304.134 499.607C301.262 497.02 299.798 493.475 299.743 488.975V461.973H309.681V489.172C309.794 493.654 311.878 495.895 315.932 495.895C317.978 495.895 319.527 495.332 320.578 494.207C321.629 493.081 322.154 491.254 322.154 488.722V461.973H332.037ZM371.401 489.059C371.269 491.91 370.499 494.431 369.091 496.626C367.684 498.801 365.703 500.488 363.15 501.689C360.617 502.889 357.717 503.488 354.45 503.488C349.063 503.488 344.82 501.735 341.723 498.229C338.626 494.722 337.077 489.772 337.077 483.378V481.353C337.077 477.34 337.772 473.833 339.162 470.833C340.569 467.815 342.587 465.489 345.215 463.858C347.843 462.207 350.883 461.382 354.338 461.382C359.312 461.382 363.31 462.695 366.332 465.32C369.355 467.927 371.071 471.527 371.484 476.121H361.63C361.555 473.627 360.926 471.837 359.743 470.749C358.561 469.662 356.759 469.117 354.338 469.117C351.879 469.117 350.077 470.036 348.931 471.874C347.786 473.712 347.185 476.647 347.13 480.678V483.575C347.13 487.944 347.674 491.066 348.763 492.941C349.871 494.816 351.766 495.754 354.45 495.754C356.721 495.754 358.458 495.219 359.66 494.151C360.86 493.081 361.498 491.385 361.574 489.059H371.401ZM401.5 485.572H385.957V495.332H404.315V502.926H376.074V461.973H404.372V469.596H385.957V478.231H401.5V485.572Z" fill="#BF3A4A"/>
<path d="M269.93 488.061C273.012 488.061 275.511 485.565 275.511 482.486C275.511 479.407 273.012 476.911 269.93 476.911C266.848 476.911 264.35 479.407 264.35 482.486C264.35 485.565 266.848 488.061 269.93 488.061Z" fill="#E3445B"/>
<defs>
<filter id="filter0_f" x="0.972031" y="184.047" width="233.783" height="378.539" filterUnits="userSpaceOnUse" color-interpolation-filters="sRGB">
<feFlood flood-opacity="0" result="BackgroundImageFix"/>
<feBlend mode="normal" in="SourceGraphic" in2="BackgroundImageFix" result="shape"/>
<feGaussianBlur stdDeviation="14.5" result="effect1_foregroundBlur"/>
</filter>
<filter id="filter1_f" x="447.406" y="184.047" width="222.622" height="378.539" filterUnits="userSpaceOnUse" color-interpolation-filters="sRGB">
<feFlood flood-opacity="0" result="BackgroundImageFix"/>
<feBlend mode="normal" in="SourceGraphic" in2="BackgroundImageFix" result="shape"/>
<feGaussianBlur stdDeviation="14.5" result="effect1_foregroundBlur"/>
</filter>
<filter id="filter2_f" x="211.168" y="102.287" width="248.664" height="378.539" filterUnits="userSpaceOnUse" color-interpolation-filters="sRGB">
<feFlood flood-opacity="0" result="BackgroundImageFix"/>
<feBlend mode="normal" in="SourceGraphic" in2="BackgroundImageFix" result="shape"/>
<feGaussianBlur stdDeviation="14.5" result="effect1_foregroundBlur"/>
</filter>
<filter id="filter3_f" x="129.441" y="587.411" width="400.028" height="45.6529" filterUnits="userSpaceOnUse" color-interpolation-filters="sRGB">
<feFlood flood-opacity="0" result="BackgroundImageFix"/>
<feBlend mode="normal" in="SourceGraphic" in2="BackgroundImageFix" result="shape"/>
<feGaussianBlur stdDeviation="7" result="effect1_foregroundBlur"/>
</filter>
<filter id="filter4_f" x="17.1818" y="531.019" width="214.385" height="30.2201" filterUnits="userSpaceOnUse" color-interpolation-filters="sRGB">
<feFlood flood-opacity="0" result="BackgroundImageFix"/>
<feBlend mode="normal" in="SourceGraphic" in2="BackgroundImageFix" result="shape"/>
<feGaussianBlur stdDeviation="5" result="effect1_foregroundBlur"/>
</filter>
<filter id="filter5_f" x="441.294" y="531.019" width="214.385" height="30.2201" filterUnits="userSpaceOnUse" color-interpolation-filters="sRGB">
<feFlood flood-opacity="0" result="BackgroundImageFix"/>
<feBlend mode="normal" in="SourceGraphic" in2="BackgroundImageFix" result="shape"/>
<feGaussianBlur stdDeviation="5" result="effect1_foregroundBlur"/>
</filter>
<filter id="filter6_d" x="54.2448" y="93.5555" width="121.657" height="84.6172" filterUnits="userSpaceOnUse" color-interpolation-filters="sRGB">
<feFlood flood-opacity="0" result="BackgroundImageFix"/>
<feColorMatrix in="SourceAlpha" type="matrix" values="0 0 0 0 0 0 0 0 0 0 0 0 0 0 0 0 0 0 127 0"/>
<feOffset dy="4"/>
<feGaussianBlur stdDeviation="6"/>
<feColorMatrix type="matrix" values="0 0 0 0 1 0 0 0 0 1 0 0 0 0 1 0 0 0 0.27 0"/>
<feBlend mode="normal" in2="BackgroundImageFix" result="effect1_dropShadow"/>
<feBlend mode="normal" in="SourceGraphic" in2="effect1_dropShadow" result="shape"/>
</filter>
<filter id="filter7_d" x="262.111" y="0.655029" width="147.228" height="101.979" filterUnits="userSpaceOnUse" color-interpolation-filters="sRGB">
<feFlood flood-opacity="0" result="BackgroundImageFix"/>
<feColorMatrix in="SourceAlpha" type="matrix" values="0 0 0 0 0 0 0 0 0 0 0 0 0 0 0 0 0 0 127 0"/>
<feOffset dy="4"/>
<feGaussianBlur stdDeviation="6"/>
<feColorMatrix type="matrix" values="0 0 0 0 1 0 0 0 0 1 0 0 0 0 1 0 0 0 0.27 0"/>
<feBlend mode="normal" in2="BackgroundImageFix" result="effect1_dropShadow"/>
<feBlend mode="normal" in="SourceGraphic" in2="effect1_dropShadow" result="shape"/>
</filter>
<filter id="filter8_d" x="496.028" y="96.343" width="121.657" height="85.3204" filterUnits="userSpaceOnUse" color-interpolation-filters="sRGB">
<feFlood flood-opacity="0" result="BackgroundImageFix"/>
<feColorMatrix in="SourceAlpha" type="matrix" values="0 0 0 0 0 0 0 0 0 0 0 0 0 0 0 0 0 0 127 0"/>
<feOffset dy="4"/>
<feGaussianBlur stdDeviation="6"/>
<feColorMatrix type="matrix" values="0 0 0 0 1 0 0 0 0 1 0 0 0 0 1 0 0 0 0.27 0"/>
<feBlend mode="normal" in2="BackgroundImageFix" result="effect1_dropShadow"/>
<feBlend mode="normal" in="SourceGraphic" in2="effect1_dropShadow" result="shape"/>
</filter>
<filter id="filter9_d" x="96.8712" y="203.984" width="13.7664" height="13.7604" filterUnits="userSpaceOnUse" color-interpolation-filters="sRGB">
<feFlood flood-opacity="0" result="BackgroundImageFix"/>
<feColorMatrix in="SourceAlpha" type="matrix" values="0 0 0 0 0 0 0 0 0 0 0 0 0 0 0 0 0 0 127 0"/>
<feOffset/>
<feGaussianBlur stdDeviation="2"/>
<feColorMatrix type="matrix" values="0 0 0 0 1 0 0 0 0 1 0 0 0 0 1 0 0 0 0.65 0"/>
<feBlend mode="normal" in2="BackgroundImageFix" result="effect1_dropShadow"/>
<feBlend mode="normal" in="SourceGraphic" in2="effect1_dropShadow" result="shape"/>
</filter>
<filter id="filter10_d" x="96.8712" y="244.344" width="13.7664" height="13.7604" filterUnits="userSpaceOnUse" color-interpolation-filters="sRGB">
<feFlood flood-opacity="0" result="BackgroundImageFix"/>
<feColorMatrix in="SourceAlpha" type="matrix" values="0 0 0 0 0 0 0 0 0 0 0 0 0 0 0 0 0 0 127 0"/>
<feOffset/>
<feGaussianBlur stdDeviation="2"/>
<feColorMatrix type="matrix" values="0 0 0 0 1 0 0 0 0 1 0 0 0 0 1 0 0 0 0.65 0"/>
<feBlend mode="normal" in2="BackgroundImageFix" result="effect1_dropShadow"/>
<feBlend mode="normal" in="SourceGraphic" in2="effect1_dropShadow" result="shape"/>
</filter>
<filter id="filter11_d" x="96.8712" y="284.713" width="13.7664" height="13.7604" filterUnits="userSpaceOnUse" color-interpolation-filters="sRGB">
<feFlood flood-opacity="0" result="BackgroundImageFix"/>
<feColorMatrix in="SourceAlpha" type="matrix" values="0 0 0 0 0 0 0 0 0 0 0 0 0 0 0 0 0 0 127 0"/>
<feOffset/>
<feGaussianBlur stdDeviation="2"/>
<feColorMatrix type="matrix" values="0 0 0 0 1 0 0 0 0 1 0 0 0 0 1 0 0 0 0.65 0"/>
<feBlend mode="normal" in2="BackgroundImageFix" result="effect1_dropShadow"/>
<feBlend mode="normal" in="SourceGraphic" in2="effect1_dropShadow" result="shape"/>
</filter>
<filter id="filter12_d" x="96.8712" y="325.073" width="13.7664" height="13.7604" filterUnits="userSpaceOnUse" color-interpolation-filters="sRGB">
<feFlood flood-opacity="0" result="BackgroundImageFix"/>
<feColorMatrix in="SourceAlpha" type="matrix" values="0 0 0 0 0 0 0 0 0 0 0 0 0 0 0 0 0 0 127 0"/>
<feOffset/>
<feGaussianBlur stdDeviation="2"/>
<feColorMatrix type="matrix" values="0 0 0 0 1 0 0 0 0 1 0 0 0 0 1 0 0 0 0.65 0"/>
<feBlend mode="normal" in2="BackgroundImageFix" result="effect1_dropShadow"/>
<feBlend mode="normal" in="SourceGraphic" in2="effect1_dropShadow" result="shape"/>
</filter>
<filter id="filter13_d" x="96.8712" y="365.433" width="13.7664" height="13.7604" filterUnits="userSpaceOnUse" color-interpolation-filters="sRGB">
<feFlood flood-opacity="0" result="BackgroundImageFix"/>
<feColorMatrix in="SourceAlpha" type="matrix" values="0 0 0 0 0 0 0 0 0 0 0 0 0 0 0 0 0 0 127 0"/>
<feOffset/>
<feGaussianBlur stdDeviation="2"/>
<feColorMatrix type="matrix" values="0 0 0 0 1 0 0 0 0 1 0 0 0 0 1 0 0 0 0.65 0"/>
<feBlend mode="normal" in2="BackgroundImageFix" result="effect1_dropShadow"/>
<feBlend mode="normal" in="SourceGraphic" in2="effect1_dropShadow" result="shape"/>
</filter>
<filter id="filter14_d" x="537.538" y="204.216" width="13.7663" height="13.7604" filterUnits="userSpaceOnUse" color-interpolation-filters="sRGB">
<feFlood flood-opacity="0" result="BackgroundImageFix"/>
<feColorMatrix in="SourceAlpha" type="matrix" values="0 0 0 0 0 0 0 0 0 0 0 0 0 0 0 0 0 0 127 0"/>
<feOffset/>
<feGaussianBlur stdDeviation="2"/>
<feColorMatrix type="matrix" values="0 0 0 0 1 0 0 0 0 1 0 0 0 0 1 0 0 0 0.65 0"/>
<feBlend mode="normal" in2="BackgroundImageFix" result="effect1_dropShadow"/>
<feBlend mode="normal" in="SourceGraphic" in2="effect1_dropShadow" result="shape"/>
</filter>
<filter id="filter15_d" x="537.538" y="244.548" width="13.7663" height="13.7604" filterUnits="userSpaceOnUse" color-interpolation-filters="sRGB">
<feFlood flood-opacity="0" result="BackgroundImageFix"/>
<feColorMatrix in="SourceAlpha" type="matrix" values="0 0 0 0 0 0 0 0 0 0 0 0 0 0 0 0 0 0 127 0"/>
<feOffset/>
<feGaussianBlur stdDeviation="2"/>
<feColorMatrix type="matrix" values="0 0 0 0 1 0 0 0 0 1 0 0 0 0 1 0 0 0 0.65 0"/>
<feBlend mode="normal" in2="BackgroundImageFix" result="effect1_dropShadow"/>
<feBlend mode="normal" in="SourceGraphic" in2="effect1_dropShadow" result="shape"/>
</filter>
<filter id="filter16_d" x="537.538" y="284.89" width="13.7663" height="13.7603" filterUnits="userSpaceOnUse" color-interpolation-filters="sRGB">
<feFlood flood-opacity="0" result="BackgroundImageFix"/>
<feColorMatrix in="SourceAlpha" type="matrix" values="0 0 0 0 0 0 0 0 0 0 0 0 0 0 0 0 0 0 127 0"/>
<feOffset/>
<feGaussianBlur stdDeviation="2"/>
<feColorMatrix type="matrix" values="0 0 0 0 1 0 0 0 0 1 0 0 0 0 1 0 0 0 0.65 0"/>
<feBlend mode="normal" in2="BackgroundImageFix" result="effect1_dropShadow"/>
<feBlend mode="normal" in="SourceGraphic" in2="effect1_dropShadow" result="shape"/>
</filter>
<filter id="filter17_d" x="537.538" y="325.222" width="13.7663" height="13.7604" filterUnits="userSpaceOnUse" color-interpolation-filters="sRGB">
<feFlood flood-opacity="0" result="BackgroundImageFix"/>
<feColorMatrix in="SourceAlpha" type="matrix" values="0 0 0 0 0 0 0 0 0 0 0 0 0 0 0 0 0 0 127 0"/>
<feOffset/>
<feGaussianBlur stdDeviation="2"/>
<feColorMatrix type="matrix" values="0 0 0 0 1 0 0 0 0 1 0 0 0 0 1 0 0 0 0.65 0"/>
<feBlend mode="normal" in2="BackgroundImageFix" result="effect1_dropShadow"/>
<feBlend mode="normal" in="SourceGraphic" in2="effect1_dropShadow" result="shape"/>
</filter>
<filter id="filter18_d" x="537.538" y="365.554" width="13.7663" height="13.7603" filterUnits="userSpaceOnUse" color-interpolation-filters="sRGB">
<feFlood flood-opacity="0" result="BackgroundImageFix"/>
<feColorMatrix in="SourceAlpha" type="matrix" values="0 0 0 0 0 0 0 0 0 0 0 0 0 0 0 0 0 0 127 0"/>
<feOffset/>
<feGaussianBlur stdDeviation="2"/>
<feColorMatrix type="matrix" values="0 0 0 0 1 0 0 0 0 1 0 0 0 0 1 0 0 0 0.65 0"/>
<feBlend mode="normal" in2="BackgroundImageFix" result="effect1_dropShadow"/>
<feBlend mode="normal" in="SourceGraphic" in2="effect1_dropShadow" result="shape"/>
</filter>
<filter id="filter19_d" x="313.959" y="124.416" width="14.6407" height="14.6338" filterUnits="userSpaceOnUse" color-interpolation-filters="sRGB">
<feFlood flood-opacity="0" result="BackgroundImageFix"/>
<feColorMatrix in="SourceAlpha" type="matrix" values="0 0 0 0 0 0 0 0 0 0 0 0 0 0 0 0 0 0 127 0"/>
<feOffset/>
<feGaussianBlur stdDeviation="2"/>
<feColorMatrix type="matrix" values="0 0 0 0 1 0 0 0 0 1 0 0 0 0 1 0 0 0 0.65 0"/>
<feBlend mode="normal" in2="BackgroundImageFix" result="effect1_dropShadow"/>
<feBlend mode="normal" in="SourceGraphic" in2="effect1_dropShadow" result="shape"/>
</filter>
<filter id="filter20_d" x="313.959" y="170.796" width="14.6407" height="14.6337" filterUnits="userSpaceOnUse" color-interpolation-filters="sRGB">
<feFlood flood-opacity="0" result="BackgroundImageFix"/>
<feColorMatrix in="SourceAlpha" type="matrix" values="0 0 0 0 0 0 0 0 0 0 0 0 0 0 0 0 0 0 127 0"/>
<feOffset/>
<feGaussianBlur stdDeviation="2"/>
<feColorMatrix type="matrix" values="0 0 0 0 1 0 0 0 0 1 0 0 0 0 1 0 0 0 0.65 0"/>
<feBlend mode="normal" in2="BackgroundImageFix" result="effect1_dropShadow"/>
<feBlend mode="normal" in="SourceGraphic" in2="effect1_dropShadow" result="shape"/>
</filter>
<filter id="filter21_d" x="313.959" y="217.177" width="14.6407" height="14.6337" filterUnits="userSpaceOnUse" color-interpolation-filters="sRGB">
<feFlood flood-opacity="0" result="BackgroundImageFix"/>
<feColorMatrix in="SourceAlpha" type="matrix" values="0 0 0 0 0 0 0 0 0 0 0 0 0 0 0 0 0 0 127 0"/>
<feOffset/>
<feGaussianBlur stdDeviation="2"/>
<feColorMatrix type="matrix" values="0 0 0 0 1 0 0 0 0 1 0 0 0 0 1 0 0 0 0.65 0"/>
<feBlend mode="normal" in2="BackgroundImageFix" result="effect1_dropShadow"/>
<feBlend mode="normal" in="SourceGraphic" in2="effect1_dropShadow" result="shape"/>
</filter>
<filter id="filter22_d" x="313.959" y="263.558" width="14.6407" height="14.6337" filterUnits="userSpaceOnUse" color-interpolation-filters="sRGB">
<feFlood flood-opacity="0" result="BackgroundImageFix"/>
<feColorMatrix in="SourceAlpha" type="matrix" values="0 0 0 0 0 0 0 0 0 0 0 0 0 0 0 0 0 0 127 0"/>
<feOffset/>
<feGaussianBlur stdDeviation="2"/>
<feColorMatrix type="matrix" values="0 0 0 0 1 0 0 0 0 1 0 0 0 0 1 0 0 0 0.65 0"/>
<feBlend mode="normal" in2="BackgroundImageFix" result="effect1_dropShadow"/>
<feBlend mode="normal" in="SourceGraphic" in2="effect1_dropShadow" result="shape"/>
</filter>
<filter id="filter23_d" x="313.959" y="309.938" width="14.6407" height="14.6338" filterUnits="userSpaceOnUse" color-interpolation-filters="sRGB">
<feFlood flood-opacity="0" result="BackgroundImageFix"/>
<feColorMatrix in="SourceAlpha" type="matrix" values="0 0 0 0 0 0 0 0 0 0 0 0 0 0 0 0 0 0 127 0"/>
<feOffset/>
<feGaussianBlur stdDeviation="2"/>
<feColorMatrix type="matrix" values="0 0 0 0 1 0 0 0 0 1 0 0 0 0 1 0 0 0 0.65 0"/>
<feBlend mode="normal" in2="BackgroundImageFix" result="effect1_dropShadow"/>
<feBlend mode="normal" in="SourceGraphic" in2="effect1_dropShadow" result="shape"/>
</filter>
<filter id="filter24_d" x="125.878" y="324.582" width="416.656" height="307.751" filterUnits="userSpaceOnUse" color-interpolation-filters="sRGB">
<feFlood flood-opacity="0" result="BackgroundImageFix"/>
<feColorMatrix in="SourceAlpha" type="matrix" values="0 0 0 0 0 0 0 0 0 0 0 0 0 0 0 0 0 0 127 0"/>
<feOffset dy="4"/>
<feGaussianBlur stdDeviation="20.5"/>
<feColorMatrix type="matrix" values="0 0 0 0 0 0 0 0 0 0 0 0 0 0 0 0 0 0 0.48 0"/>
<feBlend mode="normal" in2="BackgroundImageFix" result="effect1_dropShadow"/>
<feBlend mode="normal" in="SourceGraphic" in2="effect1_dropShadow" result="shape"/>
</filter>
<filter id="filter25_d" x="153.953" y="344.784" width="360.506" height="255.933" filterUnits="userSpaceOnUse" color-interpolation-filters="sRGB">
<feFlood flood-opacity="0" result="BackgroundImageFix"/>
<feColorMatrix in="SourceAlpha" type="matrix" values="0 0 0 0 0 0 0 0 0 0 0 0 0 0 0 0 0 0 127 0"/>
<feOffset dy="-3"/>
<feGaussianBlur stdDeviation="11.5"/>
<feColorMatrix type="matrix" values="0 0 0 0 1 0 0 0 0 1 0 0 0 0 1 0 0 0 0.46 0"/>
<feBlend mode="normal" in2="BackgroundImageFix" result="effect1_dropShadow"/>
<feBlend mode="normal" in="SourceGraphic" in2="effect1_dropShadow" result="shape"/>
</filter>
<filter id="filter26_d" x="163.953" y="355.784" width="340.506" height="235.933" filterUnits="userSpaceOnUse" color-interpolation-filters="sRGB">
<feFlood flood-opacity="0" result="BackgroundImageFix"/>
<feColorMatrix in="SourceAlpha" type="matrix" values="0 0 0 0 0 0 0 0 0 0 0 0 0 0 0 0 0 0 127 0"/>
<feOffset dy="-2"/>
<feGaussianBlur stdDeviation="7.5"/>
<feColorMatrix type="matrix" values="0 0 0 0 1 0 0 0 0 1 0 0 0 0 1 0 0 0 0.46 0"/>
<feBlend mode="normal" in2="BackgroundImageFix" result="effect1_dropShadow"/>
<feBlend mode="normal" in="SourceGraphic" in2="effect1_dropShadow" result="shape"/>
</filter>
<linearGradient id="paint0_linear" x1="115.538" y1="132.216" x2="115.538" y2="197.717" gradientUnits="userSpaceOnUse">
<stop stop-color="white"/>
<stop offset="1" stop-color="#EBEBEB"/>
</linearGradient>
<linearGradient id="paint1_linear" x1="335.965" y1="47.6677" x2="335.965" y2="136.397" gradientUnits="userSpaceOnUse">
<stop stop-color="white"/>
<stop offset="1" stop-color="#EBEBEB"/>
</linearGradient>
<linearGradient id="paint2_linear" x1="557.322" y1="135.003" x2="557.322" y2="200.04" gradientUnits="userSpaceOnUse">
<stop stop-color="white"/>
<stop offset="1" stop-color="#EBEBEB"/>
</linearGradient>
<linearGradient id="paint3_linear" x1="116.403" y1="223.416" x2="116.691" y2="195.097" gradientUnits="userSpaceOnUse">
<stop stop-color="#1E1E23"/>
<stop offset="0.05" stop-color="#1F1F24"/>
<stop offset="1" stop-color="#2C2C33"/>
</linearGradient>
<linearGradient id="paint4_linear" x1="19024.1" y1="10395.4" x2="19024.1" y2="8981.52" gradientUnits="userSpaceOnUse">
<stop stop-color="#1E1E23"/>
<stop offset="0.05" stop-color="#1F1F24"/>
<stop offset="1" stop-color="#2C2C33"/>
</linearGradient>
<linearGradient id="paint5_linear" x1="19024.1" y1="12010.6" x2="19024.1" y2="10596.7" gradientUnits="userSpaceOnUse">
<stop stop-color="#1E1E23"/>
<stop offset="0.05" stop-color="#1F1F24"/>
<stop offset="1" stop-color="#2C2C33"/>
</linearGradient>
<linearGradient id="paint6_linear" x1="19024.1" y1="13763.1" x2="19024.1" y2="12199.5" gradientUnits="userSpaceOnUse">
<stop stop-color="#1E1E23"/>
<stop offset="0.05" stop-color="#1F1F24"/>
<stop offset="1" stop-color="#2C2C33"/>
</linearGradient>
<linearGradient id="paint7_linear" x1="19024.1" y1="15240.2" x2="19024.1" y2="13826.3" gradientUnits="userSpaceOnUse">
<stop stop-color="#1E1E23"/>
<stop offset="0.05" stop-color="#1F1F24"/>
<stop offset="1" stop-color="#2C2C33"/>
</linearGradient>
<linearGradient id="paint8_linear" x1="118.319" y1="564.535" x2="114.728" y2="376.819" gradientUnits="userSpaceOnUse">
<stop offset="0.39" stop-color="#18181C"/>
<stop offset="0.47" stop-color="#1B1B1F"/>
<stop offset="1" stop-color="#2A292D"/>
</linearGradient>
<linearGradient id="paint9_linear" x1="88.5012" y1="426.898" x2="143.747" y2="426.898" gradientUnits="userSpaceOnUse">
<stop stop-color="#151516"/>
<stop offset="0.45" stop-color="#242426"/>
<stop offset="1" stop-color="#333335"/>
</linearGradient>
<linearGradient id="paint10_linear" x1="4007.11" y1="2420.85" x2="7288.73" y2="2420.85" gradientUnits="userSpaceOnUse">
<stop stop-color="#151516"/>
<stop offset="0.45" stop-color="#242426"/>
<stop offset="1" stop-color="#333335"/>
</linearGradient>
<linearGradient id="paint11_linear" x1="108438" y1="8573.24" x2="108441" y2="7469.98" gradientUnits="userSpaceOnUse">
<stop stop-color="#1E1E23"/>
<stop offset="0.05" stop-color="#1F1F24"/>
<stop offset="1" stop-color="#2C2C33"/>
</linearGradient>
<linearGradient id="paint12_linear" x1="108465" y1="10395.4" x2="108465" y2="8983.71" gradientUnits="userSpaceOnUse">
<stop stop-color="#1E1E23"/>
<stop offset="0.05" stop-color="#1F1F24"/>
<stop offset="1" stop-color="#2C2C33"/>
</linearGradient>
<linearGradient id="paint13_linear" x1="108465" y1="12007.9" x2="108465" y2="10596.2" gradientUnits="userSpaceOnUse">
<stop stop-color="#1E1E23"/>
<stop offset="0.05" stop-color="#1F1F24"/>
<stop offset="1" stop-color="#2C2C33"/>
</linearGradient>
<linearGradient id="paint14_linear" x1="108465" y1="13758" x2="108465" y2="12197.1" gradientUnits="userSpaceOnUse">
<stop stop-color="#1E1E23"/>
<stop offset="0.05" stop-color="#1F1F24"/>
<stop offset="1" stop-color="#2C2C33"/>
</linearGradient>
<linearGradient id="paint15_linear" x1="108465" y1="15233.2" x2="108465" y2="13821.2" gradientUnits="userSpaceOnUse">
<stop stop-color="#1E1E23"/>
<stop offset="0.05" stop-color="#1F1F24"/>
<stop offset="1" stop-color="#2C2C33"/>
</linearGradient>
<linearGradient id="paint16_linear" x1="108825" y1="92492.6" x2="108337" y2="61409.8" gradientUnits="userSpaceOnUse">
<stop offset="0.39" stop-color="#18181C"/>
<stop offset="0.47" stop-color="#1B1B1F"/>
<stop offset="1" stop-color="#2A292D"/>
</linearGradient>
<linearGradient id="paint17_linear" x1="30603.7" y1="2278.16" x2="33880.9" y2="2278.16" gradientUnits="userSpaceOnUse">
<stop stop-color="#151516"/>
<stop offset="0.45" stop-color="#242426"/>
<stop offset="1" stop-color="#333335"/>
</linearGradient>
<linearGradient id="paint18_linear" x1="30603.7" y1="2421.17" x2="33880.9" y2="2421.17" gradientUnits="userSpaceOnUse">
<stop stop-color="#151516"/>
<stop offset="0.45" stop-color="#242426"/>
<stop offset="1" stop-color="#333335"/>
</linearGradient>
<linearGradient id="paint19_linear" x1="72997.8" y1="6275.54" x2="73000.6" y2="4815.92" gradientUnits="userSpaceOnUse">
<stop stop-color="#1E1E23"/>
<stop offset="0.05" stop-color="#1F1F24"/>
<stop offset="1" stop-color="#2C2C33"/>
</linearGradient>
<linearGradient id="paint20_linear" x1="73032.3" y1="8678.15" x2="73032.3" y2="6811.33" gradientUnits="userSpaceOnUse">
<stop stop-color="#1E1E23"/>
<stop offset="0.05" stop-color="#1F1F24"/>
<stop offset="1" stop-color="#2C2C33"/>
</linearGradient>
<linearGradient id="paint21_linear" x1="73032.3" y1="10803.8" x2="73032.3" y2="8936.95" gradientUnits="userSpaceOnUse">
<stop stop-color="#1E1E23"/>
<stop offset="0.05" stop-color="#1F1F24"/>
<stop offset="1" stop-color="#2C2C33"/>
</linearGradient>
<linearGradient id="paint22_linear" x1="73032.3" y1="13111.5" x2="73032.3" y2="11046.7" gradientUnits="userSpaceOnUse">
<stop stop-color="#1E1E23"/>
<stop offset="0.05" stop-color="#1F1F24"/>
<stop offset="1" stop-color="#2C2C33"/>
</linearGradient>
<linearGradient id="paint23_linear" x1="73032.3" y1="15055" x2="73032.3" y2="13187.7" gradientUnits="userSpaceOnUse">
<stop stop-color="#1E1E23"/>
<stop offset="0.05" stop-color="#1F1F24"/>
<stop offset="1" stop-color="#2C2C33"/>
</linearGradient>
<linearGradient id="paint24_linear" x1="73509.8" y1="101222" x2="72864.4" y2="60115" gradientUnits="userSpaceOnUse">
<stop offset="0.39" stop-color="#18181C"/>
<stop offset="0.47" stop-color="#1B1B1F"/>
<stop offset="1" stop-color="#2A292D"/>
</linearGradient>
<linearGradient id="paint25_linear" x1="19499.6" y1="2267.71" x2="23833.2" y2="2267.71" gradientUnits="userSpaceOnUse">
<stop stop-color="#151516"/>
<stop offset="0.45" stop-color="#242426"/>
<stop offset="1" stop-color="#333335"/>
</linearGradient>
<linearGradient id="paint26_linear" x1="19499.6" y1="2452.15" x2="23833.2" y2="2452.15" gradientUnits="userSpaceOnUse">
<stop stop-color="#151516"/>
<stop offset="0.45" stop-color="#242426"/>
<stop offset="1" stop-color="#333335"/>
</linearGradient>
<linearGradient id="paint27_linear" x1="253.073" y1="618.702" x2="419.263" y2="335.327" gradientUnits="userSpaceOnUse">
<stop stop-color="#CECEFF"/>
<stop offset="0.51" stop-color="#FAFAFF"/>
<stop offset="1" stop-color="#D2D2FF"/>
</linearGradient>
<linearGradient id="paint28_linear" x1="333.979" y1="601.819" x2="333.979" y2="611.11" gradientUnits="userSpaceOnUse">
<stop stop-color="#434343"/>
<stop offset="1" stop-color="#1E1E23"/>
</linearGradient>
</defs>
</svg>
