<svg width="320" height="367" viewBox="0 0 320 367" fill="none" xmlns="http://www.w3.org/2000/svg">
<g opacity="0.3" filter="url(#filter0_d)">
<circle cx="268.5" cy="14.5" r="10" stroke="url(#paint0_linear)"/>
</g>
<g opacity="0.6" filter="url(#filter1_d)">
<circle cx="45" cy="340" r="22.5" stroke="url(#paint1_linear)"/>
</g>
<g filter="url(#filter2_f)">
<path d="M101.469 112.387H22.168V257.114H101.469V112.387Z" fill="#464646"/>
</g>
<g filter="url(#filter3_f)">
<path d="M297.832 112.387H223.566V257.114H297.832V112.387Z" fill="#464646"/>
</g>
<g filter="url(#filter4_f)">
<path d="M203.007 75.4712H116.993V220.198H203.007V75.4712Z" fill="#464646"/>
</g>
<g opacity="0.78" filter="url(#filter5_f)">
<path opacity="0.78" d="M157.273 295.707C203.619 295.707 241.189 293.923 241.189 291.722C241.189 289.521 203.619 287.737 157.273 287.737C110.927 287.737 73.3569 289.521 73.3569 291.722C73.3569 293.923 110.927 295.707 157.273 295.707Z" fill="#404040"/>
</g>
<g filter="url(#filter6_f)">
<path d="M64.7553 265.084C88.9709 265.084 108.602 264.051 108.602 262.777C108.602 261.503 88.9709 260.47 64.7553 260.47C40.5398 260.47 20.9092 261.503 20.9092 262.777C20.9092 264.051 40.5398 265.084 64.7553 265.084Z" fill="#404040"/>
</g>
<g filter="url(#filter7_f)">
<path d="M256.084 265.084C280.299 265.084 299.93 264.051 299.93 262.777C299.93 261.503 280.299 260.47 256.084 260.47C231.868 260.47 212.238 261.503 212.238 262.777C212.238 264.051 231.868 265.084 256.084 265.084Z" fill="#404040"/>
</g>
<g filter="url(#filter8_d)">
<path d="M45.1237 73.1997C45.1237 73.1997 44.1793 68.6049 48.9842 65.9214C52.5356 63.9384 57.1938 66.0745 57.1938 66.0745C57.1938 66.0745 61.0246 61.0657 67.4719 62.2201C73.5772 63.3322 75.193 67.0855 75.7582 68.2756C76.8722 70.6332 76.1773 74.0181 76.1773 74.0181C76.1773 74.0181 81.7968 75.7594 82.495 80.7619C82.8675 83.4291 82.0829 85.5031 80.7394 87.0586C79.5491 88.435 77.2179 89.4263 75.3793 89.4166L47.6142 89.2861C46.8213 89.2538 46.0326 89.1557 45.2567 88.9925C43.6354 88.6368 42.1358 87.875 40.9041 86.7817C39.6205 85.699 37.3262 81.8606 39.3047 78.0977C40.5562 75.8123 42.6307 74.0663 45.1237 73.1997Z" fill="url(#paint2_linear)"/>
</g>
<g filter="url(#filter9_d)">
<path d="M140.624 34.4485C140.624 34.4485 139.432 28.5378 145.495 25.0853C149.976 22.5348 155.854 25.2825 155.854 25.2825C155.854 25.2825 160.688 18.839 168.824 20.324C176.527 21.7755 178.566 26.5829 179.28 28.1141C180.685 31.1471 179.808 35.5015 179.808 35.5015C179.808 35.5015 186.899 37.7416 187.78 44.1767C188.25 47.6082 187.26 50.2762 185.565 52.2772C184.063 54.0475 181.122 55.3227 178.801 55.3102L143.766 55.1424C142.766 55.1011 141.771 54.9748 140.791 54.7648C138.746 54.3072 136.853 53.3273 135.299 51.9206C133.68 50.5279 130.784 45.5904 133.281 40.7494C134.86 37.8097 137.478 35.5634 140.624 34.4485Z" fill="url(#paint3_linear)"/>
</g>
<g filter="url(#filter10_d)">
<path d="M244.424 74.5877C244.424 74.5877 243.48 69.9397 248.285 67.2247C251.836 65.2191 256.494 67.3795 256.494 67.3795C256.494 67.3795 260.325 62.3128 266.772 63.4807C272.877 64.6054 274.493 68.4023 275.058 69.6062C276.172 71.9915 275.478 75.4154 275.478 75.4154C275.478 75.4154 281.097 77.1773 281.795 82.2377C282.168 84.9359 281.383 87.0338 280.04 88.6074C278.849 89.9997 276.518 91.0023 274.68 90.9926L246.915 90.8605C246.122 90.8282 245.333 90.7288 244.557 90.5639C242.936 90.204 241.436 89.4333 240.204 88.3271C238.921 87.2318 236.627 83.3494 238.605 79.5424C239.856 77.2306 241.931 75.4645 244.424 74.5877Z" fill="url(#paint4_linear)"/>
</g>
<path d="M100.596 103.133H21.8409C20.1678 103.133 18.8115 104.489 18.8115 106.162V116.469C18.8115 118.141 20.1678 119.498 21.8409 119.498H100.596C102.269 119.498 103.626 118.141 103.626 116.469V106.162C103.626 104.489 102.269 103.133 100.596 103.133Z" fill="url(#paint5_linear)"/>
<path d="M101.393 119.498H21.0435V121.356H101.393V119.498Z" fill="#3F3F44"/>
<path d="M90.9034 105.729H31.1552C30.0892 105.729 29.2251 106.593 29.2251 107.659V114.958C29.2251 116.024 30.0892 116.888 31.1552 116.888H90.9034C91.9695 116.888 92.8334 116.024 92.8334 114.958V107.659C92.8334 106.593 91.9695 105.729 90.9034 105.729Z" fill="#383838" stroke="#545454" stroke-width="0.688067" stroke-miterlimit="10"/>
<path d="M50.4308 108.985H33.3203V113.448H50.4308V108.985Z" fill="#C7D4F9"/>
<path d="M89.4897 108.985H85.0254V113.448H89.4897V108.985Z" fill="white"/>
<g filter="url(#filter11_d)">
<path d="M55.453 112.702C56.1714 112.702 56.7537 112.119 56.7537 111.401C56.7537 110.683 56.1714 110.101 55.453 110.101C54.7347 110.101 54.1523 110.683 54.1523 111.401C54.1523 112.119 54.7347 112.702 55.453 112.702Z" fill="white"/>
</g>
<path d="M59.2377 112.383C59.7798 112.383 60.2195 111.943 60.2195 111.401C60.2195 110.859 59.7798 110.42 59.2377 110.42C58.6956 110.42 58.2559 110.859 58.2559 111.401C58.2559 111.943 58.6956 112.383 59.2377 112.383Z" fill="#554FBC"/>
<path d="M76.4699 110.751H63.8237V111.867H76.4699V110.751Z" fill="#AF5473"/>
<path d="M100.596 121.356H21.8409C20.1678 121.356 18.8115 122.712 18.8115 124.385V134.692C18.8115 136.364 20.1678 137.72 21.8409 137.72H100.596C102.269 137.72 103.626 136.364 103.626 134.692V124.385C103.626 122.712 102.269 121.356 100.596 121.356Z" fill="url(#paint6_linear)"/>
<path d="M101.393 137.72H21.0435V139.579H101.393V137.72Z" fill="#3F3F44"/>
<path d="M90.9034 123.953H31.1552C30.0892 123.953 29.2251 124.816 29.2251 125.882V133.181C29.2251 134.247 30.0892 135.111 31.1552 135.111H90.9034C91.9695 135.111 92.8334 134.247 92.8334 133.181V125.882C92.8334 124.816 91.9695 123.953 90.9034 123.953Z" fill="#383838" stroke="#545454" stroke-width="0.688067" stroke-miterlimit="10"/>
<path d="M50.4308 127.208H33.3203V131.671H50.4308V127.208Z" fill="#C7D4F9"/>
<path d="M89.4897 127.208H85.0254V131.671H89.4897V127.208Z" fill="white"/>
<g filter="url(#filter12_d)">
<path d="M55.453 130.925C56.1714 130.925 56.7537 130.342 56.7537 129.624C56.7537 128.906 56.1714 128.324 55.453 128.324C54.7347 128.324 54.1523 128.906 54.1523 129.624C54.1523 130.342 54.7347 130.925 55.453 130.925Z" fill="white"/>
</g>
<path d="M76.4699 128.974H63.8237V130.09H76.4699V128.974Z" fill="#AF5473"/>
<path d="M100.596 139.583H21.8409C20.1678 139.583 18.8115 140.939 18.8115 142.612V152.919C18.8115 154.592 20.1678 155.948 21.8409 155.948H100.596C102.269 155.948 103.626 154.592 103.626 152.919V142.612C103.626 140.939 102.269 139.583 100.596 139.583Z" fill="url(#paint7_linear)"/>
<path d="M101.393 155.948H21.0435V157.806H101.393V155.948Z" fill="#3F3F44"/>
<path d="M90.9034 142.176H31.1552C30.0892 142.176 29.2251 143.039 29.2251 144.105V151.404C29.2251 152.47 30.0892 153.334 31.1552 153.334H90.9034C91.9695 153.334 92.8334 152.47 92.8334 151.404V144.105C92.8334 143.039 91.9695 142.176 90.9034 142.176Z" fill="#383838" stroke="#545454" stroke-width="0.688067" stroke-miterlimit="10"/>
<path d="M50.4308 145.431H33.3203V149.894H50.4308V145.431Z" fill="#C7D4F9"/>
<path d="M89.4897 145.431H85.0254V149.894H89.4897V145.431Z" fill="white"/>
<g filter="url(#filter13_d)">
<path d="M55.453 149.152C56.1714 149.152 56.7537 148.57 56.7537 147.851C56.7537 147.133 56.1714 146.551 55.453 146.551C54.7347 146.551 54.1523 147.133 54.1523 147.851C54.1523 148.57 54.7347 149.152 55.453 149.152Z" fill="white"/>
</g>
<path d="M76.4699 147.197H63.8237V148.313H76.4699V147.197Z" fill="#AF5473"/>
<path d="M100.596 157.806H21.8409C20.1678 157.806 18.8115 159.162 18.8115 160.835V171.142C18.8115 172.815 20.1678 174.171 21.8409 174.171H100.596C102.269 174.171 103.626 172.815 103.626 171.142V160.835C103.626 159.162 102.269 157.806 100.596 157.806Z" fill="url(#paint8_linear)"/>
<path d="M101.393 174.171H21.0435V176.029H101.393V174.171Z" fill="#3F3F44"/>
<path d="M90.9034 160.403H31.1552C30.0892 160.403 29.2251 161.266 29.2251 162.332V169.632C29.2251 170.697 30.0892 171.561 31.1552 171.561H90.9034C91.9695 171.561 92.8334 170.697 92.8334 169.632V162.332C92.8334 161.266 91.9695 160.403 90.9034 160.403Z" fill="#383838" stroke="#545454" stroke-width="0.688067" stroke-miterlimit="10"/>
<path d="M50.4308 163.654H33.3203V168.117H50.4308V163.654Z" fill="#C7D4F9"/>
<path d="M89.4897 163.654H85.0254V168.117H89.4897V163.654Z" fill="white"/>
<g filter="url(#filter14_d)">
<path d="M55.453 167.375C56.1714 167.375 56.7537 166.793 56.7537 166.074C56.7537 165.356 56.1714 164.774 55.453 164.774C54.7347 164.774 54.1523 165.356 54.1523 166.074C54.1523 166.793 54.7347 167.375 55.453 167.375Z" fill="white"/>
</g>
<path d="M76.4699 165.424H63.8237V166.54H76.4699V165.424Z" fill="#AF5473"/>
<path d="M100.596 176.029H21.8409C20.1678 176.029 18.8115 177.385 18.8115 179.058V189.365C18.8115 191.037 20.1678 192.394 21.8409 192.394H100.596C102.269 192.394 103.626 191.037 103.626 189.365V179.058C103.626 177.385 102.269 176.029 100.596 176.029Z" fill="url(#paint9_linear)"/>
<path d="M100.596 194.252H21.8409C20.1678 194.252 18.8115 195.608 18.8115 197.281V260.772C18.8115 262.444 20.1678 263.8 21.8409 263.8H100.596C102.269 263.8 103.626 262.444 103.626 260.772V197.281C103.626 195.608 102.269 194.252 100.596 194.252Z" fill="url(#paint10_linear)"/>
<path d="M101.393 192.394H21.0435V194.252H101.393V192.394Z" fill="#3F3F44"/>
<path d="M90.9034 178.626H31.1552C30.0892 178.626 29.2251 179.489 29.2251 180.555V187.855C29.2251 188.92 30.0892 189.784 31.1552 189.784H90.9034C91.9695 189.784 92.8334 188.92 92.8334 187.855V180.555C92.8334 179.489 91.9695 178.626 90.9034 178.626Z" fill="#383838" stroke="#545454" stroke-width="0.688067" stroke-miterlimit="10"/>
<path d="M50.4308 181.881H33.3203V186.344H50.4308V181.881Z" fill="#C7D4F9"/>
<path d="M76.1761 206.153H45.8908C45.5223 206.153 45.2236 206.452 45.2236 206.82V210.692C45.2236 211.06 45.5223 211.359 45.8908 211.359H76.1761C76.5445 211.359 76.8432 211.06 76.8432 210.692V206.82C76.8432 206.452 76.5445 206.153 76.1761 206.153Z" fill="#707070"/>
<path d="M73.4949 208.016H48.5718V209.874H73.4949V208.016Z" fill="url(#paint11_linear)"/>
<path d="M76.1887 218.054H45.8782C45.5167 218.054 45.2236 218.347 45.2236 218.709V222.606C45.2236 222.967 45.5167 223.26 45.8782 223.26H76.1887C76.5504 223.26 76.8432 222.967 76.8432 222.606V218.709C76.8432 218.347 76.5504 218.054 76.1887 218.054Z" fill="#707070"/>
<path d="M73.4949 219.917H48.5718V221.775H73.4949V219.917Z" fill="url(#paint12_linear)"/>
<path d="M97.579 233.303H24.4881C24.0247 233.303 23.6489 233.678 23.6489 234.142V235.069C23.6489 235.532 24.0247 235.908 24.4881 235.908H97.579C98.0426 235.908 98.4182 235.532 98.4182 235.069V234.142C98.4182 233.678 98.0426 233.303 97.579 233.303Z" fill="#474747"/>
<path d="M97.579 243.346H24.4881C24.0247 243.346 23.6489 243.721 23.6489 244.185V245.112C23.6489 245.575 24.0247 245.951 24.4881 245.951H97.579C98.0426 245.951 98.4182 245.575 98.4182 245.112V244.185C98.4182 243.721 98.0426 243.346 97.579 243.346Z" fill="#474747"/>
<path d="M97.5706 253.389H24.4965C24.0284 253.389 23.6489 253.768 23.6489 254.236V255.146C23.6489 255.614 24.0284 255.994 24.4965 255.994H97.5706C98.0389 255.994 98.4182 255.614 98.4182 255.146V254.236C98.4182 253.768 98.0389 253.389 97.5706 253.389Z" fill="#474747"/>
<path d="M89.4897 181.881H85.0254V186.344H89.4897V181.881Z" fill="white"/>
<g filter="url(#filter15_d)">
<path d="M55.453 185.598C56.1714 185.598 56.7537 185.016 56.7537 184.297C56.7537 183.579 56.1714 182.997 55.453 182.997C54.7347 182.997 54.1523 183.579 54.1523 184.297C54.1523 185.016 54.7347 185.598 55.453 185.598Z" fill="white"/>
</g>
<path d="M76.4699 183.647H63.8237V184.763H76.4699V183.647Z" fill="#AF5473"/>
<path d="M59.2377 130.665C59.7798 130.665 60.2195 130.225 60.2195 129.683C60.2195 129.141 59.7798 128.701 59.2377 128.701C58.6956 128.701 58.2559 129.141 58.2559 129.683C58.2559 130.225 58.6956 130.665 59.2377 130.665Z" fill="#554FBC"/>
<path d="M59.2377 148.942C59.7798 148.942 60.2195 148.502 60.2195 147.96C60.2195 147.418 59.7798 146.979 59.2377 146.979C58.6956 146.979 58.2559 147.418 58.2559 147.96C58.2559 148.502 58.6956 148.942 59.2377 148.942Z" fill="#554FBC"/>
<path d="M59.2377 167.224C59.7798 167.224 60.2195 166.784 60.2195 166.242C60.2195 165.7 59.7798 165.26 59.2377 165.26C58.6956 165.26 58.2559 165.7 58.2559 166.242C58.2559 166.784 58.6956 167.224 59.2377 167.224Z" fill="#554FBC"/>
<path d="M59.2377 185.161C59.7798 185.161 60.2195 184.722 60.2195 184.18C60.2195 183.637 59.7798 183.198 59.2377 183.198C58.6956 183.198 58.2559 183.637 58.2559 184.18C58.2559 184.722 58.6956 185.161 59.2377 185.161Z" fill="#554FBC"/>
<path d="M299.36 103.246H220.663C218.99 103.246 217.634 104.602 217.634 106.275V116.569C217.634 118.242 218.99 119.598 220.663 119.598H299.36C301.032 119.598 302.389 118.242 302.389 116.569V106.275C302.389 104.602 301.032 103.246 299.36 103.246Z" fill="url(#paint13_linear)"/>
<path d="M300.161 119.598H219.866V121.457H300.161V119.598Z" fill="#3F3F44"/>
<path d="M289.68 105.839H229.974C228.907 105.839 228.043 106.702 228.043 107.768V115.059C228.043 116.125 228.907 116.989 229.974 116.989H289.68C290.746 116.989 291.61 116.125 291.61 115.059V107.768C291.61 106.702 290.746 105.839 289.68 105.839Z" fill="#383838" stroke="#545454" stroke-width="0.687595" stroke-miterlimit="10"/>
<path d="M249.228 109.09H232.13V113.549H249.228V109.09Z" fill="#C7D4F9"/>
<path d="M288.262 109.09H283.801V113.549H288.262V109.09Z" fill="white"/>
<g filter="url(#filter16_d)">
<path d="M254.25 112.806C254.969 112.806 255.551 112.224 255.551 111.506C255.551 110.788 254.969 110.206 254.25 110.206C253.532 110.206 252.95 110.788 252.95 111.506C252.95 112.224 253.532 112.806 254.25 112.806Z" fill="white"/>
</g>
<path d="M258.035 112.488C258.577 112.488 259.017 112.048 259.017 111.506C259.017 110.964 258.577 110.524 258.035 110.524C257.493 110.524 257.053 110.964 257.053 111.506C257.053 112.048 257.493 112.488 258.035 112.488Z" fill="#554FBC"/>
<path d="M275.25 110.856H262.612V111.972H275.25V110.856Z" fill="#AF5473"/>
<path d="M299.36 121.457H220.663C218.99 121.457 217.634 122.812 217.634 124.485V134.78C217.634 136.452 218.99 137.809 220.663 137.809H299.36C301.032 137.809 302.389 136.452 302.389 134.78V124.485C302.389 122.812 301.032 121.457 299.36 121.457Z" fill="url(#paint14_linear)"/>
<path d="M300.161 137.809H219.866V139.667H300.161V137.809Z" fill="#3F3F44"/>
<path d="M289.68 124.049H229.974C228.907 124.049 228.043 124.913 228.043 125.979V133.27C228.043 134.335 228.907 135.199 229.974 135.199H289.68C290.746 135.199 291.61 134.335 291.61 133.27V125.979C291.61 124.913 290.746 124.049 289.68 124.049Z" fill="#383838" stroke="#545454" stroke-width="0.687595" stroke-miterlimit="10"/>
<path d="M249.228 127.3H232.13V131.759H249.228V127.3Z" fill="#C7D4F9"/>
<path d="M288.262 127.3H283.801V131.759H288.262V127.3Z" fill="white"/>
<g filter="url(#filter17_d)">
<path d="M254.25 131.017C254.969 131.017 255.551 130.435 255.551 129.716C255.551 128.998 254.969 128.416 254.25 128.416C253.532 128.416 252.95 128.998 252.95 129.716C252.95 130.435 253.532 131.017 254.25 131.017Z" fill="white"/>
</g>
<path d="M275.25 129.066H262.612V130.182H275.25V129.066Z" fill="#AF5473"/>
<path d="M299.36 139.667H220.663C218.99 139.667 217.634 141.023 217.634 142.696V152.99C217.634 154.663 218.99 156.019 220.663 156.019H299.36C301.032 156.019 302.389 154.663 302.389 152.99V142.696C302.389 141.023 301.032 139.667 299.36 139.667Z" fill="url(#paint15_linear)"/>
<path d="M300.161 156.019H219.866V157.877H300.161V156.019Z" fill="#3F3F44"/>
<path d="M289.68 142.26H229.974C228.907 142.26 228.043 143.123 228.043 144.189V151.48C228.043 152.546 228.907 153.41 229.974 153.41H289.68C290.746 153.41 291.61 152.546 291.61 151.48V144.189C291.61 143.123 290.746 142.26 289.68 142.26Z" fill="#383838" stroke="#545454" stroke-width="0.687595" stroke-miterlimit="10"/>
<path d="M249.228 145.515H232.13V149.974H249.228V145.515Z" fill="#C7D4F9"/>
<path d="M288.262 145.515H283.801V149.974H288.262V145.515Z" fill="white"/>
<g filter="url(#filter18_d)">
<path d="M254.25 149.231C254.969 149.231 255.551 148.649 255.551 147.931C255.551 147.213 254.969 146.631 254.25 146.631C253.532 146.631 252.95 147.213 252.95 147.931C252.95 148.649 253.532 149.231 254.25 149.231Z" fill="white"/>
</g>
<path d="M275.25 147.277H262.612V148.392H275.25V147.277Z" fill="#AF5473"/>
<path d="M299.36 157.877H220.663C218.99 157.877 217.634 159.233 217.634 160.906V171.201C217.634 172.873 218.99 174.229 220.663 174.229H299.36C301.032 174.229 302.389 172.873 302.389 171.201V160.906C302.389 159.233 301.032 157.877 299.36 157.877Z" fill="url(#paint16_linear)"/>
<path d="M300.161 174.229H219.866V176.088H300.161V174.229Z" fill="#3F3F44"/>
<path d="M289.68 160.474H229.974C228.907 160.474 228.043 161.338 228.043 162.404V169.695C228.043 170.76 228.907 171.624 229.974 171.624H289.68C290.746 171.624 291.61 170.76 291.61 169.695V162.404C291.61 161.338 290.746 160.474 289.68 160.474Z" fill="#383838" stroke="#545454" stroke-width="0.687595" stroke-miterlimit="10"/>
<path d="M249.228 163.725H232.13V168.184H249.228V163.725Z" fill="#C7D4F9"/>
<path d="M288.262 163.725H283.801V168.184H288.262V163.725Z" fill="white"/>
<g filter="url(#filter19_d)">
<path d="M254.25 167.442C254.969 167.442 255.551 166.86 255.551 166.142C255.551 165.423 254.969 164.841 254.25 164.841C253.532 164.841 252.95 165.423 252.95 166.142C252.95 166.86 253.532 167.442 254.25 167.442Z" fill="white"/>
</g>
<path d="M275.25 165.491H262.612V166.607H275.25V165.491Z" fill="#AF5473"/>
<path d="M299.36 176.088H220.663C218.99 176.088 217.634 177.444 217.634 179.117V189.411C217.634 191.084 218.99 192.44 220.663 192.44H299.36C301.032 192.44 302.389 191.084 302.389 189.411V179.117C302.389 177.444 301.032 176.088 299.36 176.088Z" fill="url(#paint17_linear)"/>
<path d="M299.36 194.302H220.663C218.99 194.302 217.634 195.659 217.634 197.331V260.776C217.634 262.449 218.99 263.805 220.663 263.805H299.36C301.032 263.805 302.389 262.449 302.389 260.776V197.331C302.389 195.659 301.032 194.302 299.36 194.302Z" fill="url(#paint18_linear)"/>
<path d="M300.161 192.444H219.866V194.302H300.161V192.444Z" fill="#3F3F44"/>
<path d="M289.68 178.684H229.974C228.907 178.684 228.043 179.549 228.043 180.614V187.905C228.043 188.971 228.907 189.835 229.974 189.835H289.68C290.746 189.835 291.61 188.971 291.61 187.905V180.614C291.61 179.549 290.746 178.684 289.68 178.684Z" fill="#383838" stroke="#545454" stroke-width="0.687595" stroke-miterlimit="10"/>
<path d="M249.228 181.936H232.13V186.395H249.228V181.936Z" fill="#C7D4F9"/>
<path d="M274.956 206.195H244.692C244.324 206.195 244.025 206.493 244.025 206.862V210.73C244.025 211.098 244.324 211.397 244.692 211.397H274.956C275.325 211.397 275.624 211.098 275.624 210.73V206.862C275.624 206.493 275.325 206.195 274.956 206.195Z" fill="#707070"/>
<path d="M272.28 208.053H247.374V209.912H272.28V208.053Z" fill="url(#paint19_linear)"/>
<path d="M274.969 218.088H244.679C244.318 218.088 244.025 218.381 244.025 218.742V222.635C244.025 222.996 244.318 223.29 244.679 223.29H274.969C275.331 223.29 275.624 222.996 275.624 222.635V218.742C275.624 218.381 275.331 218.088 274.969 218.088Z" fill="#707070"/>
<path d="M272.28 219.946H247.374V221.805H272.28V219.946Z" fill="url(#paint20_linear)"/>
<path d="M296.347 233.324H223.306C222.843 233.324 222.467 233.699 222.467 234.163V235.086C222.467 235.549 222.843 235.925 223.306 235.925H296.347C296.81 235.925 297.186 235.549 297.186 235.086V234.163C297.186 233.699 296.81 233.324 296.347 233.324Z" fill="#474747"/>
<path d="M296.347 243.358H223.306C222.843 243.358 222.467 243.734 222.467 244.197V245.12C222.467 245.583 222.843 245.959 223.306 245.959H296.347C296.81 245.959 297.186 245.583 297.186 245.12V244.197C297.186 243.734 296.81 243.358 296.347 243.358Z" fill="#474747"/>
<path d="M296.339 253.393H223.315C222.847 253.393 222.467 253.772 222.467 254.24V255.146C222.467 255.614 222.847 255.994 223.315 255.994H296.339C296.806 255.994 297.186 255.614 297.186 255.146V254.24C297.186 253.772 296.806 253.393 296.339 253.393Z" fill="#474747"/>
<path d="M288.262 181.936H283.801V186.395H288.262V181.936Z" fill="white"/>
<g filter="url(#filter20_d)">
<path d="M254.25 185.652C254.969 185.652 255.551 185.07 255.551 184.352C255.551 183.634 254.969 183.051 254.25 183.051C253.532 183.051 252.95 183.634 252.95 184.352C252.95 185.07 253.532 185.652 254.25 185.652Z" fill="white"/>
</g>
<path d="M275.25 183.702H262.612V184.818H275.25V183.702Z" fill="#AF5473"/>
<path d="M258.035 130.757C258.577 130.757 259.017 130.317 259.017 129.775C259.017 129.233 258.577 128.794 258.035 128.794C257.493 128.794 257.053 129.233 257.053 129.775C257.053 130.317 257.493 130.757 258.035 130.757Z" fill="#554FBC"/>
<path d="M258.035 149.022C258.577 149.022 259.017 148.582 259.017 148.04C259.017 147.498 258.577 147.059 258.035 147.059C257.493 147.059 257.053 147.498 257.053 148.04C257.053 148.582 257.493 149.022 258.035 149.022Z" fill="#554FBC"/>
<path d="M258.035 167.291C258.577 167.291 259.017 166.851 259.017 166.309C259.017 165.767 258.577 165.328 258.035 165.328C257.493 165.328 257.053 165.767 257.053 166.309C257.053 166.851 257.493 167.291 258.035 167.291Z" fill="#554FBC"/>
<path d="M258.035 185.216C258.577 185.216 259.017 184.776 259.017 184.234C259.017 183.692 258.577 183.253 258.035 183.253C257.493 183.253 257.053 183.692 257.053 184.234C257.053 184.776 257.493 185.216 258.035 185.216Z" fill="#554FBC"/>
<path d="M205.91 66.1752H114.509C112.836 66.1752 111.479 67.531 111.479 69.2039V81.9525C111.479 83.625 112.836 84.9813 114.509 84.9813H205.91C207.584 84.9813 208.94 83.625 208.94 81.9525V69.2039C208.94 67.531 207.584 66.1752 205.91 66.1752Z" fill="url(#paint21_linear)"/>
<path d="M206.372 84.9771H114.043V87.1123H206.372V84.9771Z" fill="#3F3F44"/>
<path d="M194.615 69.1577H125.38C124.314 69.1577 123.45 70.0215 123.45 71.0874V80.0479C123.45 81.1134 124.314 81.9776 125.38 81.9776H194.615C195.681 81.9776 196.545 81.1134 196.545 80.0479V71.0874C196.545 70.0215 195.681 69.1577 194.615 69.1577Z" fill="#383838" stroke="#545454" stroke-width="0.790658" stroke-miterlimit="10"/>
<path d="M147.811 72.8955H128.149V78.026H147.811V72.8955Z" fill="#C7D4F9"/>
<path d="M192.698 72.8955H187.566V78.026H192.698V72.8955Z" fill="white"/>
<g filter="url(#filter21_d)">
<path d="M153.585 77.1701C154.412 77.1701 155.083 76.4994 155.083 75.6725C155.083 74.8453 154.412 74.1749 153.585 74.1749C152.757 74.1749 152.087 74.8453 152.087 75.6725C152.087 76.4994 152.757 77.1701 153.585 77.1701Z" fill="white"/>
</g>
<path d="M157.936 76.801C158.559 76.801 159.064 76.2959 159.064 75.6725C159.064 75.0491 158.559 74.5441 157.936 74.5441C157.312 74.5441 156.807 75.0491 156.807 75.6725C156.807 76.2959 157.312 76.801 157.936 76.801Z" fill="#554FBC"/>
<path d="M177.735 74.9259H163.201V76.2096H177.735V74.9259Z" fill="#AF5473"/>
<path d="M205.91 87.1165H114.509C112.836 87.1165 111.479 88.4723 111.479 90.1452V102.894C111.479 104.566 112.836 105.923 114.509 105.923H205.91C207.584 105.923 208.94 104.566 208.94 102.894V90.1452C208.94 88.4723 207.584 87.1165 205.91 87.1165Z" fill="url(#paint22_linear)"/>
<path d="M206.372 105.918H114.043V108.054H206.372V105.918Z" fill="#3F3F44"/>
<path d="M194.615 90.0991H125.38C124.314 90.0991 123.45 90.9629 123.45 92.0288V100.989C123.45 102.055 124.314 102.919 125.38 102.919H194.615C195.681 102.919 196.545 102.055 196.545 100.989V92.0288C196.545 90.9629 195.681 90.0991 194.615 90.0991Z" fill="#383838" stroke="#545454" stroke-width="0.790658" stroke-miterlimit="10"/>
<path d="M147.811 93.8368H128.149V98.9673H147.811V93.8368Z" fill="#C7D4F9"/>
<path d="M192.698 93.8368H187.566V98.9673H192.698V93.8368Z" fill="white"/>
<g filter="url(#filter22_d)">
<path d="M153.585 98.1115C154.412 98.1115 155.083 97.4412 155.083 96.6139C155.083 95.7867 154.412 95.1163 153.585 95.1163C152.757 95.1163 152.087 95.7867 152.087 96.6139C152.087 97.4412 152.757 98.1115 153.585 98.1115Z" fill="white"/>
</g>
<path d="M177.735 95.8672H163.201V97.1509H177.735V95.8672Z" fill="#AF5473"/>
<path d="M205.91 108.058H114.509C112.836 108.058 111.479 109.414 111.479 111.087V123.835C111.479 125.508 112.836 126.864 114.509 126.864H205.91C207.584 126.864 208.94 125.508 208.94 123.835V111.087C208.94 109.414 207.584 108.058 205.91 108.058Z" fill="url(#paint23_linear)"/>
<path d="M206.372 126.86H114.043V128.995H206.372V126.86Z" fill="#3F3F44"/>
<path d="M194.615 111.04H125.38C124.314 111.04 123.45 111.905 123.45 112.97V121.931C123.45 122.997 124.314 123.86 125.38 123.86H194.615C195.681 123.86 196.545 122.997 196.545 121.931V112.97C196.545 111.905 195.681 111.04 194.615 111.04Z" fill="#383838" stroke="#545454" stroke-width="0.790658" stroke-miterlimit="10"/>
<path d="M147.811 114.778H128.149V119.909H147.811V114.778Z" fill="#C7D4F9"/>
<path d="M192.698 114.778H187.566V119.909H192.698V114.778Z" fill="white"/>
<g filter="url(#filter23_d)">
<path d="M153.585 119.053C154.412 119.053 155.083 118.382 155.083 117.555C155.083 116.728 154.412 116.058 153.585 116.058C152.757 116.058 152.087 116.728 152.087 117.555C152.087 118.382 152.757 119.053 153.585 119.053Z" fill="white"/>
</g>
<path d="M177.735 116.808H163.201V118.092H177.735V116.808Z" fill="#AF5473"/>
<path d="M205.91 128.995H114.509C112.836 128.995 111.479 130.351 111.479 132.024V144.772C111.479 146.445 112.836 147.801 114.509 147.801H205.91C207.584 147.801 208.94 146.445 208.94 144.772V132.024C208.94 130.351 207.584 128.995 205.91 128.995Z" fill="url(#paint24_linear)"/>
<path d="M206.372 147.801H114.043V149.936H206.372V147.801Z" fill="#3F3F44"/>
<path d="M194.615 131.982H125.38C124.314 131.982 123.45 132.845 123.45 133.911V142.872C123.45 143.937 124.314 144.802 125.38 144.802H194.615C195.681 144.802 196.545 143.937 196.545 142.872V133.911C196.545 132.845 195.681 131.982 194.615 131.982Z" fill="#383838" stroke="#545454" stroke-width="0.790658" stroke-miterlimit="10"/>
<path d="M147.811 135.719H128.149V140.85H147.811V135.719Z" fill="#C7D4F9"/>
<path d="M192.698 135.719H187.566V140.85H192.698V135.719Z" fill="white"/>
<g filter="url(#filter24_d)">
<path d="M153.585 139.994C154.412 139.994 155.083 139.324 155.083 138.496C155.083 137.669 154.412 136.999 153.585 136.999C152.757 136.999 152.087 137.669 152.087 138.496C152.087 139.324 152.757 139.994 153.585 139.994Z" fill="white"/>
</g>
<path d="M177.735 137.75H163.201V139.034H177.735V137.75Z" fill="#AF5473"/>
<path d="M205.91 149.936H114.509C112.836 149.936 111.479 151.292 111.479 152.965V165.714C111.479 167.386 112.836 168.742 114.509 168.742H205.91C207.584 168.742 208.94 167.386 208.94 165.714V152.965C208.94 151.292 207.584 149.936 205.91 149.936Z" fill="url(#paint25_linear)"/>
<path d="M205.91 170.878H114.509C112.836 170.878 111.479 172.233 111.479 173.906V247.767C111.479 249.44 112.836 250.796 114.509 250.796H205.91C207.584 250.796 208.94 249.44 208.94 247.767V173.906C208.94 172.233 207.584 170.878 205.91 170.878Z" fill="url(#paint26_linear)"/>
<path d="M206.372 168.742H114.043V170.878H206.372V168.742Z" fill="#3F3F44"/>
<path d="M194.615 152.923H125.38C124.314 152.923 123.45 153.787 123.45 154.853V163.813C123.45 164.879 124.314 165.743 125.38 165.743H194.615C195.681 165.743 196.545 164.879 196.545 163.813V154.853C196.545 153.787 195.681 152.923 194.615 152.923Z" fill="#383838" stroke="#545454" stroke-width="0.790658" stroke-miterlimit="10"/>
<path d="M147.811 156.661H128.149V161.791H147.811V156.661Z" fill="#C7D4F9"/>
<path d="M177.492 184.553H142.495C142.127 184.553 141.828 184.852 141.828 185.22V189.868C141.828 190.237 142.127 190.535 142.495 190.535H177.492C177.861 190.535 178.16 190.237 178.16 189.868V185.22C178.16 184.852 177.861 184.553 177.492 184.553Z" fill="#707070"/>
<path d="M174.316 186.693H145.675V188.828H174.316V186.693Z" fill="url(#paint27_linear)"/>
<path d="M177.505 198.229H142.483C142.121 198.229 141.828 198.522 141.828 198.883V203.556C141.828 203.918 142.121 204.211 142.483 204.211H177.505C177.867 204.211 178.16 203.918 178.16 203.556V198.883C178.16 198.522 177.867 198.229 177.505 198.229Z" fill="#707070"/>
<path d="M174.316 200.368H145.675V202.504H174.316V200.368Z" fill="url(#paint28_linear)"/>
<path d="M202.117 215.751H117.878C117.415 215.751 117.039 216.127 117.039 216.59V217.903C117.039 218.366 117.415 218.742 117.878 218.742H202.117C202.581 218.742 202.957 218.366 202.957 217.903V216.59C202.957 216.127 202.581 215.751 202.117 215.751Z" fill="#474747"/>
<path d="M202.117 227.292H117.878C117.415 227.292 117.039 227.667 117.039 228.131V229.444C117.039 229.907 117.415 230.283 117.878 230.283H202.117C202.581 230.283 202.957 229.907 202.957 229.444V228.131C202.957 227.667 202.581 227.292 202.117 227.292Z" fill="#474747"/>
<path d="M202.109 238.832H117.887C117.418 238.832 117.039 239.211 117.039 239.679V240.976C117.039 241.444 117.418 241.823 117.887 241.823H202.109C202.577 241.823 202.957 241.444 202.957 240.976V239.679C202.957 239.211 202.577 238.832 202.109 238.832Z" fill="#474747"/>
<path d="M192.698 156.661H187.566V161.791H192.698V156.661Z" fill="white"/>
<g filter="url(#filter25_d)">
<path d="M153.585 160.936C154.412 160.936 155.083 160.265 155.083 159.438C155.083 158.611 154.412 157.94 153.585 157.94C152.757 157.94 152.087 158.611 152.087 159.438C152.087 160.265 152.757 160.936 153.585 160.936Z" fill="white"/>
</g>
<path d="M177.735 158.691H163.201V159.975H177.735V158.691Z" fill="#AF5473"/>
<path d="M157.936 97.8095C158.559 97.8095 159.064 97.304 159.064 96.6811C159.064 96.0577 158.559 95.5526 157.936 95.5526C157.312 95.5526 156.807 96.0577 156.807 96.6811C156.807 97.304 157.312 97.8095 157.936 97.8095Z" fill="#554FBC"/>
<path d="M157.936 118.814C158.559 118.814 159.064 118.309 159.064 117.685C159.064 117.062 158.559 116.557 157.936 116.557C157.312 116.557 156.807 117.062 156.807 117.685C156.807 118.309 157.312 118.814 157.936 118.814Z" fill="#554FBC"/>
<path d="M157.936 139.818C158.559 139.818 159.064 139.312 159.064 138.689C159.064 138.066 158.559 137.561 157.936 137.561C157.312 137.561 156.807 138.066 156.807 138.689C156.807 139.312 157.312 139.818 157.936 139.818Z" fill="#554FBC"/>
<path d="M157.936 160.432C158.559 160.432 159.064 159.927 159.064 159.304C159.064 158.68 158.559 158.175 157.936 158.175C157.312 158.175 156.807 158.68 156.807 159.304C156.807 159.927 157.312 160.432 157.936 160.432Z" fill="#554FBC"/>
<path d="M231.597 188.866V188.782C231.596 188.689 231.59 188.596 231.576 188.505C231.545 187.925 231.384 187.36 231.104 186.852C230.824 186.344 230.434 185.905 229.961 185.568C229.874 185.498 229.781 185.435 229.684 185.38C229.592 185.315 229.493 185.258 229.39 185.212L231.597 188.866ZM89.2085 185.212C89.1069 185.258 89.01 185.315 88.919 185.38C88.8204 185.432 88.7276 185.496 88.642 185.568C88.1696 185.905 87.7785 186.344 87.4983 186.852C87.218 187.36 87.0552 187.925 87.0225 188.505C87.0225 188.597 87.0225 188.689 87.0225 188.782V188.866L89.2085 185.212Z" stroke="black" stroke-miterlimit="10"/>
<g filter="url(#filter26_d)">
<path d="M83.9302 192.452C83.9302 185.272 89.7505 179.452 96.9302 179.452H221.903C229.083 179.452 234.903 185.272 234.903 192.452V276.381C234.903 279.142 232.664 281.381 229.903 281.381H88.9302C86.1688 281.381 83.9302 279.142 83.9302 276.381V192.452Z" fill="#1E1E23"/>
</g>
<g filter="url(#filter27_d)">
<path d="M230.455 188.493V188.519V273.705C230.463 274.324 230.352 274.938 230.126 275.512M230.455 188.493L229.195 275.147M230.455 188.493L230.454 188.468M230.455 188.493L230.454 188.468M230.126 275.512L229.195 275.147M230.126 275.512C230.126 275.512 230.126 275.512 230.126 275.512L229.195 275.147M230.126 275.512C229.9 276.09 229.563 276.617 229.135 277.063C228.706 277.509 228.194 277.866 227.627 278.111M229.195 275.147C229.017 275.603 228.751 276.019 228.414 276.37C228.076 276.721 227.673 277.001 227.229 277.193M227.627 278.111L227.229 277.193M227.627 278.111C227.059 278.357 226.449 278.486 225.832 278.49L225.825 278.49L93.0081 278.49H93.0005C92.3833 278.486 91.7733 278.357 91.2059 278.111M227.627 278.111C227.626 278.111 227.626 278.111 227.626 278.111L227.229 277.193M227.229 277.193L91.2059 278.111M91.2059 278.111C91.2063 278.111 91.2066 278.111 91.207 278.111L91.6037 277.193L91.2059 278.111ZM230.454 188.468C230.446 188.327 230.433 188.187 230.412 188.048C230.353 187.355 230.152 186.681 229.822 186.07L229.822 186.069C229.485 185.447 229.021 184.903 228.46 184.475L228.442 184.462L228.424 184.449L228.155 184.263L228.122 184.239L228.086 184.219L227.802 184.054L227.771 184.036L227.739 184.02C227.649 183.976 227.532 183.92 227.401 183.866C227.268 183.807 227.132 183.759 226.995 183.719C226.857 183.675 226.717 183.639 226.576 183.612C226.256 183.544 225.931 183.51 225.605 183.51L93.1911 183.51L93.1895 183.51C92.8614 183.51 92.5332 183.545 92.211 183.614C91.9358 183.672 91.6665 183.754 91.4062 183.861L91.3867 183.869L91.3676 183.878L91.0789 184.01L91.0328 184.031L90.9891 184.057L90.7086 184.222L90.6761 184.241L90.6451 184.263L90.3767 184.449L90.359 184.461L90.3418 184.474C89.779 184.902 89.3148 185.446 88.9772 186.068L88.9768 186.068C88.6396 186.691 88.4364 187.378 88.3809 188.085L88.3779 188.124M230.454 188.468L88.3779 188.124M88.3779 188.124V188.163V188.124ZM88.7064 275.512L89.6373 275.147L88.7062 275.512C88.7063 275.512 88.7063 275.512 88.7064 275.512ZM88.3779 273.713H89.3779L88.378 273.698C88.3779 273.701 88.3779 273.703 88.3779 273.706V273.713Z" stroke="#3E3E3E" stroke-width="2"/>
</g>
<g filter="url(#filter28_d)">
<path d="M229.455 188.519V273.713C229.462 274.204 229.374 274.691 229.195 275.147C229.017 275.603 228.751 276.019 228.414 276.37C228.076 276.721 227.673 277.001 227.229 277.193C226.785 277.386 226.307 277.487 225.825 277.49H93.0081C92.5252 277.487 92.0478 277.386 91.6037 277.193C91.1592 277.001 90.7568 276.721 90.4191 276.37C90.0819 276.019 89.8159 275.603 89.6374 275.147C89.4584 274.691 89.3706 274.204 89.3779 273.713V188.519C89.3779 188.399 89.3779 188.275 89.3779 188.163C89.4224 187.596 89.5855 187.044 89.856 186.545C90.1268 186.046 90.4985 185.611 90.9471 185.27L91.2155 185.084L91.496 184.919L91.7847 184.786C91.9899 184.703 92.2021 184.638 92.4187 184.592C92.6725 184.538 92.9316 184.51 93.1911 184.51H225.605C225.865 184.51 226.123 184.537 226.378 184.592C226.487 184.613 226.596 184.64 226.703 184.675C226.808 184.705 226.911 184.742 227.012 184.786C227.113 184.828 227.207 184.873 227.3 184.919L227.585 185.084L227.853 185.27C228.301 185.612 228.672 186.046 228.942 186.545C229.212 187.044 229.374 187.596 229.418 188.163C229.437 188.281 229.449 188.4 229.455 188.519Z" fill="url(#paint29_linear)"/>
</g>
<path d="M146.506 282.888V284.868C146.506 285.627 146.997 286.244 147.597 286.244H172.025C172.625 286.244 173.116 285.627 173.116 284.868V282.888H146.506ZM146.506 282.888V284.868C146.506 285.627 146.997 286.244 147.597 286.244H172.025C172.625 286.244 173.116 285.627 173.116 284.868V282.888H146.506Z" fill="#E8E8E8" stroke="black" stroke-width="0.890352" stroke-miterlimit="10"/>
<path d="M249.161 281.419H69.4462C68.5609 281.419 67.8434 282.326 67.8434 283.441V286.109C67.8275 286.462 67.9013 286.813 68.0574 287.13C68.2139 287.447 68.4476 287.719 68.7371 287.922H249.887C250.176 287.719 250.41 287.447 250.566 287.13C250.723 286.813 250.796 286.462 250.781 286.109V283.441C250.781 282.326 250.063 281.419 249.161 281.419ZM173.099 283.609C173.099 284.368 172.608 284.985 172.008 284.985H147.597C146.997 284.985 146.506 284.368 146.506 283.609V281.629H173.116L173.099 283.609Z" fill="#DEDEDE"/>
<path d="M173.116 281.629V283.609C173.116 284.369 172.625 284.985 172.025 284.985H147.597C146.997 284.985 146.506 284.369 146.506 283.609V281.629H173.116Z" fill="#636363"/>
<path d="M250.118 287.922L244.374 291.244C244.29 291.29 244.21 291.336 244.13 291.374C243.228 291.86 242.219 292.115 241.193 292.117H77.4184C76.3053 292.111 75.2135 291.81 74.2548 291.244L68.5107 287.922H68.7415C68.9534 288.057 69.1993 288.13 69.4506 288.131H249.161C249.412 288.13 249.658 288.057 249.87 287.922H250.118Z" fill="url(#paint30_linear)"/>
<path d="M103.717 284.566H92.3887V284.985H103.717V284.566Z" fill="#747474"/>
<path d="M225.933 284.566H214.604V284.985H225.933V284.566Z" fill="#747474"/>
<path d="M136.667 224.78H141.112V237.467C141.112 238.643 140.837 239.693 140.287 240.616C139.745 241.539 138.983 242.254 138 242.762C137.026 243.27 135.938 243.524 134.736 243.524C132.72 243.524 131.154 243.017 130.036 242.001C128.918 240.984 128.359 239.545 128.359 237.683H132.83C132.83 238.529 132.974 239.143 133.262 239.524C133.559 239.905 134.05 240.096 134.736 240.096C135.354 240.096 135.828 239.867 136.159 239.41C136.497 238.944 136.667 238.296 136.667 237.467V224.78ZM158.438 224.78V236.882C158.438 238.254 158.146 239.444 157.561 240.451C156.977 241.45 156.139 242.212 155.046 242.737C153.954 243.262 152.663 243.524 151.172 243.524C148.92 243.524 147.146 242.94 145.85 241.772C144.554 240.604 143.894 239.003 143.869 236.971V224.78H148.352V237.06C148.403 239.084 149.343 240.096 151.172 240.096C152.095 240.096 152.794 239.841 153.268 239.333C153.742 238.825 153.979 238 153.979 236.857V224.78H158.438ZM176.196 237.009C176.136 238.296 175.789 239.435 175.154 240.426C174.519 241.408 173.625 242.17 172.474 242.712C171.331 243.254 170.022 243.524 168.549 243.524C166.119 243.524 164.205 242.733 162.807 241.149C161.41 239.566 160.712 237.331 160.712 234.444V233.53C160.712 231.718 161.025 230.135 161.652 228.78C162.287 227.417 163.197 226.367 164.382 225.63C165.568 224.885 166.94 224.513 168.498 224.513C170.742 224.513 172.546 225.106 173.909 226.291C175.273 227.468 176.047 229.093 176.234 231.167H171.788C171.754 230.041 171.47 229.233 170.937 228.742C170.403 228.251 169.59 228.005 168.498 228.005C167.389 228.005 166.576 228.42 166.059 229.25C165.543 230.08 165.272 231.405 165.246 233.225V234.533C165.246 236.505 165.492 237.915 165.983 238.762C166.483 239.609 167.338 240.032 168.549 240.032C169.574 240.032 170.357 239.791 170.899 239.308C171.441 238.825 171.728 238.059 171.762 237.009H176.196ZM189.774 235.435H182.763V239.841H191.044V243.27H178.304V224.78H191.07V228.221H182.763V232.12H189.774V235.435Z" fill="#BF3A4A"/>
<path d="M130.42 236.558C131.81 236.558 132.937 235.431 132.937 234.041C132.937 232.651 131.81 231.524 130.42 231.524C129.029 231.524 127.902 232.651 127.902 234.041C127.902 235.431 129.029 236.558 130.42 236.558Z" fill="#E3445B"/>
<defs>
<filter id="filter0_d" x="254" y="0" width="29" height="29" filterUnits="userSpaceOnUse" color-interpolation-filters="sRGB">
<feFlood flood-opacity="0" result="BackgroundImageFix"/>
<feColorMatrix in="SourceAlpha" type="matrix" values="0 0 0 0 0 0 0 0 0 0 0 0 0 0 0 0 0 0 127 0"/>
<feOffset/>
<feGaussianBlur stdDeviation="2"/>
<feColorMatrix type="matrix" values="0 0 0 0 1 0 0 0 0 1 0 0 0 0 1 0 0 0 0.92 0"/>
<feBlend mode="normal" in2="BackgroundImageFix" result="effect1_dropShadow"/>
<feBlend mode="normal" in="SourceGraphic" in2="effect1_dropShadow" result="shape"/>
</filter>
<filter id="filter1_d" x="18" y="313" width="54" height="54" filterUnits="userSpaceOnUse" color-interpolation-filters="sRGB">
<feFlood flood-opacity="0" result="BackgroundImageFix"/>
<feColorMatrix in="SourceAlpha" type="matrix" values="0 0 0 0 0 0 0 0 0 0 0 0 0 0 0 0 0 0 127 0"/>
<feOffset/>
<feGaussianBlur stdDeviation="2"/>
<feColorMatrix type="matrix" values="0 0 0 0 1 0 0 0 0 1 0 0 0 0 1 0 0 0 0.92 0"/>
<feBlend mode="normal" in2="BackgroundImageFix" result="effect1_dropShadow"/>
<feBlend mode="normal" in="SourceGraphic" in2="effect1_dropShadow" result="shape"/>
</filter>
<filter id="filter2_f" x="-6.83203" y="83.387" width="137.301" height="202.727" filterUnits="userSpaceOnUse" color-interpolation-filters="sRGB">
<feFlood flood-opacity="0" result="BackgroundImageFix"/>
<feBlend mode="normal" in="SourceGraphic" in2="BackgroundImageFix" result="shape"/>
<feGaussianBlur stdDeviation="14.5" result="effect1_foregroundBlur"/>
</filter>
<filter id="filter3_f" x="194.566" y="83.387" width="132.266" height="202.727" filterUnits="userSpaceOnUse" color-interpolation-filters="sRGB">
<feFlood flood-opacity="0" result="BackgroundImageFix"/>
<feBlend mode="normal" in="SourceGraphic" in2="BackgroundImageFix" result="shape"/>
<feGaussianBlur stdDeviation="14.5" result="effect1_foregroundBlur"/>
</filter>
<filter id="filter4_f" x="87.9932" y="46.4712" width="144.014" height="202.727" filterUnits="userSpaceOnUse" color-interpolation-filters="sRGB">
<feFlood flood-opacity="0" result="BackgroundImageFix"/>
<feBlend mode="normal" in="SourceGraphic" in2="BackgroundImageFix" result="shape"/>
<feGaussianBlur stdDeviation="14.5" result="effect1_foregroundBlur"/>
</filter>
<filter id="filter5_f" x="59.3569" y="273.737" width="195.832" height="35.9704" filterUnits="userSpaceOnUse" color-interpolation-filters="sRGB">
<feFlood flood-opacity="0" result="BackgroundImageFix"/>
<feBlend mode="normal" in="SourceGraphic" in2="BackgroundImageFix" result="shape"/>
<feGaussianBlur stdDeviation="7" result="effect1_foregroundBlur"/>
</filter>
<filter id="filter6_f" x="10.9092" y="250.47" width="107.692" height="24.6144" filterUnits="userSpaceOnUse" color-interpolation-filters="sRGB">
<feFlood flood-opacity="0" result="BackgroundImageFix"/>
<feBlend mode="normal" in="SourceGraphic" in2="BackgroundImageFix" result="shape"/>
<feGaussianBlur stdDeviation="5" result="effect1_foregroundBlur"/>
</filter>
<filter id="filter7_f" x="202.238" y="250.47" width="107.692" height="24.6144" filterUnits="userSpaceOnUse" color-interpolation-filters="sRGB">
<feFlood flood-opacity="0" result="BackgroundImageFix"/>
<feBlend mode="normal" in="SourceGraphic" in2="BackgroundImageFix" result="shape"/>
<feGaussianBlur stdDeviation="5" result="effect1_foregroundBlur"/>
</filter>
<filter id="filter8_d" x="26.5317" y="54.0474" width="68.0559" height="51.3693" filterUnits="userSpaceOnUse" color-interpolation-filters="sRGB">
<feFlood flood-opacity="0" result="BackgroundImageFix"/>
<feColorMatrix in="SourceAlpha" type="matrix" values="0 0 0 0 0 0 0 0 0 0 0 0 0 0 0 0 0 0 127 0"/>
<feOffset dy="4"/>
<feGaussianBlur stdDeviation="6"/>
<feColorMatrix type="matrix" values="0 0 0 0 1 0 0 0 0 1 0 0 0 0 1 0 0 0 0.27 0"/>
<feBlend mode="normal" in2="BackgroundImageFix" result="effect1_dropShadow"/>
<feBlend mode="normal" in="SourceGraphic" in2="effect1_dropShadow" result="shape"/>
</filter>
<filter id="filter9_d" x="120.306" y="12.1018" width="79.5914" height="59.2084" filterUnits="userSpaceOnUse" color-interpolation-filters="sRGB">
<feFlood flood-opacity="0" result="BackgroundImageFix"/>
<feColorMatrix in="SourceAlpha" type="matrix" values="0 0 0 0 0 0 0 0 0 0 0 0 0 0 0 0 0 0 127 0"/>
<feOffset dy="4"/>
<feGaussianBlur stdDeviation="6"/>
<feColorMatrix type="matrix" values="0 0 0 0 1 0 0 0 0 1 0 0 0 0 1 0 0 0 0.27 0"/>
<feBlend mode="normal" in2="BackgroundImageFix" result="effect1_dropShadow"/>
<feBlend mode="normal" in="SourceGraphic" in2="effect1_dropShadow" result="shape"/>
</filter>
<filter id="filter10_d" x="225.832" y="55.3059" width="68.0558" height="51.6868" filterUnits="userSpaceOnUse" color-interpolation-filters="sRGB">
<feFlood flood-opacity="0" result="BackgroundImageFix"/>
<feColorMatrix in="SourceAlpha" type="matrix" values="0 0 0 0 0 0 0 0 0 0 0 0 0 0 0 0 0 0 127 0"/>
<feOffset dy="4"/>
<feGaussianBlur stdDeviation="6"/>
<feColorMatrix type="matrix" values="0 0 0 0 1 0 0 0 0 1 0 0 0 0 1 0 0 0 0.27 0"/>
<feBlend mode="normal" in2="BackgroundImageFix" result="effect1_dropShadow"/>
<feBlend mode="normal" in="SourceGraphic" in2="effect1_dropShadow" result="shape"/>
</filter>
<filter id="filter11_d" x="50.1523" y="106.101" width="10.6014" height="10.6009" filterUnits="userSpaceOnUse" color-interpolation-filters="sRGB">
<feFlood flood-opacity="0" result="BackgroundImageFix"/>
<feColorMatrix in="SourceAlpha" type="matrix" values="0 0 0 0 0 0 0 0 0 0 0 0 0 0 0 0 0 0 127 0"/>
<feOffset/>
<feGaussianBlur stdDeviation="2"/>
<feColorMatrix type="matrix" values="0 0 0 0 1 0 0 0 0 1 0 0 0 0 1 0 0 0 0.65 0"/>
<feBlend mode="normal" in2="BackgroundImageFix" result="effect1_dropShadow"/>
<feBlend mode="normal" in="SourceGraphic" in2="effect1_dropShadow" result="shape"/>
</filter>
<filter id="filter12_d" x="50.1523" y="124.324" width="10.6014" height="10.6009" filterUnits="userSpaceOnUse" color-interpolation-filters="sRGB">
<feFlood flood-opacity="0" result="BackgroundImageFix"/>
<feColorMatrix in="SourceAlpha" type="matrix" values="0 0 0 0 0 0 0 0 0 0 0 0 0 0 0 0 0 0 127 0"/>
<feOffset/>
<feGaussianBlur stdDeviation="2"/>
<feColorMatrix type="matrix" values="0 0 0 0 1 0 0 0 0 1 0 0 0 0 1 0 0 0 0.65 0"/>
<feBlend mode="normal" in2="BackgroundImageFix" result="effect1_dropShadow"/>
<feBlend mode="normal" in="SourceGraphic" in2="effect1_dropShadow" result="shape"/>
</filter>
<filter id="filter13_d" x="50.1523" y="142.551" width="10.6014" height="10.6009" filterUnits="userSpaceOnUse" color-interpolation-filters="sRGB">
<feFlood flood-opacity="0" result="BackgroundImageFix"/>
<feColorMatrix in="SourceAlpha" type="matrix" values="0 0 0 0 0 0 0 0 0 0 0 0 0 0 0 0 0 0 127 0"/>
<feOffset/>
<feGaussianBlur stdDeviation="2"/>
<feColorMatrix type="matrix" values="0 0 0 0 1 0 0 0 0 1 0 0 0 0 1 0 0 0 0.65 0"/>
<feBlend mode="normal" in2="BackgroundImageFix" result="effect1_dropShadow"/>
<feBlend mode="normal" in="SourceGraphic" in2="effect1_dropShadow" result="shape"/>
</filter>
<filter id="filter14_d" x="50.1523" y="160.774" width="10.6014" height="10.6009" filterUnits="userSpaceOnUse" color-interpolation-filters="sRGB">
<feFlood flood-opacity="0" result="BackgroundImageFix"/>
<feColorMatrix in="SourceAlpha" type="matrix" values="0 0 0 0 0 0 0 0 0 0 0 0 0 0 0 0 0 0 127 0"/>
<feOffset/>
<feGaussianBlur stdDeviation="2"/>
<feColorMatrix type="matrix" values="0 0 0 0 1 0 0 0 0 1 0 0 0 0 1 0 0 0 0.65 0"/>
<feBlend mode="normal" in2="BackgroundImageFix" result="effect1_dropShadow"/>
<feBlend mode="normal" in="SourceGraphic" in2="effect1_dropShadow" result="shape"/>
</filter>
<filter id="filter15_d" x="50.1523" y="178.997" width="10.6014" height="10.6009" filterUnits="userSpaceOnUse" color-interpolation-filters="sRGB">
<feFlood flood-opacity="0" result="BackgroundImageFix"/>
<feColorMatrix in="SourceAlpha" type="matrix" values="0 0 0 0 0 0 0 0 0 0 0 0 0 0 0 0 0 0 127 0"/>
<feOffset/>
<feGaussianBlur stdDeviation="2"/>
<feColorMatrix type="matrix" values="0 0 0 0 1 0 0 0 0 1 0 0 0 0 1 0 0 0 0.65 0"/>
<feBlend mode="normal" in2="BackgroundImageFix" result="effect1_dropShadow"/>
<feBlend mode="normal" in="SourceGraphic" in2="effect1_dropShadow" result="shape"/>
</filter>
<filter id="filter16_d" x="248.95" y="106.206" width="10.6013" height="10.6009" filterUnits="userSpaceOnUse" color-interpolation-filters="sRGB">
<feFlood flood-opacity="0" result="BackgroundImageFix"/>
<feColorMatrix in="SourceAlpha" type="matrix" values="0 0 0 0 0 0 0 0 0 0 0 0 0 0 0 0 0 0 127 0"/>
<feOffset/>
<feGaussianBlur stdDeviation="2"/>
<feColorMatrix type="matrix" values="0 0 0 0 1 0 0 0 0 1 0 0 0 0 1 0 0 0 0.65 0"/>
<feBlend mode="normal" in2="BackgroundImageFix" result="effect1_dropShadow"/>
<feBlend mode="normal" in="SourceGraphic" in2="effect1_dropShadow" result="shape"/>
</filter>
<filter id="filter17_d" x="248.95" y="124.416" width="10.6013" height="10.6009" filterUnits="userSpaceOnUse" color-interpolation-filters="sRGB">
<feFlood flood-opacity="0" result="BackgroundImageFix"/>
<feColorMatrix in="SourceAlpha" type="matrix" values="0 0 0 0 0 0 0 0 0 0 0 0 0 0 0 0 0 0 127 0"/>
<feOffset/>
<feGaussianBlur stdDeviation="2"/>
<feColorMatrix type="matrix" values="0 0 0 0 1 0 0 0 0 1 0 0 0 0 1 0 0 0 0.65 0"/>
<feBlend mode="normal" in2="BackgroundImageFix" result="effect1_dropShadow"/>
<feBlend mode="normal" in="SourceGraphic" in2="effect1_dropShadow" result="shape"/>
</filter>
<filter id="filter18_d" x="248.95" y="142.631" width="10.6013" height="10.6008" filterUnits="userSpaceOnUse" color-interpolation-filters="sRGB">
<feFlood flood-opacity="0" result="BackgroundImageFix"/>
<feColorMatrix in="SourceAlpha" type="matrix" values="0 0 0 0 0 0 0 0 0 0 0 0 0 0 0 0 0 0 127 0"/>
<feOffset/>
<feGaussianBlur stdDeviation="2"/>
<feColorMatrix type="matrix" values="0 0 0 0 1 0 0 0 0 1 0 0 0 0 1 0 0 0 0.65 0"/>
<feBlend mode="normal" in2="BackgroundImageFix" result="effect1_dropShadow"/>
<feBlend mode="normal" in="SourceGraphic" in2="effect1_dropShadow" result="shape"/>
</filter>
<filter id="filter19_d" x="248.95" y="160.841" width="10.6013" height="10.6009" filterUnits="userSpaceOnUse" color-interpolation-filters="sRGB">
<feFlood flood-opacity="0" result="BackgroundImageFix"/>
<feColorMatrix in="SourceAlpha" type="matrix" values="0 0 0 0 0 0 0 0 0 0 0 0 0 0 0 0 0 0 127 0"/>
<feOffset/>
<feGaussianBlur stdDeviation="2"/>
<feColorMatrix type="matrix" values="0 0 0 0 1 0 0 0 0 1 0 0 0 0 1 0 0 0 0.65 0"/>
<feBlend mode="normal" in2="BackgroundImageFix" result="effect1_dropShadow"/>
<feBlend mode="normal" in="SourceGraphic" in2="effect1_dropShadow" result="shape"/>
</filter>
<filter id="filter20_d" x="248.95" y="179.051" width="10.6013" height="10.6009" filterUnits="userSpaceOnUse" color-interpolation-filters="sRGB">
<feFlood flood-opacity="0" result="BackgroundImageFix"/>
<feColorMatrix in="SourceAlpha" type="matrix" values="0 0 0 0 0 0 0 0 0 0 0 0 0 0 0 0 0 0 127 0"/>
<feOffset/>
<feGaussianBlur stdDeviation="2"/>
<feColorMatrix type="matrix" values="0 0 0 0 1 0 0 0 0 1 0 0 0 0 1 0 0 0 0.65 0"/>
<feBlend mode="normal" in2="BackgroundImageFix" result="effect1_dropShadow"/>
<feBlend mode="normal" in="SourceGraphic" in2="effect1_dropShadow" result="shape"/>
</filter>
<filter id="filter21_d" x="148.087" y="70.1749" width="10.9958" height="10.9952" filterUnits="userSpaceOnUse" color-interpolation-filters="sRGB">
<feFlood flood-opacity="0" result="BackgroundImageFix"/>
<feColorMatrix in="SourceAlpha" type="matrix" values="0 0 0 0 0 0 0 0 0 0 0 0 0 0 0 0 0 0 127 0"/>
<feOffset/>
<feGaussianBlur stdDeviation="2"/>
<feColorMatrix type="matrix" values="0 0 0 0 1 0 0 0 0 1 0 0 0 0 1 0 0 0 0.65 0"/>
<feBlend mode="normal" in2="BackgroundImageFix" result="effect1_dropShadow"/>
<feBlend mode="normal" in="SourceGraphic" in2="effect1_dropShadow" result="shape"/>
</filter>
<filter id="filter22_d" x="148.087" y="91.1163" width="10.9958" height="10.9952" filterUnits="userSpaceOnUse" color-interpolation-filters="sRGB">
<feFlood flood-opacity="0" result="BackgroundImageFix"/>
<feColorMatrix in="SourceAlpha" type="matrix" values="0 0 0 0 0 0 0 0 0 0 0 0 0 0 0 0 0 0 127 0"/>
<feOffset/>
<feGaussianBlur stdDeviation="2"/>
<feColorMatrix type="matrix" values="0 0 0 0 1 0 0 0 0 1 0 0 0 0 1 0 0 0 0.65 0"/>
<feBlend mode="normal" in2="BackgroundImageFix" result="effect1_dropShadow"/>
<feBlend mode="normal" in="SourceGraphic" in2="effect1_dropShadow" result="shape"/>
</filter>
<filter id="filter23_d" x="148.087" y="112.058" width="10.9958" height="10.9952" filterUnits="userSpaceOnUse" color-interpolation-filters="sRGB">
<feFlood flood-opacity="0" result="BackgroundImageFix"/>
<feColorMatrix in="SourceAlpha" type="matrix" values="0 0 0 0 0 0 0 0 0 0 0 0 0 0 0 0 0 0 127 0"/>
<feOffset/>
<feGaussianBlur stdDeviation="2"/>
<feColorMatrix type="matrix" values="0 0 0 0 1 0 0 0 0 1 0 0 0 0 1 0 0 0 0.65 0"/>
<feBlend mode="normal" in2="BackgroundImageFix" result="effect1_dropShadow"/>
<feBlend mode="normal" in="SourceGraphic" in2="effect1_dropShadow" result="shape"/>
</filter>
<filter id="filter24_d" x="148.087" y="132.999" width="10.9958" height="10.9952" filterUnits="userSpaceOnUse" color-interpolation-filters="sRGB">
<feFlood flood-opacity="0" result="BackgroundImageFix"/>
<feColorMatrix in="SourceAlpha" type="matrix" values="0 0 0 0 0 0 0 0 0 0 0 0 0 0 0 0 0 0 127 0"/>
<feOffset/>
<feGaussianBlur stdDeviation="2"/>
<feColorMatrix type="matrix" values="0 0 0 0 1 0 0 0 0 1 0 0 0 0 1 0 0 0 0.65 0"/>
<feBlend mode="normal" in2="BackgroundImageFix" result="effect1_dropShadow"/>
<feBlend mode="normal" in="SourceGraphic" in2="effect1_dropShadow" result="shape"/>
</filter>
<filter id="filter25_d" x="148.087" y="153.94" width="10.9958" height="10.9952" filterUnits="userSpaceOnUse" color-interpolation-filters="sRGB">
<feFlood flood-opacity="0" result="BackgroundImageFix"/>
<feColorMatrix in="SourceAlpha" type="matrix" values="0 0 0 0 0 0 0 0 0 0 0 0 0 0 0 0 0 0 127 0"/>
<feOffset/>
<feGaussianBlur stdDeviation="2"/>
<feColorMatrix type="matrix" values="0 0 0 0 1 0 0 0 0 1 0 0 0 0 1 0 0 0 0.65 0"/>
<feBlend mode="normal" in2="BackgroundImageFix" result="effect1_dropShadow"/>
<feBlend mode="normal" in="SourceGraphic" in2="effect1_dropShadow" result="shape"/>
</filter>
<filter id="filter26_d" x="42.9302" y="142.452" width="232.973" height="183.929" filterUnits="userSpaceOnUse" color-interpolation-filters="sRGB">
<feFlood flood-opacity="0" result="BackgroundImageFix"/>
<feColorMatrix in="SourceAlpha" type="matrix" values="0 0 0 0 0 0 0 0 0 0 0 0 0 0 0 0 0 0 127 0"/>
<feOffset dy="4"/>
<feGaussianBlur stdDeviation="20.5"/>
<feColorMatrix type="matrix" values="0 0 0 0 0 0 0 0 0 0 0 0 0 0 0 0 0 0 0.48 0"/>
<feBlend mode="normal" in2="BackgroundImageFix" result="effect1_dropShadow"/>
<feBlend mode="normal" in="SourceGraphic" in2="effect1_dropShadow" result="shape"/>
</filter>
<filter id="filter27_d" x="64.3774" y="156.51" width="190.078" height="142.981" filterUnits="userSpaceOnUse" color-interpolation-filters="sRGB">
<feFlood flood-opacity="0" result="BackgroundImageFix"/>
<feColorMatrix in="SourceAlpha" type="matrix" values="0 0 0 0 0 0 0 0 0 0 0 0 0 0 0 0 0 0 127 0"/>
<feOffset dy="-3"/>
<feGaussianBlur stdDeviation="11.5"/>
<feColorMatrix type="matrix" values="0 0 0 0 1 0 0 0 0 1 0 0 0 0 1 0 0 0 0.46 0"/>
<feBlend mode="normal" in2="BackgroundImageFix" result="effect1_dropShadow"/>
<feBlend mode="normal" in="SourceGraphic" in2="effect1_dropShadow" result="shape"/>
</filter>
<filter id="filter28_d" x="74.3774" y="167.51" width="170.078" height="122.981" filterUnits="userSpaceOnUse" color-interpolation-filters="sRGB">
<feFlood flood-opacity="0" result="BackgroundImageFix"/>
<feColorMatrix in="SourceAlpha" type="matrix" values="0 0 0 0 0 0 0 0 0 0 0 0 0 0 0 0 0 0 127 0"/>
<feOffset dy="-2"/>
<feGaussianBlur stdDeviation="7.5"/>
<feColorMatrix type="matrix" values="0 0 0 0 1 0 0 0 0 1 0 0 0 0 1 0 0 0 0.46 0"/>
<feBlend mode="normal" in2="BackgroundImageFix" result="effect1_dropShadow"/>
<feBlend mode="normal" in="SourceGraphic" in2="effect1_dropShadow" result="shape"/>
</filter>
<linearGradient id="paint0_linear" x1="268.5" y1="4" x2="268.5" y2="25" gradientUnits="userSpaceOnUse">
<stop stop-color="white"/>
<stop offset="1" stop-color="#F7F7F7"/>
</linearGradient>
<linearGradient id="paint1_linear" x1="45" y1="317" x2="45" y2="363" gradientUnits="userSpaceOnUse">
<stop stop-color="white"/>
<stop offset="1" stop-color="#F7F7F7"/>
</linearGradient>
<linearGradient id="paint2_linear" x1="60.7695" y1="75.8907" x2="60.7695" y2="105.465" gradientUnits="userSpaceOnUse">
<stop stop-color="white"/>
<stop offset="1" stop-color="#EBEBEB"/>
</linearGradient>
<linearGradient id="paint3_linear" x1="160.21" y1="37.7164" x2="160.21" y2="77.7785" gradientUnits="userSpaceOnUse">
<stop stop-color="white"/>
<stop offset="1" stop-color="#EBEBEB"/>
</linearGradient>
<linearGradient id="paint4_linear" x1="260.07" y1="77.1492" x2="260.07" y2="106.514" gradientUnits="userSpaceOnUse">
<stop stop-color="white"/>
<stop offset="1" stop-color="#EBEBEB"/>
</linearGradient>
<linearGradient id="paint5_linear" x1="61.1598" y1="117.069" x2="61.2898" y2="104.282" gradientUnits="userSpaceOnUse">
<stop stop-color="#1E1E23"/>
<stop offset="0.05" stop-color="#1F1F24"/>
<stop offset="1" stop-color="#2C2C33"/>
</linearGradient>
<linearGradient id="paint6_linear" x1="8590.97" y1="4709.83" x2="8590.97" y2="4071.45" gradientUnits="userSpaceOnUse">
<stop stop-color="#1E1E23"/>
<stop offset="0.05" stop-color="#1F1F24"/>
<stop offset="1" stop-color="#2C2C33"/>
</linearGradient>
<linearGradient id="paint7_linear" x1="8590.97" y1="5439.07" x2="8590.97" y2="4800.73" gradientUnits="userSpaceOnUse">
<stop stop-color="#1E1E23"/>
<stop offset="0.05" stop-color="#1F1F24"/>
<stop offset="1" stop-color="#2C2C33"/>
</linearGradient>
<linearGradient id="paint8_linear" x1="8590.97" y1="6230.38" x2="8590.97" y2="5524.41" gradientUnits="userSpaceOnUse">
<stop stop-color="#1E1E23"/>
<stop offset="0.05" stop-color="#1F1F24"/>
<stop offset="1" stop-color="#2C2C33"/>
</linearGradient>
<linearGradient id="paint9_linear" x1="8590.97" y1="6897.31" x2="8590.97" y2="6258.92" gradientUnits="userSpaceOnUse">
<stop stop-color="#1E1E23"/>
<stop offset="0.05" stop-color="#1F1F24"/>
<stop offset="1" stop-color="#2C2C33"/>
</linearGradient>
<linearGradient id="paint10_linear" x1="62.0241" y1="271.087" x2="60.401" y2="186.332" gradientUnits="userSpaceOnUse">
<stop offset="0.39" stop-color="#18181C"/>
<stop offset="0.47" stop-color="#1B1B1F"/>
<stop offset="1" stop-color="#2A292D"/>
</linearGradient>
<linearGradient id="paint11_linear" x1="48.5718" y1="208.943" x2="73.4949" y2="208.943" gradientUnits="userSpaceOnUse">
<stop stop-color="#151516"/>
<stop offset="0.45" stop-color="#242426"/>
<stop offset="1" stop-color="#333335"/>
</linearGradient>
<linearGradient id="paint12_linear" x1="1816.37" y1="1109.23" x2="3296.8" y2="1109.23" gradientUnits="userSpaceOnUse">
<stop stop-color="#151516"/>
<stop offset="0.45" stop-color="#242426"/>
<stop offset="1" stop-color="#333335"/>
</linearGradient>
<linearGradient id="paint13_linear" x1="48928" y1="3887.1" x2="48929.3" y2="3388.97" gradientUnits="userSpaceOnUse">
<stop stop-color="#1E1E23"/>
<stop offset="0.05" stop-color="#1F1F24"/>
<stop offset="1" stop-color="#2C2C33"/>
</linearGradient>
<linearGradient id="paint14_linear" x1="48940.2" y1="4709.83" x2="48940.2" y2="4072.44" gradientUnits="userSpaceOnUse">
<stop stop-color="#1E1E23"/>
<stop offset="0.05" stop-color="#1F1F24"/>
<stop offset="1" stop-color="#2C2C33"/>
</linearGradient>
<linearGradient id="paint15_linear" x1="48940.2" y1="5437.87" x2="48940.2" y2="4800.49" gradientUnits="userSpaceOnUse">
<stop stop-color="#1E1E23"/>
<stop offset="0.05" stop-color="#1F1F24"/>
<stop offset="1" stop-color="#2C2C33"/>
</linearGradient>
<linearGradient id="paint16_linear" x1="48940.2" y1="6228.07" x2="48940.2" y2="5523.32" gradientUnits="userSpaceOnUse">
<stop stop-color="#1E1E23"/>
<stop offset="0.05" stop-color="#1F1F24"/>
<stop offset="1" stop-color="#2C2C33"/>
</linearGradient>
<linearGradient id="paint17_linear" x1="48940.2" y1="6894.16" x2="48940.2" y2="6256.61" gradientUnits="userSpaceOnUse">
<stop stop-color="#1E1E23"/>
<stop offset="0.05" stop-color="#1F1F24"/>
<stop offset="1" stop-color="#2C2C33"/>
</linearGradient>
<linearGradient id="paint18_linear" x1="49102.6" y1="41777.6" x2="48881.9" y2="27743.4" gradientUnits="userSpaceOnUse">
<stop offset="0.39" stop-color="#18181C"/>
<stop offset="0.47" stop-color="#1B1B1F"/>
<stop offset="1" stop-color="#2A292D"/>
</linearGradient>
<linearGradient id="paint19_linear" x1="13814.8" y1="1044.81" x2="15293.3" y2="1044.81" gradientUnits="userSpaceOnUse">
<stop stop-color="#151516"/>
<stop offset="0.45" stop-color="#242426"/>
<stop offset="1" stop-color="#333335"/>
</linearGradient>
<linearGradient id="paint20_linear" x1="13814.8" y1="1109.4" x2="15293.3" y2="1109.4" gradientUnits="userSpaceOnUse">
<stop stop-color="#151516"/>
<stop offset="0.45" stop-color="#242426"/>
<stop offset="1" stop-color="#333335"/>
</linearGradient>
<linearGradient id="paint21_linear" x1="32940" y1="2849.66" x2="32941.3" y2="2190.63" gradientUnits="userSpaceOnUse">
<stop stop-color="#1E1E23"/>
<stop offset="0.05" stop-color="#1F1F24"/>
<stop offset="1" stop-color="#2C2C33"/>
</linearGradient>
<linearGradient id="paint22_linear" x1="32955.5" y1="3934.47" x2="32955.5" y2="3091.58" gradientUnits="userSpaceOnUse">
<stop stop-color="#1E1E23"/>
<stop offset="0.05" stop-color="#1F1F24"/>
<stop offset="1" stop-color="#2C2C33"/>
</linearGradient>
<linearGradient id="paint23_linear" x1="32955.5" y1="4894.2" x2="32955.5" y2="4051.31" gradientUnits="userSpaceOnUse">
<stop stop-color="#1E1E23"/>
<stop offset="0.05" stop-color="#1F1F24"/>
<stop offset="1" stop-color="#2C2C33"/>
</linearGradient>
<linearGradient id="paint24_linear" x1="32955.5" y1="5936.16" x2="32955.5" y2="5003.91" gradientUnits="userSpaceOnUse">
<stop stop-color="#1E1E23"/>
<stop offset="0.05" stop-color="#1F1F24"/>
<stop offset="1" stop-color="#2C2C33"/>
</linearGradient>
<linearGradient id="paint25_linear" x1="32955.5" y1="6813.69" x2="32955.5" y2="5970.59" gradientUnits="userSpaceOnUse">
<stop stop-color="#1E1E23"/>
<stop offset="0.05" stop-color="#1F1F24"/>
<stop offset="1" stop-color="#2C2C33"/>
</linearGradient>
<linearGradient id="paint26_linear" x1="33171" y1="45718.9" x2="32879.3" y2="27158.7" gradientUnits="userSpaceOnUse">
<stop offset="0.39" stop-color="#18181C"/>
<stop offset="0.47" stop-color="#1B1B1F"/>
<stop offset="1" stop-color="#2A292D"/>
</linearGradient>
<linearGradient id="paint27_linear" x1="8805.47" y1="1040.08" x2="10760.5" y2="1040.08" gradientUnits="userSpaceOnUse">
<stop stop-color="#151516"/>
<stop offset="0.45" stop-color="#242426"/>
<stop offset="1" stop-color="#333335"/>
</linearGradient>
<linearGradient id="paint28_linear" x1="8805.47" y1="1123.37" x2="10760.5" y2="1123.37" gradientUnits="userSpaceOnUse">
<stop stop-color="#151516"/>
<stop offset="0.45" stop-color="#242426"/>
<stop offset="1" stop-color="#333335"/>
</linearGradient>
<linearGradient id="paint29_linear" x1="122.815" y1="295.544" x2="197.882" y2="167.653" gradientUnits="userSpaceOnUse">
<stop stop-color="#CECEFF"/>
<stop offset="0.51" stop-color="#FAFAFF"/>
<stop offset="1" stop-color="#D2D2FF"/>
</linearGradient>
<linearGradient id="paint30_linear" x1="159.314" y1="287.922" x2="159.314" y2="292.117" gradientUnits="userSpaceOnUse">
<stop stop-color="#434343"/>
<stop offset="1" stop-color="#1E1E23"/>
</linearGradient>
</defs>
</svg>
