<svg width="89" height="89" viewBox="0 0 89 89" fill="none" xmlns="http://www.w3.org/2000/svg">
<g filter="url(#filter0_d)">
<circle cx="44.5" cy="44.5" r="39.5" stroke="url(#paint0_linear)" stroke-width="2"/>
</g>
<g filter="url(#filter1_d)">
<rect x="33.1943" y="32.1944" width="23.8056" height="23.8056" rx="1" stroke="#F9F9F9" stroke-width="2"/>
</g>
<g filter="url(#filter2_d)">
<path d="M41.9753 39.96C42.7113 39.96 43.3433 40.084 43.8713 40.332C44.3993 40.572 44.8633 40.956 45.2633 41.484L44.1233 42.6C43.9153 42.168 43.6393 41.848 43.2953 41.64C42.9513 41.424 42.5153 41.316 41.9873 41.316C41.5073 41.316 41.1353 41.408 40.8713 41.592C40.6153 41.768 40.4873 42.004 40.4873 42.3C40.4873 42.572 40.6193 42.788 40.8833 42.948C41.1473 43.108 41.6233 43.248 42.3113 43.368C43.0313 43.504 43.6033 43.672 44.0273 43.872C44.4513 44.072 44.7593 44.324 44.9513 44.628C45.1513 44.924 45.2513 45.296 45.2513 45.744C45.2513 46.232 45.1113 46.656 44.8313 47.016C44.5593 47.368 44.1753 47.64 43.6793 47.832C43.1913 48.024 42.6313 48.12 41.9993 48.12C41.1273 48.12 40.4113 48 39.8513 47.76C39.2993 47.512 38.8513 47.14 38.5073 46.644L39.4913 45.468C39.7873 45.956 40.1273 46.296 40.5113 46.488C40.8953 46.672 41.3713 46.764 41.9393 46.764C42.4513 46.764 42.8393 46.684 43.1033 46.524C43.3753 46.364 43.5113 46.136 43.5113 45.84C43.5113 45.624 43.3833 45.444 43.1273 45.3C42.8793 45.156 42.4313 45.02 41.7833 44.892C41.0393 44.74 40.4433 44.56 39.9953 44.352C39.5553 44.144 39.2353 43.888 39.0353 43.584C38.8353 43.28 38.7353 42.904 38.7353 42.456C38.7353 41.984 38.8633 41.56 39.1193 41.184C39.3753 40.8 39.7473 40.5 40.2353 40.284C40.7313 40.068 41.3113 39.96 41.9753 39.96ZM49.4343 39.96C50.2823 39.96 50.9423 40.16 51.4143 40.56C51.8943 40.96 52.1343 41.48 52.1343 42.12C52.1343 42.512 52.0543 42.852 51.8943 43.14C51.7343 43.42 51.5383 43.632 51.3063 43.776C51.0743 43.92 50.8543 43.992 50.6463 43.992V44.028C50.9103 44.028 51.1663 44.096 51.4143 44.232C51.6703 44.368 51.8783 44.576 52.0383 44.856C52.2063 45.128 52.2903 45.46 52.2903 45.852C52.2903 46.292 52.1623 46.684 51.9063 47.028C51.6583 47.372 51.3103 47.64 50.8623 47.832C50.4143 48.024 49.9023 48.12 49.3263 48.12C48.5503 48.12 47.9143 47.964 47.4183 47.652C46.9303 47.332 46.5743 46.84 46.3503 46.176L47.8503 45.504C47.9383 45.944 48.0983 46.268 48.3303 46.476C48.5703 46.684 48.9063 46.788 49.3383 46.788C49.7463 46.788 50.0703 46.688 50.3103 46.488C50.5503 46.28 50.6703 46.004 50.6703 45.66C50.6703 45.292 50.5543 45.028 50.3223 44.868C50.0983 44.7 49.7423 44.616 49.2543 44.616H48.8583V43.464H49.1943C50.0583 43.464 50.4903 43.1 50.4903 42.372C50.4903 42.02 50.3903 41.752 50.1903 41.568C49.9983 41.384 49.7223 41.292 49.3623 41.292C48.9943 41.292 48.6983 41.388 48.4743 41.58C48.2503 41.772 48.1103 42.052 48.0543 42.42L46.5783 41.88C46.7303 41.248 47.0583 40.772 47.5623 40.452C48.0743 40.124 48.6983 39.96 49.4343 39.96Z" fill="#F9F9F9"/>
</g>
<g filter="url(#filter3_d)">
<path d="M41 24C41 23.4477 40.5523 23 40 23C39.4477 23 39 23.4477 39 24L41 24ZM39 24L39 29L41 29L41 24L39 24Z" fill="#F9F9F9"/>
</g>
<g filter="url(#filter4_d)">
<path d="M49 64C49 64.5523 49.4477 65 50 65C50.5523 65 51 64.5523 51 64L49 64ZM51 64L51 59L49 59L49 64L51 64Z" fill="#F9F9F9"/>
</g>
<g filter="url(#filter5_d)">
<path d="M25 48C24.4477 48 24 48.4477 24 49C24 49.5523 24.4477 50 25 50L25 48ZM25 50L30 50L30 48L25 48L25 50Z" fill="#F9F9F9"/>
</g>
<g filter="url(#filter6_d)">
<path d="M65 40C65.5523 40 66 39.5523 66 39C66 38.4477 65.5523 38 65 38L65 40ZM65 38L60 38L60 40L65 40L65 38Z" fill="#F9F9F9"/>
</g>
<g filter="url(#filter7_d)">
<path d="M46 24C46 23.4477 45.5523 23 45 23C44.4477 23 44 23.4477 44 24L46 24ZM44 24L44 29L46 29L46 24L44 24Z" fill="#F9F9F9"/>
</g>
<g filter="url(#filter8_d)">
<path d="M44 64C44 64.5523 44.4477 65 45 65C45.5523 65 46 64.5523 46 64L44 64ZM46 64L46 59L44 59L44 64L46 64Z" fill="#F9F9F9"/>
</g>
<g filter="url(#filter9_d)">
<path d="M25 43C24.4477 43 24 43.4477 24 44C24 44.5523 24.4477 45 25 45L25 43ZM25 45L30 45L30 43L25 43L25 45Z" fill="#F9F9F9"/>
</g>
<g filter="url(#filter10_d)">
<path d="M65 45C65.5523 45 66 44.5523 66 44C66 43.4477 65.5523 43 65 43L65 45ZM65 43L60 43L60 45L65 45L65 43Z" fill="#F9F9F9"/>
</g>
<g filter="url(#filter11_d)">
<path d="M51 24C51 23.4477 50.5523 23 50 23C49.4477 23 49 23.4477 49 24L51 24ZM49 24L49 29L51 29L51 24L49 24Z" fill="#F9F9F9"/>
</g>
<g filter="url(#filter12_d)">
<path d="M39 64C39 64.5523 39.4477 65 40 65C40.5523 65 41 64.5523 41 64L39 64ZM41 64L41 59L39 59L39 64L41 64Z" fill="#F9F9F9"/>
</g>
<g filter="url(#filter13_d)">
<path d="M25 38C24.4477 38 24 38.4477 24 39C24 39.5523 24.4477 40 25 40L25 38ZM25 40L30 40L30 38L25 38L25 40Z" fill="#F9F9F9"/>
</g>
<g filter="url(#filter14_d)">
<path d="M65 50C65.5523 50 66 49.5523 66 49C66 48.4477 65.5523 48 65 48L65 50ZM65 48L60 48L60 50L65 50L65 48Z" fill="#F9F9F9"/>
</g>
<defs>
<filter id="filter0_d" x="0" y="-1.52588e-05" width="89" height="89" filterUnits="userSpaceOnUse" color-interpolation-filters="sRGB">
<feFlood flood-opacity="0" result="BackgroundImageFix"/>
<feColorMatrix in="SourceAlpha" type="matrix" values="0 0 0 0 0 0 0 0 0 0 0 0 0 0 0 0 0 0 127 0"/>
<feOffset/>
<feGaussianBlur stdDeviation="2"/>
<feColorMatrix type="matrix" values="0 0 0 0 1 0 0 0 0 1 0 0 0 0 1 0 0 0 0.6 0"/>
<feBlend mode="normal" in2="BackgroundImageFix" result="effect1_dropShadow"/>
<feBlend mode="normal" in="SourceGraphic" in2="effect1_dropShadow" result="shape"/>
</filter>
<filter id="filter1_d" x="28.1943" y="27.1944" width="33.8056" height="33.8056" filterUnits="userSpaceOnUse" color-interpolation-filters="sRGB">
<feFlood flood-opacity="0" result="BackgroundImageFix"/>
<feColorMatrix in="SourceAlpha" type="matrix" values="0 0 0 0 0 0 0 0 0 0 0 0 0 0 0 0 0 0 127 0"/>
<feOffset/>
<feGaussianBlur stdDeviation="2"/>
<feColorMatrix type="matrix" values="0 0 0 0 1 0 0 0 0 1 0 0 0 0 1 0 0 0 0.6 0"/>
<feBlend mode="normal" in2="BackgroundImageFix" result="effect1_dropShadow"/>
<feBlend mode="normal" in="SourceGraphic" in2="effect1_dropShadow" result="shape"/>
</filter>
<filter id="filter2_d" x="34.5073" y="35.96" width="21.7829" height="16.16" filterUnits="userSpaceOnUse" color-interpolation-filters="sRGB">
<feFlood flood-opacity="0" result="BackgroundImageFix"/>
<feColorMatrix in="SourceAlpha" type="matrix" values="0 0 0 0 0 0 0 0 0 0 0 0 0 0 0 0 0 0 127 0"/>
<feOffset/>
<feGaussianBlur stdDeviation="2"/>
<feColorMatrix type="matrix" values="0 0 0 0 1 0 0 0 0 1 0 0 0 0 1 0 0 0 0.6 0"/>
<feBlend mode="normal" in2="BackgroundImageFix" result="effect1_dropShadow"/>
<feBlend mode="normal" in="SourceGraphic" in2="effect1_dropShadow" result="shape"/>
</filter>
<filter id="filter3_d" x="35" y="19" width="10" height="14" filterUnits="userSpaceOnUse" color-interpolation-filters="sRGB">
<feFlood flood-opacity="0" result="BackgroundImageFix"/>
<feColorMatrix in="SourceAlpha" type="matrix" values="0 0 0 0 0 0 0 0 0 0 0 0 0 0 0 0 0 0 127 0"/>
<feOffset/>
<feGaussianBlur stdDeviation="2"/>
<feColorMatrix type="matrix" values="0 0 0 0 1 0 0 0 0 1 0 0 0 0 1 0 0 0 0.6 0"/>
<feBlend mode="normal" in2="BackgroundImageFix" result="effect1_dropShadow"/>
<feBlend mode="normal" in="SourceGraphic" in2="effect1_dropShadow" result="shape"/>
</filter>
<filter id="filter4_d" x="45" y="55" width="10" height="14" filterUnits="userSpaceOnUse" color-interpolation-filters="sRGB">
<feFlood flood-opacity="0" result="BackgroundImageFix"/>
<feColorMatrix in="SourceAlpha" type="matrix" values="0 0 0 0 0 0 0 0 0 0 0 0 0 0 0 0 0 0 127 0"/>
<feOffset/>
<feGaussianBlur stdDeviation="2"/>
<feColorMatrix type="matrix" values="0 0 0 0 1 0 0 0 0 1 0 0 0 0 1 0 0 0 0.6 0"/>
<feBlend mode="normal" in2="BackgroundImageFix" result="effect1_dropShadow"/>
<feBlend mode="normal" in="SourceGraphic" in2="effect1_dropShadow" result="shape"/>
</filter>
<filter id="filter5_d" x="20" y="44" width="14" height="10" filterUnits="userSpaceOnUse" color-interpolation-filters="sRGB">
<feFlood flood-opacity="0" result="BackgroundImageFix"/>
<feColorMatrix in="SourceAlpha" type="matrix" values="0 0 0 0 0 0 0 0 0 0 0 0 0 0 0 0 0 0 127 0"/>
<feOffset/>
<feGaussianBlur stdDeviation="2"/>
<feColorMatrix type="matrix" values="0 0 0 0 1 0 0 0 0 1 0 0 0 0 1 0 0 0 0.6 0"/>
<feBlend mode="normal" in2="BackgroundImageFix" result="effect1_dropShadow"/>
<feBlend mode="normal" in="SourceGraphic" in2="effect1_dropShadow" result="shape"/>
</filter>
<filter id="filter6_d" x="56" y="34" width="14" height="10" filterUnits="userSpaceOnUse" color-interpolation-filters="sRGB">
<feFlood flood-opacity="0" result="BackgroundImageFix"/>
<feColorMatrix in="SourceAlpha" type="matrix" values="0 0 0 0 0 0 0 0 0 0 0 0 0 0 0 0 0 0 127 0"/>
<feOffset/>
<feGaussianBlur stdDeviation="2"/>
<feColorMatrix type="matrix" values="0 0 0 0 1 0 0 0 0 1 0 0 0 0 1 0 0 0 0.6 0"/>
<feBlend mode="normal" in2="BackgroundImageFix" result="effect1_dropShadow"/>
<feBlend mode="normal" in="SourceGraphic" in2="effect1_dropShadow" result="shape"/>
</filter>
<filter id="filter7_d" x="40" y="19" width="10" height="14" filterUnits="userSpaceOnUse" color-interpolation-filters="sRGB">
<feFlood flood-opacity="0" result="BackgroundImageFix"/>
<feColorMatrix in="SourceAlpha" type="matrix" values="0 0 0 0 0 0 0 0 0 0 0 0 0 0 0 0 0 0 127 0"/>
<feOffset/>
<feGaussianBlur stdDeviation="2"/>
<feColorMatrix type="matrix" values="0 0 0 0 1 0 0 0 0 1 0 0 0 0 1 0 0 0 0.6 0"/>
<feBlend mode="normal" in2="BackgroundImageFix" result="effect1_dropShadow"/>
<feBlend mode="normal" in="SourceGraphic" in2="effect1_dropShadow" result="shape"/>
</filter>
<filter id="filter8_d" x="40" y="55" width="10" height="14" filterUnits="userSpaceOnUse" color-interpolation-filters="sRGB">
<feFlood flood-opacity="0" result="BackgroundImageFix"/>
<feColorMatrix in="SourceAlpha" type="matrix" values="0 0 0 0 0 0 0 0 0 0 0 0 0 0 0 0 0 0 127 0"/>
<feOffset/>
<feGaussianBlur stdDeviation="2"/>
<feColorMatrix type="matrix" values="0 0 0 0 1 0 0 0 0 1 0 0 0 0 1 0 0 0 0.6 0"/>
<feBlend mode="normal" in2="BackgroundImageFix" result="effect1_dropShadow"/>
<feBlend mode="normal" in="SourceGraphic" in2="effect1_dropShadow" result="shape"/>
</filter>
<filter id="filter9_d" x="20" y="39" width="14" height="10" filterUnits="userSpaceOnUse" color-interpolation-filters="sRGB">
<feFlood flood-opacity="0" result="BackgroundImageFix"/>
<feColorMatrix in="SourceAlpha" type="matrix" values="0 0 0 0 0 0 0 0 0 0 0 0 0 0 0 0 0 0 127 0"/>
<feOffset/>
<feGaussianBlur stdDeviation="2"/>
<feColorMatrix type="matrix" values="0 0 0 0 1 0 0 0 0 1 0 0 0 0 1 0 0 0 0.6 0"/>
<feBlend mode="normal" in2="BackgroundImageFix" result="effect1_dropShadow"/>
<feBlend mode="normal" in="SourceGraphic" in2="effect1_dropShadow" result="shape"/>
</filter>
<filter id="filter10_d" x="56" y="39" width="14" height="10" filterUnits="userSpaceOnUse" color-interpolation-filters="sRGB">
<feFlood flood-opacity="0" result="BackgroundImageFix"/>
<feColorMatrix in="SourceAlpha" type="matrix" values="0 0 0 0 0 0 0 0 0 0 0 0 0 0 0 0 0 0 127 0"/>
<feOffset/>
<feGaussianBlur stdDeviation="2"/>
<feColorMatrix type="matrix" values="0 0 0 0 1 0 0 0 0 1 0 0 0 0 1 0 0 0 0.6 0"/>
<feBlend mode="normal" in2="BackgroundImageFix" result="effect1_dropShadow"/>
<feBlend mode="normal" in="SourceGraphic" in2="effect1_dropShadow" result="shape"/>
</filter>
<filter id="filter11_d" x="45" y="19" width="10" height="14" filterUnits="userSpaceOnUse" color-interpolation-filters="sRGB">
<feFlood flood-opacity="0" result="BackgroundImageFix"/>
<feColorMatrix in="SourceAlpha" type="matrix" values="0 0 0 0 0 0 0 0 0 0 0 0 0 0 0 0 0 0 127 0"/>
<feOffset/>
<feGaussianBlur stdDeviation="2"/>
<feColorMatrix type="matrix" values="0 0 0 0 1 0 0 0 0 1 0 0 0 0 1 0 0 0 0.6 0"/>
<feBlend mode="normal" in2="BackgroundImageFix" result="effect1_dropShadow"/>
<feBlend mode="normal" in="SourceGraphic" in2="effect1_dropShadow" result="shape"/>
</filter>
<filter id="filter12_d" x="35" y="55" width="10" height="14" filterUnits="userSpaceOnUse" color-interpolation-filters="sRGB">
<feFlood flood-opacity="0" result="BackgroundImageFix"/>
<feColorMatrix in="SourceAlpha" type="matrix" values="0 0 0 0 0 0 0 0 0 0 0 0 0 0 0 0 0 0 127 0"/>
<feOffset/>
<feGaussianBlur stdDeviation="2"/>
<feColorMatrix type="matrix" values="0 0 0 0 1 0 0 0 0 1 0 0 0 0 1 0 0 0 0.6 0"/>
<feBlend mode="normal" in2="BackgroundImageFix" result="effect1_dropShadow"/>
<feBlend mode="normal" in="SourceGraphic" in2="effect1_dropShadow" result="shape"/>
</filter>
<filter id="filter13_d" x="20" y="34" width="14" height="10" filterUnits="userSpaceOnUse" color-interpolation-filters="sRGB">
<feFlood flood-opacity="0" result="BackgroundImageFix"/>
<feColorMatrix in="SourceAlpha" type="matrix" values="0 0 0 0 0 0 0 0 0 0 0 0 0 0 0 0 0 0 127 0"/>
<feOffset/>
<feGaussianBlur stdDeviation="2"/>
<feColorMatrix type="matrix" values="0 0 0 0 1 0 0 0 0 1 0 0 0 0 1 0 0 0 0.6 0"/>
<feBlend mode="normal" in2="BackgroundImageFix" result="effect1_dropShadow"/>
<feBlend mode="normal" in="SourceGraphic" in2="effect1_dropShadow" result="shape"/>
</filter>
<filter id="filter14_d" x="56" y="44" width="14" height="10" filterUnits="userSpaceOnUse" color-interpolation-filters="sRGB">
<feFlood flood-opacity="0" result="BackgroundImageFix"/>
<feColorMatrix in="SourceAlpha" type="matrix" values="0 0 0 0 0 0 0 0 0 0 0 0 0 0 0 0 0 0 127 0"/>
<feOffset/>
<feGaussianBlur stdDeviation="2"/>
<feColorMatrix type="matrix" values="0 0 0 0 1 0 0 0 0 1 0 0 0 0 1 0 0 0 0.6 0"/>
<feBlend mode="normal" in2="BackgroundImageFix" result="effect1_dropShadow"/>
<feBlend mode="normal" in="SourceGraphic" in2="effect1_dropShadow" result="shape"/>
</filter>
<linearGradient id="paint0_linear" x1="44.5" y1="3.99998" x2="44.5" y2="85" gradientUnits="userSpaceOnUse">
<stop stop-color="white"/>
<stop offset="1" stop-color="#F7F7F7"/>
</linearGradient>
</defs>
</svg>
