<svg width="680" height="689" viewBox="0 0 680 689" fill="none" xmlns="http://www.w3.org/2000/svg">
<mask id="mask0" mask-type="alpha" maskUnits="userSpaceOnUse" x="0" y="17" width="680" height="672">
<rect width="679.94" height="671.156" transform="matrix(-1 0 0 1 679.94 17.8254)" fill="#C4C4C4"/>
</mask>
<g mask="url(#mask0)">
<g filter="url(#filter0_i)">
<path d="M18.3051 381.755C18.3051 527.466 222.873 645.588 475.221 645.588C727.569 645.588 932.138 527.466 932.138 381.755C932.138 236.044 942.61 30.437 690.262 30.437C442.542 69.3685 18.3051 139.555 18.3051 381.755Z" fill="url(#paint0_linear)"/>
</g>
</g>
<g opacity="0.14" filter="url(#filter1_d)">
<path d="M304.64 566.269L305.207 563.323L303.332 562.962L302.211 564.508L304.64 566.269ZM330.308 571.212L329.741 574.158L331.1 574.419L332.181 573.555L330.308 571.212ZM361.923 545.932L327.676 551.14L349.309 578.195L361.923 545.932ZM289.517 587.123L290.221 590.039L291.296 589.78L291.946 588.884L289.517 587.123ZM258.778 615.243L285.275 592.929L252.702 581.138L258.778 615.243ZM266.989 592.558L266.285 589.642L264.717 590.02L264.168 591.537L266.989 592.558ZM304.072 569.215L329.741 574.158L330.875 568.266L305.207 563.323L304.072 569.215ZM332.181 573.555L342.709 565.137L338.962 560.451L328.434 568.869L332.181 573.555ZM291.946 588.884L307.068 568.031L302.211 564.508L287.088 585.361L291.946 588.884ZM267.693 595.474L290.221 590.039L288.813 584.206L266.285 589.642L267.693 595.474Z" fill="url(#paint1_linear)"/>
</g>
<g opacity="0.17" filter="url(#filter2_d)">
<rect x="164" y="244.982" width="14.25" height="48.0938" fill="url(#paint2_linear)"/>
<rect x="185.375" y="234.295" width="14.25" height="58.7812" fill="url(#paint3_linear)"/>
<rect x="206.75" y="221.826" width="14.25" height="71.25" fill="url(#paint4_linear)"/>
</g>
<g opacity="0.13" filter="url(#filter3_d)">
<path d="M541.125 140.22H576.489V221.945H619.579V140.22H653L598.356 93.8259L541.125 140.22Z" fill="url(#paint5_linear)"/>
</g>
<g filter="url(#filter4_dd)">
<path d="M273.086 442.454L598.74 450.331C601.946 450.416 605.139 449.869 608.133 448.721C611.128 447.573 613.866 445.846 616.191 443.639C618.516 441.433 620.383 438.79 621.683 435.862C622.983 432.934 623.692 429.779 623.769 426.577L628.38 233.992C628.448 231.449 628.115 228.91 627.391 226.471C625.92 221.543 622.925 217.207 618.834 214.084C614.743 210.961 609.767 209.211 604.619 209.085L278.883 201.212C272.42 201.061 266.161 203.478 261.481 207.931C256.801 212.384 254.082 218.509 253.922 224.962L251.306 335.597L249.732 399.964L249.311 417.533C249.16 423.984 251.579 430.23 256.036 434.903C260.493 439.575 266.625 442.29 273.086 442.454Z" fill="url(#paint6_linear)"/>
<path d="M584.919 438.373L584.918 438.373L579.964 438.254C579.688 438.248 579.459 438.466 579.453 438.742L570.545 438.529C570.552 438.253 570.333 438.024 570.057 438.017L560.15 437.78C559.874 437.774 559.645 437.992 559.638 438.268L550.731 438.055C550.737 437.779 550.519 437.55 550.243 437.543L540.336 437.306C540.06 437.3 539.83 437.518 539.824 437.794L530.916 437.581C530.923 437.305 530.704 437.076 530.428 437.069L520.521 436.832C520.245 436.826 520.016 437.044 520.009 437.32L511.102 437.107C511.109 436.831 510.89 436.602 510.614 436.595L500.707 436.358C500.431 436.352 500.202 436.57 500.195 436.846L491.288 436.633C491.294 436.357 491.076 436.128 490.8 436.121L480.893 435.884C480.616 435.878 480.387 436.096 480.381 436.372L471.473 436.159C471.48 435.883 471.261 435.654 470.985 435.647L461.078 435.41C460.802 435.404 460.573 435.622 460.566 435.898L451.659 435.685C451.666 435.409 451.447 435.18 451.171 435.173L441.264 434.936C440.988 434.93 440.759 435.148 440.752 435.424L431.845 435.211C431.851 434.935 431.633 434.706 431.357 434.699L421.449 434.462C421.173 434.456 420.944 434.674 420.938 434.95L412.03 434.737C412.037 434.461 411.818 434.232 411.542 434.225L401.635 433.988C401.359 433.981 401.13 434.2 401.123 434.476L392.216 434.263C392.222 433.987 392.004 433.758 391.728 433.751L381.821 433.514C381.545 433.507 381.316 433.726 381.309 434.002L372.402 433.789C372.408 433.513 372.19 433.284 371.914 433.277L362.006 433.04C361.73 433.033 361.501 433.252 361.495 433.528L352.587 433.315C352.594 433.039 352.375 432.81 352.099 432.803L342.192 432.566C341.916 432.559 341.687 432.778 341.68 433.054L332.773 432.841C332.779 432.565 332.561 432.336 332.285 432.329L322.378 432.092C322.102 432.085 321.873 432.304 321.866 432.58L312.959 432.367C312.965 432.091 312.747 431.862 312.471 431.855L302.563 431.618C302.287 431.611 302.058 431.83 302.052 432.106L293.144 431.893C293.151 431.617 292.932 431.388 292.656 431.381L287.703 431.263C286.27 431.227 284.855 431.051 283.477 430.743C283.21 430.683 282.944 430.85 282.882 431.116C280.375 430.496 277.994 429.447 275.849 428.016C276.004 427.79 275.948 427.481 275.723 427.324C274.566 426.514 273.482 425.587 272.492 424.553C271.504 423.521 270.628 422.402 269.872 421.216C269.724 420.985 269.418 420.915 269.186 421.06C267.853 418.86 266.914 416.445 266.413 413.924C266.682 413.874 266.861 413.616 266.813 413.346C266.57 411.96 266.462 410.544 266.496 409.117L266.592 405.123C266.599 404.847 266.381 404.617 266.105 404.611L266.274 397.622C266.55 397.629 266.779 397.41 266.786 397.134L266.883 393.14L267.003 388.263C267.01 387.987 266.792 387.757 266.516 387.751L266.732 378.995C267.009 379.002 267.238 378.784 267.245 378.507L267.486 368.752C267.493 368.476 267.275 368.247 266.998 368.24L267.215 359.484C267.491 359.491 267.72 359.273 267.727 358.997L267.968 349.241C267.975 348.965 267.757 348.736 267.481 348.729L267.697 339.973C267.973 339.98 268.203 339.762 268.21 339.486L268.33 334.608L268.33 334.608L268.451 329.578C268.457 329.302 268.239 329.072 267.963 329.066L268.179 320.005C268.455 320.011 268.684 319.793 268.691 319.517L268.932 309.456C268.938 309.18 268.72 308.951 268.444 308.944L268.66 299.883C268.936 299.89 269.166 299.672 269.172 299.396L269.413 289.335C269.419 289.059 269.201 288.83 268.925 288.823L269.141 279.762C269.417 279.769 269.647 279.55 269.653 279.274L269.894 269.213C269.9 268.937 269.682 268.708 269.406 268.702L269.622 259.641C269.899 259.647 270.128 259.429 270.134 259.153L270.375 249.092C270.381 248.816 270.163 248.587 269.887 248.58L270.104 239.519C270.38 239.526 270.609 239.307 270.615 239.031L270.736 234.002L270.736 234.001M584.919 438.373L293.009 212.888C291.575 212.855 290.153 212.963 288.76 213.205C288.49 213.252 288.233 213.072 288.183 212.803C285.647 213.302 283.218 214.237 281.004 215.564C281.147 215.797 281.077 216.103 280.845 216.249C279.649 217.004 278.521 217.877 277.481 218.864C276.443 219.847 275.514 220.923 274.7 222.072C274.542 222.296 274.233 222.35 274.008 222.194C272.568 224.329 271.512 226.698 270.888 229.192M584.919 438.373C585.634 438.392 586.347 438.375 587.057 438.324C587.331 438.305 587.569 438.509 587.591 438.782C588.713 438.676 589.824 438.486 590.917 438.214C590.847 437.949 591.004 437.677 591.268 437.605C591.955 437.417 592.634 437.195 593.301 436.94C593.968 436.685 594.62 436.398 595.257 436.081C595.502 435.958 595.8 436.056 595.925 436.3C596.92 435.775 597.873 435.176 598.777 434.508C598.612 434.29 598.652 433.979 598.869 433.811C599.431 433.375 599.973 432.912 600.491 432.421C601.009 431.932 601.501 431.418 601.966 430.883C602.146 430.676 602.459 430.652 602.667 430.829C603.384 429.966 604.033 429.05 604.61 428.088C604.374 427.95 604.293 427.648 604.429 427.409C604.78 426.793 605.102 426.158 605.392 425.508C605.681 424.858 605.938 424.196 606.161 423.524C606.248 423.264 606.527 423.122 606.788 423.206C607.117 422.135 607.364 421.042 607.526 419.935C607.255 419.898 607.063 419.65 607.097 419.378C607.184 418.675 607.237 417.967 607.254 417.256L607.372 412.391C607.378 412.115 607.608 411.897 607.884 411.904L608.095 403.174C607.819 403.167 607.6 402.938 607.607 402.662L607.843 392.933C607.849 392.657 608.079 392.438 608.355 392.445L608.566 383.715C608.29 383.709 608.072 383.479 608.078 383.203L608.314 373.474C608.32 373.198 608.55 372.98 608.826 372.986L609.037 364.257C608.761 364.25 608.543 364.021 608.549 363.745L608.785 354.015C608.791 353.739 609.021 353.521 609.297 353.528L609.508 344.798C609.232 344.791 609.014 344.562 609.02 344.286L609.256 334.557C609.263 334.281 609.492 334.062 609.768 334.069L609.979 325.339C609.703 325.333 609.485 325.103 609.491 324.827L609.727 315.098C609.734 314.822 609.963 314.604 610.239 314.61L610.45 305.881C610.174 305.874 609.956 305.645 609.962 305.369L610.198 295.639C610.205 295.363 610.434 295.145 610.71 295.152L610.921 286.422C610.645 286.415 610.427 286.186 610.433 285.91L610.669 276.181C610.676 275.904 610.905 275.686 611.181 275.693L611.392 266.963C611.116 266.957 610.898 266.727 610.905 266.451L611.14 256.722C611.147 256.446 611.376 256.227 611.652 256.234L611.863 247.505C611.587 247.498 611.369 247.269 611.376 246.993L611.493 242.128L611.493 242.126C611.509 241.562 611.502 240.997 611.472 240.435C611.458 240.161 611.667 239.927 611.94 239.91C611.879 239.091 611.771 238.276 611.618 237.468M584.919 438.373L611.618 237.468M270.736 234.001L270.236 233.989C270.272 232.527 270.454 231.084 270.772 229.679C270.809 229.516 270.847 229.354 270.888 229.192M270.736 234.001C270.772 232.573 270.949 231.163 271.26 229.789C271.32 229.521 271.154 229.256 270.888 229.192M270.736 234.001L270.888 229.192M611.618 237.468C611.35 237.522 611.088 237.351 611.031 237.082C610.913 236.532 610.774 235.985 610.613 235.444L611.618 237.468ZM297.964 213.006L293.009 212.888L610.613 235.443C610.286 234.351 609.874 233.291 609.384 232.273C609.265 232.026 609.367 231.729 609.612 231.608C608.708 229.835 607.568 228.191 606.222 226.72C606.022 226.907 605.709 226.899 605.519 226.701C604.738 225.885 603.89 225.127 602.982 224.436C602.071 223.744 601.112 223.127 600.113 222.59C599.871 222.46 599.78 222.16 599.907 221.918C598.127 221.012 596.232 220.348 594.274 219.946C594.222 220.214 593.963 220.392 593.693 220.342C592.578 220.139 591.443 220.022 590.299 219.994L585.345 219.876C585.069 219.869 584.85 219.64 584.857 219.364L575.947 219.151C575.94 219.427 575.711 219.645 575.435 219.639L565.525 219.402C565.249 219.395 565.031 219.166 565.037 218.89L556.127 218.677C556.121 218.953 555.892 219.171 555.616 219.165L545.706 218.928C545.43 218.921 545.211 218.692 545.218 218.416L536.308 218.203C536.301 218.479 536.072 218.698 535.796 218.691L525.887 218.454C525.61 218.448 525.392 218.218 525.399 217.942L516.489 217.729C516.482 218.006 516.253 218.224 515.977 218.217L506.067 217.98C505.791 217.974 505.573 217.745 505.579 217.469L496.669 217.256C496.663 217.532 496.434 217.75 496.157 217.744L486.248 217.507C485.972 217.5 485.753 217.271 485.76 216.995L476.85 216.782C476.843 217.058 476.614 217.276 476.338 217.27L466.428 217.033C466.152 217.026 465.934 216.797 465.94 216.521L457.03 216.308C457.024 216.584 456.795 216.803 456.519 216.796L446.609 216.559C446.333 216.553 446.114 216.323 446.121 216.047L437.211 215.834C437.205 216.11 436.975 216.329 436.699 216.322L426.79 216.085C426.514 216.079 426.295 215.85 426.302 215.574L417.392 215.361C417.385 215.637 417.156 215.855 416.88 215.849L406.97 215.612C406.694 215.605 406.476 215.376 406.482 215.1L397.572 214.887C397.566 215.163 397.337 215.381 397.061 215.375L387.151 215.138C386.875 215.131 386.656 214.902 386.663 214.626L377.753 214.413C377.746 214.689 377.517 214.908 377.241 214.901L367.332 214.664C367.055 214.658 366.837 214.428 366.844 214.152L357.934 213.939C357.927 214.215 357.698 214.434 357.422 214.427L347.512 214.19C347.236 214.184 347.018 213.955 347.024 213.679L338.114 213.466C338.108 213.742 337.879 213.96 337.603 213.954L327.693 213.717C327.417 213.71 327.198 213.481 327.205 213.205L318.295 212.992C318.288 213.268 318.059 213.486 317.783 213.48L307.873 213.243C307.597 213.236 307.379 213.007 307.385 212.731L298.475 212.518C298.469 212.794 298.24 213.013 297.964 213.006Z" stroke="#3A3A3A" stroke-linecap="round" stroke-dasharray="10 10"/>
<path d="M267.185 203.875C270.81 202.008 274.846 201.082 278.923 201.182L604.659 209.055C609.808 209.181 614.784 210.931 618.874 214.055C622.965 217.178 625.96 221.514 627.431 226.441C626.667 221.127 624.164 216.213 620.313 212.466C616.462 208.718 611.478 206.347 606.137 205.721L296.038 168.387C292.857 168.001 289.632 168.245 286.547 169.105C283.461 169.965 280.576 171.424 278.055 173.398C275.535 175.372 273.429 177.823 271.858 180.61C270.287 183.398 269.282 186.467 268.901 189.642L267.185 203.875Z" fill="url(#paint7_linear)"/>
<path d="M249.705 399.965L251.307 335.597L245.559 383.156C244.822 389.077 246.299 395.062 249.705 399.965Z" fill="#670733"/>
<path d="M257.046 273.931L330.623 275.712C349.492 276.169 364.418 291.811 363.96 310.649L363.314 337.256C362.856 356.095 347.189 370.996 328.319 370.539L254.743 368.758C235.873 368.301 220.948 352.659 221.405 333.821L222.051 307.214C222.509 288.375 238.176 273.474 257.046 273.931Z" fill="url(#paint8_linear)"/>
<path d="M254.791 338.345C246.056 338.772 238.629 332.048 238.201 323.327C237.774 314.607 244.509 307.191 253.244 306.764C261.979 306.338 269.406 313.062 269.834 321.782C270.261 330.503 263.526 337.918 254.791 338.345Z" fill="#D23E50"/>
<path d="M262.619 281.485L324.69 282.987C340.608 283.373 353.2 296.569 352.814 312.461L352.269 334.907C351.883 350.8 338.665 363.371 322.746 362.986L260.676 361.483" stroke="#3A3A3A" stroke-width="0.5" stroke-linecap="round" stroke-dasharray="10 10"/>
</g>
<path d="M346.852 473.844C340.889 474.214 337.165 473.844 331.347 475.26C326.017 476.579 320.971 478.852 316.452 481.967C315.564 482.575 314.504 482.885 313.427 482.851C312.35 482.818 311.312 482.444 310.463 481.782C306.982 479.06 303.12 476.862 299 475.26C294.651 473.652 290.185 472.378 285.642 471.449C282.051 466.157 279.241 459.741 275.637 450.135C272.682 442.303 264.625 437.064 266.652 433.994C266.917 433.584 267.818 432.486 273.835 432.195C279.703 432.006 285.446 433.916 290.028 437.58C297.211 442.965 295.647 447.767 304.406 453.721C309.363 457.094 313.245 462.122 318.785 464.49C325.252 467.269 336.502 469.571 346.852 473.844Z" fill="url(#paint9_linear)"/>
<g filter="url(#filter5_dd)">
<path d="M380.285 439.38C417.391 439.38 447.432 446.326 447.432 454.886C447.432 457.823 443.907 460.562 437.812 462.89C426.057 467.388 404.682 470.405 380.285 470.405C355.889 470.405 334.514 467.388 322.746 462.89C316.65 460.562 313.125 457.823 313.125 454.886C313.125 446.326 343.194 439.38 380.285 439.38ZM333.029 459.887C344.426 462.03 361.362 463.393 380.285 463.393C399.209 463.393 416.145 462.07 427.541 459.887C436.818 458.127 442.423 455.918 442.423 453.391C442.423 447.86 414.594 443.389 380.285 443.389C345.976 443.389 318.148 447.86 318.148 453.391C318.148 455.865 323.74 458.127 333.029 459.887Z" fill="#FFD983"/>
<path d="M313.126 454.885V470.894C313.126 479.467 343.194 486.413 380.286 486.413C417.378 486.413 447.433 479.467 447.433 470.894V454.885C447.433 457.822 443.908 460.561 437.812 462.89C426.058 467.388 404.683 470.404 380.286 470.404C355.889 470.404 334.514 467.388 322.747 462.89C316.651 460.561 313.126 457.822 313.126 454.885Z" fill="#EAB447"/>
<path d="M318.148 453.39C318.148 455.864 323.74 458.127 333.03 459.886C344.426 462.03 361.362 463.392 380.286 463.392C399.209 463.392 416.145 462.069 427.542 459.886C436.818 458.127 442.424 455.917 442.424 453.39C442.424 447.86 414.595 443.388 380.286 443.388C345.977 443.388 318.148 447.86 318.148 453.39Z" fill="url(#paint10_linear)"/>
</g>
<g filter="url(#filter6_dd)">
<path d="M393.073 416.16C430.178 416.16 460.22 423.093 460.22 431.666C460.22 434.59 456.708 437.342 450.599 439.671C438.845 444.169 417.47 447.172 393.073 447.172C368.676 447.172 347.301 444.169 335.547 439.671C329.438 437.342 325.926 434.59 325.926 431.666C325.926 423.093 355.994 416.16 393.073 416.16ZM345.817 436.654C357.214 438.811 374.149 440.173 393.073 440.173C411.997 440.173 428.932 438.85 440.329 436.654C449.605 434.908 455.211 432.685 455.211 430.158C455.211 424.641 427.382 420.156 393.073 420.156C358.764 420.156 330.935 424.641 330.935 430.158C330.935 432.645 336.541 434.908 345.817 436.654Z" fill="#FFD983"/>
<path d="M325.927 431.666V447.675C325.927 456.235 355.995 463.181 393.074 463.181C430.152 463.181 460.22 456.235 460.22 447.675V431.666C460.22 434.59 456.709 437.342 450.6 439.671C438.845 444.169 417.47 447.172 393.074 447.172C368.677 447.172 347.302 444.169 335.547 439.671C329.438 437.342 325.927 434.55 325.927 431.666Z" fill="#EAB447"/>
<path d="M330.936 430.158C330.936 432.645 336.541 434.908 345.817 436.654C357.214 438.811 374.15 440.173 393.073 440.173C411.997 440.173 428.933 438.85 440.329 436.654C449.606 434.908 455.211 432.685 455.211 430.158C455.211 424.641 427.382 420.156 393.073 420.156C358.764 420.156 330.936 424.641 330.936 430.158Z" fill="url(#paint11_linear)"/>
</g>
<g filter="url(#filter7_dd)">
<path d="M384.938 390.612C422.043 390.612 452.084 397.558 452.084 406.118C452.084 409.055 448.573 411.794 442.464 414.122C430.709 418.621 409.334 421.624 384.938 421.624C360.541 421.624 339.166 418.621 327.411 414.122C321.302 411.794 317.791 409.055 317.791 406.118C317.791 397.505 347.846 390.612 384.938 390.612ZM337.735 411.106C349.131 413.262 366.067 414.625 384.991 414.625C403.914 414.625 420.85 413.302 432.247 411.106C441.523 409.36 447.128 407.137 447.128 404.623C447.128 399.093 419.299 394.608 384.991 394.608C350.682 394.608 322.853 399.093 322.853 404.623C322.8 407.097 328.392 409.412 337.735 411.106Z" fill="#FFD983"/>
<path d="M317.791 406.119V422.127C317.791 430.687 347.846 437.633 384.938 437.633C422.029 437.633 452.084 430.687 452.084 422.127V406.119C452.084 409.056 448.573 411.794 442.464 414.123C430.709 418.621 409.334 421.624 384.938 421.624C360.541 421.624 339.166 418.621 327.411 414.123C321.302 411.794 317.791 409.056 317.791 406.119Z" fill="#EAB447"/>
<path d="M322.8 404.623C322.8 407.098 328.392 409.36 337.681 411.106C349.078 413.263 366.014 414.626 384.937 414.626C403.861 414.626 420.797 413.303 432.193 411.106C441.47 409.36 447.075 407.137 447.075 404.623C447.075 399.093 419.246 394.608 384.937 394.608C350.628 394.608 322.8 399.093 322.8 404.623Z" fill="url(#paint12_linear)"/>
</g>
<g filter="url(#filter8_dd)">
<path d="M380.285 366.229C417.391 366.229 447.432 373.162 447.432 381.735C447.432 384.659 443.907 387.411 437.812 389.673C426.057 394.159 404.682 397.175 380.285 397.175C355.889 397.175 334.514 394.159 322.746 389.673C316.65 387.345 313.125 384.593 313.125 381.735C313.125 373.162 343.194 366.229 380.285 366.229ZM333.029 386.723C344.426 388.88 361.362 390.242 380.285 390.242C399.209 390.242 416.145 388.919 427.541 386.723C436.818 384.977 442.423 382.754 442.423 380.227C442.423 374.71 414.594 370.225 380.285 370.225C345.976 370.225 318.148 374.71 318.148 380.227C318.148 382.714 323.74 384.977 333.029 386.723Z" fill="#FFD983"/>
<path d="M313.126 381.735V397.744C313.126 406.304 343.194 413.25 380.286 413.25C417.378 413.25 447.433 406.304 447.433 397.744V381.735C447.433 384.659 443.908 387.411 437.812 389.673C426.058 394.159 404.683 397.175 380.286 397.175C355.889 397.175 334.514 394.159 322.747 389.673C316.651 387.411 313.126 384.659 313.126 381.735Z" fill="#EAB447"/>
<path d="M318.148 380.227C318.148 382.714 323.74 384.977 333.03 386.723C344.426 388.879 361.362 390.242 380.286 390.242C399.209 390.242 416.145 388.919 427.542 386.723C436.818 384.977 442.424 382.754 442.424 380.227C442.424 374.71 414.595 370.225 380.286 370.225C345.977 370.225 318.148 374.71 318.148 380.227Z" fill="url(#paint13_linear)"/>
</g>
<g filter="url(#filter9_dd)">
<path d="M386.103 342.997C423.208 342.997 453.25 349.943 453.25 358.503C453.25 361.44 449.725 364.178 443.629 366.441C431.875 370.939 410.5 373.956 386.103 373.956C361.706 373.956 340.318 370.939 328.564 366.441C322.468 364.112 318.943 361.374 318.943 358.503C318.943 349.943 349.011 342.997 386.103 342.997ZM338.847 363.504C350.23 365.647 367.179 367.01 386.103 367.01C405.027 367.01 421.962 365.687 433.359 363.504C442.635 361.744 448.241 359.535 448.241 357.008C448.241 351.491 420.412 347.006 386.103 347.006C351.794 347.006 323.952 351.491 323.952 357.008C323.952 359.495 329.558 361.784 338.847 363.504Z" fill="#FFD983"/>
<path d="M318.943 358.503V374.525C318.943 383.084 349.011 390.03 386.103 390.03C423.195 390.03 453.25 383.084 453.25 374.525V358.503C453.25 361.44 449.725 364.178 443.629 366.441C431.875 370.939 410.5 373.956 386.103 373.956C361.706 373.956 340.318 370.939 328.564 366.441C322.468 364.178 318.943 361.44 318.943 358.503Z" fill="#EAB447"/>
<path d="M323.952 357.008C323.952 359.495 329.557 361.744 338.847 363.504C350.23 365.647 367.179 367.01 386.103 367.01C405.027 367.01 421.962 365.687 433.359 363.504C442.635 361.744 448.241 359.535 448.241 357.008C448.241 351.491 420.412 347.006 386.103 347.006C351.794 347.006 323.952 351.491 323.952 357.008Z" fill="url(#paint14_linear)"/>
</g>
<g filter="url(#filter10_dd)">
<path d="M404.073 244.722C422.771 268.907 433.386 292.034 427.78 296.32C425.859 297.802 422.281 296.889 417.682 294.085C408.817 288.673 396.069 276.25 383.771 260.334C371.473 244.418 362.661 228.952 359.679 219.016C358.129 213.87 358.142 210.192 360.063 208.71C365.669 204.41 385.374 220.524 404.073 244.722ZM366.822 224.189C371.168 232.709 378.815 244.445 388.356 256.788C397.897 269.132 407.319 279.492 414.475 285.895C420.306 291.068 424.6 293.582 426.23 292.338C429.847 289.547 418.756 269.146 401.449 246.747C384.142 224.348 367.193 208.472 363.575 211.263C361.945 212.494 363.297 217.296 366.822 224.189Z" fill="#FFD983"/>
<path d="M360.064 208.737L349.582 216.807C343.976 221.12 354.591 244.247 373.289 268.405C391.987 292.563 411.719 308.704 417.298 304.391L427.781 296.321C425.859 297.803 422.281 296.89 417.683 294.085C408.817 288.674 396.069 276.25 383.771 260.335C371.474 244.419 362.661 228.952 359.679 219.016C358.129 213.896 358.142 210.218 360.064 208.737Z" fill="#EAB447"/>
<path d="M363.575 211.25C361.945 212.494 363.297 217.297 366.822 224.229C371.169 232.749 378.815 244.485 388.356 256.829C397.898 269.172 407.32 279.532 414.476 285.935C420.306 291.108 424.6 293.622 426.23 292.378C429.848 289.587 418.756 269.186 401.449 246.787C384.142 224.388 367.193 208.459 363.575 211.25Z" fill="url(#paint15_linear)"/>
</g>
<g filter="url(#filter11_dd)">
<path d="M428.368 148.75C440.608 128.334 454.377 114.081 459.104 116.904C460.723 117.881 461.071 120.722 460.298 124.868C458.894 132.823 453.499 145.581 445.446 159.021C437.393 172.461 428.728 183.201 422.36 188.197C419.045 190.789 416.37 191.819 414.755 190.853C410.025 188.019 416.117 169.17 428.368 148.75ZM424.088 181.549C430.641 173.78 436.509 165.46 441.625 156.681C446.95 148.035 451.519 138.946 455.281 129.516C457.372 123.822 457.974 119.997 456.61 119.175C453.602 117.335 441.89 131.186 430.548 150.083C419.206 168.981 412.503 185.777 415.562 187.626C416.953 188.415 420.043 186.05 424.088 181.549Z" fill="#FFD983"/>
<path d="M414.754 190.853L423.595 196.135C428.325 198.97 442.091 184.706 454.331 164.289C466.571 143.873 472.674 125.021 467.948 122.198L459.103 116.904C460.723 117.881 461.071 120.722 460.297 124.868C458.893 132.823 453.498 145.581 445.445 159.021C437.392 172.461 428.728 183.201 422.359 188.197C419.045 190.789 416.37 191.819 414.754 190.853Z" fill="#EAB447"/>
<path d="M415.578 187.597C416.95 188.404 420.016 186.082 424.088 181.549C430.641 173.78 436.509 165.46 441.625 156.681C446.95 148.034 451.519 138.946 455.281 129.516C457.372 123.822 457.974 119.997 456.61 119.175C453.602 117.335 441.89 131.185 430.548 150.083C419.206 168.98 412.525 185.77 415.578 187.597Z" fill="url(#paint16_linear)"/>
</g>
<g filter="url(#filter12_dd)">
<path d="M352.092 86.7908C372.498 89.5064 388.541 95.527 387.916 100.242C387.696 101.848 385.601 103.108 382.024 103.94C375.23 105.557 363.239 105.65 349.812 103.859C336.385 102.068 324.834 98.8551 318.699 95.527C315.505 93.7936 313.768 92.0603 313.988 90.4078C314.613 85.693 331.674 84.0752 352.092 86.7908ZM324.556 94.6141C332.967 97.1561 341.584 98.9618 350.31 100.011C359.026 101.28 367.837 101.791 376.642 101.536C381.874 101.247 385.126 100.38 385.311 99.0515C385.717 96.0123 370.727 91.5056 351.837 88.9864C332.948 86.4673 317.31 86.9064 316.905 89.9571C316.674 91.3207 319.59 92.9732 324.556 94.6141Z" fill="#FFD983"/>
<path d="M313.988 90.408L312.83 99.225C312.205 103.94 328.248 109.96 348.654 112.676C369.06 115.392 386.133 113.762 386.758 109.047L387.915 100.242C387.695 101.848 385.6 103.108 382.024 103.94C375.229 105.558 363.238 105.65 349.812 103.859C336.385 102.068 324.833 98.8553 318.699 95.5272C315.504 93.7938 313.768 92.0258 313.988 90.408Z" fill="#EAB447"/>
<path d="M316.858 89.957C316.673 91.3206 319.59 92.9731 324.567 94.5794C332.978 97.1213 341.595 98.927 350.321 99.9759C359.032 101.256 367.839 101.778 376.641 101.536C381.873 101.247 385.126 100.38 385.311 99.0515C385.716 96.0123 370.727 91.5055 351.837 88.9863C332.947 86.4672 317.263 86.9063 316.858 89.957Z" fill="url(#paint17_linear)"/>
</g>
<g filter="url(#filter13_dd)">
<path d="M427.043 21.6637C441.018 30.7459 450.65 40.7275 448.548 43.9581C447.826 45.0562 445.855 45.2488 442.949 44.6135C437.416 43.4339 428.614 39.3315 419.421 33.3525C410.227 27.3735 402.9 21.0072 399.575 16.44C397.843 14.0615 397.178 12.1901 397.916 11.0582C400.018 7.82762 413.059 12.5775 427.043 21.6637ZM404.176 17.8091C409.441 22.5931 415.112 26.9102 421.127 30.7115C427.058 34.6711 433.324 38.1083 439.852 40.9841C443.778 42.5922 446.459 43.0894 447.058 42.182C448.415 40.1003 439.026 31.592 426.091 23.1808C413.155 14.7696 401.567 9.6528 400.206 11.7429C399.561 12.6596 401.117 14.8824 404.176 17.8091Z" fill="#FFD983"/>
<path d="M397.915 11.058L393.993 17.1034C391.891 20.334 401.522 30.3156 415.498 39.3978C429.473 48.4799 442.527 53.2254 444.629 49.9949L448.547 43.9579C447.826 45.0561 445.855 45.2487 442.949 44.6134C437.416 43.4337 428.614 39.3313 419.42 33.3524C410.226 27.3734 402.9 21.007 399.574 16.4399C397.843 14.0614 397.19 12.1646 397.915 11.058Z" fill="#EAB447"/>
<path d="M400.172 11.7268C399.561 12.6595 401.117 14.8823 404.197 17.7878C409.461 22.5717 415.133 26.8888 421.147 30.6901C427.071 34.6561 433.33 38.1003 439.851 40.984C443.778 42.5921 446.459 43.0894 447.058 42.1819C448.415 40.1003 439.025 31.592 426.09 23.1808C413.155 14.7695 401.532 9.63664 400.172 11.7268Z" fill="url(#paint18_linear)"/>
</g>
<g filter="url(#filter14_d)">
<path d="M649.152 486.003L635.304 515.771C628.864 529.583 621.231 546.002 614.181 561.098C611.742 566.39 609.37 571.457 607.131 576.233C602.082 571.761 594.754 564.326 584.603 554.205C573.537 543.039 563.559 532.084 548.664 530.88C546.869 530.731 545.065 530.731 543.27 530.88C508.643 533.222 469.471 550.024 428.258 547.021C419.339 546.373 407.81 545.539 394.108 539.85C371.672 530.589 360.859 526.395 351.874 524.596C335.349 521.301 330.976 521.262 313.245 514.726C308.104 512.847 309.27 514.157 297.065 507.555C276.935 496.64 274.537 498.36 259.324 489.615C249.464 483.965 243.17 475.67 230.58 462.704C228.99 461.064 226.26 458.193 226.976 455.52C228.301 450.824 239.419 449.487 246.748 450.136C252.488 450.648 258.028 452.492 262.928 455.52C271.568 461.064 269.859 463.67 277.293 468.076C279.847 469.606 282.616 470.743 285.509 471.45C290.053 472.378 294.518 473.652 298.867 475.26C302.987 476.863 306.849 479.06 310.33 481.783C311.179 482.444 312.218 482.819 313.294 482.852C314.371 482.885 315.431 482.576 316.32 481.968C320.838 478.852 325.885 476.58 331.215 475.26C337.032 473.844 340.756 474.215 346.719 473.844C348.045 473.765 349.37 473.646 350.96 473.461C361.363 472.257 372.825 472.138 377.013 470.815C383.639 468.605 396.891 462.876 419.247 459.146C416.372 459.157 413.503 459.414 410.673 459.913C407.505 460.389 404.511 460.892 403.066 460.945C401.622 460.998 399.501 461.09 396.44 461.157C396.44 461.157 388.517 461.038 383.693 460.945C368.368 459.701 366.725 458.722 357.038 456.936C347.125 455.097 339.29 450.695 337.652 449.074C334.444 445.898 330.582 441.816 331.254 435.781C332.2 427.3 344.316 423.516 350.98 422.461C362.428 420.649 386.736 417.928 407.926 420.042C426.113 421.857 444.88 417.891 460.631 415.808C475.685 413.817 499.354 412.602 520.04 416.028C543.893 419.997 559.239 428.2 563.175 430.37C575.406 437.157 579.342 442.145 591.931 451.909C608.244 464.57 621.31 471.423 642.288 482.404C644.62 483.688 646.953 484.825 649.152 486.003Z" fill="url(#paint19_linear)"/>
</g>
<path d="M607.197 576.22C599.458 592.784 593.64 605.392 592.832 607.112C602.2 611.088 616.557 620.188 633.5 629.326C658 624.326 679.934 617.689 679.934 617.689V494.1L652.068 479.798L650.199 483.767C650.04 484.097 649.669 484.878 649.152 486.003L635.37 515.771C628.93 529.583 621.323 546.002 614.247 561.084C611.809 566.35 609.436 571.443 607.197 576.22Z" fill="url(#paint20_linear)"/>
<g filter="url(#filter15_dd)">
<circle r="12.5" transform="matrix(-1 0 0 1 541 615.826)" stroke="url(#paint21_linear)"/>
</g>
<g filter="url(#filter16_dd)">
<circle r="28.5" transform="matrix(-1 0 0 1 138 444.826)" stroke="url(#paint22_linear)" stroke-width="3"/>
</g>
<defs>
<filter id="filter0_i" x="18.3052" y="30.437" width="913.894" height="619.151" filterUnits="userSpaceOnUse" color-interpolation-filters="sRGB">
<feFlood flood-opacity="0" result="BackgroundImageFix"/>
<feBlend mode="normal" in="SourceGraphic" in2="BackgroundImageFix" result="shape"/>
<feColorMatrix in="SourceAlpha" type="matrix" values="0 0 0 0 0 0 0 0 0 0 0 0 0 0 0 0 0 0 127 0" result="hardAlpha"/>
<feOffset dy="4"/>
<feGaussianBlur stdDeviation="12.5"/>
<feComposite in2="hardAlpha" operator="arithmetic" k2="-1" k3="1"/>
<feColorMatrix type="matrix" values="0 0 0 0 0 0 0 0 0 0 0 0 0 0 0 0 0 0 0.25 0"/>
<feBlend mode="normal" in2="shape" result="effect1_innerShadow"/>
</filter>
<filter id="filter1_d" x="248.702" y="544.932" width="117.221" height="77.3108" filterUnits="userSpaceOnUse" color-interpolation-filters="sRGB">
<feFlood flood-opacity="0" result="BackgroundImageFix"/>
<feColorMatrix in="SourceAlpha" type="matrix" values="0 0 0 0 0 0 0 0 0 0 0 0 0 0 0 0 0 0 127 0"/>
<feOffset dy="3"/>
<feGaussianBlur stdDeviation="2"/>
<feColorMatrix type="matrix" values="0 0 0 0 0 0 0 0 0 0 0 0 0 0 0 0 0 0 0.25 0"/>
<feBlend mode="normal" in2="BackgroundImageFix" result="effect1_dropShadow"/>
<feBlend mode="normal" in="SourceGraphic" in2="effect1_dropShadow" result="shape"/>
</filter>
<filter id="filter2_d" x="160" y="220.826" width="65" height="79.25" filterUnits="userSpaceOnUse" color-interpolation-filters="sRGB">
<feFlood flood-opacity="0" result="BackgroundImageFix"/>
<feColorMatrix in="SourceAlpha" type="matrix" values="0 0 0 0 0 0 0 0 0 0 0 0 0 0 0 0 0 0 127 0"/>
<feOffset dy="3"/>
<feGaussianBlur stdDeviation="2"/>
<feColorMatrix type="matrix" values="0 0 0 0 0 0 0 0 0 0 0 0 0 0 0 0 0 0 0.25 0"/>
<feBlend mode="normal" in2="BackgroundImageFix" result="effect1_dropShadow"/>
<feBlend mode="normal" in="SourceGraphic" in2="effect1_dropShadow" result="shape"/>
</filter>
<filter id="filter3_d" x="537.125" y="92.8259" width="119.875" height="136.119" filterUnits="userSpaceOnUse" color-interpolation-filters="sRGB">
<feFlood flood-opacity="0" result="BackgroundImageFix"/>
<feColorMatrix in="SourceAlpha" type="matrix" values="0 0 0 0 0 0 0 0 0 0 0 0 0 0 0 0 0 0 127 0"/>
<feOffset dy="3"/>
<feGaussianBlur stdDeviation="2"/>
<feColorMatrix type="matrix" values="0 0 0 0 0 0 0 0 0 0 0 0 0 0 0 0 0 0 0.25 0"/>
<feBlend mode="normal" in2="BackgroundImageFix" result="effect1_dropShadow"/>
<feBlend mode="normal" in="SourceGraphic" in2="effect1_dropShadow" result="shape"/>
</filter>
<filter id="filter4_dd" x="186.395" y="133.209" width="476.994" height="352.13" filterUnits="userSpaceOnUse" color-interpolation-filters="sRGB">
<feFlood flood-opacity="0" result="BackgroundImageFix"/>
<feColorMatrix in="SourceAlpha" type="matrix" values="0 0 0 0 0 0 0 0 0 0 0 0 0 0 0 0 0 0 127 0"/>
<feOffset dy="4"/>
<feGaussianBlur stdDeviation="10"/>
<feColorMatrix type="matrix" values="0 0 0 0 0 0 0 0 0 0 0 0 0 0 0 0 0 0 0.61 0"/>
<feBlend mode="normal" in2="BackgroundImageFix" result="effect1_dropShadow"/>
<feColorMatrix in="SourceAlpha" type="matrix" values="0 0 0 0 0 0 0 0 0 0 0 0 0 0 0 0 0 0 127 0"/>
<feOffset/>
<feGaussianBlur stdDeviation="17.5"/>
<feColorMatrix type="matrix" values="0 0 0 0 1 0 0 0 0 1 0 0 0 0 1 0 0 0 0.4 0"/>
<feBlend mode="normal" in2="effect1_dropShadow" result="effect2_dropShadow"/>
<feBlend mode="normal" in="SourceGraphic" in2="effect2_dropShadow" result="shape"/>
</filter>
<filter id="filter5_dd" x="309.125" y="435.38" width="142.308" height="55.0331" filterUnits="userSpaceOnUse" color-interpolation-filters="sRGB">
<feFlood flood-opacity="0" result="BackgroundImageFix"/>
<feColorMatrix in="SourceAlpha" type="matrix" values="0 0 0 0 0 0 0 0 0 0 0 0 0 0 0 0 0 0 127 0"/>
<feOffset/>
<feGaussianBlur stdDeviation="2"/>
<feColorMatrix type="matrix" values="0 0 0 0 0.988235 0 0 0 0 0.819608 0 0 0 0 0.388235 0 0 0 0.6 0"/>
<feBlend mode="normal" in2="BackgroundImageFix" result="effect1_dropShadow"/>
<feColorMatrix in="SourceAlpha" type="matrix" values="0 0 0 0 0 0 0 0 0 0 0 0 0 0 0 0 0 0 127 0"/>
<feOffset dy="1"/>
<feGaussianBlur stdDeviation="1"/>
<feColorMatrix type="matrix" values="0 0 0 0 0 0 0 0 0 0 0 0 0 0 0 0 0 0 0.22 0"/>
<feBlend mode="normal" in2="effect1_dropShadow" result="effect2_dropShadow"/>
<feBlend mode="normal" in="SourceGraphic" in2="effect2_dropShadow" result="shape"/>
</filter>
<filter id="filter6_dd" x="321.926" y="412.16" width="142.294" height="55.0203" filterUnits="userSpaceOnUse" color-interpolation-filters="sRGB">
<feFlood flood-opacity="0" result="BackgroundImageFix"/>
<feColorMatrix in="SourceAlpha" type="matrix" values="0 0 0 0 0 0 0 0 0 0 0 0 0 0 0 0 0 0 127 0"/>
<feOffset/>
<feGaussianBlur stdDeviation="2"/>
<feColorMatrix type="matrix" values="0 0 0 0 0.988235 0 0 0 0 0.819608 0 0 0 0 0.388235 0 0 0 0.6 0"/>
<feBlend mode="normal" in2="BackgroundImageFix" result="effect1_dropShadow"/>
<feColorMatrix in="SourceAlpha" type="matrix" values="0 0 0 0 0 0 0 0 0 0 0 0 0 0 0 0 0 0 127 0"/>
<feOffset dy="1"/>
<feGaussianBlur stdDeviation="1"/>
<feColorMatrix type="matrix" values="0 0 0 0 0 0 0 0 0 0 0 0 0 0 0 0 0 0 0.22 0"/>
<feBlend mode="normal" in2="effect1_dropShadow" result="effect2_dropShadow"/>
<feBlend mode="normal" in="SourceGraphic" in2="effect2_dropShadow" result="shape"/>
</filter>
<filter id="filter7_dd" x="313.791" y="386.612" width="142.294" height="55.0207" filterUnits="userSpaceOnUse" color-interpolation-filters="sRGB">
<feFlood flood-opacity="0" result="BackgroundImageFix"/>
<feColorMatrix in="SourceAlpha" type="matrix" values="0 0 0 0 0 0 0 0 0 0 0 0 0 0 0 0 0 0 127 0"/>
<feOffset/>
<feGaussianBlur stdDeviation="2"/>
<feColorMatrix type="matrix" values="0 0 0 0 0.988235 0 0 0 0 0.819608 0 0 0 0 0.388235 0 0 0 0.6 0"/>
<feBlend mode="normal" in2="BackgroundImageFix" result="effect1_dropShadow"/>
<feColorMatrix in="SourceAlpha" type="matrix" values="0 0 0 0 0 0 0 0 0 0 0 0 0 0 0 0 0 0 127 0"/>
<feOffset dy="1"/>
<feGaussianBlur stdDeviation="1"/>
<feColorMatrix type="matrix" values="0 0 0 0 0 0 0 0 0 0 0 0 0 0 0 0 0 0 0.22 0"/>
<feBlend mode="normal" in2="effect1_dropShadow" result="effect2_dropShadow"/>
<feBlend mode="normal" in="SourceGraphic" in2="effect2_dropShadow" result="shape"/>
</filter>
<filter id="filter8_dd" x="309.125" y="362.229" width="142.308" height="55.0203" filterUnits="userSpaceOnUse" color-interpolation-filters="sRGB">
<feFlood flood-opacity="0" result="BackgroundImageFix"/>
<feColorMatrix in="SourceAlpha" type="matrix" values="0 0 0 0 0 0 0 0 0 0 0 0 0 0 0 0 0 0 127 0"/>
<feOffset/>
<feGaussianBlur stdDeviation="2"/>
<feColorMatrix type="matrix" values="0 0 0 0 0.988235 0 0 0 0 0.819608 0 0 0 0 0.388235 0 0 0 0.6 0"/>
<feBlend mode="normal" in2="BackgroundImageFix" result="effect1_dropShadow"/>
<feColorMatrix in="SourceAlpha" type="matrix" values="0 0 0 0 0 0 0 0 0 0 0 0 0 0 0 0 0 0 127 0"/>
<feOffset dy="1"/>
<feGaussianBlur stdDeviation="1"/>
<feColorMatrix type="matrix" values="0 0 0 0 0 0 0 0 0 0 0 0 0 0 0 0 0 0 0.22 0"/>
<feBlend mode="normal" in2="effect1_dropShadow" result="effect2_dropShadow"/>
<feBlend mode="normal" in="SourceGraphic" in2="effect2_dropShadow" result="shape"/>
</filter>
<filter id="filter9_dd" x="314.943" y="338.997" width="142.307" height="55.0335" filterUnits="userSpaceOnUse" color-interpolation-filters="sRGB">
<feFlood flood-opacity="0" result="BackgroundImageFix"/>
<feColorMatrix in="SourceAlpha" type="matrix" values="0 0 0 0 0 0 0 0 0 0 0 0 0 0 0 0 0 0 127 0"/>
<feOffset/>
<feGaussianBlur stdDeviation="2"/>
<feColorMatrix type="matrix" values="0 0 0 0 0.988235 0 0 0 0 0.819608 0 0 0 0 0.388235 0 0 0 0.6 0"/>
<feBlend mode="normal" in2="BackgroundImageFix" result="effect1_dropShadow"/>
<feColorMatrix in="SourceAlpha" type="matrix" values="0 0 0 0 0 0 0 0 0 0 0 0 0 0 0 0 0 0 127 0"/>
<feOffset dy="1"/>
<feGaussianBlur stdDeviation="1"/>
<feColorMatrix type="matrix" values="0 0 0 0 0 0 0 0 0 0 0 0 0 0 0 0 0 0 0.22 0"/>
<feBlend mode="normal" in2="effect1_dropShadow" result="effect2_dropShadow"/>
<feBlend mode="normal" in="SourceGraphic" in2="effect2_dropShadow" result="shape"/>
</filter>
<filter id="filter10_dd" x="338.084" y="198.015" width="101.194" height="118.073" filterUnits="userSpaceOnUse" color-interpolation-filters="sRGB">
<feFlood flood-opacity="0" result="BackgroundImageFix"/>
<feColorMatrix in="SourceAlpha" type="matrix" values="0 0 0 0 0 0 0 0 0 0 0 0 0 0 0 0 0 0 127 0"/>
<feOffset/>
<feGaussianBlur stdDeviation="5"/>
<feColorMatrix type="matrix" values="0 0 0 0 0.988235 0 0 0 0 0.819608 0 0 0 0 0.388235 0 0 0 0.5 0"/>
<feBlend mode="normal" in2="BackgroundImageFix" result="effect1_dropShadow"/>
<feColorMatrix in="SourceAlpha" type="matrix" values="0 0 0 0 0 0 0 0 0 0 0 0 0 0 0 0 0 0 127 0"/>
<feOffset dy="3"/>
<feGaussianBlur stdDeviation="4"/>
<feColorMatrix type="matrix" values="0 0 0 0 0 0 0 0 0 0 0 0 0 0 0 0 0 0 0.2 0"/>
<feBlend mode="normal" in2="effect1_dropShadow" result="effect2_dropShadow"/>
<feBlend mode="normal" in="SourceGraphic" in2="effect2_dropShadow" result="shape"/>
</filter>
<filter id="filter11_dd" x="403.152" y="106.548" width="76.3957" height="100.947" filterUnits="userSpaceOnUse" color-interpolation-filters="sRGB">
<feFlood flood-opacity="0" result="BackgroundImageFix"/>
<feColorMatrix in="SourceAlpha" type="matrix" values="0 0 0 0 0 0 0 0 0 0 0 0 0 0 0 0 0 0 127 0"/>
<feOffset/>
<feGaussianBlur stdDeviation="5"/>
<feColorMatrix type="matrix" values="0 0 0 0 0.988235 0 0 0 0 0.819608 0 0 0 0 0.388235 0 0 0 0.5 0"/>
<feBlend mode="normal" in2="BackgroundImageFix" result="effect1_dropShadow"/>
<feColorMatrix in="SourceAlpha" type="matrix" values="0 0 0 0 0 0 0 0 0 0 0 0 0 0 0 0 0 0 127 0"/>
<feOffset dy="3"/>
<feGaussianBlur stdDeviation="4"/>
<feColorMatrix type="matrix" values="0 0 0 0 0 0 0 0 0 0 0 0 0 0 0 0 0 0 0.2 0"/>
<feBlend mode="normal" in2="effect1_dropShadow" result="effect2_dropShadow"/>
<feBlend mode="normal" in="SourceGraphic" in2="effect2_dropShadow" result="shape"/>
</filter>
<filter id="filter12_dd" x="302.813" y="75.4736" width="95.1206" height="49.5166" filterUnits="userSpaceOnUse" color-interpolation-filters="sRGB">
<feFlood flood-opacity="0" result="BackgroundImageFix"/>
<feColorMatrix in="SourceAlpha" type="matrix" values="0 0 0 0 0 0 0 0 0 0 0 0 0 0 0 0 0 0 127 0"/>
<feOffset/>
<feGaussianBlur stdDeviation="5"/>
<feColorMatrix type="matrix" values="0 0 0 0 0.988235 0 0 0 0 0.819608 0 0 0 0 0.388235 0 0 0 0.5 0"/>
<feBlend mode="normal" in2="BackgroundImageFix" result="effect1_dropShadow"/>
<feColorMatrix in="SourceAlpha" type="matrix" values="0 0 0 0 0 0 0 0 0 0 0 0 0 0 0 0 0 0 127 0"/>
<feOffset dy="3"/>
<feGaussianBlur stdDeviation="4"/>
<feColorMatrix type="matrix" values="0 0 0 0 0 0 0 0 0 0 0 0 0 0 0 0 0 0 0.2 0"/>
<feBlend mode="normal" in2="effect1_dropShadow" result="effect2_dropShadow"/>
<feBlend mode="normal" in="SourceGraphic" in2="effect2_dropShadow" result="shape"/>
</filter>
<filter id="filter13_dd" x="383.705" y="0.0449219" width="75.1306" height="61.9639" filterUnits="userSpaceOnUse" color-interpolation-filters="sRGB">
<feFlood flood-opacity="0" result="BackgroundImageFix"/>
<feColorMatrix in="SourceAlpha" type="matrix" values="0 0 0 0 0 0 0 0 0 0 0 0 0 0 0 0 0 0 127 0"/>
<feOffset/>
<feGaussianBlur stdDeviation="5"/>
<feColorMatrix type="matrix" values="0 0 0 0 0.988235 0 0 0 0 0.819608 0 0 0 0 0.388235 0 0 0 0.5 0"/>
<feBlend mode="normal" in2="BackgroundImageFix" result="effect1_dropShadow"/>
<feColorMatrix in="SourceAlpha" type="matrix" values="0 0 0 0 0 0 0 0 0 0 0 0 0 0 0 0 0 0 127 0"/>
<feOffset dy="3"/>
<feGaussianBlur stdDeviation="4"/>
<feColorMatrix type="matrix" values="0 0 0 0 0 0 0 0 0 0 0 0 0 0 0 0 0 0 0.2 0"/>
<feBlend mode="normal" in2="effect1_dropShadow" result="effect2_dropShadow"/>
<feBlend mode="normal" in="SourceGraphic" in2="effect2_dropShadow" result="shape"/>
</filter>
<filter id="filter14_d" x="195.859" y="386.87" width="484.294" height="224.363" filterUnits="userSpaceOnUse" color-interpolation-filters="sRGB">
<feFlood flood-opacity="0" result="BackgroundImageFix"/>
<feColorMatrix in="SourceAlpha" type="matrix" values="0 0 0 0 0 0 0 0 0 0 0 0 0 0 0 0 0 0 127 0"/>
<feOffset dy="4"/>
<feGaussianBlur stdDeviation="15.5"/>
<feColorMatrix type="matrix" values="0 0 0 0 0 0 0 0 0 0 0 0 0 0 0 0 0 0 0.35 0"/>
<feBlend mode="normal" in2="BackgroundImageFix" result="effect1_dropShadow"/>
<feBlend mode="normal" in="SourceGraphic" in2="effect1_dropShadow" result="shape"/>
</filter>
<filter id="filter15_dd" x="524" y="598.826" width="34" height="38" filterUnits="userSpaceOnUse" color-interpolation-filters="sRGB">
<feFlood flood-opacity="0" result="BackgroundImageFix"/>
<feColorMatrix in="SourceAlpha" type="matrix" values="0 0 0 0 0 0 0 0 0 0 0 0 0 0 0 0 0 0 127 0"/>
<feOffset/>
<feGaussianBlur stdDeviation="2"/>
<feColorMatrix type="matrix" values="0 0 0 0 1 0 0 0 0 1 0 0 0 0 1 0 0 0 0.92 0"/>
<feBlend mode="normal" in2="BackgroundImageFix" result="effect1_dropShadow"/>
<feColorMatrix in="SourceAlpha" type="matrix" values="0 0 0 0 0 0 0 0 0 0 0 0 0 0 0 0 0 0 127 0"/>
<feOffset dy="4"/>
<feGaussianBlur stdDeviation="2"/>
<feColorMatrix type="matrix" values="0 0 0 0 0 0 0 0 0 0 0 0 0 0 0 0 0 0 0.15 0"/>
<feBlend mode="normal" in2="effect1_dropShadow" result="effect2_dropShadow"/>
<feBlend mode="normal" in="SourceGraphic" in2="effect2_dropShadow" result="shape"/>
</filter>
<filter id="filter16_dd" x="104" y="410.826" width="68" height="72" filterUnits="userSpaceOnUse" color-interpolation-filters="sRGB">
<feFlood flood-opacity="0" result="BackgroundImageFix"/>
<feColorMatrix in="SourceAlpha" type="matrix" values="0 0 0 0 0 0 0 0 0 0 0 0 0 0 0 0 0 0 127 0"/>
<feOffset/>
<feGaussianBlur stdDeviation="2"/>
<feColorMatrix type="matrix" values="0 0 0 0 1 0 0 0 0 1 0 0 0 0 1 0 0 0 0.92 0"/>
<feBlend mode="normal" in2="BackgroundImageFix" result="effect1_dropShadow"/>
<feColorMatrix in="SourceAlpha" type="matrix" values="0 0 0 0 0 0 0 0 0 0 0 0 0 0 0 0 0 0 127 0"/>
<feOffset dy="4"/>
<feGaussianBlur stdDeviation="2"/>
<feColorMatrix type="matrix" values="0 0 0 0 0 0 0 0 0 0 0 0 0 0 0 0 0 0 0.15 0"/>
<feBlend mode="normal" in2="effect1_dropShadow" result="effect2_dropShadow"/>
<feBlend mode="normal" in="SourceGraphic" in2="effect2_dropShadow" result="shape"/>
</filter>
<linearGradient id="paint0_linear" x1="256.751" y1="154.36" x2="521.272" y2="682.878" gradientUnits="userSpaceOnUse">
<stop stop-color="#5660D7"/>
<stop offset="1" stop-color="#3F1793"/>
</linearGradient>
<linearGradient id="paint1_linear" x1="326.675" y1="547.548" x2="319.564" y2="596.552" gradientUnits="userSpaceOnUse">
<stop stop-color="white"/>
<stop offset="1" stop-color="white" stop-opacity="0"/>
</linearGradient>
<linearGradient id="paint2_linear" x1="171.125" y1="244.982" x2="171.125" y2="293.076" gradientUnits="userSpaceOnUse">
<stop stop-color="white"/>
<stop offset="1" stop-color="white" stop-opacity="0.11"/>
</linearGradient>
<linearGradient id="paint3_linear" x1="192.5" y1="234.295" x2="192.5" y2="293.076" gradientUnits="userSpaceOnUse">
<stop stop-color="white"/>
<stop offset="1" stop-color="white" stop-opacity="0.11"/>
</linearGradient>
<linearGradient id="paint4_linear" x1="213.875" y1="221.826" x2="213.875" y2="293.076" gradientUnits="userSpaceOnUse">
<stop stop-color="white"/>
<stop offset="1" stop-color="white" stop-opacity="0.11"/>
</linearGradient>
<linearGradient id="paint5_linear" x1="597.062" y1="93.8259" x2="597.062" y2="221.945" gradientUnits="userSpaceOnUse">
<stop stop-color="white"/>
<stop offset="0.988488" stop-color="white" stop-opacity="0"/>
</linearGradient>
<linearGradient id="paint6_linear" x1="432.374" y1="193.651" x2="428.51" y2="434.877" gradientUnits="userSpaceOnUse">
<stop offset="0.223617" stop-color="#2B2B32"/>
<stop offset="1" stop-color="#1E1E23"/>
</linearGradient>
<linearGradient id="paint7_linear" x1="438.675" y1="178.376" x2="437.677" y2="214.211" gradientUnits="userSpaceOnUse">
<stop offset="0.0687053" stop-color="#8F114A"/>
<stop offset="0.873055" stop-color="#560329"/>
</linearGradient>
<linearGradient id="paint8_linear" x1="366.861" y1="330.531" x2="210.879" y2="326.437" gradientUnits="userSpaceOnUse">
<stop stop-color="#1E1E23"/>
<stop offset="1" stop-color="#2B2B32"/>
</linearGradient>
<linearGradient id="paint9_linear" x1="313.749" y1="486.532" x2="301.899" y2="433.523" gradientUnits="userSpaceOnUse">
<stop stop-color="#D3ADA3"/>
<stop offset="0.09" stop-color="#DAB3A8"/>
<stop offset="0.39" stop-color="#EFC5B5"/>
<stop offset="0.69" stop-color="#FBCFBD"/>
<stop offset="0.98" stop-color="#FFD3C0"/>
</linearGradient>
<linearGradient id="paint10_linear" x1="380.803" y1="463.829" x2="379.772" y2="442.951" gradientUnits="userSpaceOnUse">
<stop stop-color="#EDBD51"/>
<stop offset="0.15" stop-color="#F2C457"/>
<stop offset="0.52" stop-color="#FACE60"/>
<stop offset="0.98" stop-color="#FCD163"/>
</linearGradient>
<linearGradient id="paint11_linear" x1="-29352.3" y1="6276.83" x2="-29354.8" y2="5960.01" gradientUnits="userSpaceOnUse">
<stop stop-color="#EDBD51"/>
<stop offset="0.15" stop-color="#F2C457"/>
<stop offset="0.52" stop-color="#FACE60"/>
<stop offset="0.98" stop-color="#FCD163"/>
</linearGradient>
<linearGradient id="paint12_linear" x1="-30123.5" y1="5864.76" x2="-30126" y2="5547.93" gradientUnits="userSpaceOnUse">
<stop stop-color="#EDBD51"/>
<stop offset="0.15" stop-color="#F2C457"/>
<stop offset="0.52" stop-color="#FACE60"/>
<stop offset="0.98" stop-color="#FCD163"/>
</linearGradient>
<linearGradient id="paint13_linear" x1="-30564.3" y1="5471.44" x2="-30566.9" y2="5154.62" gradientUnits="userSpaceOnUse">
<stop stop-color="#EDBD51"/>
<stop offset="0.15" stop-color="#F2C457"/>
<stop offset="0.52" stop-color="#FACE60"/>
<stop offset="0.98" stop-color="#FCD163"/>
</linearGradient>
<linearGradient id="paint14_linear" x1="-30017.4" y1="5093.58" x2="-30019.9" y2="4777.19" gradientUnits="userSpaceOnUse">
<stop stop-color="#EDBD51"/>
<stop offset="0.15" stop-color="#F2C457"/>
<stop offset="0.52" stop-color="#FACE60"/>
<stop offset="0.98" stop-color="#FCD163"/>
</linearGradient>
<linearGradient id="paint15_linear" x1="-18422.7" y1="-4332.48" x2="-17623.6" y2="-5034.92" gradientUnits="userSpaceOnUse">
<stop stop-color="#EDBD51"/>
<stop offset="0.15" stop-color="#F2C457"/>
<stop offset="0.52" stop-color="#FACE60"/>
<stop offset="0.98" stop-color="#FCD163"/>
</linearGradient>
<linearGradient id="paint16_linear" x1="-2815.4" y1="18912.7" x2="-3366.82" y2="18615.1" gradientUnits="userSpaceOnUse">
<stop stop-color="#EDBD51"/>
<stop offset="0.15" stop-color="#F2C457"/>
<stop offset="0.52" stop-color="#FACE60"/>
<stop offset="0.98" stop-color="#FCD163"/>
</linearGradient>
<linearGradient id="paint17_linear" x1="-20614.1" y1="-2011.74" x2="-20596.7" y2="-2153.9" gradientUnits="userSpaceOnUse">
<stop stop-color="#EDBD51"/>
<stop offset="0.15" stop-color="#F2C457"/>
<stop offset="0.52" stop-color="#FACE60"/>
<stop offset="0.98" stop-color="#FCD163"/>
</linearGradient>
<linearGradient id="paint18_linear" x1="-14173.3" y1="-8804.02" x2="-14111.1" y2="-8901.99" gradientUnits="userSpaceOnUse">
<stop stop-color="#EDBD51"/>
<stop offset="0.15" stop-color="#F2C457"/>
<stop offset="0.52" stop-color="#FACE60"/>
<stop offset="0.98" stop-color="#FCD163"/>
</linearGradient>
<linearGradient id="paint19_linear" x1="426" y1="565.826" x2="440.902" y2="413.843" gradientUnits="userSpaceOnUse">
<stop stop-color="#A98E86"/>
<stop offset="0.427904" stop-color="#EFC5B5"/>
<stop offset="0.98" stop-color="#FFD3C0"/>
</linearGradient>
<linearGradient id="paint20_linear" x1="615.112" y1="557.941" x2="689.582" y2="593.115" gradientUnits="userSpaceOnUse">
<stop stop-color="#E8E8F4"/>
<stop offset="1" stop-color="#B8B8FF"/>
</linearGradient>
<linearGradient id="paint21_linear" x1="13" y1="0" x2="13" y2="26" gradientUnits="userSpaceOnUse">
<stop stop-color="white"/>
<stop offset="1" stop-color="#F8F8F8"/>
</linearGradient>
<linearGradient id="paint22_linear" x1="30" y1="0" x2="30" y2="60" gradientUnits="userSpaceOnUse">
<stop stop-color="white"/>
<stop offset="1" stop-color="#F8F8F8"/>
</linearGradient>
</defs>
</svg>
