<svg width="771" height="730" viewBox="0 0 771 730" fill="none" xmlns="http://www.w3.org/2000/svg">
<g filter="url(#filter0_f)">
<path d="M235.074 242.614H31.2712V614.623H235.074V242.614Z" fill="#464646"/>
</g>
<g filter="url(#filter1_f)">
<path d="M739.729 242.614H548.866V614.623H739.729V242.614Z" fill="#464646"/>
</g>
<g filter="url(#filter2_f)">
<path d="M496.028 147.725H274.972V519.734H496.028V147.725Z" fill="#464646"/>
</g>
<g opacity="0.78" filter="url(#filter3_f)">
<path opacity="0.78" d="M378.491 713.826C497.599 713.826 594.155 709.24 594.155 703.582C594.155 697.925 497.599 693.338 378.491 693.338C259.383 693.338 162.827 697.925 162.827 703.582C162.827 709.24 259.383 713.826 378.491 713.826Z" fill="#404040"/>
</g>
<g filter="url(#filter4_f)">
<path d="M140.721 635.111C202.955 635.111 253.406 632.455 253.406 629.18C253.406 625.905 202.955 623.25 140.721 623.25C78.487 623.25 28.0364 625.905 28.0364 629.18C28.0364 632.455 78.487 635.111 140.721 635.111Z" fill="#404040"/>
</g>
<g filter="url(#filter5_f)">
<path d="M632.436 635.111C694.67 635.111 745.12 632.455 745.12 629.18C745.12 625.905 694.67 623.25 632.436 623.25C570.202 623.25 519.751 625.905 519.751 629.18C519.751 632.455 570.202 635.111 632.436 635.111Z" fill="#404040"/>
</g>
<g filter="url(#filter6_d)">
<path d="M90.2672 141.886C90.2672 141.886 87.8402 130.076 100.189 123.178C109.316 118.081 121.288 123.572 121.288 123.572C121.288 123.572 131.133 110.697 147.702 113.664C163.393 116.523 167.545 126.17 168.998 129.229C171.861 135.289 170.075 143.99 170.075 143.99C170.075 143.99 184.517 148.466 186.311 161.325C187.269 168.18 185.252 173.511 181.8 177.51C178.74 181.048 172.749 183.596 168.024 183.571L96.6679 183.235C94.6301 183.152 92.6032 182.9 90.609 182.481C86.4423 181.566 82.5883 179.608 79.4229 176.798C76.1242 174.015 70.2277 164.149 75.3124 154.476C78.5287 148.602 83.8603 144.114 90.2672 141.886Z" fill="url(#paint0_linear)"/>
</g>
<g filter="url(#filter7_d)">
<path d="M335.703 42.2795C335.703 42.2795 332.641 27.0864 348.222 18.2121C359.739 11.6561 374.846 18.7189 374.846 18.7189C374.846 18.7189 387.268 2.15646 408.177 5.97359C427.975 9.70446 433.216 22.0616 435.049 25.9973C438.661 33.7934 436.408 44.986 436.408 44.986C436.408 44.986 454.631 50.744 456.896 67.2849C458.103 76.1053 455.559 82.9632 451.202 88.1066C447.342 92.657 439.783 95.935 433.82 95.9027L343.78 95.4713C341.209 95.3653 338.651 95.0407 336.134 94.5009C330.877 93.3247 326.013 90.8058 322.019 87.1901C317.857 83.6102 310.416 70.9188 316.832 58.4753C320.891 50.919 327.619 45.1451 335.703 42.2795Z" fill="url(#paint1_linear)"/>
</g>
<g filter="url(#filter8_d)">
<path d="M602.47 145.454C602.47 145.454 600.043 133.507 612.392 126.528C621.519 121.373 633.49 126.926 633.49 126.926C633.49 126.926 643.335 113.902 659.905 116.904C675.596 119.795 679.748 129.555 681.201 132.65C684.064 138.781 682.278 147.582 682.278 147.582C682.278 147.582 696.72 152.11 698.514 165.118C699.472 172.053 697.455 177.446 694.003 181.491C690.943 185.069 684.952 187.646 680.227 187.622L608.871 187.282C606.833 187.199 604.806 186.943 602.812 186.52C598.646 185.594 594.792 183.614 591.626 180.77C588.327 177.955 582.431 167.975 587.515 158.19C590.732 152.247 596.063 147.708 602.47 145.454Z" fill="url(#paint2_linear)"/>
</g>
<path d="M328.737 438.798V337.439H529.305" stroke="white" stroke-miterlimit="10"/>
<path d="M352.46 460.364V359.005H553.028" stroke="white" stroke-miterlimit="10"/>
<path d="M232.831 218.828H30.4303C26.1304 218.828 22.6448 222.313 22.6448 226.613V253.106C22.6448 257.405 26.1304 260.892 30.4303 260.892H232.831C237.132 260.892 240.617 257.405 240.617 253.106V226.613C240.617 222.313 237.132 218.828 232.831 218.828Z" fill="url(#paint3_linear)"/>
<path d="M234.88 260.892H28.3816V265.668H234.88V260.892Z" fill="#3F3F44"/>
<path d="M207.922 225.502H54.369C51.6295 225.502 49.4087 227.722 49.4087 230.462V249.224C49.4087 251.963 51.6295 254.184 54.369 254.184H207.922C210.662 254.184 212.882 251.963 212.882 249.224V230.462C212.882 227.722 210.662 225.502 207.922 225.502Z" fill="#383838" stroke="#545454" stroke-width="0.688067" stroke-miterlimit="10"/>
<path d="M103.907 233.87H59.9331V245.343H103.907V233.87Z" fill="#C7D4F9"/>
<path d="M204.288 233.87H192.815V245.343H204.288V233.87Z" fill="white"/>
<g filter="url(#filter9_d)">
<path d="M116.814 243.423C118.661 243.423 120.157 241.927 120.157 240.08C120.157 238.234 118.661 236.738 116.814 236.738C114.968 236.738 113.472 238.234 113.472 240.08C113.472 241.927 114.968 243.423 116.814 243.423Z" fill="white"/>
</g>
<path d="M126.541 242.604C127.934 242.604 129.064 241.473 129.064 240.08C129.064 238.687 127.934 237.557 126.541 237.557C125.148 237.557 124.018 238.687 124.018 240.08C124.018 241.473 125.148 242.604 126.541 242.604Z" fill="#554FBC"/>
<path d="M170.828 238.409H138.327V241.277H170.828V238.409Z" fill="#AF5473"/>
<path d="M232.831 265.668H30.4303C26.1304 265.668 22.6448 269.153 22.6448 273.454V299.947C22.6448 304.246 26.1304 307.732 30.4303 307.732H232.831C237.132 307.732 240.617 304.246 240.617 299.947V273.454C240.617 269.153 237.132 265.668 232.831 265.668Z" fill="url(#paint4_linear)"/>
<path d="M234.88 307.732H28.3816V312.509H234.88V307.732Z" fill="#3F3F44"/>
<path d="M207.922 272.343H54.369C51.6295 272.343 49.4087 274.563 49.4087 277.303V296.065C49.4087 298.804 51.6295 301.025 54.369 301.025H207.922C210.662 301.025 212.882 298.804 212.882 296.065V277.303C212.882 274.563 210.662 272.343 207.922 272.343Z" fill="#383838" stroke="#545454" stroke-width="0.688067" stroke-miterlimit="10"/>
<path d="M103.907 280.71H59.9331V292.183H103.907V280.71Z" fill="#C7D4F9"/>
<path d="M204.288 280.71H192.815V292.183H204.288V280.71Z" fill="white"/>
<g filter="url(#filter10_d)">
<path d="M116.814 290.264C118.661 290.264 120.157 288.767 120.157 286.921C120.157 285.075 118.661 283.579 116.814 283.579C114.968 283.579 113.472 285.075 113.472 286.921C113.472 288.767 114.968 290.264 116.814 290.264Z" fill="white"/>
</g>
<path d="M170.828 285.25H138.327V288.118H170.828V285.25Z" fill="#AF5473"/>
<path d="M232.831 312.52H30.4303C26.1304 312.52 22.6448 316.006 22.6448 320.305V346.798C22.6448 351.099 26.1304 354.584 30.4303 354.584H232.831C237.132 354.584 240.617 351.099 240.617 346.798V320.305C240.617 316.006 237.132 312.52 232.831 312.52Z" fill="url(#paint5_linear)"/>
<path d="M234.88 354.584H28.3816V359.361H234.88V354.584Z" fill="#3F3F44"/>
<path d="M207.922 319.184H54.369C51.6295 319.184 49.4087 321.404 49.4087 324.144V342.906C49.4087 345.645 51.6295 347.866 54.369 347.866H207.922C210.662 347.866 212.882 345.645 212.882 342.906V324.144C212.882 321.404 210.662 319.184 207.922 319.184Z" fill="#383838" stroke="#545454" stroke-width="0.688067" stroke-miterlimit="10"/>
<path d="M103.907 327.551H59.9331V339.024H103.907V327.551Z" fill="#C7D4F9"/>
<path d="M204.288 327.551H192.815V339.024H204.288V327.551Z" fill="white"/>
<g filter="url(#filter11_d)">
<path d="M116.814 337.116C118.661 337.116 120.157 335.619 120.157 333.773C120.157 331.927 118.661 330.43 116.814 330.43C114.968 330.43 113.472 331.927 113.472 333.773C113.472 335.619 114.968 337.116 116.814 337.116Z" fill="white"/>
</g>
<path d="M170.828 332.091H138.327V334.959H170.828V332.091Z" fill="#AF5473"/>
<path d="M232.831 359.36H30.4303C26.1304 359.36 22.6448 362.846 22.6448 367.146V393.639C22.6448 397.939 26.1304 401.424 30.4303 401.424H232.831C237.132 401.424 240.617 397.939 240.617 393.639V367.146C240.617 362.846 237.132 359.36 232.831 359.36Z" fill="url(#paint6_linear)"/>
<path d="M234.88 401.424H28.3816V406.201H234.88V401.424Z" fill="#3F3F44"/>
<path d="M207.922 366.035H54.369C51.6295 366.035 49.4087 368.255 49.4087 370.995V389.757C49.4087 392.496 51.6295 394.718 54.369 394.718H207.922C210.662 394.718 212.882 392.496 212.882 389.757V370.995C212.882 368.255 210.662 366.035 207.922 366.035Z" fill="#383838" stroke="#545454" stroke-width="0.688067" stroke-miterlimit="10"/>
<path d="M103.907 374.392H59.9331V385.865H103.907V374.392Z" fill="#C7D4F9"/>
<path d="M204.288 374.392H192.815V385.865H204.288V374.392Z" fill="white"/>
<g filter="url(#filter12_d)">
<path d="M116.814 383.956C118.661 383.956 120.157 382.46 120.157 380.614C120.157 378.768 118.661 377.271 116.814 377.271C114.968 377.271 113.472 378.768 113.472 380.614C113.472 382.46 114.968 383.956 116.814 383.956Z" fill="white"/>
</g>
<path d="M170.828 378.942H138.327V381.811H170.828V378.942Z" fill="#AF5473"/>
<path d="M232.831 406.201H30.4303C26.1304 406.201 22.6448 409.686 22.6448 413.986V440.48C22.6448 444.779 26.1304 448.265 30.4303 448.265H232.831C237.132 448.265 240.617 444.779 240.617 440.48V413.986C240.617 409.686 237.132 406.201 232.831 406.201Z" fill="url(#paint7_linear)"/>
<path d="M232.831 453.042H30.4303C26.1304 453.042 22.6448 456.527 22.6448 460.827V624.026C22.6448 628.325 26.1304 631.811 30.4303 631.811H232.831C237.132 631.811 240.617 628.325 240.617 624.026V460.827C240.617 456.527 237.132 453.042 232.831 453.042Z" fill="url(#paint8_linear)"/>
<path d="M234.88 448.265H28.3816V453.042H234.88V448.265Z" fill="#3F3F44"/>
<path d="M207.922 412.876H54.369C51.6295 412.876 49.4087 415.096 49.4087 417.836V436.598C49.4087 439.337 51.6295 441.558 54.369 441.558H207.922C210.662 441.558 212.882 439.337 212.882 436.598V417.836C212.882 415.096 210.662 412.876 207.922 412.876Z" fill="#383838" stroke="#545454" stroke-width="0.688067" stroke-miterlimit="10"/>
<path d="M103.907 421.244H59.9331V432.717H103.907V421.244Z" fill="#C7D4F9"/>
<path d="M170.073 483.633H92.2397C91.2927 483.633 90.5251 484.401 90.5251 485.348V495.3C90.5251 496.247 91.2927 497.015 92.2397 497.015H170.073C171.02 497.015 171.787 496.247 171.787 495.3V485.348C171.787 484.401 171.02 483.633 170.073 483.633Z" fill="#707070"/>
<path d="M163.182 488.421H99.1299V493.198H163.182V488.421Z" fill="url(#paint9_linear)"/>
<path d="M170.105 514.224H92.2073C91.2783 514.224 90.5251 514.977 90.5251 515.906V525.923C90.5251 526.852 91.2783 527.606 92.2073 527.606H170.105C171.035 527.606 171.787 526.852 171.787 525.923V515.906C171.787 514.977 171.035 514.224 170.105 514.224Z" fill="#707070"/>
<path d="M163.182 519.012H99.1299V523.789H163.182V519.012Z" fill="url(#paint10_linear)"/>
<path d="M225.078 553.42H37.2345C36.0435 553.42 35.0779 554.385 35.0779 555.576V557.96C35.0779 559.15 36.0435 560.116 37.2345 560.116H225.078C226.27 560.116 227.235 559.15 227.235 557.96V555.576C227.235 554.385 226.27 553.42 225.078 553.42Z" fill="#474747"/>
<path d="M225.078 579.234H37.2345C36.0435 579.234 35.0779 580.199 35.0779 581.39V583.773C35.0779 584.964 36.0435 585.93 37.2345 585.93H225.078C226.27 585.93 227.235 584.964 227.235 583.773V581.39C227.235 580.199 226.27 579.234 225.078 579.234Z" fill="#474747"/>
<path d="M225.057 605.048H37.2561C36.0531 605.048 35.0779 606.023 35.0779 607.227V609.566C35.0779 610.769 36.0531 611.745 37.2561 611.745H225.057C226.26 611.745 227.235 610.769 227.235 609.566V607.227C227.235 606.023 226.26 605.048 225.057 605.048Z" fill="#474747"/>
<path d="M204.288 421.244H192.815V432.717H204.288V421.244Z" fill="white"/>
<g filter="url(#filter13_d)">
<path d="M116.814 430.797C118.661 430.797 120.157 429.301 120.157 427.455C120.157 425.608 118.661 424.112 116.814 424.112C114.968 424.112 113.472 425.608 113.472 427.455C113.472 429.301 114.968 430.797 116.814 430.797Z" fill="white"/>
</g>
<path d="M170.828 425.783H138.327V428.651H170.828V425.783Z" fill="#AF5473"/>
<path d="M126.541 289.595C127.934 289.595 129.064 288.465 129.064 287.072C129.064 285.678 127.934 284.549 126.541 284.549C125.148 284.549 124.018 285.678 124.018 287.072C124.018 288.465 125.148 289.595 126.541 289.595Z" fill="#554FBC"/>
<path d="M126.541 336.576C127.934 336.576 129.064 335.446 129.064 334.053C129.064 332.66 127.934 331.53 126.541 331.53C125.148 331.53 124.018 332.66 124.018 334.053C124.018 335.446 125.148 336.576 126.541 336.576Z" fill="#554FBC"/>
<path d="M126.541 383.568C127.934 383.568 129.064 382.438 129.064 381.045C129.064 379.652 127.934 378.521 126.541 378.521C125.148 378.521 124.018 379.652 124.018 381.045C124.018 382.438 125.148 383.568 126.541 383.568Z" fill="#554FBC"/>
<path d="M126.541 429.676C127.934 429.676 129.064 428.546 129.064 427.153C129.064 425.758 127.934 424.629 126.541 424.629C125.148 424.629 124.018 425.758 124.018 427.153C124.018 428.546 125.148 429.676 126.541 429.676Z" fill="#554FBC"/>
<path d="M743.654 219.119H541.404C537.103 219.119 533.618 222.604 533.618 226.904V253.365C533.618 257.664 537.103 261.15 541.404 261.15H743.654C747.953 261.15 751.439 257.664 751.439 253.365V226.904C751.439 222.604 747.953 219.119 743.654 219.119Z" fill="url(#paint11_linear)"/>
<path d="M745.713 261.15H539.355V265.927H745.713V261.15Z" fill="#3F3F44"/>
<path d="M718.777 225.782H565.332C562.592 225.782 560.371 228.002 560.371 230.742V249.483C560.371 252.222 562.592 254.443 565.332 254.443H718.777C721.516 254.443 723.737 252.222 723.737 249.483V230.742C723.737 228.002 721.516 225.782 718.777 225.782Z" fill="#383838" stroke="#545454" stroke-width="0.687595" stroke-miterlimit="10"/>
<path d="M614.816 234.139H570.874V245.601H614.816V234.139Z" fill="#C7D4F9"/>
<path d="M715.132 234.139H703.669V245.601H715.132V234.139Z" fill="white"/>
<g filter="url(#filter14_d)">
<path d="M627.723 243.693C629.569 243.693 631.066 242.196 631.066 240.35C631.066 238.504 629.569 237.007 627.723 237.007C625.877 237.007 624.381 238.504 624.381 240.35C624.381 242.196 625.877 243.693 627.723 243.693Z" fill="white"/>
</g>
<path d="M637.45 242.873C638.843 242.873 639.973 241.743 639.973 240.35C639.973 238.957 638.843 237.827 637.45 237.827C636.057 237.827 634.927 238.957 634.927 240.35C634.927 241.743 636.057 242.873 637.45 242.873Z" fill="#554FBC"/>
<path d="M681.693 238.679H649.214V241.547H681.693V238.679Z" fill="#AF5473"/>
<path d="M743.654 265.927H541.404C537.103 265.927 533.618 269.412 533.618 273.712V300.174C533.618 304.473 537.103 307.959 541.404 307.959H743.654C747.953 307.959 751.439 304.473 751.439 300.174V273.712C751.439 269.412 747.953 265.927 743.654 265.927Z" fill="url(#paint12_linear)"/>
<path d="M745.713 307.958H539.355V312.735H745.713V307.958Z" fill="#3F3F44"/>
<path d="M718.777 272.591H565.332C562.592 272.591 560.371 274.811 560.371 277.551V296.292C560.371 299.03 562.592 301.252 565.332 301.252H718.777C721.516 301.252 723.737 299.03 723.737 296.292V277.551C723.737 274.811 721.516 272.591 718.777 272.591Z" fill="#383838" stroke="#545454" stroke-width="0.687595" stroke-miterlimit="10"/>
<path d="M614.816 280.948H570.874V292.41H614.816V280.948Z" fill="#C7D4F9"/>
<path d="M715.132 280.948H703.669V292.41H715.132V280.948Z" fill="white"/>
<g filter="url(#filter15_d)">
<path d="M627.723 290.501C629.569 290.501 631.066 289.005 631.066 287.159C631.066 285.313 629.569 283.816 627.723 283.816C625.877 283.816 624.381 285.313 624.381 287.159C624.381 289.005 625.877 290.501 627.723 290.501Z" fill="white"/>
</g>
<path d="M681.693 285.487H649.214V288.356H681.693V285.487Z" fill="#AF5473"/>
<path d="M743.654 312.735H541.404C537.103 312.735 533.618 316.22 533.618 320.521V346.982C533.618 351.281 537.103 354.767 541.404 354.767H743.654C747.953 354.767 751.439 351.281 751.439 346.982V320.521C751.439 316.22 747.953 312.735 743.654 312.735Z" fill="url(#paint13_linear)"/>
<path d="M745.713 354.767H539.355V359.544H745.713V354.767Z" fill="#3F3F44"/>
<path d="M718.777 319.399H565.332C562.592 319.399 560.371 321.62 560.371 324.36V343.1C560.371 345.839 562.592 348.06 565.332 348.06H718.777C721.516 348.06 723.737 345.839 723.737 343.1V324.36C723.737 321.62 721.516 319.399 718.777 319.399Z" fill="#383838" stroke="#545454" stroke-width="0.687595" stroke-miterlimit="10"/>
<path d="M614.816 327.767H570.874V339.229H614.816V327.767Z" fill="#C7D4F9"/>
<path d="M715.132 327.767H703.669V339.229H715.132V327.767Z" fill="white"/>
<g filter="url(#filter16_d)">
<path d="M627.723 337.32C629.569 337.32 631.066 335.823 631.066 333.977C631.066 332.131 629.569 330.635 627.723 330.635C625.877 330.635 624.381 332.131 624.381 333.977C624.381 335.823 625.877 337.32 627.723 337.32Z" fill="white"/>
</g>
<path d="M681.693 332.295H649.214V335.164H681.693V332.295Z" fill="#AF5473"/>
<path d="M743.654 359.544H541.404C537.103 359.544 533.618 363.029 533.618 367.329V393.79C533.618 398.089 537.103 401.576 541.404 401.576H743.654C747.953 401.576 751.439 398.089 751.439 393.79V367.329C751.439 363.029 747.953 359.544 743.654 359.544Z" fill="url(#paint14_linear)"/>
<path d="M745.713 401.576H539.355V406.352H745.713V401.576Z" fill="#3F3F44"/>
<path d="M718.777 366.218H565.332C562.592 366.218 560.371 368.438 560.371 371.178V389.919C560.371 392.658 562.592 394.879 565.332 394.879H718.777C721.516 394.879 723.737 392.658 723.737 389.919V371.178C723.737 368.438 721.516 366.218 718.777 366.218Z" fill="#383838" stroke="#545454" stroke-width="0.687595" stroke-miterlimit="10"/>
<path d="M614.816 374.575H570.874V386.037H614.816V374.575Z" fill="#C7D4F9"/>
<path d="M715.132 374.575H703.669V386.037H715.132V374.575Z" fill="white"/>
<g filter="url(#filter17_d)">
<path d="M627.723 384.129C629.569 384.129 631.066 382.632 631.066 380.786C631.066 378.94 629.569 377.443 627.723 377.443C625.877 377.443 624.381 378.94 624.381 380.786C624.381 382.632 625.877 384.129 627.723 384.129Z" fill="white"/>
</g>
<path d="M681.693 379.115H649.214V381.983H681.693V379.115Z" fill="#AF5473"/>
<path d="M743.654 406.353H541.404C537.103 406.353 533.618 409.838 533.618 414.138V440.599C533.618 444.898 537.103 448.384 541.404 448.384H743.654C747.953 448.384 751.439 444.898 751.439 440.599V414.138C751.439 409.838 747.953 406.353 743.654 406.353Z" fill="url(#paint15_linear)"/>
<path d="M743.654 453.171H541.404C537.103 453.171 533.618 456.657 533.618 460.957V624.037C533.618 628.337 537.103 631.822 541.404 631.822H743.654C747.953 631.822 751.439 628.337 751.439 624.037V460.957C751.439 456.657 747.953 453.171 743.654 453.171Z" fill="url(#paint16_linear)"/>
<path d="M745.713 448.395H539.355V453.171H745.713V448.395Z" fill="#3F3F44"/>
<path d="M718.777 413.027H565.332C562.592 413.027 560.371 415.248 560.371 417.987V436.728C560.371 439.468 562.592 441.688 565.332 441.688H718.777C721.516 441.688 723.737 439.468 723.737 436.728V417.987C723.737 415.248 721.516 413.027 718.777 413.027Z" fill="#383838" stroke="#545454" stroke-width="0.687595" stroke-miterlimit="10"/>
<path d="M614.816 421.384H570.874V432.846H614.816V421.384Z" fill="#C7D4F9"/>
<path d="M680.939 483.741H603.159C602.213 483.741 601.445 484.507 601.445 485.455V495.397C601.445 496.344 602.213 497.111 603.159 497.111H680.939C681.885 497.111 682.653 496.344 682.653 495.397V485.455C682.653 484.507 681.885 483.741 680.939 483.741Z" fill="#707070"/>
<path d="M674.059 488.518H610.05V493.294H674.059V488.518Z" fill="url(#paint17_linear)"/>
<path d="M680.971 514.311H603.127C602.197 514.311 601.445 515.063 601.445 515.993V525.999C601.445 526.928 602.197 527.681 603.127 527.681H680.971C681.901 527.681 682.653 526.928 682.653 525.999V515.993C682.653 515.063 681.901 514.311 680.971 514.311Z" fill="#707070"/>
<path d="M674.059 519.087H610.05V523.864H674.059V519.087Z" fill="url(#paint18_linear)"/>
<path d="M735.911 553.474H548.197C547.006 553.474 546.041 554.439 546.041 555.63V558.002C546.041 559.194 547.006 560.159 548.197 560.159H735.911C737.102 560.159 738.068 559.194 738.068 558.002V555.63C738.068 554.439 737.102 553.474 735.911 553.474Z" fill="#474747"/>
<path d="M735.911 579.267H548.197C547.006 579.267 546.041 580.232 546.041 581.423V583.795C546.041 584.986 547.006 585.952 548.197 585.952H735.911C737.102 585.952 738.068 584.986 738.068 583.795V581.423C738.068 580.232 737.102 579.267 735.911 579.267Z" fill="#474747"/>
<path d="M735.89 605.059H548.219C547.015 605.059 546.041 606.034 546.041 607.237V609.566C546.041 610.769 547.015 611.744 548.219 611.744H735.89C737.092 611.744 738.068 610.769 738.068 609.566V607.237C738.068 606.034 737.092 605.059 735.89 605.059Z" fill="#474747"/>
<path d="M715.132 421.384H703.669V432.846H715.132V421.384Z" fill="white"/>
<g filter="url(#filter18_d)">
<path d="M627.723 430.937C629.569 430.937 631.066 429.441 631.066 427.595C631.066 425.749 629.569 424.252 627.723 424.252C625.877 424.252 624.381 425.749 624.381 427.595C624.381 429.441 625.877 430.937 627.723 430.937Z" fill="white"/>
</g>
<path d="M681.693 425.923H649.214V428.792H681.693V425.923Z" fill="#AF5473"/>
<path d="M637.45 289.833C638.843 289.833 639.973 288.702 639.973 287.309C639.973 285.916 638.843 284.786 637.45 284.786C636.057 284.786 634.927 285.916 634.927 287.309C634.927 288.702 636.057 289.833 637.45 289.833Z" fill="#554FBC"/>
<path d="M637.45 336.781C638.843 336.781 639.973 335.651 639.973 334.258C639.973 332.865 638.843 331.735 637.45 331.735C636.057 331.735 634.927 332.865 634.927 334.258C634.927 335.651 636.057 336.781 637.45 336.781Z" fill="#554FBC"/>
<path d="M637.45 383.741C638.843 383.741 639.973 382.611 639.973 381.218C639.973 379.823 638.843 378.694 637.45 378.694C636.057 378.694 634.927 379.823 634.927 381.218C634.927 382.611 636.057 383.741 637.45 383.741Z" fill="#554FBC"/>
<path d="M637.45 429.816C638.843 429.816 639.973 428.686 639.973 427.293C639.973 425.898 638.843 424.77 637.45 424.77C636.057 424.77 634.927 425.898 634.927 427.293C634.927 428.686 636.057 429.816 637.45 429.816Z" fill="#554FBC"/>
<path d="M503.49 123.831H268.588C264.289 123.831 260.803 127.316 260.803 131.616V164.385C260.803 168.684 264.289 172.17 268.588 172.17H503.49C507.79 172.17 511.276 168.684 511.276 164.385V131.616C511.276 127.316 507.79 123.831 503.49 123.831Z" fill="url(#paint19_linear)"/>
<path d="M504.676 172.159H267.391V177.648H504.676V172.159Z" fill="#3F3F44"/>
<path d="M474.462 131.497H296.528C293.788 131.497 291.567 133.717 291.567 136.457V159.489C291.567 162.228 293.788 164.45 296.528 164.45H474.462C477.2 164.45 479.422 162.228 479.422 159.489V136.457C479.422 133.717 477.2 131.497 474.462 131.497Z" fill="#383838" stroke="#545454" stroke-width="0.790658" stroke-miterlimit="10"/>
<path d="M354.175 141.104H303.645V154.292H354.175V141.104Z" fill="#C7D4F9"/>
<path d="M469.534 141.104H456.346V154.292H469.534V141.104Z" fill="white"/>
<g filter="url(#filter19_d)">
<path d="M369.012 152.093C371.139 152.093 372.862 150.368 372.862 148.243C372.862 146.117 371.139 144.394 369.012 144.394C366.886 144.394 365.163 146.117 365.163 148.243C365.163 150.368 366.886 152.093 369.012 152.093Z" fill="white"/>
</g>
<path d="M380.195 151.143C381.797 151.143 383.095 149.845 383.095 148.243C383.095 146.641 381.797 145.342 380.195 145.342C378.592 145.342 377.294 146.641 377.294 148.243C377.294 149.845 378.592 151.143 380.195 151.143Z" fill="#554FBC"/>
<path d="M431.081 146.324H393.728V149.623H431.081V146.324Z" fill="#AF5473"/>
<path d="M503.49 177.659H268.588C264.289 177.659 260.803 181.144 260.803 185.444V218.213C260.803 222.512 264.289 225.998 268.588 225.998H503.49C507.79 225.998 511.276 222.512 511.276 218.213V185.444C511.276 181.144 507.79 177.659 503.49 177.659Z" fill="url(#paint20_linear)"/>
<path d="M504.676 225.987H267.391V231.476H504.676V225.987Z" fill="#3F3F44"/>
<path d="M474.462 185.325H296.528C293.788 185.325 291.567 187.545 291.567 190.285V213.318C291.567 216.056 293.788 218.278 296.528 218.278H474.462C477.2 218.278 479.422 216.056 479.422 213.318V190.285C479.422 187.545 477.2 185.325 474.462 185.325Z" fill="#383838" stroke="#545454" stroke-width="0.790658" stroke-miterlimit="10"/>
<path d="M354.175 194.933H303.645V208.12H354.175V194.933Z" fill="#C7D4F9"/>
<path d="M469.534 194.933H456.346V208.12H469.534V194.933Z" fill="white"/>
<g filter="url(#filter20_d)">
<path d="M369.012 205.921C371.139 205.921 372.862 204.198 372.862 202.071C372.862 199.945 371.139 198.222 369.012 198.222C366.886 198.222 365.163 199.945 365.163 202.071C365.163 204.198 366.886 205.921 369.012 205.921Z" fill="white"/>
</g>
<path d="M431.081 200.151H393.728V203.451H431.081V200.151Z" fill="#AF5473"/>
<path d="M503.49 231.486H268.588C264.289 231.486 260.803 234.971 260.803 239.272V272.041C260.803 276.34 264.289 279.826 268.588 279.826H503.49C507.79 279.826 511.276 276.34 511.276 272.041V239.272C511.276 234.971 507.79 231.486 503.49 231.486Z" fill="url(#paint21_linear)"/>
<path d="M504.676 279.815H267.391V285.304H504.676V279.815Z" fill="#3F3F44"/>
<path d="M474.462 239.153H296.528C293.788 239.153 291.567 241.375 291.567 244.113V267.146C291.567 269.886 293.788 272.106 296.528 272.106H474.462C477.2 272.106 479.422 269.886 479.422 267.146V244.113C479.422 241.375 477.2 239.153 474.462 239.153Z" fill="#383838" stroke="#545454" stroke-width="0.790658" stroke-miterlimit="10"/>
<path d="M354.175 248.761H303.645V261.948H354.175V248.761Z" fill="#C7D4F9"/>
<path d="M469.534 248.761H456.346V261.948H469.534V248.761Z" fill="white"/>
<g filter="url(#filter21_d)">
<path d="M369.012 259.748C371.139 259.748 372.862 258.025 372.862 255.899C372.862 253.772 371.139 252.049 369.012 252.049C366.886 252.049 365.163 253.772 365.163 255.899C365.163 258.025 366.886 259.748 369.012 259.748Z" fill="white"/>
</g>
<path d="M431.081 253.979H393.728V257.279H431.081V253.979Z" fill="#AF5473"/>
<path d="M503.49 285.304H268.588C264.289 285.304 260.803 288.789 260.803 293.089V325.858C260.803 330.157 264.289 333.643 268.588 333.643H503.49C507.79 333.643 511.276 330.157 511.276 325.858V293.089C511.276 288.789 507.79 285.304 503.49 285.304Z" fill="url(#paint22_linear)"/>
<path d="M504.676 333.644H267.391V339.132H504.676V333.644Z" fill="#3F3F44"/>
<path d="M474.462 292.981H296.528C293.788 292.981 291.567 295.202 291.567 297.942V320.974C291.567 323.713 293.788 325.934 296.528 325.934H474.462C477.2 325.934 479.422 323.713 479.422 320.974V297.942C479.422 295.202 477.2 292.981 474.462 292.981Z" fill="#383838" stroke="#545454" stroke-width="0.790658" stroke-miterlimit="10"/>
<path d="M354.175 302.589H303.645V315.776H354.175V302.589Z" fill="#C7D4F9"/>
<path d="M469.534 302.589H456.346V315.776H469.534V302.589Z" fill="white"/>
<g filter="url(#filter22_d)">
<path d="M369.012 313.576C371.139 313.576 372.862 311.853 372.862 309.727C372.862 307.601 371.139 305.877 369.012 305.877C366.886 305.877 365.163 307.601 365.163 309.727C365.163 311.853 366.886 313.576 369.012 313.576Z" fill="white"/>
</g>
<path d="M431.081 307.808H393.728V311.107H431.081V307.808Z" fill="#AF5473"/>
<path d="M503.49 339.132H268.588C264.289 339.132 260.803 342.617 260.803 346.917V379.686C260.803 383.985 264.289 387.471 268.588 387.471H503.49C507.79 387.471 511.276 383.985 511.276 379.686V346.917C511.276 342.617 507.79 339.132 503.49 339.132Z" fill="url(#paint23_linear)"/>
<path d="M503.49 392.96H268.588C264.289 392.96 260.803 396.445 260.803 400.745V590.599C260.803 594.898 264.289 598.384 268.588 598.384H503.49C507.79 598.384 511.276 594.898 511.276 590.599V400.745C511.276 396.445 507.79 392.96 503.49 392.96Z" fill="url(#paint24_linear)"/>
<path d="M504.676 387.472H267.391V392.96H504.676V387.472Z" fill="#3F3F44"/>
<path d="M474.462 346.809H296.528C293.788 346.809 291.567 349.029 291.567 351.769V374.801C291.567 377.54 293.788 379.762 296.528 379.762H474.462C477.2 379.762 479.422 377.54 479.422 374.801V351.769C479.422 349.029 477.2 346.809 474.462 346.809Z" fill="#383838" stroke="#545454" stroke-width="0.790658" stroke-miterlimit="10"/>
<path d="M354.175 356.417H303.645V369.604H354.175V356.417Z" fill="#C7D4F9"/>
<path d="M430.455 428.112H340.512C339.566 428.112 338.798 428.88 338.798 429.827V441.774C338.798 442.721 339.566 443.489 340.512 443.489H430.455C431.402 443.489 432.17 442.721 432.17 441.774V429.827C432.17 428.88 431.402 428.112 430.455 428.112Z" fill="#707070"/>
<path d="M422.292 433.611H348.686V439.1H422.292V433.611Z" fill="url(#paint25_linear)"/>
<path d="M430.488 463.264H340.48C339.551 463.264 338.798 464.017 338.798 464.946V476.958C338.798 477.887 339.551 478.641 340.48 478.641H430.488C431.417 478.641 432.17 477.887 432.17 476.958V464.946C432.17 464.017 431.417 463.264 430.488 463.264Z" fill="#707070"/>
<path d="M422.292 468.764H348.686V474.252H422.292V468.764Z" fill="url(#paint26_linear)"/>
<path d="M493.742 508.304H277.247C276.057 508.304 275.091 509.269 275.091 510.461V513.836C275.091 515.026 276.057 515.992 277.247 515.992H493.742C494.933 515.992 495.899 515.026 495.899 513.836V510.461C495.899 509.269 494.933 508.304 493.742 508.304Z" fill="#474747"/>
<path d="M493.742 537.968H277.247C276.057 537.968 275.091 538.933 275.091 540.124V543.499C275.091 544.69 276.057 545.656 277.247 545.656H493.742C494.933 545.656 495.899 544.69 495.899 543.499V540.124C495.899 538.933 494.933 537.968 493.742 537.968Z" fill="#474747"/>
<path d="M493.72 567.632H277.269C276.065 567.632 275.091 568.607 275.091 569.81V573.142C275.091 574.345 276.065 575.32 277.269 575.32H493.72C494.924 575.32 495.899 574.345 495.899 573.142V569.81C495.899 568.607 494.924 567.632 493.72 567.632Z" fill="#474747"/>
<path d="M469.534 356.417H456.346V369.604H469.534V356.417Z" fill="white"/>
<g filter="url(#filter23_d)">
<path d="M369.012 367.405C371.139 367.405 372.862 365.681 372.862 363.555C372.862 361.429 371.139 359.706 369.012 359.706C366.886 359.706 365.163 361.429 365.163 363.555C365.163 365.681 366.886 367.405 369.012 367.405Z" fill="white"/>
</g>
<path d="M431.081 361.636H393.728V364.935H431.081V361.636Z" fill="#AF5473"/>
<path d="M380.195 205.144C381.797 205.144 383.095 203.845 383.095 202.243C383.095 200.641 381.797 199.343 380.195 199.343C378.592 199.343 377.294 200.641 377.294 202.243C377.294 203.845 378.592 205.144 380.195 205.144Z" fill="#554FBC"/>
<path d="M380.195 259.134C381.797 259.134 383.095 257.835 383.095 256.233C383.095 254.631 381.797 253.333 380.195 253.333C378.592 253.333 377.294 254.631 377.294 256.233C377.294 257.835 378.592 259.134 380.195 259.134Z" fill="#554FBC"/>
<path d="M380.195 313.123C381.797 313.123 383.095 311.824 383.095 310.223C383.095 308.621 381.797 307.322 380.195 307.322C378.592 307.322 377.294 308.621 377.294 310.223C377.294 311.824 378.592 313.123 380.195 313.123Z" fill="#554FBC"/>
<path d="M380.195 366.111C381.797 366.111 383.095 364.812 383.095 363.21C383.095 361.608 381.797 360.31 380.195 360.31C378.592 360.31 377.294 361.608 377.294 363.21C377.294 364.812 378.592 366.111 380.195 366.111Z" fill="#554FBC"/>
<path d="M569.505 439.197V438.981C569.503 438.743 569.485 438.505 569.451 438.27C569.371 436.78 568.956 435.328 568.238 434.021C567.519 432.714 566.515 431.587 565.299 430.722C565.076 430.541 564.838 430.378 564.588 430.236C564.35 430.069 564.097 429.925 563.833 429.805L569.505 439.197ZM203.566 429.805C203.305 429.925 203.056 430.069 202.822 430.236C202.568 430.372 202.33 430.535 202.11 430.722C200.896 431.588 199.891 432.715 199.17 434.022C198.45 435.328 198.032 436.78 197.948 438.27C197.948 438.507 197.948 438.744 197.948 438.981V439.197L203.566 429.805Z" stroke="black" stroke-miterlimit="10"/>
<g filter="url(#filter24_d)">
<path d="M190 428C190 420.82 195.82 415 203 415H565C572.18 415 578 420.82 578 428V672C578 674.761 575.761 677 573 677H195C192.239 677 190 674.761 190 672V428Z" fill="#1E1E23"/>
</g>
<g filter="url(#filter25_d)">
<path d="M564.999 438.28V438.306V657.282C565.02 658.671 564.769 660.051 564.263 661.342M564.999 438.28L563.332 660.977M564.999 438.28L564.998 438.255C564.981 437.927 564.948 437.601 564.899 437.277C564.771 435.692 564.315 434.152 563.561 432.757L563.561 432.757C562.8 431.35 561.753 430.124 560.489 429.16L560.471 429.147L560.453 429.134L559.763 428.655L559.73 428.632L559.694 428.611L558.963 428.187L558.932 428.169L558.9 428.154C558.664 428.038 558.4 427.91 558.11 427.791C557.818 427.664 557.52 427.557 557.219 427.469C556.913 427.371 556.603 427.292 556.289 427.232C555.57 427.077 554.838 427 554.105 427L213.801 427L213.8 427C213.064 427.001 212.329 427.079 211.608 427.234C210.993 427.363 210.391 427.548 209.808 427.786L209.789 427.794L209.769 427.803L209.028 428.143L208.982 428.165L208.938 428.19L208.217 428.614L208.184 428.633L208.153 428.655L207.463 429.134L207.446 429.146L207.429 429.159C206.162 430.123 205.114 431.35 204.351 432.754L204.351 432.755C203.589 434.161 203.13 435.715 203.004 437.314L203.001 437.353V437.392V437.394V437.395V437.397V437.399V437.4V437.402V437.404V437.405V437.407V437.409V437.41V437.412V437.414V437.415V437.417V437.419V437.421V437.422V437.424V437.426V437.427V437.429V437.431V437.432V437.434V437.436V437.437V437.439V437.441V437.443V437.444V437.446V437.448V437.449V437.451V437.453V437.454V437.456V437.458V437.46V437.461V437.463V437.465V437.466V437.468V437.47V437.472V437.473V437.475V437.477V437.478V437.48V437.482V437.484V437.485V437.487V437.489V437.49V437.492V437.494V437.496V437.497V437.499V437.501V437.502V437.504V437.506V437.508V437.509V437.511V437.513V437.515V437.516V437.518V437.52V437.521V437.523V437.525V437.527V437.528V437.53V437.532V437.534V437.535V437.537V437.539V437.541V437.542V437.544V437.546V437.547V437.549V437.551V437.553V437.554V437.556V437.558V437.56V437.561V437.563V437.565V437.567V437.568V437.57V437.572V437.574V437.575V437.577V437.579V437.581V437.582V437.584V437.586V437.588V437.589V437.591V437.593V437.595V437.596V437.598V437.6V437.602V437.603V437.605V437.607V437.609V437.61V437.612V437.614V437.616V437.617V437.619V437.621V437.623V437.624V437.626V437.628V437.63V437.631V437.633V437.635V437.637V437.639V437.64V437.642V437.644V437.646V437.647V437.649V437.651V437.653V437.654V437.656V437.658V437.66V437.661V437.663V437.665V437.667V437.669V437.67V437.672V437.674V437.676V437.677V437.679V437.681V437.683V437.685V437.686V437.688V437.69V437.692V437.693V437.695V437.697V437.699V437.701V437.702V437.704V437.706V437.708V437.709V437.711V437.713V437.715V437.717V437.718V437.72V437.722V437.724V437.725V437.727V437.729V437.731V437.733V437.734V437.736V437.738V437.74V437.742V437.743V437.745V437.747V437.749V437.751V437.752V437.754V437.756V437.758V437.759V437.761V437.763V437.765V437.767V437.768V437.77V437.772V437.774V437.776V437.777V437.779V437.781V437.783V437.785V437.786V437.788V437.79V437.792V437.794V437.795V437.797V437.799V437.801V437.803V437.804V437.806V437.808V437.81V437.812V437.813V437.815V437.817V437.819V437.821V437.822V437.824V437.826V437.828V437.83V437.831V437.833V437.835V437.837V437.839V437.84V437.842V437.844V437.846V437.848V437.849V437.851V437.853V437.855V437.857V437.858V437.86V437.862V437.864V437.866V437.867V437.869V437.871V437.873V437.875V437.877V437.878V437.88V437.882V437.884V437.886V437.887V437.889V437.891V437.893V437.895V437.896V437.898V437.9V437.902V437.904V437.905V437.907V437.909V437.911V437.913V437.915V437.916V437.918V437.92V437.922V437.924V437.925V437.927V437.929V437.931V437.933V437.935V437.936V437.938V437.94V437.942V437.944V437.945V437.947V437.949V437.951V437.953V437.955V437.956V437.958V437.96V437.962V437.964V437.965V437.967V437.969V437.971V437.973V437.974V437.976V437.978V437.98V437.982V437.984V437.985V437.987V437.989V437.991V437.993V437.995V437.996V437.998V438V438.002V438.004V438.005V438.007V438.009V438.011V438.013V438.015V438.016V438.018V438.02V438.022V438.024V438.025V438.027V438.029V438.031V438.033V438.035V438.036V438.038V438.04V438.042V438.044V438.045V438.047V438.049V438.051V438.053V438.055V438.056V438.058V438.06V438.062V438.064V438.066V438.067V438.069V438.071V438.073V438.075V438.076V438.078V438.08V438.082V438.084V438.086V438.087V438.089V438.091V438.093V438.095V438.097V438.098V438.1V438.102V438.104V438.106V438.107V438.109V438.111V438.113V438.115V438.117V438.118V438.12V438.122V438.124V438.126V438.127V438.129V438.131V438.133V438.135V438.137V438.138V438.14V438.142V438.144V438.146V438.148V438.149V438.151V438.153V438.155V438.157V438.158V438.16V438.162V438.164V438.166V438.168V438.169V438.171V438.173V438.175V438.177V438.178V438.18V438.182V438.184V438.186V438.188V438.189V438.191V438.193V438.195V438.197V438.198V438.2V438.202V438.204V438.206V438.208V438.209V438.211V438.213V438.215V438.217V438.218V438.22V438.222V438.224V438.226V438.228V438.229V438.231V438.233V438.235V438.237V438.238V438.24V438.242V438.244V438.246V438.248V438.249V438.251V438.253V438.255V438.257V438.258V438.26V438.262V438.264V438.266V438.268V438.269V438.271V438.273V438.275V438.277V438.278V438.28V438.282V438.284V438.286V438.287V438.289V438.291V438.293V438.295V438.296V438.298V438.3V438.302V438.304V438.306V657.283L564.999 438.28ZM564.263 661.342L563.332 660.977M564.263 661.342C564.263 661.342 564.263 661.342 564.263 661.342L563.332 660.977M564.263 661.342C563.756 662.635 563.002 663.816 562.044 664.813C561.085 665.811 559.941 666.607 558.676 667.154M563.332 660.977C562.873 662.149 562.189 663.218 561.323 664.12C560.455 665.023 559.421 665.743 558.278 666.236M558.676 667.154L558.278 666.236M558.676 667.154C558.676 667.154 558.675 667.154 558.675 667.154L558.278 666.236M558.676 667.154C557.412 667.702 556.052 667.989 554.677 668L554.669 668L213.331 668H213.323C211.948 667.989 210.588 667.702 209.324 667.154M558.278 666.236L203.737 661.342C204.243 662.635 204.998 663.816 205.956 664.813C206.915 665.811 208.059 666.607 209.324 667.154M209.324 667.154L209.722 666.236L209.325 667.154C209.324 667.154 209.324 667.154 209.324 667.154Z" stroke="#3E3E3E" stroke-width="2"/>
</g>
<g filter="url(#filter26_d)">
<path d="M563.999 438.306V657.29C564.019 658.551 563.792 659.805 563.332 660.977C562.873 662.149 562.189 663.218 561.323 664.12C560.455 665.023 559.421 665.743 558.278 666.236C557.137 666.731 555.91 666.99 554.669 667H213.331C212.09 666.99 210.863 666.731 209.722 666.236C208.579 665.743 207.545 665.023 206.677 664.12C205.81 663.218 205.127 662.149 204.668 660.977C204.208 659.805 203.982 658.551 204.001 657.29V438.306C204.001 437.997 204.001 437.678 204.001 437.392C204.116 435.932 204.535 434.514 205.23 433.232C205.926 431.95 206.881 430.832 208.034 429.955L208.724 429.476L209.445 429.052L210.187 428.712C210.714 428.496 211.259 428.329 211.816 428.213C212.468 428.072 213.134 428.001 213.801 428H554.105C554.772 428 555.437 428.071 556.09 428.213C556.372 428.265 556.651 428.336 556.926 428.425C557.196 428.503 557.462 428.599 557.72 428.712C557.981 428.819 558.221 428.935 558.461 429.052L559.193 429.476L559.883 429.955C561.034 430.833 561.988 431.95 562.682 433.233C563.375 434.515 563.792 435.932 563.905 437.392C563.952 437.694 563.983 437.999 563.999 438.306Z" fill="url(#paint27_linear)"/>
</g>
<path d="M350.821 680.873V685.963C350.821 687.914 352.083 689.499 353.625 689.499H416.405C417.947 689.499 419.208 687.914 419.208 685.963V680.873H350.821ZM350.821 680.873V685.963C350.821 687.914 352.083 689.499 353.625 689.499H416.405C417.947 689.499 419.208 687.914 419.208 685.963V680.873H350.821Z" fill="#E8E8E8" stroke="black" stroke-width="0.890352" stroke-miterlimit="10"/>
<path d="M614.643 677.099H152.777C150.501 677.099 148.657 679.428 148.657 682.296V689.154C148.616 690.061 148.806 690.964 149.207 691.778C149.609 692.593 150.21 693.292 150.954 693.813H616.509C617.253 693.292 617.853 692.593 618.255 691.778C618.657 690.964 618.845 690.061 618.806 689.154V682.296C618.806 679.428 616.962 677.099 614.643 677.099ZM419.165 682.728C419.165 684.679 417.903 686.265 416.361 686.265H353.625C352.083 686.265 350.821 684.679 350.821 682.728V677.638H419.208L419.165 682.728Z" fill="#DEDEDE"/>
<path d="M419.208 677.639V682.728C419.208 684.68 417.947 686.265 416.405 686.265H353.625C352.083 686.265 350.821 684.68 350.821 682.728V677.639H419.208Z" fill="#636363"/>
<path d="M617.102 693.812L602.34 702.353C602.124 702.471 601.919 702.59 601.714 702.687C599.395 703.935 596.802 704.591 594.166 704.595H173.265C170.404 704.58 167.598 703.806 165.134 702.353L150.372 693.812H150.965C151.51 694.161 152.142 694.347 152.788 694.352H614.643C615.289 694.347 615.921 694.161 616.466 693.812H617.102Z" fill="url(#paint28_linear)"/>
<path d="M240.854 685.187H211.739V686.265H240.854V685.187Z" fill="#747474"/>
<path d="M554.947 685.187H525.833V686.265H554.947V685.187Z" fill="#747474"/>
<path d="M325.534 531.511H336.958V564.122C336.958 567.146 336.251 569.845 334.837 572.217C333.444 574.59 331.486 576.428 328.96 577.734C326.458 579.04 323.662 579.692 320.571 579.692C315.392 579.692 311.365 578.387 308.493 575.776C305.62 573.164 304.184 569.464 304.184 564.677H315.674C315.674 566.853 316.044 568.43 316.784 569.409C317.546 570.39 318.808 570.879 320.571 570.879C322.159 570.879 323.379 570.292 324.228 569.116C325.098 567.919 325.534 566.254 325.534 564.122V531.511ZM381.485 531.511V562.62C381.485 566.146 380.735 569.204 379.233 571.793C377.732 574.361 375.577 576.319 372.769 577.669C369.963 579.018 366.643 579.692 362.813 579.692C357.024 579.692 352.465 578.191 349.135 575.188C345.805 572.185 344.108 568.071 344.043 562.848V531.511H355.566V563.077C355.696 568.278 358.113 570.879 362.813 570.879C365.186 570.879 366.981 570.226 368.199 568.92C369.418 567.614 370.027 565.493 370.027 562.555V531.511H381.485ZM427.123 562.946C426.97 566.254 426.078 569.181 424.446 571.728C422.814 574.252 420.518 576.21 417.558 577.603C414.62 578.997 411.258 579.692 407.471 579.692C401.225 579.692 396.306 577.657 392.715 573.588C389.124 569.518 387.329 563.773 387.329 556.353V554.002C387.329 549.345 388.134 545.275 389.745 541.794C391.377 538.29 393.717 535.591 396.763 533.698C399.81 531.783 403.336 530.825 407.34 530.825C413.107 530.825 417.743 532.349 421.246 535.395C424.751 538.421 426.742 542.599 427.22 547.93H415.796C415.708 545.036 414.979 542.958 413.608 541.695C412.237 540.434 410.147 539.802 407.34 539.802C404.489 539.802 402.401 540.868 401.072 543.001C399.745 545.134 399.048 548.54 398.983 553.219V556.581C398.983 561.651 399.614 565.275 400.877 567.451C402.161 569.627 404.359 570.715 407.471 570.715C410.104 570.715 412.117 570.095 413.511 568.855C414.903 567.614 415.642 565.645 415.73 562.946H427.123ZM462.02 558.898H444V570.226H465.284V579.04H432.542V531.511H465.35V540.357H444V550.379H462.02V558.898Z" fill="#BF3A4A"/>
<path d="M309.478 561.787C313.051 561.787 315.948 558.891 315.948 555.317C315.948 551.744 313.051 548.848 309.478 548.848C305.905 548.848 303.008 551.744 303.008 555.317C303.008 558.891 305.905 561.787 309.478 561.787Z" fill="#E3445B"/>
<defs>
<filter id="filter0_f" x="2.27124" y="213.614" width="261.803" height="430.009" filterUnits="userSpaceOnUse" color-interpolation-filters="sRGB">
<feFlood flood-opacity="0" result="BackgroundImageFix"/>
<feBlend mode="normal" in="SourceGraphic" in2="BackgroundImageFix" result="shape"/>
<feGaussianBlur stdDeviation="14.5" result="effect1_foregroundBlur"/>
</filter>
<filter id="filter1_f" x="519.866" y="213.614" width="248.863" height="430.009" filterUnits="userSpaceOnUse" color-interpolation-filters="sRGB">
<feFlood flood-opacity="0" result="BackgroundImageFix"/>
<feBlend mode="normal" in="SourceGraphic" in2="BackgroundImageFix" result="shape"/>
<feGaussianBlur stdDeviation="14.5" result="effect1_foregroundBlur"/>
</filter>
<filter id="filter2_f" x="245.972" y="118.725" width="279.056" height="430.009" filterUnits="userSpaceOnUse" color-interpolation-filters="sRGB">
<feFlood flood-opacity="0" result="BackgroundImageFix"/>
<feBlend mode="normal" in="SourceGraphic" in2="BackgroundImageFix" result="shape"/>
<feGaussianBlur stdDeviation="14.5" result="effect1_foregroundBlur"/>
</filter>
<filter id="filter3_f" x="148.827" y="679.338" width="459.329" height="48.4874" filterUnits="userSpaceOnUse" color-interpolation-filters="sRGB">
<feFlood flood-opacity="0" result="BackgroundImageFix"/>
<feBlend mode="normal" in="SourceGraphic" in2="BackgroundImageFix" result="shape"/>
<feGaussianBlur stdDeviation="7" result="effect1_foregroundBlur"/>
</filter>
<filter id="filter4_f" x="18.0364" y="613.25" width="245.369" height="31.8611" filterUnits="userSpaceOnUse" color-interpolation-filters="sRGB">
<feFlood flood-opacity="0" result="BackgroundImageFix"/>
<feBlend mode="normal" in="SourceGraphic" in2="BackgroundImageFix" result="shape"/>
<feGaussianBlur stdDeviation="5" result="effect1_foregroundBlur"/>
</filter>
<filter id="filter5_f" x="509.751" y="613.25" width="245.369" height="31.8611" filterUnits="userSpaceOnUse" color-interpolation-filters="sRGB">
<feFlood flood-opacity="0" result="BackgroundImageFix"/>
<feBlend mode="normal" in="SourceGraphic" in2="BackgroundImageFix" result="shape"/>
<feGaussianBlur stdDeviation="5" result="effect1_foregroundBlur"/>
</filter>
<filter id="filter6_d" x="61.3259" y="108.22" width="137.224" height="94.3507" filterUnits="userSpaceOnUse" color-interpolation-filters="sRGB">
<feFlood flood-opacity="0" result="BackgroundImageFix"/>
<feColorMatrix in="SourceAlpha" type="matrix" values="0 0 0 0 0 0 0 0 0 0 0 0 0 0 0 0 0 0 127 0"/>
<feOffset dy="7"/>
<feGaussianBlur stdDeviation="6"/>
<feColorMatrix type="matrix" values="0 0 0 0 0 0 0 0 0 0 0 0 0 0 0 0 0 0 0.1 0"/>
<feBlend mode="normal" in2="BackgroundImageFix" result="effect1_dropShadow"/>
<feBlend mode="normal" in="SourceGraphic" in2="effect1_dropShadow" result="shape"/>
</filter>
<filter id="filter7_d" x="302.326" y="0.402344" width="166.87" height="114.501" filterUnits="userSpaceOnUse" color-interpolation-filters="sRGB">
<feFlood flood-opacity="0" result="BackgroundImageFix"/>
<feColorMatrix in="SourceAlpha" type="matrix" values="0 0 0 0 0 0 0 0 0 0 0 0 0 0 0 0 0 0 127 0"/>
<feOffset dy="7"/>
<feGaussianBlur stdDeviation="6"/>
<feColorMatrix type="matrix" values="0 0 0 0 0 0 0 0 0 0 0 0 0 0 0 0 0 0 0.1 0"/>
<feBlend mode="normal" in2="BackgroundImageFix" result="effect1_dropShadow"/>
<feBlend mode="normal" in="SourceGraphic" in2="effect1_dropShadow" result="shape"/>
</filter>
<filter id="filter8_d" x="573.529" y="111.455" width="137.224" height="95.1667" filterUnits="userSpaceOnUse" color-interpolation-filters="sRGB">
<feFlood flood-opacity="0" result="BackgroundImageFix"/>
<feColorMatrix in="SourceAlpha" type="matrix" values="0 0 0 0 0 0 0 0 0 0 0 0 0 0 0 0 0 0 127 0"/>
<feOffset dy="7"/>
<feGaussianBlur stdDeviation="6"/>
<feColorMatrix type="matrix" values="0 0 0 0 0 0 0 0 0 0 0 0 0 0 0 0 0 0 0.1 0"/>
<feBlend mode="normal" in2="BackgroundImageFix" result="effect1_dropShadow"/>
<feBlend mode="normal" in="SourceGraphic" in2="effect1_dropShadow" result="shape"/>
</filter>
<filter id="filter9_d" x="109.472" y="232.738" width="14.6856" height="14.6854" filterUnits="userSpaceOnUse" color-interpolation-filters="sRGB">
<feFlood flood-opacity="0" result="BackgroundImageFix"/>
<feColorMatrix in="SourceAlpha" type="matrix" values="0 0 0 0 0 0 0 0 0 0 0 0 0 0 0 0 0 0 127 0"/>
<feOffset/>
<feGaussianBlur stdDeviation="2"/>
<feColorMatrix type="matrix" values="0 0 0 0 1 0 0 0 0 1 0 0 0 0 1 0 0 0 0.65 0"/>
<feBlend mode="normal" in2="BackgroundImageFix" result="effect1_dropShadow"/>
<feBlend mode="normal" in="SourceGraphic" in2="effect1_dropShadow" result="shape"/>
</filter>
<filter id="filter10_d" x="109.472" y="279.579" width="14.6856" height="14.6854" filterUnits="userSpaceOnUse" color-interpolation-filters="sRGB">
<feFlood flood-opacity="0" result="BackgroundImageFix"/>
<feColorMatrix in="SourceAlpha" type="matrix" values="0 0 0 0 0 0 0 0 0 0 0 0 0 0 0 0 0 0 127 0"/>
<feOffset/>
<feGaussianBlur stdDeviation="2"/>
<feColorMatrix type="matrix" values="0 0 0 0 1 0 0 0 0 1 0 0 0 0 1 0 0 0 0.65 0"/>
<feBlend mode="normal" in2="BackgroundImageFix" result="effect1_dropShadow"/>
<feBlend mode="normal" in="SourceGraphic" in2="effect1_dropShadow" result="shape"/>
</filter>
<filter id="filter11_d" x="109.472" y="326.43" width="14.6856" height="14.6854" filterUnits="userSpaceOnUse" color-interpolation-filters="sRGB">
<feFlood flood-opacity="0" result="BackgroundImageFix"/>
<feColorMatrix in="SourceAlpha" type="matrix" values="0 0 0 0 0 0 0 0 0 0 0 0 0 0 0 0 0 0 127 0"/>
<feOffset/>
<feGaussianBlur stdDeviation="2"/>
<feColorMatrix type="matrix" values="0 0 0 0 1 0 0 0 0 1 0 0 0 0 1 0 0 0 0.65 0"/>
<feBlend mode="normal" in2="BackgroundImageFix" result="effect1_dropShadow"/>
<feBlend mode="normal" in="SourceGraphic" in2="effect1_dropShadow" result="shape"/>
</filter>
<filter id="filter12_d" x="109.472" y="373.271" width="14.6856" height="14.6853" filterUnits="userSpaceOnUse" color-interpolation-filters="sRGB">
<feFlood flood-opacity="0" result="BackgroundImageFix"/>
<feColorMatrix in="SourceAlpha" type="matrix" values="0 0 0 0 0 0 0 0 0 0 0 0 0 0 0 0 0 0 127 0"/>
<feOffset/>
<feGaussianBlur stdDeviation="2"/>
<feColorMatrix type="matrix" values="0 0 0 0 1 0 0 0 0 1 0 0 0 0 1 0 0 0 0.65 0"/>
<feBlend mode="normal" in2="BackgroundImageFix" result="effect1_dropShadow"/>
<feBlend mode="normal" in="SourceGraphic" in2="effect1_dropShadow" result="shape"/>
</filter>
<filter id="filter13_d" x="109.472" y="420.112" width="14.6856" height="14.6854" filterUnits="userSpaceOnUse" color-interpolation-filters="sRGB">
<feFlood flood-opacity="0" result="BackgroundImageFix"/>
<feColorMatrix in="SourceAlpha" type="matrix" values="0 0 0 0 0 0 0 0 0 0 0 0 0 0 0 0 0 0 127 0"/>
<feOffset/>
<feGaussianBlur stdDeviation="2"/>
<feColorMatrix type="matrix" values="0 0 0 0 1 0 0 0 0 1 0 0 0 0 1 0 0 0 0.65 0"/>
<feBlend mode="normal" in2="BackgroundImageFix" result="effect1_dropShadow"/>
<feBlend mode="normal" in="SourceGraphic" in2="effect1_dropShadow" result="shape"/>
</filter>
<filter id="filter14_d" x="620.381" y="233.007" width="14.6855" height="14.6854" filterUnits="userSpaceOnUse" color-interpolation-filters="sRGB">
<feFlood flood-opacity="0" result="BackgroundImageFix"/>
<feColorMatrix in="SourceAlpha" type="matrix" values="0 0 0 0 0 0 0 0 0 0 0 0 0 0 0 0 0 0 127 0"/>
<feOffset/>
<feGaussianBlur stdDeviation="2"/>
<feColorMatrix type="matrix" values="0 0 0 0 1 0 0 0 0 1 0 0 0 0 1 0 0 0 0.65 0"/>
<feBlend mode="normal" in2="BackgroundImageFix" result="effect1_dropShadow"/>
<feBlend mode="normal" in="SourceGraphic" in2="effect1_dropShadow" result="shape"/>
</filter>
<filter id="filter15_d" x="620.381" y="279.816" width="14.6855" height="14.6854" filterUnits="userSpaceOnUse" color-interpolation-filters="sRGB">
<feFlood flood-opacity="0" result="BackgroundImageFix"/>
<feColorMatrix in="SourceAlpha" type="matrix" values="0 0 0 0 0 0 0 0 0 0 0 0 0 0 0 0 0 0 127 0"/>
<feOffset/>
<feGaussianBlur stdDeviation="2"/>
<feColorMatrix type="matrix" values="0 0 0 0 1 0 0 0 0 1 0 0 0 0 1 0 0 0 0.65 0"/>
<feBlend mode="normal" in2="BackgroundImageFix" result="effect1_dropShadow"/>
<feBlend mode="normal" in="SourceGraphic" in2="effect1_dropShadow" result="shape"/>
</filter>
<filter id="filter16_d" x="620.381" y="326.635" width="14.6855" height="14.6853" filterUnits="userSpaceOnUse" color-interpolation-filters="sRGB">
<feFlood flood-opacity="0" result="BackgroundImageFix"/>
<feColorMatrix in="SourceAlpha" type="matrix" values="0 0 0 0 0 0 0 0 0 0 0 0 0 0 0 0 0 0 127 0"/>
<feOffset/>
<feGaussianBlur stdDeviation="2"/>
<feColorMatrix type="matrix" values="0 0 0 0 1 0 0 0 0 1 0 0 0 0 1 0 0 0 0.65 0"/>
<feBlend mode="normal" in2="BackgroundImageFix" result="effect1_dropShadow"/>
<feBlend mode="normal" in="SourceGraphic" in2="effect1_dropShadow" result="shape"/>
</filter>
<filter id="filter17_d" x="620.381" y="373.443" width="14.6855" height="14.6853" filterUnits="userSpaceOnUse" color-interpolation-filters="sRGB">
<feFlood flood-opacity="0" result="BackgroundImageFix"/>
<feColorMatrix in="SourceAlpha" type="matrix" values="0 0 0 0 0 0 0 0 0 0 0 0 0 0 0 0 0 0 127 0"/>
<feOffset/>
<feGaussianBlur stdDeviation="2"/>
<feColorMatrix type="matrix" values="0 0 0 0 1 0 0 0 0 1 0 0 0 0 1 0 0 0 0.65 0"/>
<feBlend mode="normal" in2="BackgroundImageFix" result="effect1_dropShadow"/>
<feBlend mode="normal" in="SourceGraphic" in2="effect1_dropShadow" result="shape"/>
</filter>
<filter id="filter18_d" x="620.381" y="420.252" width="14.6855" height="14.6853" filterUnits="userSpaceOnUse" color-interpolation-filters="sRGB">
<feFlood flood-opacity="0" result="BackgroundImageFix"/>
<feColorMatrix in="SourceAlpha" type="matrix" values="0 0 0 0 0 0 0 0 0 0 0 0 0 0 0 0 0 0 127 0"/>
<feOffset/>
<feGaussianBlur stdDeviation="2"/>
<feColorMatrix type="matrix" values="0 0 0 0 1 0 0 0 0 1 0 0 0 0 1 0 0 0 0.65 0"/>
<feBlend mode="normal" in2="BackgroundImageFix" result="effect1_dropShadow"/>
<feBlend mode="normal" in="SourceGraphic" in2="effect1_dropShadow" result="shape"/>
</filter>
<filter id="filter19_d" x="361.163" y="140.394" width="15.6992" height="15.699" filterUnits="userSpaceOnUse" color-interpolation-filters="sRGB">
<feFlood flood-opacity="0" result="BackgroundImageFix"/>
<feColorMatrix in="SourceAlpha" type="matrix" values="0 0 0 0 0 0 0 0 0 0 0 0 0 0 0 0 0 0 127 0"/>
<feOffset/>
<feGaussianBlur stdDeviation="2"/>
<feColorMatrix type="matrix" values="0 0 0 0 1 0 0 0 0 1 0 0 0 0 1 0 0 0 0.65 0"/>
<feBlend mode="normal" in2="BackgroundImageFix" result="effect1_dropShadow"/>
<feBlend mode="normal" in="SourceGraphic" in2="effect1_dropShadow" result="shape"/>
</filter>
<filter id="filter20_d" x="361.163" y="194.222" width="15.6992" height="15.6989" filterUnits="userSpaceOnUse" color-interpolation-filters="sRGB">
<feFlood flood-opacity="0" result="BackgroundImageFix"/>
<feColorMatrix in="SourceAlpha" type="matrix" values="0 0 0 0 0 0 0 0 0 0 0 0 0 0 0 0 0 0 127 0"/>
<feOffset/>
<feGaussianBlur stdDeviation="2"/>
<feColorMatrix type="matrix" values="0 0 0 0 1 0 0 0 0 1 0 0 0 0 1 0 0 0 0.65 0"/>
<feBlend mode="normal" in2="BackgroundImageFix" result="effect1_dropShadow"/>
<feBlend mode="normal" in="SourceGraphic" in2="effect1_dropShadow" result="shape"/>
</filter>
<filter id="filter21_d" x="361.163" y="248.049" width="15.6992" height="15.699" filterUnits="userSpaceOnUse" color-interpolation-filters="sRGB">
<feFlood flood-opacity="0" result="BackgroundImageFix"/>
<feColorMatrix in="SourceAlpha" type="matrix" values="0 0 0 0 0 0 0 0 0 0 0 0 0 0 0 0 0 0 127 0"/>
<feOffset/>
<feGaussianBlur stdDeviation="2"/>
<feColorMatrix type="matrix" values="0 0 0 0 1 0 0 0 0 1 0 0 0 0 1 0 0 0 0.65 0"/>
<feBlend mode="normal" in2="BackgroundImageFix" result="effect1_dropShadow"/>
<feBlend mode="normal" in="SourceGraphic" in2="effect1_dropShadow" result="shape"/>
</filter>
<filter id="filter22_d" x="361.163" y="301.877" width="15.6992" height="15.6989" filterUnits="userSpaceOnUse" color-interpolation-filters="sRGB">
<feFlood flood-opacity="0" result="BackgroundImageFix"/>
<feColorMatrix in="SourceAlpha" type="matrix" values="0 0 0 0 0 0 0 0 0 0 0 0 0 0 0 0 0 0 127 0"/>
<feOffset/>
<feGaussianBlur stdDeviation="2"/>
<feColorMatrix type="matrix" values="0 0 0 0 1 0 0 0 0 1 0 0 0 0 1 0 0 0 0.65 0"/>
<feBlend mode="normal" in2="BackgroundImageFix" result="effect1_dropShadow"/>
<feBlend mode="normal" in="SourceGraphic" in2="effect1_dropShadow" result="shape"/>
</filter>
<filter id="filter23_d" x="361.163" y="355.706" width="15.6992" height="15.699" filterUnits="userSpaceOnUse" color-interpolation-filters="sRGB">
<feFlood flood-opacity="0" result="BackgroundImageFix"/>
<feColorMatrix in="SourceAlpha" type="matrix" values="0 0 0 0 0 0 0 0 0 0 0 0 0 0 0 0 0 0 127 0"/>
<feOffset/>
<feGaussianBlur stdDeviation="2"/>
<feColorMatrix type="matrix" values="0 0 0 0 1 0 0 0 0 1 0 0 0 0 1 0 0 0 0.65 0"/>
<feBlend mode="normal" in2="BackgroundImageFix" result="effect1_dropShadow"/>
<feBlend mode="normal" in="SourceGraphic" in2="effect1_dropShadow" result="shape"/>
</filter>
<filter id="filter24_d" x="149" y="378" width="470" height="344" filterUnits="userSpaceOnUse" color-interpolation-filters="sRGB">
<feFlood flood-opacity="0" result="BackgroundImageFix"/>
<feColorMatrix in="SourceAlpha" type="matrix" values="0 0 0 0 0 0 0 0 0 0 0 0 0 0 0 0 0 0 127 0"/>
<feOffset dy="4"/>
<feGaussianBlur stdDeviation="20.5"/>
<feColorMatrix type="matrix" values="0 0 0 0 0 0 0 0 0 0 0 0 0 0 0 0 0 0 0.48 0"/>
<feBlend mode="normal" in2="BackgroundImageFix" result="effect1_dropShadow"/>
<feBlend mode="normal" in="SourceGraphic" in2="effect1_dropShadow" result="shape"/>
</filter>
<filter id="filter25_d" x="179" y="400" width="410" height="289" filterUnits="userSpaceOnUse" color-interpolation-filters="sRGB">
<feFlood flood-opacity="0" result="BackgroundImageFix"/>
<feColorMatrix in="SourceAlpha" type="matrix" values="0 0 0 0 0 0 0 0 0 0 0 0 0 0 0 0 0 0 127 0"/>
<feOffset dy="-3"/>
<feGaussianBlur stdDeviation="11.5"/>
<feColorMatrix type="matrix" values="0 0 0 0 1 0 0 0 0 1 0 0 0 0 1 0 0 0 0.46 0"/>
<feBlend mode="normal" in2="BackgroundImageFix" result="effect1_dropShadow"/>
<feBlend mode="normal" in="SourceGraphic" in2="effect1_dropShadow" result="shape"/>
</filter>
<filter id="filter26_d" x="189" y="411" width="390" height="269" filterUnits="userSpaceOnUse" color-interpolation-filters="sRGB">
<feFlood flood-opacity="0" result="BackgroundImageFix"/>
<feColorMatrix in="SourceAlpha" type="matrix" values="0 0 0 0 0 0 0 0 0 0 0 0 0 0 0 0 0 0 127 0"/>
<feOffset dy="-2"/>
<feGaussianBlur stdDeviation="7.5"/>
<feColorMatrix type="matrix" values="0 0 0 0 1 0 0 0 0 1 0 0 0 0 1 0 0 0 0.46 0"/>
<feBlend mode="normal" in2="BackgroundImageFix" result="effect1_dropShadow"/>
<feBlend mode="normal" in="SourceGraphic" in2="effect1_dropShadow" result="shape"/>
</filter>
<linearGradient id="paint0_linear" x1="130.477" y1="148.804" x2="130.477" y2="224.823" gradientUnits="userSpaceOnUse">
<stop stop-color="white"/>
<stop offset="1" stop-color="#EBEBEB"/>
</linearGradient>
<linearGradient id="paint1_linear" x1="386.039" y1="50.6793" x2="386.039" y2="153.656" gradientUnits="userSpaceOnUse">
<stop stop-color="white"/>
<stop offset="1" stop-color="#EBEBEB"/>
</linearGradient>
<linearGradient id="paint2_linear" x1="642.68" y1="152.038" x2="642.68" y2="227.518" gradientUnits="userSpaceOnUse">
<stop stop-color="white"/>
<stop offset="1" stop-color="#EBEBEB"/>
</linearGradient>
<linearGradient id="paint3_linear" x1="131.48" y1="254.648" x2="131.814" y2="221.782" gradientUnits="userSpaceOnUse">
<stop stop-color="#1E1E23"/>
<stop offset="0.05" stop-color="#1F1F24"/>
<stop offset="1" stop-color="#2C2C33"/>
</linearGradient>
<linearGradient id="paint4_linear" x1="22053.1" y1="12060" x2="22053.1" y2="10419.1" gradientUnits="userSpaceOnUse">
<stop stop-color="#1E1E23"/>
<stop offset="0.05" stop-color="#1F1F24"/>
<stop offset="1" stop-color="#2C2C33"/>
</linearGradient>
<linearGradient id="paint5_linear" x1="22053.1" y1="13934.5" x2="22053.1" y2="12293.7" gradientUnits="userSpaceOnUse">
<stop stop-color="#1E1E23"/>
<stop offset="0.05" stop-color="#1F1F24"/>
<stop offset="1" stop-color="#2C2C33"/>
</linearGradient>
<linearGradient id="paint6_linear" x1="22053.1" y1="15968.5" x2="22053.1" y2="14153.8" gradientUnits="userSpaceOnUse">
<stop stop-color="#1E1E23"/>
<stop offset="0.05" stop-color="#1F1F24"/>
<stop offset="1" stop-color="#2C2C33"/>
</linearGradient>
<linearGradient id="paint7_linear" x1="22053.1" y1="17682.7" x2="22053.1" y2="16041.8" gradientUnits="userSpaceOnUse">
<stop stop-color="#1E1E23"/>
<stop offset="0.05" stop-color="#1F1F24"/>
<stop offset="1" stop-color="#2C2C33"/>
</linearGradient>
<linearGradient id="paint8_linear" x1="133.701" y1="650.541" x2="129.528" y2="432.684" gradientUnits="userSpaceOnUse">
<stop offset="0.39" stop-color="#18181C"/>
<stop offset="0.47" stop-color="#1B1B1F"/>
<stop offset="1" stop-color="#2A292D"/>
</linearGradient>
<linearGradient id="paint9_linear" x1="99.1299" y1="490.804" x2="163.182" y2="490.804" gradientUnits="userSpaceOnUse">
<stop stop-color="#151516"/>
<stop offset="0.45" stop-color="#242426"/>
<stop offset="1" stop-color="#333335"/>
</linearGradient>
<linearGradient id="paint10_linear" x1="4642.36" y1="2804.94" x2="8447.07" y2="2804.94" gradientUnits="userSpaceOnUse">
<stop stop-color="#151516"/>
<stop offset="0.45" stop-color="#242426"/>
<stop offset="1" stop-color="#333335"/>
</linearGradient>
<linearGradient id="paint11_linear" x1="125719" y1="9945.23" x2="125723" y2="8664.82" gradientUnits="userSpaceOnUse">
<stop stop-color="#1E1E23"/>
<stop offset="0.05" stop-color="#1F1F24"/>
<stop offset="1" stop-color="#2C2C33"/>
</linearGradient>
<linearGradient id="paint12_linear" x1="125751" y1="12060" x2="125751" y2="10421.6" gradientUnits="userSpaceOnUse">
<stop stop-color="#1E1E23"/>
<stop offset="0.05" stop-color="#1F1F24"/>
<stop offset="1" stop-color="#2C2C33"/>
</linearGradient>
<linearGradient id="paint13_linear" x1="125751" y1="13931.4" x2="125751" y2="12293" gradientUnits="userSpaceOnUse">
<stop stop-color="#1E1E23"/>
<stop offset="0.05" stop-color="#1F1F24"/>
<stop offset="1" stop-color="#2C2C33"/>
</linearGradient>
<linearGradient id="paint14_linear" x1="125751" y1="15962.5" x2="125751" y2="14151" gradientUnits="userSpaceOnUse">
<stop stop-color="#1E1E23"/>
<stop offset="0.05" stop-color="#1F1F24"/>
<stop offset="1" stop-color="#2C2C33"/>
</linearGradient>
<linearGradient id="paint15_linear" x1="125751" y1="17674.6" x2="125751" y2="16035.8" gradientUnits="userSpaceOnUse">
<stop stop-color="#1E1E23"/>
<stop offset="0.05" stop-color="#1F1F24"/>
<stop offset="1" stop-color="#2C2C33"/>
</linearGradient>
<linearGradient id="paint16_linear" x1="126168" y1="107340" x2="125601" y2="71265.9" gradientUnits="userSpaceOnUse">
<stop offset="0.39" stop-color="#18181C"/>
<stop offset="0.47" stop-color="#1B1B1F"/>
<stop offset="1" stop-color="#2A292D"/>
</linearGradient>
<linearGradient id="paint17_linear" x1="35478.4" y1="2639.34" x2="39278" y2="2639.34" gradientUnits="userSpaceOnUse">
<stop stop-color="#151516"/>
<stop offset="0.45" stop-color="#242426"/>
<stop offset="1" stop-color="#333335"/>
</linearGradient>
<linearGradient id="paint18_linear" x1="35478.4" y1="2805.31" x2="39278" y2="2805.31" gradientUnits="userSpaceOnUse">
<stop stop-color="#151516"/>
<stop offset="0.45" stop-color="#242426"/>
<stop offset="1" stop-color="#333335"/>
</linearGradient>
<linearGradient id="paint19_linear" x1="84630" y1="7278.57" x2="84633.4" y2="5584.59" gradientUnits="userSpaceOnUse">
<stop stop-color="#1E1E23"/>
<stop offset="0.05" stop-color="#1F1F24"/>
<stop offset="1" stop-color="#2C2C33"/>
</linearGradient>
<linearGradient id="paint20_linear" x1="84670.1" y1="10067" x2="84670.1" y2="7900.39" gradientUnits="userSpaceOnUse">
<stop stop-color="#1E1E23"/>
<stop offset="0.05" stop-color="#1F1F24"/>
<stop offset="1" stop-color="#2C2C33"/>
</linearGradient>
<linearGradient id="paint21_linear" x1="84670" y1="12533.9" x2="84670" y2="10367.3" gradientUnits="userSpaceOnUse">
<stop stop-color="#1E1E23"/>
<stop offset="0.05" stop-color="#1F1F24"/>
<stop offset="1" stop-color="#2C2C33"/>
</linearGradient>
<linearGradient id="paint22_linear" x1="84670.1" y1="15212.1" x2="84670.1" y2="12815.9" gradientUnits="userSpaceOnUse">
<stop stop-color="#1E1E23"/>
<stop offset="0.05" stop-color="#1F1F24"/>
<stop offset="1" stop-color="#2C2C33"/>
</linearGradient>
<linearGradient id="paint23_linear" x1="84670" y1="17467.8" x2="84670" y2="15300.7" gradientUnits="userSpaceOnUse">
<stop stop-color="#1E1E23"/>
<stop offset="0.05" stop-color="#1F1F24"/>
<stop offset="1" stop-color="#2C2C33"/>
</linearGradient>
<linearGradient id="paint24_linear" x1="85223.7" y1="117471" x2="84473.8" y2="69763.2" gradientUnits="userSpaceOnUse">
<stop offset="0.39" stop-color="#18181C"/>
<stop offset="0.47" stop-color="#1B1B1F"/>
<stop offset="1" stop-color="#2A292D"/>
</linearGradient>
<linearGradient id="paint25_linear" x1="22604.3" y1="2627.2" x2="27628.7" y2="2627.2" gradientUnits="userSpaceOnUse">
<stop stop-color="#151516"/>
<stop offset="0.45" stop-color="#242426"/>
<stop offset="1" stop-color="#333335"/>
</linearGradient>
<linearGradient id="paint26_linear" x1="22604.3" y1="2841.26" x2="27628.7" y2="2841.26" gradientUnits="userSpaceOnUse">
<stop stop-color="#151516"/>
<stop offset="0.45" stop-color="#242426"/>
<stop offset="1" stop-color="#333335"/>
</linearGradient>
<linearGradient id="paint27_linear" x1="289.934" y1="713.406" x2="482.905" y2="384.7" gradientUnits="userSpaceOnUse">
<stop stop-color="#CECEFF"/>
<stop offset="0.51" stop-color="#FAFAFF"/>
<stop offset="1" stop-color="#D2D2FF"/>
</linearGradient>
<linearGradient id="paint28_linear" x1="383.737" y1="693.812" x2="383.737" y2="704.595" gradientUnits="userSpaceOnUse">
<stop stop-color="#434343"/>
<stop offset="1" stop-color="#1E1E23"/>
</linearGradient>
</defs>
</svg>
