<svg width="33" height="34" viewBox="0 0 33 34" fill="none" xmlns="http://www.w3.org/2000/svg">
<g clip-path="url(#clip0)">
<path d="M30.5177 9.81799L30.5167 9.79231C30.5023 9.47534 30.4928 9.13998 30.487 8.76686C30.4601 6.94732 29.0136 5.44224 27.1938 5.34053C23.3997 5.12879 20.4646 3.8916 17.9567 1.44717L17.9353 1.42677C17.1173 0.676753 15.8834 0.676753 15.0651 1.42677L15.0437 1.44717C12.5358 3.8916 9.60071 5.12879 5.80655 5.34078C3.98701 5.44224 2.54035 6.94732 2.51341 8.76711C2.50787 9.13771 2.49805 9.47307 2.4837 9.79231L2.48219 9.85198C2.40842 13.7209 2.31678 18.536 3.9276 22.9065C4.81332 25.3099 6.15475 27.399 7.91436 29.1164C9.91845 31.0721 12.5434 32.6248 15.7162 33.731C15.8194 33.767 15.9267 33.7963 16.0359 33.8182C16.19 33.8489 16.3451 33.8642 16.5002 33.8642C16.6553 33.8642 16.8106 33.8489 16.9645 33.8182C17.0737 33.7963 17.1817 33.7668 17.2855 33.7305C20.4545 32.6223 23.0767 31.0688 25.079 29.1133C26.8378 27.3955 28.1793 25.3058 29.0658 22.9019C30.6826 18.5184 30.5912 13.6942 30.5177 9.81799ZM27.249 22.232C25.55 26.8384 22.0819 30.0018 16.6465 31.9027C16.6271 31.9092 16.6064 31.915 16.585 31.9193C16.5289 31.9304 16.4717 31.9304 16.4148 31.9191C16.3937 31.9148 16.3731 31.9092 16.3539 31.9027C10.9127 30.0054 7.4423 26.8436 5.74462 22.237C4.25993 18.2085 4.34402 13.7884 4.41829 9.88899L4.4188 9.86734C4.4339 9.53224 4.44398 9.18127 4.44951 8.79556C4.4616 7.98763 5.10512 7.31918 5.91456 7.27412C8.06165 7.15427 9.9479 6.73936 11.6811 6.0057C13.412 5.27305 14.9493 4.2403 16.3804 2.84851C16.4531 2.78708 16.5475 2.78683 16.62 2.84851C18.0513 4.2403 19.5887 5.27305 21.3193 6.0057C23.0525 6.73936 24.9388 7.15427 27.0861 7.27412C27.8955 7.31918 28.5391 7.98763 28.5509 8.79581C28.5567 9.18353 28.5667 9.5345 28.5819 9.86734C28.6559 13.7713 28.7379 18.1949 27.249 22.232Z" fill="#FF6A7C"/>
<path d="M16.4999 9.14087C11.9651 9.14087 8.27588 12.8303 8.27588 17.3649C8.27588 21.8998 11.9651 25.5893 16.4999 25.5893C21.0346 25.5893 24.724 21.8998 24.724 17.3649C24.724 12.8303 21.0346 9.14087 16.4999 9.14087ZM16.4999 23.6526C13.0328 23.6526 10.2122 20.8321 10.2122 17.3649C10.2122 13.8978 13.0328 11.0772 16.4999 11.0772C19.9668 11.0772 22.7874 13.8978 22.7874 17.3649C22.7874 20.8321 19.9668 23.6526 16.4999 23.6526Z" fill="#FF6A7C"/>
<path d="M18.8635 14.8116L15.0436 18.6315L14.0068 17.5947C13.6287 17.2165 13.0156 17.2165 12.6374 17.5947C12.2595 17.9729 12.2595 18.5859 12.6374 18.9638L14.359 20.6854C14.5481 20.8745 14.7959 20.9689 15.0436 20.9689C15.2913 20.9689 15.5391 20.8745 15.7282 20.6854L20.2328 16.1808C20.6107 15.8026 20.6107 15.1895 20.2328 14.8116C19.8547 14.4332 19.2416 14.4332 18.8635 14.8116Z" fill="#FF6A7C"/>
</g>
<defs>
<clipPath id="clip0">
<rect y="0.864258" width="33" height="33" fill="white"/>
</clipPath>
</defs>
</svg>
