<svg width="89" height="89" viewBox="0 0 89 89" fill="none" xmlns="http://www.w3.org/2000/svg">
<g filter="url(#filter0_d)">
<circle cx="44.5" cy="44.5" r="39.5" stroke="url(#paint0_linear)" stroke-width="2"/>
</g>
<g clip-path="url(#clip0)">
<g filter="url(#filter1_d)">
<path d="M66 44.9229C66 39.1859 63.6867 33.9796 59.9448 30.1857C59.9156 30.1469 59.8845 30.1089 59.8491 30.0735C59.8137 30.0381 59.7759 30.007 59.737 29.9779C55.9431 26.2361 50.7369 23.9229 45 23.9229C39.2631 23.9229 34.0569 26.2362 30.2628 29.9779C30.224 30.0071 30.1861 30.0383 30.1507 30.0735C30.1153 30.1089 30.0842 30.1468 30.055 30.1857C26.3133 33.9796 24 39.1859 24 44.9229C24 50.5315 26.1839 55.8041 30.1492 59.7704C30.1498 59.7709 30.1503 59.7716 30.1509 59.7722C30.1513 59.7725 30.1516 59.7729 30.152 59.7731C30.1525 59.7737 30.1531 59.7743 30.1536 59.7748C30.3552 59.9764 30.6195 60.0771 30.8837 60.0771C31.1481 60.0771 31.4125 59.9763 31.6141 59.7745C31.6313 59.7573 31.6469 59.739 31.6626 59.7208L34.8452 56.538C35.2486 56.1346 35.2486 55.4807 34.8452 55.0774C34.4419 54.6742 33.7879 54.6742 33.3847 55.0774L30.9011 57.5611C28.005 54.3383 26.3249 50.2824 26.0938 45.9557H29.6062C30.1766 45.9557 30.639 45.4934 30.639 44.9229C30.639 44.3524 30.1766 43.8901 29.6062 43.8901H26.0941C26.3342 39.4461 28.1139 35.405 30.9078 32.2914L33.3847 34.7683C33.5863 34.9699 33.8507 35.0707 34.115 35.0707C34.3792 35.0707 34.6436 34.9699 34.8452 34.7683C35.2486 34.3648 35.2486 33.711 34.8452 33.3076L32.3685 30.8306C35.4822 28.0367 39.5232 26.257 43.9672 26.017V29.5293C43.9672 30.0998 44.4296 30.5621 45 30.5621C45.5704 30.5621 46.0328 30.0998 46.0328 29.5293V26.017C50.4768 26.257 54.5178 28.0368 57.6315 30.8307L55.1546 33.3076C54.7513 33.7111 54.7513 34.3649 55.1546 34.7683C55.3562 34.9699 55.6206 35.0707 55.8849 35.0707C56.1491 35.0707 56.4135 34.9699 56.6151 34.7683L59.092 32.2914C61.8859 35.4052 63.6658 39.4461 63.9058 43.8901H60.3935C59.8231 43.8901 59.3607 44.3524 59.3607 44.9229C59.3607 45.4934 59.8231 45.9557 60.3935 45.9557H63.9059C63.6749 50.2824 61.9949 54.3385 59.0988 57.5612L56.6151 55.0774C56.2119 54.6742 55.558 54.6742 55.1546 55.0774C54.7513 55.4809 54.7513 56.1347 55.1546 56.538L58.3886 59.772C58.5902 59.9736 58.8546 60.0744 59.1189 60.0744C59.2509 60.0744 59.3831 60.0492 59.5075 59.9988C59.6318 59.9484 59.7483 59.8728 59.8493 59.772C63.8156 55.8056 66 50.532 66 44.9229Z" fill="#F9F9F9"/>
</g>
<g filter="url(#filter2_d)">
<path d="M49.7446 33.0792C49.2148 32.867 48.6139 33.1242 48.4018 33.6538L45.4173 41.1037C45.2782 41.0888 45.1392 41.0786 44.9999 41.0786C43.5463 41.0786 42.2333 41.8838 41.573 43.1798C40.8828 44.5347 41.0597 46.1536 42.0456 47.51C42.1464 47.6487 42.2731 47.7755 42.4127 47.877C43.2138 48.4593 44.1084 48.7671 44.9999 48.7671C46.4536 48.7671 47.7667 47.9619 48.4269 46.6659C49.117 45.311 48.9402 43.6923 47.9549 42.3368C47.8541 42.1977 47.7272 42.0705 47.5871 41.9686C47.5118 41.9138 47.4348 41.8638 47.3579 41.814L50.3192 34.4218C50.5313 33.8925 50.274 33.2913 49.7446 33.0792ZM46.5862 45.7282C46.2803 46.3285 45.6725 46.7014 44.9998 46.7014C44.5586 46.7014 44.1145 46.5473 43.6793 46.2432C43.1836 45.5314 43.0863 44.7597 43.4136 44.1173C43.7193 43.5171 44.3271 43.1442 44.9999 43.1442C45.2145 43.1442 45.4296 43.1814 45.6441 43.2537C45.6511 43.2566 45.6576 43.2603 45.6648 43.2632C45.6874 43.2721 45.7101 43.2794 45.7328 43.2867C45.9297 43.3623 46.1258 43.4664 46.3203 43.6022C46.8159 44.314 46.9133 45.0858 46.5862 45.7282Z" fill="#F9F9F9"/>
</g>
</g>
<defs>
<filter id="filter0_d" x="0" y="0" width="89" height="89" filterUnits="userSpaceOnUse" color-interpolation-filters="sRGB">
<feFlood flood-opacity="0" result="BackgroundImageFix"/>
<feColorMatrix in="SourceAlpha" type="matrix" values="0 0 0 0 0 0 0 0 0 0 0 0 0 0 0 0 0 0 127 0"/>
<feOffset/>
<feGaussianBlur stdDeviation="2"/>
<feColorMatrix type="matrix" values="0 0 0 0 1 0 0 0 0 1 0 0 0 0 1 0 0 0 0.6 0"/>
<feBlend mode="normal" in2="BackgroundImageFix" result="effect1_dropShadow"/>
<feBlend mode="normal" in="SourceGraphic" in2="effect1_dropShadow" result="shape"/>
</filter>
<filter id="filter1_d" x="20" y="19.9229" width="50" height="44.1541" filterUnits="userSpaceOnUse" color-interpolation-filters="sRGB">
<feFlood flood-opacity="0" result="BackgroundImageFix"/>
<feColorMatrix in="SourceAlpha" type="matrix" values="0 0 0 0 0 0 0 0 0 0 0 0 0 0 0 0 0 0 127 0"/>
<feOffset/>
<feGaussianBlur stdDeviation="2"/>
<feColorMatrix type="matrix" values="0 0 0 0 1 0 0 0 0 1 0 0 0 0 1 0 0 0 0.6 0"/>
<feBlend mode="normal" in2="BackgroundImageFix" result="effect1_dropShadow"/>
<feBlend mode="normal" in="SourceGraphic" in2="effect1_dropShadow" result="shape"/>
</filter>
<filter id="filter2_d" x="37.1572" y="29.0048" width="17.2363" height="23.7623" filterUnits="userSpaceOnUse" color-interpolation-filters="sRGB">
<feFlood flood-opacity="0" result="BackgroundImageFix"/>
<feColorMatrix in="SourceAlpha" type="matrix" values="0 0 0 0 0 0 0 0 0 0 0 0 0 0 0 0 0 0 127 0"/>
<feOffset/>
<feGaussianBlur stdDeviation="2"/>
<feColorMatrix type="matrix" values="0 0 0 0 1 0 0 0 0 1 0 0 0 0 1 0 0 0 0.6 0"/>
<feBlend mode="normal" in2="BackgroundImageFix" result="effect1_dropShadow"/>
<feBlend mode="normal" in="SourceGraphic" in2="effect1_dropShadow" result="shape"/>
</filter>
<linearGradient id="paint0_linear" x1="44.5" y1="4" x2="44.5" y2="85" gradientUnits="userSpaceOnUse">
<stop stop-color="white"/>
<stop offset="1" stop-color="#F7F7F7"/>
</linearGradient>
<clipPath id="clip0">
<rect x="24" y="21" width="42" height="42" fill="white"/>
</clipPath>
</defs>
</svg>
