<svg width="89" height="89" viewBox="0 0 89 89" fill="none" xmlns="http://www.w3.org/2000/svg">
<g filter="url(#filter0_d)">
<circle cx="44.5" cy="44.5" r="39.5" stroke="url(#paint0_linear)" stroke-width="2"/>
</g>
<g filter="url(#filter1_d)">
<path d="M64.6862 44.7202C63.2819 43.5628 61.0623 43.4635 59.6055 45.027L55.989 48.9092C55.5214 47.4065 54.1179 46.3123 52.4635 46.3123H46.0097C45.52 46.3123 45.356 46.1253 44.5054 45.4699C41.262 42.6425 36.3905 42.6515 33.157 45.497L30.7848 47.5853C29.7185 47.021 28.4733 47.007 27.4012 47.5427L24.6804 48.9027C24.0725 49.207 23.8265 49.946 24.1299 50.5539L31.5123 65.3186C31.8167 65.9265 32.5557 66.1725 33.1635 65.8691L35.8844 64.5082C37.2255 63.8381 37.9719 62.4698 37.9235 61.0771H52.4634C55.1597 61.0771 57.7361 59.7893 59.3537 57.632L65.2604 49.7559C66.4063 48.2293 66.225 45.9907 64.6862 44.7202ZM34.7835 62.3074L33.1635 63.1178L26.8811 50.5539L28.502 49.7435C29.1098 49.44 29.848 49.6853 30.1523 50.2939L35.3339 60.6571C35.6374 61.2649 35.3914 62.0031 34.7835 62.3074ZM63.2917 48.2793L57.3851 56.1555C56.2293 57.6968 54.3895 58.6163 52.4635 58.6163H37.0647L32.454 49.3941L34.7827 47.3443C37.0999 45.3059 40.5943 45.3059 42.9115 47.3443C44.2764 48.5459 45.1253 48.7732 46.0096 48.7732H52.4634C53.1418 48.7732 53.6938 49.3252 53.6938 50.0035C53.6938 50.6819 53.1418 51.2339 52.4634 51.2339H46.1794C45.5002 51.2339 44.9491 51.7852 44.9491 52.4643C44.9491 53.1435 45.5003 53.6947 46.1794 53.6947H53.2879C54.3091 53.6947 55.2934 53.2665 55.989 52.5193L61.406 46.7044C61.9015 46.1728 62.661 46.2171 63.1269 46.6248C63.6141 47.0513 63.6667 47.7806 63.2917 48.2793Z" fill="#F9F9F9"/>
<path d="M64.6862 44.7202C63.2819 43.5628 61.0623 43.4635 59.6055 45.027L55.989 48.9092C55.5214 47.4065 54.1179 46.3123 52.4635 46.3123H46.0097C45.52 46.3123 45.356 46.1253 44.5054 45.4699C41.262 42.6425 36.3905 42.6515 33.157 45.497L30.7848 47.5853C29.7185 47.021 28.4733 47.007 27.4012 47.5427L24.6804 48.9027C24.0725 49.207 23.8265 49.946 24.1299 50.5539L31.5123 65.3186C31.8167 65.9265 32.5557 66.1725 33.1635 65.8691L35.8844 64.5082C37.2255 63.8381 37.9719 62.4698 37.9235 61.0771H52.4634C55.1597 61.0771 57.7361 59.7893 59.3537 57.632L65.2604 49.7559C66.4063 48.2293 66.225 45.9907 64.6862 44.7202ZM34.7835 62.3074L33.1635 63.1178L26.8811 50.5539L28.502 49.7435C29.1098 49.44 29.848 49.6853 30.1523 50.2939L35.3339 60.6571C35.6374 61.2649 35.3914 62.0031 34.7835 62.3074ZM63.2917 48.2793L57.3851 56.1555C56.2293 57.6968 54.3895 58.6163 52.4635 58.6163H37.0647L32.454 49.3941L34.7827 47.3443C37.0999 45.3059 40.5943 45.3059 42.9115 47.3443C44.2764 48.5459 45.1253 48.7732 46.0096 48.7732H52.4634C53.1418 48.7732 53.6938 49.3252 53.6938 50.0035C53.6938 50.6819 53.1418 51.2339 52.4634 51.2339H46.1794C45.5002 51.2339 44.9491 51.7852 44.9491 52.4643C44.9491 53.1435 45.5003 53.6947 46.1794 53.6947H53.2879C54.3091 53.6947 55.2934 53.2665 55.989 52.5193L61.406 46.7044C61.9015 46.1728 62.661 46.2171 63.1269 46.6248C63.6141 47.0513 63.6667 47.7806 63.2917 48.2793Z" stroke="#8983CA" stroke-width="0.5"/>
</g>
<g filter="url(#filter2_d)">
<path d="M49.8714 32.3973C50.7138 31.5139 51.2331 30.3196 51.2331 29.0046C51.2331 26.2961 49.0446 24.001 46.3115 24.001C43.5989 24.001 41.3079 26.292 41.3079 29.0046C41.3079 30.2793 41.8075 31.4826 42.7147 32.4071C40.4647 33.6687 38.8472 36.0901 38.8472 38.9298V40.1602C38.8472 40.8393 39.3984 41.3906 40.0776 41.3906H52.4635C53.1427 41.3906 53.6939 40.8393 53.6939 40.1602V38.9298C53.6938 36.1458 52.1626 33.6867 49.8714 32.3973ZM46.3115 26.4619C47.6453 26.4619 48.7723 27.6267 48.7723 29.0047C48.7723 30.3614 47.6682 31.4655 46.3115 31.4655C44.9335 31.4655 43.7687 30.3384 43.7687 29.0047C43.7687 27.6504 44.9573 26.4619 46.3115 26.4619ZM41.3079 38.9298C41.3079 36.2172 43.5989 33.9262 46.3115 33.9262C49.0249 33.9262 51.2331 36.1705 51.2331 38.9298H41.3079Z" fill="#F9F9F9"/>
<path d="M49.8714 32.3973C50.7138 31.5139 51.2331 30.3196 51.2331 29.0046C51.2331 26.2961 49.0446 24.001 46.3115 24.001C43.5989 24.001 41.3079 26.292 41.3079 29.0046C41.3079 30.2793 41.8075 31.4826 42.7147 32.4071C40.4647 33.6687 38.8472 36.0901 38.8472 38.9298V40.1602C38.8472 40.8393 39.3984 41.3906 40.0776 41.3906H52.4635C53.1427 41.3906 53.6939 40.8393 53.6939 40.1602V38.9298C53.6938 36.1458 52.1626 33.6867 49.8714 32.3973ZM46.3115 26.4619C47.6453 26.4619 48.7723 27.6267 48.7723 29.0047C48.7723 30.3614 47.6682 31.4655 46.3115 31.4655C44.9335 31.4655 43.7687 30.3384 43.7687 29.0047C43.7687 27.6504 44.9573 26.4619 46.3115 26.4619ZM41.3079 38.9298C41.3079 36.2172 43.5989 33.9262 46.3115 33.9262C49.0249 33.9262 51.2331 36.1705 51.2331 38.9298H41.3079Z" stroke="#8983CA" stroke-width="0.5"/>
</g>
<defs>
<filter id="filter0_d" x="0" y="0" width="89" height="89" filterUnits="userSpaceOnUse" color-interpolation-filters="sRGB">
<feFlood flood-opacity="0" result="BackgroundImageFix"/>
<feColorMatrix in="SourceAlpha" type="matrix" values="0 0 0 0 0 0 0 0 0 0 0 0 0 0 0 0 0 0 127 0"/>
<feOffset/>
<feGaussianBlur stdDeviation="2"/>
<feColorMatrix type="matrix" values="0 0 0 0 1 0 0 0 0 1 0 0 0 0 1 0 0 0 0.6 0"/>
<feBlend mode="normal" in2="BackgroundImageFix" result="effect1_dropShadow"/>
<feBlend mode="normal" in="SourceGraphic" in2="effect1_dropShadow" result="shape"/>
</filter>
<filter id="filter1_d" x="19.75" y="39.1061" width="50.5" height="31.143" filterUnits="userSpaceOnUse" color-interpolation-filters="sRGB">
<feFlood flood-opacity="0" result="BackgroundImageFix"/>
<feColorMatrix in="SourceAlpha" type="matrix" values="0 0 0 0 0 0 0 0 0 0 0 0 0 0 0 0 0 0 127 0"/>
<feOffset/>
<feGaussianBlur stdDeviation="2"/>
<feColorMatrix type="matrix" values="0 0 0 0 1 0 0 0 0 1 0 0 0 0 1 0 0 0 0.6 0"/>
<feBlend mode="normal" in2="BackgroundImageFix" result="effect1_dropShadow"/>
<feBlend mode="normal" in="SourceGraphic" in2="effect1_dropShadow" result="shape"/>
</filter>
<filter id="filter2_d" x="34.5972" y="19.751" width="23.3467" height="25.8896" filterUnits="userSpaceOnUse" color-interpolation-filters="sRGB">
<feFlood flood-opacity="0" result="BackgroundImageFix"/>
<feColorMatrix in="SourceAlpha" type="matrix" values="0 0 0 0 0 0 0 0 0 0 0 0 0 0 0 0 0 0 127 0"/>
<feOffset/>
<feGaussianBlur stdDeviation="2"/>
<feColorMatrix type="matrix" values="0 0 0 0 1 0 0 0 0 1 0 0 0 0 1 0 0 0 0.6 0"/>
<feBlend mode="normal" in2="BackgroundImageFix" result="effect1_dropShadow"/>
<feBlend mode="normal" in="SourceGraphic" in2="effect1_dropShadow" result="shape"/>
</filter>
<linearGradient id="paint0_linear" x1="44.5" y1="4" x2="44.5" y2="85" gradientUnits="userSpaceOnUse">
<stop stop-color="white"/>
<stop offset="1" stop-color="#F7F7F7"/>
</linearGradient>
</defs>
</svg>
