<svg width="33" height="34" viewBox="0 0 33 34" fill="none" xmlns="http://www.w3.org/2000/svg">
<g clip-path="url(#clip0)">
<path d="M31.9677 17.1445C30.8643 16.2352 29.1204 16.1572 27.9757 17.3856L25.1342 20.436C24.7668 19.2552 23.6641 18.3955 22.3642 18.3955H17.2934C16.9086 18.3955 16.7797 18.2485 16.1113 17.7336C13.563 15.5121 9.73539 15.5192 7.19477 17.7549L5.33092 19.3957C4.49309 18.9523 3.51476 18.9414 2.67236 19.3622L0.534575 20.4308C0.056977 20.6699 -0.136318 21.2506 0.102094 21.7282L5.90255 33.329C6.14167 33.8066 6.72233 33.9999 7.19993 33.7615L9.33771 32.6923C10.3915 32.1658 10.9779 31.0907 10.9399 29.9964H22.3641C24.4826 29.9964 26.5069 28.9846 27.7779 27.2896L32.4189 21.1012C33.3192 19.9017 33.1768 18.1428 31.9677 17.1445ZM8.47275 30.9631L7.19987 31.5998L2.26372 21.7282L3.53725 21.0914C4.01485 20.853 4.59486 21.0457 4.83398 21.5239L8.90523 29.6664C9.14371 30.144 8.95035 30.724 8.47275 30.9631ZM30.8721 19.941L26.2311 26.1294C25.3231 27.3404 23.8774 28.0629 22.3642 28.0629H10.2651L6.64241 20.8169L8.47211 19.2063C10.2928 17.6047 13.0384 17.6047 14.859 19.2063C15.9315 20.1505 16.5985 20.329 17.2933 20.329H22.3641C22.8972 20.329 23.3309 20.7628 23.3309 21.2958C23.3309 21.8287 22.8971 22.2625 22.3641 22.2625H17.4267C16.893 22.2625 16.46 22.6956 16.46 23.2292C16.46 23.7628 16.8931 24.196 17.4267 24.196H23.0119C23.8143 24.196 24.5877 23.8595 25.1342 23.2724L29.3904 18.7036C29.7797 18.2859 30.3765 18.3207 30.7426 18.6411C31.1254 18.9762 31.1667 19.5491 30.8721 19.941Z" fill="#FF6A7C"/>
<path d="M20.3274 7.46227C20.9893 6.76817 21.3973 5.8298 21.3973 4.79662C21.3973 2.6685 19.6778 0.865234 17.5304 0.865234C15.399 0.865234 13.599 2.66528 13.599 4.79662C13.599 5.79815 13.9915 6.74362 14.7043 7.47C12.9365 8.46123 11.6655 10.3638 11.6655 12.595V13.5617C11.6655 14.0953 12.0987 14.5285 12.6323 14.5285H22.3641C22.8977 14.5285 23.3308 14.0953 23.3308 13.5617V12.595C23.3308 10.4076 22.1276 8.47541 20.3274 7.46227ZM17.5304 2.79876C18.5783 2.79876 19.4638 3.71393 19.4638 4.79668C19.4638 5.86267 18.5964 6.73015 17.5304 6.73015C16.4476 6.73015 15.5325 5.84462 15.5325 4.79668C15.5325 3.73262 16.4663 2.79876 17.5304 2.79876ZM13.599 12.595C13.599 10.4637 15.399 8.66361 17.5304 8.66361C19.6623 8.66361 21.3973 10.4269 21.3973 12.595H13.599Z" fill="#FF6A7C"/>
</g>
<defs>
<clipPath id="clip0">
<rect y="0.864258" width="33" height="33" fill="white"/>
</clipPath>
</defs>
</svg>
