<svg width="89" height="89" viewBox="0 0 89 89" fill="none" xmlns="http://www.w3.org/2000/svg">
<g filter="url(#filter0_d)">
<circle cx="44.5" cy="44.5" r="39.5" stroke="url(#paint0_linear)" stroke-width="2"/>
</g>
<g filter="url(#filter1_d)">
<path d="M37.7083 58.9012H33.0833C32.2656 58.9012 31.4813 58.5545 30.9031 57.9375C30.3248 57.3205 30 56.4836 30 55.611V44.0956C30 43.223 30.3248 42.3862 30.9031 41.7692C31.4813 41.1522 32.2656 40.8055 33.0833 40.8055H37.7083M48.5 37.5154V30.9352C48.5 29.6263 48.0127 28.371 47.1454 27.4455C46.278 26.52 45.1016 26 43.875 26L37.7083 40.8055V58.9012H55.0983C55.8419 58.9101 56.5635 58.632 57.1301 58.1181C57.6967 57.6042 58.0701 56.8891 58.1816 56.1046L60.3091 41.299C60.3762 40.8275 60.3464 40.346 60.2218 39.888C60.0972 39.43 59.8807 39.0063 59.5874 38.6464C59.2941 38.2865 58.931 37.9989 58.5232 37.8036C58.1154 37.6084 57.6728 37.51 57.2258 37.5154H48.5Z" stroke="#F9F9F9" stroke-width="2" stroke-linecap="round" stroke-linejoin="round"/>
</g>
<defs>
<filter id="filter0_d" x="0" y="0" width="89" height="89" filterUnits="userSpaceOnUse" color-interpolation-filters="sRGB">
<feFlood flood-opacity="0" result="BackgroundImageFix"/>
<feColorMatrix in="SourceAlpha" type="matrix" values="0 0 0 0 0 0 0 0 0 0 0 0 0 0 0 0 0 0 127 0"/>
<feOffset/>
<feGaussianBlur stdDeviation="2"/>
<feColorMatrix type="matrix" values="0 0 0 0 1 0 0 0 0 1 0 0 0 0 1 0 0 0 0.6 0"/>
<feBlend mode="normal" in2="BackgroundImageFix" result="effect1_dropShadow"/>
<feBlend mode="normal" in="SourceGraphic" in2="effect1_dropShadow" result="shape"/>
</filter>
<filter id="filter1_d" x="25" y="21" width="40.3441" height="42.9014" filterUnits="userSpaceOnUse" color-interpolation-filters="sRGB">
<feFlood flood-opacity="0" result="BackgroundImageFix"/>
<feColorMatrix in="SourceAlpha" type="matrix" values="0 0 0 0 0 0 0 0 0 0 0 0 0 0 0 0 0 0 127 0"/>
<feOffset/>
<feGaussianBlur stdDeviation="2"/>
<feColorMatrix type="matrix" values="0 0 0 0 1 0 0 0 0 1 0 0 0 0 1 0 0 0 0.6 0"/>
<feBlend mode="normal" in2="BackgroundImageFix" result="effect1_dropShadow"/>
<feBlend mode="normal" in="SourceGraphic" in2="effect1_dropShadow" result="shape"/>
</filter>
<linearGradient id="paint0_linear" x1="44.5" y1="4" x2="44.5" y2="85" gradientUnits="userSpaceOnUse">
<stop stop-color="white"/>
<stop offset="1" stop-color="#F7F7F7"/>
</linearGradient>
</defs>
</svg>
